<svg width="29" height="29" viewBox="0 0 29 29" fill="none" xmlns="http://www.w3.org/2000/svg">
<path fill-rule="evenodd" clip-rule="evenodd" d="M18.166 10.8348C17.4411 10.1099 16.5174 9.61616 15.5118 9.41615C14.5063 9.21614 13.464 9.3188 12.5168 9.71115C11.5696 10.1035 10.76 10.7679 10.1904 11.6204C9.62085 12.4728 9.31683 13.4751 9.31683 14.5003C9.31683 15.5255 9.62085 16.5278 10.1904 17.3802C10.76 18.2327 11.5696 18.8971 12.5168 19.2895C13.464 19.6818 14.5063 19.7845 15.5118 19.5845C16.5174 19.3844 17.4411 18.8908 18.166 18.1658C19.138 17.1936 19.6841 15.8751 19.6841 14.5003C19.6841 13.1255 19.138 11.807 18.166 10.8348ZM14.5002 8.19648C15.7471 8.19648 16.9659 8.56623 18.0027 9.25895C19.0394 9.95168 19.8474 10.9363 20.3245 12.0882C20.8016 13.2402 20.9265 14.5078 20.6832 15.7307C20.4399 16.9536 19.8394 18.0768 18.9577 18.9585C18.076 19.8401 16.9527 20.4404 15.7298 20.6836C14.5068 20.9268 13.2393 20.8019 12.0874 20.3247C10.9355 19.8474 9.95093 19.0393 9.25829 18.0025C8.56565 16.9658 8.19602 15.7469 8.19613 14.5C8.19628 12.8282 8.86053 11.2248 10.0428 10.0427C11.225 8.86058 12.8284 8.19648 14.5002 8.19648ZM8.82371 3.12885C10.6993 2.60812 12.5133 1.8865 14.234 0.976502C14.3148 0.932741 14.4051 0.90954 14.497 0.908947C14.5888 0.908355 14.6794 0.930388 14.7608 0.973104C16.4831 1.88518 18.299 2.60834 20.1768 3.12998C22.0736 3.65391 24.0199 3.9787 25.9841 4.0991C26.0578 4.09873 26.1308 4.11293 26.199 4.1409C26.2671 4.16887 26.3291 4.21005 26.3813 4.26207C26.4334 4.31409 26.4748 4.37591 26.503 4.44398C26.5312 4.51206 26.5456 4.58503 26.5454 4.65871V11.5978V11.6017C26.5041 15.8645 25.5049 19.3145 23.5287 22.0378C21.5526 24.761 18.6084 26.7429 14.6798 28.0632C14.5648 28.102 14.4402 28.102 14.3252 28.0632C10.3966 26.7429 7.45414 24.7627 5.47625 22.0378C3.50572 19.3258 2.50715 15.8928 2.45787 11.655C2.45675 11.6361 2.45675 11.6172 2.45787 11.5983V4.65871C2.4579 4.51625 2.51232 4.37918 2.61001 4.27549C2.7077 4.1718 2.84129 4.10931 2.9835 4.1008C4.95884 3.98173 6.91627 3.65597 8.82371 3.12885ZM14.5002 2.09572C17.9185 3.85894 21.5984 4.87508 25.4256 5.1781V11.5978C25.3854 15.6147 24.456 18.8478 22.6185 21.3813C20.8106 23.8735 18.1099 25.7007 14.498 26.944C10.886 25.7007 8.18537 23.8723 6.3774 21.3813C4.54848 18.8579 3.61957 15.6374 3.57312 11.6397C3.57312 11.6261 3.57312 11.6119 3.57312 11.5978V5.17924C7.40203 4.87621 11.082 3.86008 14.5002 2.09572ZM16.5081 12.3477C16.6091 12.2392 16.749 12.1753 16.8971 12.17C17.0451 12.1647 17.1893 12.2184 17.2977 12.3194C17.4062 12.4203 17.4701 12.5602 17.4754 12.7083C17.4807 12.8563 17.427 13.0005 17.326 13.1089L14.0256 16.6586C13.9707 16.7181 13.9036 16.7649 13.8289 16.7958C13.7542 16.8268 13.6736 16.8411 13.5928 16.8378C13.512 16.8345 13.4328 16.8137 13.3609 16.7768C13.2889 16.7399 13.2258 16.6878 13.176 16.624L11.6682 14.9531C11.6191 14.8988 11.5811 14.8354 11.5565 14.7664C11.5319 14.6975 11.5211 14.6243 11.5248 14.5512C11.5284 14.4781 11.5465 14.4064 11.5778 14.3402C11.6092 14.274 11.6533 14.2147 11.7076 14.1656C11.8172 14.0663 11.9618 14.0147 12.1095 14.0221C12.1826 14.0258 12.2543 14.0438 12.3205 14.0752C12.3867 14.1065 12.446 14.1506 12.4952 14.2049L13.6195 15.4471L16.5081 12.3477Z" fill="black"/>
</svg>
