<svg width="35" height="34" viewBox="0 0 35 34" fill="none" xmlns="http://www.w3.org/2000/svg">
<path d="M33.7159 2.83288H32.5153C32.0475 2.83288 31.6534 3.14152 31.5344 3.56016H31.0838C30.9781 3.56016 30.901 3.52919 30.8263 3.45645L28.7768 1.46392C28.2862 0.981025 27.7774 0.928525 27.442 0.927432H27.268V0.478516C27.268 0.214238 27.0476 0 26.7758 0H17.3672C17.0954 0 16.875 0.214238 16.875 0.478516V3.71116C16.875 3.97544 17.0954 4.18968 17.3672 4.18968H18.2723C18.7615 4.18968 19.1594 4.57659 19.1594 5.05217C19.1594 5.52774 18.7615 5.91459 18.2723 5.91459H17.3672C17.0954 5.91459 16.875 6.12883 16.875 6.39311V6.70414H7.9586C7.68677 6.70414 7.46641 6.91838 7.46641 7.18266V16.33C7.46641 16.5942 7.68677 16.8085 7.9586 16.8085H11.2836C11.5554 16.8085 11.7758 16.5942 11.7758 16.33V15.45C11.7758 14.9744 12.1737 14.5875 12.6629 14.5875C13.152 14.5875 13.5499 14.9744 13.5499 15.45V16.33C13.5499 16.5942 13.7703 16.8085 14.0421 16.8085H14.8146C14.6718 17.0653 14.5905 17.359 14.5905 17.6709C14.5905 18.6741 15.4301 19.4904 16.462 19.4904H16.875V19.8211H14.5343V19.4197C14.5343 18.4164 13.6948 17.6002 12.6629 17.6002C11.631 17.6002 10.7914 18.4164 10.7914 19.4197V19.8211H7.9586C7.68677 19.8211 7.46641 20.0354 7.46641 20.2997V25.1866H7.29401C7.29098 25.1866 7.28796 25.1866 7.28494 25.1866C6.94631 25.1866 6.44393 25.2444 5.95976 25.721L3.90804 27.7157C3.8333 27.7884 3.75623 27.8194 3.65048 27.8194H3.19992C3.08102 27.4008 2.68685 27.0921 2.21906 27.0921H1.01855C0.456961 27.0921 0 27.5363 0 28.0824V32.7793C0 33.3253 0.456961 33.7695 1.01855 33.7695H2.21913C2.68692 33.7695 3.08102 33.4609 3.19999 33.0423H6.71154C6.71428 33.0423 6.71702 33.0423 6.71977 33.0422C7.51725 33.0292 8.12749 32.7466 8.66813 32.4431L12.2017 30.4596C12.4403 30.3257 12.639 30.143 12.7871 29.9254H17.3672C17.639 29.9254 17.8594 29.7112 17.8594 29.4469V26.2142C17.8594 25.9499 17.639 25.7357 17.3672 25.7357H16.4621C15.9729 25.7357 15.575 25.3488 15.575 24.8732C15.575 24.3977 15.9729 24.0108 16.4621 24.0108H17.3672C17.639 24.0108 17.8594 23.7966 17.8594 23.5323V22.723H26.7758C27.0477 22.723 27.268 22.5088 27.268 22.2445V13.0973C27.268 12.833 27.0477 12.6188 26.7758 12.6188H23.4508C23.1789 12.6188 22.9586 12.833 22.9586 13.0973V13.9773C22.9586 14.4529 22.5607 14.8397 22.0715 14.8397C21.5824 14.8397 21.1845 14.4529 21.1845 13.9773V13.0973C21.1845 12.833 20.9641 12.6188 20.6923 12.6188H19.9198C20.0626 12.362 20.1439 12.0682 20.1439 11.7564C20.1439 11.0248 19.6971 10.393 19.0552 10.1043H20.2001V10.5058C20.2001 11.5091 21.0397 12.3253 22.0716 12.3253C23.1035 12.3253 23.943 11.5091 23.943 10.5058V10.1043H26.7758C27.0477 10.1043 27.268 9.8901 27.268 9.62582V8.68759C27.4987 8.74357 27.746 8.77857 28.0147 8.78302C28.0174 8.78309 28.0202 8.78309 28.0229 8.78309H31.5345C31.6534 9.20165 32.0475 9.51036 32.5154 9.51036H33.716C34.2775 9.51036 34.7344 9.06616 34.7344 8.52018V3.8232C34.7344 3.27708 34.2774 2.83288 33.7159 2.83288ZM2.25316 32.7793C2.25316 32.7971 2.2372 32.8125 2.21913 32.8125H1.01855C1.00034 32.8125 0.984445 32.797 0.984445 32.7793V28.0824C0.984445 28.0647 1.00041 28.0492 1.01855 28.0492H2.21913C2.23727 28.0492 2.25316 28.0647 2.25316 28.0824V32.7793ZM12.0692 29.173C12.0154 29.3683 11.8877 29.5308 11.7096 29.6308L8.17601 31.6144C7.76187 31.8467 7.30737 32.0745 6.70718 32.0853H3.23754V28.7765H3.65048C4.0159 28.7765 4.34566 28.6437 4.60406 28.3925L6.65789 26.3957C6.87031 26.1866 7.05586 26.1437 7.28677 26.1437H7.29246H7.46641V29.447C7.46641 29.618 7.56035 29.776 7.71272 29.8614C7.86509 29.9469 8.05282 29.9468 8.20505 29.8611L10.9347 28.3259C11.1127 28.2259 11.3214 28.1997 11.5222 28.2521C11.7231 28.3045 11.8904 28.4286 11.9933 28.6017C12.0961 28.7749 12.1231 28.9777 12.0692 29.173ZM16.875 22.2445V23.0538H16.4621C15.4301 23.0538 14.5906 23.87 14.5906 24.8732C14.5906 25.8765 15.4301 26.6927 16.4621 26.6927H16.875V28.9684H13.0811C13.0803 28.674 13.0007 28.384 12.8458 28.1232C12.6115 27.7287 12.2321 27.4462 11.7771 27.3277C11.3223 27.2092 10.8483 27.2693 10.4422 27.4973L8.45086 28.6173V20.7782H11.2837C11.5555 20.7782 11.7759 20.5639 11.7759 20.2997V19.4197C11.7759 18.9441 12.1738 18.5572 12.6629 18.5572C13.1521 18.5572 13.55 18.9441 13.55 19.4197V20.2997C13.55 20.5639 13.7704 20.7782 14.0422 20.7782H16.875V22.2445ZM22.0715 15.7968C23.1034 15.7968 23.943 14.9805 23.943 13.9773V13.5758H26.2837V21.766H17.8594V19.0119C17.8594 18.7476 17.639 18.5334 17.3672 18.5334H16.4621C15.9729 18.5334 15.575 18.1465 15.575 17.671C15.575 17.1954 15.9729 16.8085 16.4621 16.8085H17.3672C17.639 16.8085 17.8594 16.5943 17.8594 16.33V13.5759H18.2723H20.2V13.9774C20.2001 14.9805 21.0396 15.7968 22.0715 15.7968ZM18.2724 12.6188H17.3672C17.0954 12.6188 16.875 12.833 16.875 13.0973V15.8514H14.5343V15.45C14.5343 14.4467 13.6948 13.6305 12.6629 13.6305C11.631 13.6305 10.7914 14.4467 10.7914 15.45V15.8514H8.45079V7.66117H16.875V9.62575V10.4154C16.875 10.6796 17.0954 10.8939 17.3672 10.8939H18.2723C18.7615 10.8939 19.1594 11.2807 19.1594 11.7563C19.1594 12.2319 18.7616 12.6188 18.2724 12.6188ZM26.2836 9.1473H23.4508C23.1789 9.1473 22.9586 9.36154 22.9586 9.62582V10.5058C22.9586 10.9814 22.5607 11.3682 22.0715 11.3682C21.5824 11.3682 21.1845 10.9814 21.1845 10.5058V9.62582C21.1845 9.36154 20.9641 9.1473 20.6923 9.1473H17.8594V6.87169H18.2723C19.3042 6.87169 20.1438 6.05548 20.1438 5.05224C20.1438 4.04893 19.3042 3.23271 18.2723 3.23271H17.8594V0.957031H26.2836V4.35812L24.2918 3.23784C23.8861 3.01014 23.4121 2.94998 22.9573 3.06845C22.5024 3.18691 22.1229 3.46944 21.8888 3.86395C21.6545 4.25845 21.5925 4.71919 21.7145 5.16141C21.8363 5.60362 22.1269 5.97256 22.5327 6.2004L26.0665 8.18392C26.1376 8.22384 26.2099 8.26335 26.2837 8.30204V9.1473H26.2836ZM26.5585 7.35513L23.0247 5.37168C22.8467 5.27167 22.719 5.10911 22.6652 4.91381C22.6114 4.71851 22.6383 4.51562 22.7412 4.34246C22.8439 4.16944 23.0112 4.04523 23.2121 3.99294C23.4128 3.94071 23.6216 3.96683 23.7993 4.06649L26.5293 5.60191C26.6816 5.68764 26.8693 5.68771 27.0217 5.60226C27.1741 5.51681 27.268 5.35876 27.268 5.18779V1.88446H27.4435C27.6739 1.88419 27.8624 1.92562 28.0787 2.13849L30.1303 4.13314C30.3887 4.38443 30.7184 4.51719 31.0839 4.51719H31.4968V7.82599H28.0272C27.4269 7.81525 26.9725 7.58755 26.5585 7.35513ZM33.75 8.52011C33.75 8.53781 33.734 8.55326 33.716 8.55326H32.5153C32.4971 8.55326 32.4812 8.53774 32.4812 8.52011V3.82313C32.4812 3.80543 32.4972 3.78998 32.5153 3.78998H33.7159C33.734 3.78998 33.7499 3.8055 33.7499 3.82313V8.52011H33.75Z" fill="black"/>
</svg>
