<svg width="31" height="31" viewBox="0 0 31 31" fill="none" xmlns="http://www.w3.org/2000/svg">
<path d="M27.6903 4.84373L23.9619 2.86621L23.5078 3.72204L27.3427 5.75599C27.4126 5.79308 27.4906 5.81248 27.5697 5.81248H29.9916V4.84373H27.6903Z" fill="black"/>
<path d="M27.5255 9.6895L24.6132 9.95421C23.9383 10.014 23.2588 9.9164 22.6281 9.66911C21.9973 9.42182 21.4325 9.03157 20.9781 8.52906L19.4714 6.85475C19.243 6.601 19.1113 6.27496 19.0994 5.93382C19.0874 5.59268 19.1959 5.25821 19.4058 4.98906L21.9725 6.70012C22.0254 6.73615 22.0849 6.76134 22.1476 6.77423C22.2103 6.78712 22.275 6.78745 22.3378 6.77521C22.4006 6.76297 22.4604 6.73839 22.5137 6.7029C22.5669 6.66742 22.6127 6.62172 22.6482 6.56846C22.6837 6.5152 22.7083 6.45543 22.7205 6.39261C22.7328 6.32978 22.7325 6.26515 22.7196 6.20244C22.7068 6.13973 22.6816 6.0802 22.6456 6.02728C22.6096 5.97436 22.5634 5.9291 22.5098 5.89412L19.6036 3.95662L19.6027 3.95595L19.6021 3.95559C19.5222 3.90271 19.4284 3.87467 19.3326 3.875H14.0071C13.4524 3.87479 12.9152 3.6812 12.4879 3.32756C12.0606 2.97391 11.7699 2.48235 11.666 1.9375H20.1426L22.5384 3.20826L22.9925 2.35243L20.4903 1.02524C20.4204 0.988133 20.3424 0.968736 20.2633 0.96875H11.1409C11.0136 0.968738 10.8914 1.01885 10.8008 1.10824C10.7102 1.19763 10.6583 1.31911 10.6566 1.4464C10.6504 1.89032 10.7325 2.33103 10.8981 2.74294C11.0637 3.15485 11.3096 3.52974 11.6213 3.84584C11.933 4.16193 12.3045 4.41293 12.7141 4.58424C13.1236 4.75555 13.5632 4.84376 14.0071 4.84375H18.3632C18.1582 5.2758 18.0857 5.75888 18.1548 6.23208C18.2239 6.70529 18.4315 7.14745 18.7515 7.50285L20.2583 9.17709C20.7597 9.73161 21.3717 10.175 22.0549 10.4788C22.738 10.7825 23.4772 10.9399 24.2248 10.9408C24.3832 10.9408 24.5419 10.9336 24.7008 10.9193L27.5912 10.6562H29.9911V9.6875H27.5693C27.5549 9.6875 27.54 9.68817 27.5255 9.6895Z" fill="black"/>
<path d="M16.9938 26.1562H15.0166V27.125H16.9938C17.5485 27.1252 18.0858 27.3188 18.5131 27.6724C18.9404 28.0261 19.231 28.5177 19.3349 29.0625H10.8584L3.65863 25.244C3.58872 25.2069 3.51078 25.1875 3.43164 25.1875H1.00977V26.1562H3.31115L10.5107 29.9748C10.5806 30.0119 10.6585 30.0313 10.7377 30.0312H19.8603C19.9876 30.0313 20.1098 29.9812 20.2005 29.8918C20.2911 29.8024 20.3429 29.6809 20.3447 29.5536C20.3509 29.1097 20.2687 28.6689 20.1031 28.257C19.9375 27.8451 19.6916 27.4702 19.3799 27.1541C19.0681 26.838 18.6966 26.587 18.287 26.4157C17.8774 26.2444 17.4378 26.1562 16.9938 26.1562Z" fill="black"/>
<path d="M3.47548 21.3106L6.38778 21.0459C7.06264 20.986 7.74217 21.0836 8.37292 21.3309C9.00368 21.5782 9.56846 21.9685 10.0228 22.471L11.5296 24.1453C11.758 24.3991 11.8898 24.7251 11.9018 25.0663C11.9138 25.4075 11.8053 25.7421 11.5953 26.0112L9.02847 24.3002C8.97557 24.2642 8.91604 24.239 8.85334 24.2261C8.79064 24.2132 8.72601 24.2129 8.66317 24.2251C8.60034 24.2373 8.54056 24.2619 8.48729 24.2974C8.43401 24.3329 8.3883 24.3786 8.35279 24.4318C8.31728 24.4851 8.29268 24.5449 8.28041 24.6077C8.26815 24.6705 8.26845 24.7352 8.28132 24.7979C8.29418 24.8606 8.31934 24.9201 8.35535 24.973C8.39137 25.0259 8.43751 25.0712 8.49112 25.1062L11.3974 27.0437L11.3983 27.0444L11.3989 27.0448C11.4781 27.0972 11.571 27.1251 11.6659 27.1251H14.0478V26.1563H12.6377C12.8427 25.7243 12.9153 25.2412 12.8462 24.768C12.7771 24.2948 12.5695 23.8526 12.2494 23.4972L10.7427 21.823C10.1873 21.2088 9.49703 20.7318 8.72613 20.4296C7.95524 20.1273 7.12474 20.008 6.29993 20.081L3.40972 20.3438H1.00977V21.3126H3.43164C3.44605 21.3126 3.46095 21.3119 3.47548 21.3106Z" fill="black"/>
<path d="M17.4375 9.20312H13.5625C13.434 9.20312 13.3108 9.25416 13.22 9.34499C13.1292 9.43583 13.0781 9.55904 13.0781 9.6875V13.0781H12.1094V14.0469H13.5625C13.691 14.0469 13.8142 13.9958 13.905 13.905C13.9958 13.8142 14.0469 13.691 14.0469 13.5625V10.1719H16.9531V13.5625C16.9531 13.691 17.0042 13.8142 17.095 13.905C17.1858 13.9958 17.309 14.0469 17.4375 14.0469H20.8281V16.9531H17.4375C17.309 16.9531 17.1858 17.0042 17.095 17.095C17.0042 17.1858 16.9531 17.309 16.9531 17.4375V20.8281H14.0469V17.4375C14.0469 17.309 13.9958 17.1858 13.905 17.095C13.8142 17.0042 13.691 16.9531 13.5625 16.9531H10.1719V14.0469H11.1406V13.0781H9.6875C9.55904 13.0781 9.43583 13.1292 9.34499 13.22C9.25416 13.3108 9.20312 13.434 9.20312 13.5625V17.4375C9.20312 17.566 9.25416 17.6892 9.34499 17.78C9.43583 17.8708 9.55904 17.9219 9.6875 17.9219H13.0781V21.3125C13.0781 21.441 13.1292 21.5642 13.22 21.655C13.3108 21.7458 13.434 21.7969 13.5625 21.7969H17.4375C17.566 21.7969 17.6892 21.7458 17.78 21.655C17.8708 21.5642 17.9219 21.441 17.9219 21.3125V17.9219H21.3125C21.441 17.9219 21.5642 17.8708 21.655 17.78C21.7458 17.6892 21.7969 17.566 21.7969 17.4375V13.5625C21.7969 13.434 21.7458 13.3108 21.655 13.22C21.5642 13.1292 21.441 13.0781 21.3125 13.0781H17.9219V9.6875C17.9219 9.55904 17.8708 9.43583 17.78 9.34499C17.6892 9.25416 17.566 9.20312 17.4375 9.20312Z" fill="black"/>
<path d="M6.29688 15.5C6.2958 16.5307 6.46871 17.5542 6.80832 18.5273L7.72288 18.208C7.41918 17.3375 7.26459 16.422 7.26563 15.5C7.26563 10.9595 10.9595 7.26562 15.5 7.26562C15.8058 7.26566 16.1114 7.28252 16.4154 7.31612L16.5222 6.35343C16.1827 6.31581 15.8415 6.29693 15.5 6.29688C10.4254 6.29688 6.29688 10.4254 6.29688 15.5Z" fill="black"/>
<path d="M15.5007 23.7344C15.1949 23.7343 14.8893 23.7175 14.5853 23.6839L14.4785 24.6466C14.8179 24.6842 15.1592 24.7031 15.5007 24.7031C20.5753 24.7031 24.7038 20.5746 24.7038 15.5C24.7049 14.4693 24.532 13.4458 24.1924 12.4727L23.2778 12.792C23.5815 13.6625 23.7361 14.578 23.735 15.5C23.735 20.0405 20.0411 23.7344 15.5007 23.7344Z" fill="black"/>
<path d="M25.9711 12.2044C25.8928 12.2624 25.8339 12.3425 25.8019 12.4344C25.7698 12.5264 25.7663 12.6258 25.7916 12.7198C26.4136 15.0328 26.2395 17.4879 25.2975 19.69C24.3554 21.8922 22.7 23.7135 20.5977 24.8611L21.0617 25.7115C23.1791 24.5558 24.8853 22.771 25.9444 20.6036C27.0035 18.4363 27.3632 15.9935 26.9739 13.6128L28.3226 14.4574L28.8368 13.6364L26.5164 12.1832C26.4339 12.1316 26.3377 12.106 26.2404 12.1097C26.1432 12.1135 26.0493 12.1465 25.9711 12.2044Z" fill="black"/>
<path d="M4.62333 18.4062C4.69585 18.4062 4.76743 18.3899 4.83282 18.3586C4.8982 18.3272 4.95571 18.2816 5.0011 18.225C5.04649 18.1685 5.07861 18.1025 5.09508 18.0319C5.11155 17.9612 5.11195 17.8878 5.09626 17.817C4.57452 15.4711 4.86058 13.0176 5.90808 10.8547C6.95557 8.69166 8.70305 6.94597 10.8671 5.90068L10.4455 5.02881C8.2438 6.09424 6.43365 7.82606 5.27194 9.97847C4.11023 12.1309 3.65598 14.5945 3.97366 17.0197L2.16804 16.0427L1.70703 16.8947L4.39289 18.3478C4.46365 18.3862 4.54286 18.4062 4.62333 18.4062Z" fill="black"/>
</svg>
