<svg width="36" height="35" viewBox="0 0 36 35" fill="none" xmlns="http://www.w3.org/2000/svg">
<g clip-path="url(#clip0_111_296)">
<path d="M34.2 9.04169H5.99998V6.125C5.99998 5.15854 5.19406 4.375 4.19998 4.375H1.8C0.805922 4.375 0 5.15854 0 6.125C0 7.09146 0.805922 7.875 1.8 7.875H2.39998V10.2083H1.20002C0.537258 10.2083 0 10.7306 0 11.375V14.875C0 15.5194 0.537258 16.0417 1.20002 16.0417H2.40005V17.2084H1.20002C0.537258 17.2083 0 17.7306 0 18.375V24.7917C0 25.436 0.537258 25.9584 1.20002 25.9584H2.40005V28.875C2.40005 29.8415 3.20597 30.625 4.20005 30.625C5.19413 30.625 6.00005 29.8415 6.00005 28.875V27.7083H7.2V28.875C7.2 29.5194 7.73726 30.0417 8.40002 30.0417H16.2C16.8628 30.0417 17.4 29.5194 17.4 28.875V27.7083H18.6V28.875C18.6 29.5194 19.1373 30.0417 19.8001 30.0417H33.6001C34.2629 30.0417 34.8001 29.5194 34.8001 28.875V27.601C35.5167 27.3547 35.997 26.6973 36.0001 25.9583V10.7917C36 9.82516 35.1942 9.04169 34.2 9.04169ZM1.20002 14.875V11.375H2.40005V14.875H1.20002ZM1.20002 24.7917V18.375H2.40005V24.7917H1.20002ZM4.80002 28.875C4.80002 29.1972 4.53136 29.4583 4.20005 29.4583C3.86873 29.4583 3.60007 29.1972 3.60007 28.875V7.29169C3.60007 6.96951 3.33141 6.70838 3.00009 6.70838H1.8C1.46862 6.70838 1.20002 6.44718 1.20002 6.12507C1.20002 5.80296 1.46869 5.54176 1.8 5.54176H4.19998C4.53136 5.54176 4.79995 5.80296 4.79995 6.12507L4.80002 28.875ZM8.40002 27.7083H10.2V28.875H8.40002V27.7083ZM11.4 28.875V27.7083H13.2V28.875H11.4ZM16.2 28.875H14.4V27.7083H16.2V28.875ZM19.8 27.7083H21.6V28.875H19.8V27.7083ZM22.8 27.7083H24.6V28.875H22.8V27.7083ZM25.8 28.875V27.7083H27.6V28.875H25.8ZM28.8 28.875V27.7083H30.6V28.875H28.8ZM33.6 28.875H31.8V27.7083H33.6V28.875ZM34.8 25.9583C34.8 26.2805 34.5314 26.5416 34.2 26.5416H5.99998V10.2083H34.2C34.5314 10.2083 34.8 10.4695 34.8 10.7916V25.9583Z" fill="black"/>
<path d="M14.4 15.4583C15.0627 15.4583 15.6 15.9806 15.6 16.625C15.6 16.9472 15.8686 17.2083 16.2 17.2083C16.5314 17.2083 16.8 16.9471 16.8 16.625C16.8 15.3364 15.7254 14.2917 14.4 14.2917C13.0745 14.2917 12 15.3364 12 16.625V20.125C12 21.4136 13.0745 22.4583 14.4 22.4583C15.7254 22.4583 16.8 21.4136 16.8 20.125V18.9583C16.8 18.6361 16.5313 18.375 16.2 18.375H15C14.6686 18.375 14.4 18.6361 14.4 18.9583C14.4 19.2805 14.6686 19.5416 15 19.5416H15.5999V20.1249C15.5999 20.7693 15.0627 21.2916 14.3999 21.2916C13.7371 21.2916 13.1999 20.7693 13.1999 20.1249V16.6249C13.2 15.9806 13.7372 15.4583 14.4 15.4583Z" fill="black"/>
<path d="M20.4 14.2917H18.6C18.2686 14.2917 18 14.5529 18 14.875V21.875C18 22.1972 18.2687 22.4583 18.6 22.4583C18.9313 22.4583 19.2 22.1971 19.2 21.875V18.9583H20.4C21.7254 18.9583 22.8 17.9136 22.8 16.625C22.8 15.3364 21.7255 14.2917 20.4 14.2917ZM20.4 17.7917H19.2V15.4584H20.4C21.0627 15.4584 21.6 15.9807 21.6 16.6251C21.6 17.2694 21.0627 17.7917 20.4 17.7917Z" fill="black"/>
<path d="M28.2 14.2917C27.8686 14.2917 27.6 14.5529 27.6 14.875V20.125C27.6 20.7694 27.0627 21.2917 26.4 21.2917C25.7372 21.2917 25.2 20.7694 25.2 20.125V14.875C25.2 14.5528 24.9313 14.2917 24.6 14.2917C24.2686 14.2917 24 14.5529 24 14.875V20.125C24 21.4136 25.0745 22.4583 26.4 22.4583C27.7254 22.4583 28.8 21.4136 28.8 20.125V14.875C28.8 14.5528 28.5314 14.2917 28.2 14.2917Z" fill="black"/>
<path d="M9.5992 11.375H7.7992C7.46781 11.375 7.19922 11.6362 7.19922 11.9583V13.7083C7.19922 14.0305 7.46788 14.2916 7.7992 14.2916C8.13058 14.2916 8.39917 14.0304 8.39917 13.7083V12.5416H9.5992C9.93058 12.5416 10.1992 12.2804 10.1992 11.9583C10.1992 11.6362 9.93058 11.375 9.5992 11.375Z" fill="black"/>
</g>
<defs>
<clipPath id="clip0_111_296">
<rect width="36" height="35" fill="white"/>
</clipPath>
</defs>
</svg>
