<svg width="35" height="36" viewBox="0 0 35 36" fill="none" xmlns="http://www.w3.org/2000/svg">
<path d="M28.1481 31.764H6.85352C5.34578 31.764 4.11914 30.5023 4.11914 28.9515V7.04846C4.11914 5.49765 5.34578 4.23596 6.85352 4.23596H28.1481C29.6559 4.23596 30.8825 5.49765 30.8825 7.04846V28.9515C30.8825 30.5023 29.6559 31.764 28.1481 31.764ZM6.85352 5.64221C6.09965 5.64221 5.48633 6.27306 5.48633 7.04846V28.9515C5.48633 29.7269 6.09965 30.3578 6.85352 30.3578H28.1481C28.902 30.3578 29.5153 29.7269 29.5153 28.9515V7.04846C29.5153 6.27306 28.902 5.64221 28.1481 5.64221H6.85352Z" fill="black"/>
<path d="M26.7667 28.234H8.23438C7.85689 28.234 7.55078 27.9192 7.55078 27.5309V8.46906C7.55078 8.08072 7.85689 7.76593 8.23438 7.76593H26.7667C27.1442 7.76593 27.4503 8.08072 27.4503 8.46906V27.5309C27.4503 27.9192 27.1442 28.234 26.7667 28.234ZM8.91797 26.8278H26.0831V9.17218H8.91797V26.8278Z" fill="black"/>
<path d="M34.3156 13.4082H30.1973C29.8198 13.4082 29.5137 13.0934 29.5137 12.7051C29.5137 12.3167 29.8198 12.002 30.1973 12.002H34.3156C34.6931 12.002 34.9992 12.3167 34.9992 12.7051C34.9992 13.0934 34.6931 13.4082 34.3156 13.4082Z" fill="black"/>
<path d="M34.3156 16.9381H30.1973C29.8198 16.9381 29.5137 16.6233 29.5137 16.235C29.5137 15.8466 29.8198 15.5319 30.1973 15.5319H34.3156C34.6931 15.5319 34.9992 15.8466 34.9992 16.235C34.9992 16.6233 34.6931 16.9381 34.3156 16.9381Z" fill="black"/>
<path d="M34.3156 20.4681H30.1973C29.8198 20.4681 29.5137 20.1533 29.5137 19.765C29.5137 19.3767 29.8198 19.0619 30.1973 19.0619H34.3156C34.6931 19.0619 34.9992 19.3767 34.9992 19.765C34.9992 20.1533 34.6931 20.4681 34.3156 20.4681Z" fill="black"/>
<path d="M34.3156 23.9981H30.1973C29.8198 23.9981 29.5137 23.6832 29.5137 23.295C29.5137 22.9067 29.8198 22.5919 30.1973 22.5919H34.3156C34.6931 22.5919 34.9992 22.9067 34.9992 23.295C34.9992 23.6832 34.6931 23.9981 34.3156 23.9981Z" fill="black"/>
<path d="M4.8019 13.4082H0.683594C0.306113 13.4082 0 13.0934 0 12.7051C0 12.3167 0.306113 12.002 0.683594 12.002H4.8019C5.17938 12.002 5.4855 12.3167 5.4855 12.7051C5.4855 13.0934 5.17945 13.4082 4.8019 13.4082Z" fill="black"/>
<path d="M4.8019 16.9381H0.683594C0.306113 16.9381 0 16.6233 0 16.235C0 15.8466 0.306113 15.5319 0.683594 15.5319H4.8019C5.17938 15.5319 5.4855 15.8466 5.4855 16.235C5.4855 16.6233 5.17945 16.9381 4.8019 16.9381Z" fill="black"/>
<path d="M4.8019 20.4681H0.683594C0.306113 20.4681 0 20.1533 0 19.765C0 19.3767 0.306113 19.0619 0.683594 19.0619H4.8019C5.17938 19.0619 5.4855 19.3767 5.4855 19.765C5.4855 20.1533 5.17945 20.4681 4.8019 20.4681Z" fill="black"/>
<path d="M4.8019 23.9981H0.683594C0.306113 23.9981 0 23.6832 0 23.295C0 22.9067 0.306113 22.5919 0.683594 22.5919H4.8019C5.17938 22.5919 5.4855 22.9067 5.4855 23.295C5.4855 23.6832 5.17945 23.9981 4.8019 23.9981Z" fill="black"/>
<path d="M22.6484 36C22.271 36 21.9648 35.6852 21.9648 35.2969V31.0609C21.9648 30.6726 22.271 30.3578 22.6484 30.3578C23.0259 30.3578 23.332 30.6726 23.332 31.0609V35.2969C23.332 35.6852 23.0259 36 22.6484 36Z" fill="black"/>
<path d="M19.2168 36C18.8393 36 18.5332 35.6852 18.5332 35.2969V31.0609C18.5332 30.6726 18.8393 30.3578 19.2168 30.3578C19.5943 30.3578 19.9004 30.6726 19.9004 31.0609V35.2969C19.9004 35.6852 19.5943 36 19.2168 36Z" fill="black"/>
<path d="M15.7832 36C15.4057 36 15.0996 35.6852 15.0996 35.2969V31.0609C15.0996 30.6726 15.4057 30.3578 15.7832 30.3578C16.1607 30.3578 16.4668 30.6726 16.4668 31.0609V35.2969C16.4668 35.6852 16.1608 36 15.7832 36Z" fill="black"/>
<path d="M12.3516 36C11.9741 36 11.668 35.6852 11.668 35.2969V31.0609C11.668 30.6726 11.9741 30.3578 12.3516 30.3578C12.729 30.3578 13.0352 30.6726 13.0352 31.0609V35.2969C13.0352 35.6852 12.7291 36 12.3516 36Z" fill="black"/>
<path d="M22.6484 5.64223C22.271 5.64223 21.9648 5.32744 21.9648 4.9391V0.703125C21.9648 0.314789 22.271 0 22.6484 0C23.0259 0 23.332 0.314789 23.332 0.703125V4.9391C23.332 5.32744 23.0259 5.64223 22.6484 5.64223Z" fill="black"/>
<path d="M19.2168 5.64223C18.8393 5.64223 18.5332 5.32744 18.5332 4.9391V0.703125C18.5332 0.314789 18.8393 0 19.2168 0C19.5943 0 19.9004 0.314789 19.9004 0.703125V4.9391C19.9004 5.32744 19.5943 5.64223 19.2168 5.64223Z" fill="black"/>
<path d="M15.7832 5.64223C15.4057 5.64223 15.0996 5.32744 15.0996 4.9391V0.703125C15.0996 0.314789 15.4057 0 15.7832 0C16.1607 0 16.4668 0.314789 16.4668 0.703125V4.9391C16.4668 5.32744 16.1608 5.64223 15.7832 5.64223Z" fill="black"/>
<path d="M12.3516 5.64223C11.9741 5.64223 11.668 5.32744 11.668 4.9391V0.703125C11.668 0.314789 11.9741 0 12.3516 0C12.729 0 13.0352 0.314789 13.0352 0.703125V4.9391C13.0352 5.32744 12.7291 5.64223 12.3516 5.64223Z" fill="black"/>
<path d="M13.3809 17.6441C13.0034 17.6441 12.6973 17.3293 12.6973 16.9409V12.705C12.6973 12.3166 13.0034 12.0018 13.3809 12.0018H16.8156V8.46899C16.8156 8.08066 17.1217 7.76587 17.4992 7.76587C17.8766 7.76587 18.1828 8.08066 18.1828 8.46899V12.705C18.1828 13.0933 17.8766 13.4081 17.4992 13.4081H14.0645V16.9409C14.0645 17.3294 13.7583 17.6441 13.3809 17.6441Z" fill="black"/>
<path d="M13.382 21.1741C12.0589 21.1741 10.9824 20.067 10.9824 18.706C10.9824 17.3451 12.0588 16.2379 13.382 16.2379C14.7051 16.2379 15.7816 17.3451 15.7816 18.706C15.7816 20.0669 14.7051 21.1741 13.382 21.1741ZM13.382 17.6441C12.8127 17.6441 12.3496 18.1205 12.3496 18.706C12.3496 19.2916 12.8127 19.7679 13.382 19.7679C13.9513 19.7679 14.4144 19.2916 14.4144 18.706C14.4144 18.1205 13.9512 17.6441 13.382 17.6441Z" fill="black"/>
<path d="M17.5 27.881C17.1225 27.881 16.8164 27.5661 16.8164 27.1779V23.2949C16.8164 22.9066 17.1225 22.5917 17.5 22.5917H20.9347V19.059C20.9347 18.6707 21.2408 18.3558 21.6183 18.3558C21.9958 18.3558 22.3019 18.6707 22.3019 19.059V23.2949C22.3019 23.6831 21.9958 23.998 21.6183 23.998H18.1836V27.1779C18.1836 27.5662 17.8775 27.881 17.5 27.881Z" fill="black"/>
<path d="M21.6184 19.7622C20.2953 19.7622 19.2188 18.6549 19.2188 17.294C19.2188 15.933 20.2952 14.8259 21.6184 14.8259C22.9415 14.8259 24.0179 15.9331 24.0179 17.294C24.0179 18.6549 22.9415 19.7622 21.6184 19.7622ZM21.6184 16.2321C21.0491 16.2321 20.5859 16.7085 20.5859 17.294C20.5859 17.8795 21.0491 18.3559 21.6184 18.3559C22.1877 18.3559 22.6507 17.8795 22.6507 17.294C22.6507 16.7084 22.1876 16.2321 21.6184 16.2321Z" fill="black"/>
</svg>
