<svg width="33" height="33" viewBox="0 0 33 33" fill="none" xmlns="http://www.w3.org/2000/svg">
<g clip-path="url(#clip0_111_250)">
<path d="M32.5302 8.66547C32.5301 8.66547 32.5301 8.66547 32.5301 8.66547L32.529 8.66438L30.3989 8.36048C30.0995 8.31783 29.8914 8.04056 29.934 7.74117C29.9545 7.5973 30.0314 7.46753 30.1476 7.38033L31.8691 6.08916C32.1111 5.9077 32.1601 5.56451 31.9786 5.32256L30.0074 2.69422C29.8259 2.45226 29.4828 2.40326 29.2408 2.58471L27.5198 3.87588C27.2789 4.0587 26.9354 4.01161 26.7526 3.77068C26.6638 3.6537 26.6257 3.50593 26.647 3.36061L26.9514 1.23057C26.9943 0.931182 26.7864 0.653769 26.4871 0.610785C26.4869 0.610785 26.4867 0.610717 26.4865 0.610717L23.2361 0.146377C22.9368 0.103393 22.6593 0.311196 22.6163 0.61058C22.6163 0.610648 22.6163 0.610648 22.6163 0.610717L22.3118 2.74076C22.2692 3.04015 21.9919 3.24829 21.6925 3.20565C21.5487 3.18519 21.4189 3.10832 21.3317 2.9921L20.0411 1.27054C19.8596 1.02858 19.5164 0.979573 19.2745 1.16102L17.629 2.3958C16.8846 2.31667 16.1339 2.31667 15.3895 2.3958C10.5143 2.95302 6.69124 6.8409 6.21602 11.7247C6.20123 11.8797 6.19576 12.0336 6.18809 12.1874H6.02382C5.764 12.1879 5.54025 12.3709 5.4883 12.6255L5.10993 14.4248L3.59425 13.3795C3.37673 13.2294 3.08296 13.2562 2.8961 13.443L1.25339 15.0857C1.0668 15.2725 1.04011 15.5659 1.18987 15.7833L2.23025 17.2963L0.430391 17.6746C0.178646 17.7298 -0.000546319 17.953 1.25149e-06 18.2107V20.401C-0.000135641 20.66 0.181315 20.8837 0.434772 20.9371L2.23464 21.3154L1.19425 22.8284C1.04449 23.0458 1.07119 23.3392 1.25777 23.526L2.90048 25.1687C3.08734 25.3555 3.38111 25.3823 3.59863 25.2322L5.11157 24.1891L5.48994 25.9889C5.54189 26.2435 5.76564 26.4265 6.02546 26.427H8.21574C8.47474 26.4271 8.69843 26.2457 8.75181 25.9922L9.13019 24.1924L10.6431 25.2328C10.8606 25.3825 11.1539 25.3558 11.3407 25.1692L12.1911 24.3161V25.8767C12.1936 26.6557 12.6109 27.3743 13.2862 27.7625V30.8048C13.2862 32.0145 14.2669 32.9951 15.4765 32.9951H17.6668C18.8765 32.9951 19.8571 32.0145 19.8571 30.8048V27.7625C20.5324 27.3743 20.9498 26.6557 20.9522 25.8767V23.7094C20.9671 22.7975 21.4442 21.9556 22.2188 21.4742C22.6732 21.1794 23.1041 20.8499 23.5077 20.4886L22.7773 19.6727C22.4162 19.9963 22.0305 20.2913 21.6235 20.5549C20.5363 21.2373 19.8707 22.4258 19.8571 23.7094V25.8767C19.8571 26.4816 19.3668 26.9718 18.7619 26.9718H14.3814C13.7765 26.9718 13.2862 26.4816 13.2862 25.8767V23.664C13.2736 22.4046 12.6185 21.2391 11.5494 20.5735C7.20938 17.8464 5.90178 12.1176 8.62882 7.77759C10.3208 5.08484 13.2737 3.4459 16.4539 3.43454C16.4458 3.45404 16.4386 3.47396 16.4326 3.49422C16.4123 3.63796 16.4499 3.78395 16.5372 3.89997L17.8278 5.62098C17.9639 5.7971 17.9769 6.03898 17.8606 6.22879C17.7487 6.41975 17.5322 6.52393 17.3131 6.49217L15.183 6.18772C14.8836 6.1448 14.6062 6.35267 14.5632 6.65199C14.5632 6.65219 14.5632 6.6524 14.5632 6.65261L14.0983 9.90462C14.0554 10.2039 14.2632 10.4814 14.5626 10.5244C14.5628 10.5244 14.563 10.5245 14.5632 10.5245L16.6932 10.8289C16.9926 10.8716 17.2008 11.1488 17.1581 11.4482C17.1376 11.5921 17.0608 11.7219 16.9446 11.8091L15.2235 13.0997C14.9816 13.2811 14.9326 13.6243 15.114 13.8663L17.0853 16.4946C17.2667 16.7366 17.6099 16.7856 17.8519 16.6041L19.5734 15.3135C19.8156 15.1324 20.1588 15.1819 20.3399 15.4241C20.4266 15.54 20.4639 15.6855 20.4435 15.8288L20.1396 17.9588C20.0966 18.2581 20.3045 18.5357 20.6038 18.5787C20.6039 18.5787 20.6039 18.5787 20.604 18.5787L23.8565 19.0436C23.8821 19.0469 23.9079 19.0485 23.9337 19.0485C24.2064 19.0488 24.4376 18.8486 24.4764 18.5787L24.7803 16.4486C24.8229 16.1493 25.1002 15.9411 25.3996 15.9837C25.5435 16.0042 25.6732 16.0811 25.7604 16.1973L27.0516 17.9183C27.2331 18.1603 27.5763 18.2093 27.8182 18.0278L30.4465 16.0566C30.6885 15.8751 30.7375 15.5319 30.5561 15.29L29.2654 13.569C29.13 13.3926 29.1169 13.1511 29.2326 12.9612C29.3422 12.7677 29.5606 12.6628 29.7802 12.6983L31.9102 13.0022C32.2095 13.0452 32.4871 12.8373 32.5301 12.538C32.5301 12.538 32.5301 12.538 32.5301 12.5379L32.9944 9.28532C33.0374 8.98594 32.8296 8.70846 32.5302 8.66547ZM14.3814 28.067H18.7619V29.1621H14.3814V28.067ZM14.3814 30.2573H18.7619V30.8048C18.7619 31.4097 18.2717 31.9 17.6668 31.9H15.4765C14.8717 31.9 14.3814 31.4097 14.3814 30.8048V30.2573ZM10.0222 20.8144C10.3212 21.0589 10.6335 21.2866 10.958 21.4961C11.4754 21.8231 11.8648 22.3178 12.0613 22.8974L10.8868 24.0697L9.74949 23.2856C9.25147 22.9424 8.56954 23.0679 8.22628 23.566C8.14401 23.6854 8.08624 23.82 8.0564 23.9618L7.76947 25.3291H6.4679L6.18097 23.964C6.0564 23.3722 5.47563 22.9933 4.88378 23.1179C4.74189 23.1477 4.60733 23.2055 4.48789 23.2878L3.35004 24.0697L2.35236 23.0742L3.13594 21.9375C3.47947 21.4397 3.35435 20.7577 2.85654 20.4141C2.73703 20.3317 2.60233 20.2738 2.46023 20.2438L1.09514 19.9564V18.6553L2.46023 18.3679C3.05188 18.2424 3.42984 17.6611 3.30438 17.0694C3.27461 16.929 3.21759 16.7959 3.13648 16.6775L2.35236 15.5375L3.35004 14.542L4.48843 15.3261C4.98665 15.669 5.66858 15.543 6.01143 15.0448C6.09357 14.9255 6.1512 14.7911 6.18097 14.6493L6.2768 14.1937C6.36455 14.8247 6.50986 15.4462 6.71102 16.0506C4.90931 16.2653 3.62286 17.9001 3.83765 19.7018C4.05243 21.5035 5.6872 22.79 7.48891 22.5752C8.57351 22.4458 9.52293 21.7859 10.0222 20.8144ZM9.1718 20.0429C8.7629 21.1794 7.51013 21.7693 6.37358 21.3605C5.23703 20.9516 4.64716 19.6988 5.05599 18.5623C5.36879 17.6928 6.19432 17.1137 7.11834 17.1156C7.12546 17.1156 7.13203 17.1156 7.13915 17.1156C7.64271 18.2013 8.33039 19.1917 9.1718 20.0429ZM31.5203 11.8392L29.9324 11.6125C29.0342 11.4842 28.2022 12.1084 28.0739 13.0065C28.0123 13.4378 28.1246 13.8759 28.386 14.2244L29.3481 15.5074L27.5959 16.8215L26.6333 15.5391C26.089 14.8132 25.0593 14.666 24.3335 15.2103C23.985 15.4716 23.7546 15.8607 23.6928 16.292L23.471 17.8822L21.3032 17.5722L21.5299 15.9843C21.6585 15.0862 21.0347 14.2539 20.1366 14.1254C19.7051 14.0636 19.2667 14.1758 18.918 14.4374L17.635 15.3995L16.3209 13.6473L17.6033 12.6846C18.3292 12.1404 18.4764 11.1107 17.9321 10.3849C17.6708 10.0364 17.2817 9.80592 16.8504 9.74419L15.2624 9.51749L15.5723 7.34966L17.1603 7.57636C18.0584 7.70497 18.8907 7.08115 19.0192 6.18306C19.081 5.75151 18.9688 5.31318 18.7072 4.96445L17.7418 3.68039L19.494 2.36623L20.4567 3.64918C21.001 4.37506 22.0306 4.52228 22.7564 3.978C23.1049 3.71667 23.3354 3.32755 23.3971 2.89627L23.6238 1.30832L25.7917 1.6177L25.565 3.20565C25.4367 4.1038 26.0608 4.93584 26.9589 5.0641C27.3902 5.12571 27.8283 5.01345 28.1769 4.75199L29.4598 3.78991L30.774 5.54213L29.491 6.50476C28.7652 7.04905 28.6179 8.07868 29.1622 8.80449C29.4235 9.15302 29.8127 9.38347 30.2439 9.44521L31.8319 9.67191L31.5203 11.8392Z" fill="black"/>
<path d="M23.5446 5.21362C21.1253 5.21362 19.1641 7.17488 19.1641 9.59418C19.1641 12.0135 21.1253 13.9747 23.5446 13.9747C25.9639 13.9747 27.9252 12.0135 27.9252 9.59418C27.9224 7.17598 25.9628 5.21629 23.5446 5.21362ZM23.5446 12.8796C21.7301 12.8796 20.2592 11.4087 20.2592 9.59418C20.2592 7.77967 21.7301 6.30876 23.5446 6.30876C25.3591 6.30876 26.83 7.77967 26.83 9.59418C26.8279 11.4078 25.3582 12.8775 23.5446 12.8796Z" fill="black"/>
<path d="M17.1186 24.234H16.0234V25.8767H17.1186V24.234Z" fill="black"/>
<path d="M14.1759 18.8563C10.7957 17.5359 9.12596 13.7252 10.4465 10.345C10.9582 9.03519 11.8765 7.9241 13.0666 7.17502L12.4812 6.24854C8.899 8.50528 7.82446 13.2387 10.0812 16.8209C10.9552 18.2082 12.251 19.2788 13.7784 19.8754C15.1303 20.3934 16.0231 21.6911 16.0234 23.1389H17.1186C17.1203 21.2394 15.9497 19.5358 14.1759 18.8563Z" fill="black"/>
<path d="M30.8076 20.401H26.9746V21.4961H30.8076V20.401Z" fill="black"/>
<path d="M26.7791 23.2654L26.0781 24.1068L29.3638 26.8442L30.0648 26.0028L26.7791 23.2654Z" fill="black"/>
<path d="M24.7846 24.7816H23.6895V28.6146H24.7846V24.7816Z" fill="black"/>
<path d="M4.93885 8.37056L0.558594 9.46552L0.824033 10.5274L5.20429 9.43243L4.93885 8.37056Z" fill="black"/>
<path d="M2.10493 2.98152L1.46875 3.87219L5.30144 6.60976L5.93762 5.71909L2.10493 2.98152Z" fill="black"/>
<path d="M7.22113 0.0045516L6.16016 0.275818L7.28008 4.65604L8.34105 4.38477L7.22113 0.0045516Z" fill="black"/>
</g>
<defs>
<clipPath id="clip0_111_250">
<rect width="33" height="33" fill="white"/>
</clipPath>
</defs>
</svg>
