<svg width="36" height="36" viewBox="0 0 36 36" fill="none" xmlns="http://www.w3.org/2000/svg">
<path d="M35.4375 3.68927H10.9167C10.6059 3.68927 10.3549 3.94099 10.3549 4.25107V15.764H1.70227C0.763594 15.764 0 16.5283 0 17.4677V21.1387C0 22.0774 0.763594 22.841 1.70227 22.841H2.57906V25.2344H1.70227C0.763594 25.2351 0 25.9987 0 26.9374V30.6084C0 31.5471 0.763594 32.3107 1.70227 32.3107H20.1305C21.0691 32.3107 21.8327 31.5471 21.8327 30.6084V29.3351H35.4375C35.7476 29.3351 35.9993 29.0833 35.9993 28.7733V4.25177C36 3.94099 35.7483 3.68927 35.4375 3.68927ZM1.1243 21.1394V17.4684C1.1243 17.1541 1.38867 16.8883 1.70227 16.8883H20.1305C20.449 16.8883 20.7084 17.1485 20.7084 17.4684V21.1394C20.7084 21.4579 20.449 21.7174 20.1305 21.7174H1.70227C1.38937 21.7174 1.1243 21.4523 1.1243 21.1394ZM3.70336 22.841H18.1315V25.2344H3.70336V22.841ZM20.7084 30.6084C20.7084 30.9269 20.449 31.1864 20.1305 31.1864H1.70227C1.38375 31.1864 1.1243 30.9269 1.1243 30.6084V26.9374C1.1243 26.6189 1.38375 26.3594 1.70227 26.3594H20.1305C20.449 26.3594 20.7084 26.6189 20.7084 26.9374V30.6084ZM34.8757 28.2108H21.8327V26.9374C21.8327 25.9987 21.0691 25.2351 20.1305 25.2351H19.2558V22.8417H20.1305C21.0691 22.8417 21.8327 22.0781 21.8327 21.1394V17.4684C21.8327 16.529 21.0691 15.764 20.1305 15.764H11.4785V4.81357H34.8757V28.2108ZM3.22523 19.3036C3.22523 18.9928 3.47695 18.7418 3.78703 18.7418H13.4037C13.7145 18.7418 13.9655 18.9935 13.9655 19.3036C13.9655 19.6136 13.7137 19.8654 13.4037 19.8654H3.78703C3.47695 19.8654 3.22523 19.6136 3.22523 19.3036ZM16.4496 19.3036C16.4496 18.9928 16.7013 18.7418 17.0114 18.7418H18.0457C18.3565 18.7418 18.6075 18.9935 18.6075 19.3036C18.6075 19.6136 18.3558 19.8654 18.0457 19.8654H17.0114C16.7013 19.8654 16.4496 19.6136 16.4496 19.3036ZM13.9662 28.7726C13.9662 29.0833 13.7145 29.3343 13.4044 29.3343H3.78703C3.47625 29.3343 3.22523 29.0826 3.22523 28.7726C3.22523 28.4625 3.47695 28.2108 3.78703 28.2108H13.4037C13.7145 28.2108 13.9662 28.4625 13.9662 28.7726ZM18.6082 28.7726C18.6082 29.0833 18.3565 29.3343 18.0464 29.3343H17.0121C16.7013 29.3343 16.4503 29.0826 16.4503 28.7726C16.4503 28.4625 16.702 28.2108 17.0121 28.2108H18.0464C18.3565 28.2108 18.6082 28.4625 18.6082 28.7726ZM23.7691 15.9201C23.5498 15.7008 23.5498 15.345 23.7691 15.1256L30.2801 8.61466H24.6649C24.3541 8.61466 24.1031 8.36294 24.1031 8.05286C24.1031 7.74279 24.3548 7.49107 24.6649 7.49107H31.6371C31.9479 7.49107 32.1989 7.74279 32.1989 8.05286V15.0251C32.1989 15.3358 31.9472 15.5868 31.6371 15.5868C31.327 15.5868 31.0753 15.3351 31.0753 15.0251V9.40989L24.5644 15.9208C24.4547 16.0305 24.3105 16.0854 24.1671 16.0854C24.023 16.0847 23.8788 16.0298 23.7691 15.9201Z" fill="black"/>
</svg>
