<svg width="34" height="34" viewBox="0 0 34 34" fill="none" xmlns="http://www.w3.org/2000/svg">
<path d="M6.83984 15.9375C7.86499 15.9375 8.69922 15.1033 8.69922 14.0781C8.69922 13.7143 8.59021 13.3771 8.40882 13.0901L12.7677 8.41985C13.0226 8.55139 13.3073 8.63281 13.6133 8.63281C13.9193 8.63281 14.204 8.55139 14.4588 8.41985L18.8177 13.0901C18.6364 13.3771 18.5273 13.7143 18.5273 14.0781C18.5273 15.1033 19.3616 15.9375 20.3867 15.9375C21.4119 15.9375 22.2461 15.1033 22.2461 14.0781C22.2461 13.7143 22.1371 13.3771 21.9557 13.0901L26.3146 8.41985C26.5695 8.55139 26.8542 8.63281 27.1602 8.63281C28.1853 8.63281 29.0195 7.79858 29.0195 6.77344C29.0195 5.74829 28.1853 4.91406 27.1602 4.91406C26.135 4.91406 25.3008 5.74829 25.3008 6.77344C25.3008 7.10534 25.3954 7.41276 25.5484 7.68279L21.1552 12.3898C20.9203 12.2824 20.6615 12.2188 20.3867 12.2188C20.112 12.2188 19.8532 12.2824 19.6182 12.3898L15.225 7.68279C15.378 7.41276 15.4727 7.10534 15.4727 6.77344C15.4727 5.74829 14.6384 4.91406 13.6133 4.91406C12.5881 4.91406 11.7539 5.74829 11.7539 6.77344C11.7539 7.10534 11.8485 7.41276 12.0016 7.68279L7.60831 12.3898C7.3734 12.2824 7.11458 12.2188 6.83984 12.2188C5.8147 12.2188 4.98047 13.053 4.98047 14.0781C4.98047 15.1033 5.8147 15.9375 6.83984 15.9375ZM27.1602 5.97656C27.5996 5.97656 27.957 6.33401 27.957 6.77344C27.957 7.21286 27.5996 7.57031 27.1602 7.57031C26.7207 7.57031 26.3633 7.21286 26.3633 6.77344C26.3633 6.33401 26.7207 5.97656 27.1602 5.97656ZM20.3867 13.2812C20.8261 13.2812 21.1836 13.6387 21.1836 14.0781C21.1836 14.5175 20.8261 14.875 20.3867 14.875C19.9473 14.875 19.5898 14.5175 19.5898 14.0781C19.5898 13.6387 19.9473 13.2812 20.3867 13.2812ZM13.6133 5.97656C14.0527 5.97656 14.4102 6.33401 14.4102 6.77344C14.4102 7.21286 14.0527 7.57031 13.6133 7.57031C13.1739 7.57031 12.8164 7.21286 12.8164 6.77344C12.8164 6.33401 13.1739 5.97656 13.6133 5.97656ZM6.83984 13.2812C7.27927 13.2812 7.63672 13.6387 7.63672 14.0781C7.63672 14.5175 7.27927 14.875 6.83984 14.875C6.40042 14.875 6.04297 14.5175 6.04297 14.0781C6.04297 13.6387 6.40042 13.2812 6.83984 13.2812Z" fill="black"/>
<path d="M30.2812 28.0234H29.5508V13.9453C29.5508 13.6517 29.3132 13.4141 29.0195 13.4141H28.18H27.8278H25.3008C25.0071 13.4141 24.7695 13.6517 24.7695 13.9453V28.0234H22.7773V21.25C22.7773 20.9564 22.5397 20.7188 22.2461 20.7188H18.5273C18.2337 20.7188 17.9961 20.9564 17.9961 21.25V28.0234H16.0039V13.9453C16.0039 13.6519 15.7661 13.4141 15.4727 13.4141H11.7539C11.4605 13.4141 11.2227 13.6519 11.2227 13.9453V16.7344C11.2227 17.0278 11.4605 17.2656 11.7539 17.2656C12.0473 17.2656 12.2852 17.0278 12.2852 16.7344V14.4766H14.9414V28.0234H12.2852V18.8594C12.2852 18.566 12.0473 18.3281 11.7539 18.3281C11.4605 18.3281 11.2227 18.566 11.2227 18.8594V28.0234H9.23047V21.25C9.23047 20.9564 8.99286 20.7188 8.69922 20.7188H4.98047C4.68683 20.7188 4.44922 20.9564 4.44922 21.25V28.0234H3.71875C3.42534 28.0234 3.1875 28.2613 3.1875 28.5547C3.1875 28.8481 3.42534 29.0859 3.71875 29.0859H26.0977C26.3911 29.0859 26.6289 28.8481 26.6289 28.5547C26.6289 28.2613 26.3911 28.0234 26.0977 28.0234H25.832V14.4766H27.8278H28.18H28.4883V28.0234H28.2227C27.9292 28.0234 27.6914 28.2613 27.6914 28.5547C27.6914 28.8481 27.9292 29.0859 28.2227 29.0859H30.2812C30.5747 29.0859 30.8125 28.8481 30.8125 28.5547C30.8125 28.2613 30.5747 28.0234 30.2812 28.0234ZM8.16797 28.0234H5.51172V21.7812H8.16797V28.0234ZM21.7148 28.0234H19.0586V21.7812H21.7148V28.0234Z" fill="black"/>
</svg>
