<svg width="60" height="60" viewBox="0 0 60 60" fill="none" xmlns="http://www.w3.org/2000/svg">
<g clip-path="url(#clip0_177_300)">
<path d="M23.6237 18.8714H26.5704C27.7208 18.8714 28.6569 17.9353 28.6569 16.7844V13.8381C28.6569 12.6877 27.7208 11.7516 26.5704 11.7516H23.6237C22.4733 11.7516 21.5371 12.6877 21.5371 13.8381V16.7844C21.5371 17.9353 22.4734 18.8714 23.6237 18.8714ZM23.2309 13.8381C23.2309 13.6214 23.4071 13.4453 23.6237 13.4453H26.5704C26.7871 13.4453 26.9632 13.6215 26.9632 13.8381V16.7844C26.9632 17.0011 26.787 17.1777 26.5704 17.1777H23.6237C23.407 17.1777 23.2309 17.0011 23.2309 16.7844V13.8381Z" fill="white"/>
<path d="M33.1827 18.8714H36.129C37.2797 18.8714 38.216 17.9353 38.216 16.7844V13.8381C38.216 12.6877 37.2799 11.7516 36.129 11.7516H33.1827C32.032 11.7516 31.0957 12.6877 31.0957 13.8381V16.7844C31.0957 17.9353 32.0319 18.8714 33.1827 18.8714ZM32.7895 13.8381C32.7895 13.6214 32.966 13.4453 33.1827 13.4453H36.129C36.3457 13.4453 36.5223 13.6215 36.5223 13.8381V16.7844C36.5223 17.0011 36.3457 17.1777 36.129 17.1777H33.1827C32.966 17.1777 32.7895 17.0011 32.7895 16.7844V13.8381Z" fill="white"/>
<path d="M23.6237 28.4129H26.5704C27.7208 28.4129 28.6569 27.4768 28.6569 26.3259V23.3796C28.6569 22.2289 27.7208 21.2926 26.5704 21.2926H23.6237C22.4733 21.2926 21.5371 22.2288 21.5371 23.3796V26.3259C21.5371 27.4766 22.4734 28.4129 23.6237 28.4129ZM23.2309 23.3796C23.2309 23.1629 23.4071 22.9864 23.6237 22.9864H26.5704C26.7871 22.9864 26.9632 23.1629 26.9632 23.3796V26.3259C26.9632 26.5426 26.787 26.7192 26.5704 26.7192H23.6237C23.407 26.7192 23.2309 26.5426 23.2309 26.3259V23.3796Z" fill="white"/>
<path d="M33.1827 28.4129H36.129C37.2797 28.4129 38.216 27.4768 38.216 26.3259V23.3796C38.216 22.2289 37.2799 21.2926 36.129 21.2926H33.1827C32.032 21.2926 31.0957 22.2288 31.0957 23.3796V26.3259C31.0957 27.4766 32.0319 28.4129 33.1827 28.4129ZM32.7895 23.3796C32.7895 23.1629 32.966 22.9864 33.1827 22.9864H36.129C36.3457 22.9864 36.5223 23.1629 36.5223 23.3796V26.3259C36.5223 26.5426 36.3457 26.7192 36.129 26.7192H33.1827C32.966 26.7192 32.7895 26.5426 32.7895 26.3259V23.3796Z" fill="white"/>
<path d="M58.2031 48.7651H56.9753C56.9753 46.8219 56.975 24.8689 56.9748 16.8075C56.9748 14.3934 55.0107 12.4293 52.5966 12.4293H43.5965V10.6544C43.5965 8.7093 42.014 7.12677 40.0689 7.12677H37.345V5.53385C37.345 4.01211 36.1073 2.77441 34.5856 2.77441H25.1653C23.644 2.77441 22.4059 4.01211 22.4059 5.53385V7.12665H19.7755C17.8299 7.12665 16.2474 8.70919 16.2474 10.6543V12.4292H7.17882C4.7507 12.4292 2.77489 14.4087 2.77489 16.8414V20.6948C2.77489 20.6955 2.77535 20.6962 2.77535 20.6969V48.7649H1.54805C1.08032 48.7649 0.701172 49.1441 0.701172 49.6118C0.701172 50.0795 1.08032 50.4587 1.54805 50.4587H16.2476V52.023H13.0372C12.5694 52.023 12.1903 52.4022 12.1903 52.8699V56.1275C12.1903 56.5952 12.5694 56.9744 13.0372 56.9744H46.7136C47.1814 56.9744 47.5605 56.5952 47.5605 56.1275V52.8699C47.5605 52.4022 47.1814 52.023 46.7136 52.023H43.5032V50.4588H58.2031C58.6708 50.4588 59.05 50.0797 59.05 49.6119C59.05 49.1442 58.6708 48.7651 58.2031 48.7651ZM24.0999 5.53385C24.0999 4.94627 24.5779 4.46816 25.1655 4.46816H34.5858C35.1734 4.46816 35.6515 4.94616 35.6515 5.53385V7.12665H24.1L24.0999 5.53385ZM19.7757 8.82052H40.0689C41.0799 8.82052 41.9028 9.64335 41.9028 10.6544C41.761 10.8093 41.8087 34.7433 41.8093 48.7651H39.188V46.3543C39.188 45.8866 38.8089 45.5074 38.3412 45.5074H37.0555V34.1842C37.0555 32.4003 35.6045 30.9493 33.8206 30.9493H25.9304C24.1465 30.9493 22.6955 32.4003 22.6955 34.1842V45.5074H21.4099C20.9421 45.5074 20.563 45.8866 20.563 46.3543V48.7651H17.9413C17.9413 48.6729 17.9413 10.5564 17.9413 10.6544C17.9414 9.64335 18.7642 8.82052 19.7757 8.82052ZM33.8206 32.6429C34.6704 32.6429 35.3618 33.3344 35.3618 34.184V45.5073H30.7221V32.6429H33.8206ZM29.0285 45.5074H24.3893V34.1842C24.3893 33.3344 25.0807 32.643 25.9304 32.643H29.0285V45.5074ZM37.4943 47.2012V48.7651H22.2569V47.2012H37.4943ZM4.4691 20.6961C4.4691 19.7619 4.94395 18.9363 5.6649 18.4481C6.09739 18.1556 6.61856 17.9848 7.17882 17.9848H16.2476V48.7651H4.4691V20.6961ZM45.8668 55.2807H13.884V53.7169H45.8668V55.2807ZM17.9414 52.0231V50.4588H41.8094V52.0231H17.9414ZM43.5965 48.7651V17.9848H52.5966C54.077 17.9848 55.2811 19.189 55.2811 20.6693C55.2811 20.67 55.2816 20.6707 55.2816 20.6714V48.7651H43.5965Z" fill="white"/>
<path d="M10.3605 24.4952C9.89282 24.4952 9.51367 24.8744 9.51367 25.3421V41.4062C9.51367 41.874 9.89282 42.2531 10.3605 42.2531C10.8283 42.2531 11.2074 41.874 11.2074 41.4062V25.3421C11.2074 24.8744 10.8283 24.4952 10.3605 24.4952Z" fill="white"/>
<path d="M49.3918 24.4952C48.9241 24.4952 48.5449 24.8744 48.5449 25.3421V41.4062C48.5449 41.874 48.9241 42.2531 49.3918 42.2531C49.8595 42.2531 50.2387 41.874 50.2387 41.4062V25.3421C50.2387 24.8744 49.8595 24.4952 49.3918 24.4952Z" fill="white"/>
</g>
<defs>
<clipPath id="clip0_177_300">
<rect width="59.7492" height="59.7492" fill="white"/>
</clipPath>
</defs>
</svg>
