<svg width="64" height="65" viewBox="0 0 64 65" fill="none" xmlns="http://www.w3.org/2000/svg">
<g clip-path="url(#clip0_177_276)">
<path d="M34.8368 17.5436H28.9017C28.3515 17.5436 27.9046 17.9962 27.9046 18.5562V24.5879C27.9046 25.1466 28.3503 25.6005 28.9017 25.6005H34.8368C35.387 25.6005 35.8339 25.1479 35.8339 24.5879V18.5562C35.8339 17.9975 35.387 17.5436 34.8368 17.5436ZM33.8397 23.5752H29.8988V19.5689H33.8397V23.5752ZM31.8692 41.0594C27.8822 41.0594 24.6371 44.354 24.6371 48.4046C24.6371 52.4551 27.881 55.7497 31.8692 55.7497C35.8575 55.7497 39.1014 52.4551 39.1014 48.4046C39.1014 44.354 35.8563 41.0594 31.8692 41.0594ZM31.8692 53.7244C28.9814 53.7244 26.6312 51.3376 26.6312 48.4046C26.6312 45.4716 28.9814 43.0847 31.8692 43.0847C34.7571 43.0847 37.1073 45.4716 37.1073 48.4046C37.1073 51.3376 34.7571 53.7244 31.8692 53.7244ZM35.2314 47.3919C35.7816 47.3919 36.2284 47.8445 36.2284 48.4046C36.2284 48.9646 35.7828 49.4172 35.2314 49.4172H31.8692C31.3191 49.4172 30.8722 48.9646 30.8722 48.4046V44.9899C30.8722 44.4311 31.3178 43.9773 31.8692 43.9773C32.4207 43.9773 32.8663 44.4298 32.8663 44.9899V47.3932H35.2314V47.3919ZM47.943 48.4046C47.943 57.4058 40.732 64.7295 31.8692 64.7295C23.8479 64.7295 17.1647 58.7763 15.9834 50.8951L14.6565 52.4551C14.4598 52.6865 14.181 52.8053 13.9022 52.8053C13.6719 52.8053 13.4391 52.7244 13.2512 52.5588C12.8342 52.1934 12.7881 51.5538 13.1478 51.1315L16.0307 47.7409C16.2038 47.5373 16.449 47.4122 16.7129 47.3932C16.9768 47.3742 17.2369 47.4615 17.4373 47.6372L20.7758 50.5689C21.1928 50.9343 21.2376 51.574 20.8779 51.9962C20.5182 52.4197 19.8883 52.4653 19.4725 52.0999L17.9888 50.7965C19.1091 57.5942 24.9159 62.7029 31.8705 62.7029C39.6342 62.7029 45.9514 56.2883 45.9514 48.402C45.9514 47.8433 46.397 47.3894 46.9484 47.3894C47.4999 47.3894 47.943 47.8458 47.943 48.4046ZM54.7619 11.5158C53.1449 11.5158 51.7782 12.6182 51.3462 14.1213H43.3473C42.7971 14.1213 42.3503 14.5739 42.3503 15.134V22.6119H38.8425V15.5031C38.8425 14.9444 38.3968 14.4905 37.8454 14.4905H36.9405V10.627H40.6959C41.1279 12.1302 42.4946 13.2326 44.1116 13.2326C46.0759 13.2326 47.6741 11.6093 47.6741 9.61439C47.6741 7.62197 46.0759 5.99997 44.1116 5.99997C42.4959 5.99997 41.1279 7.09985 40.6959 8.60174H35.9434C35.3932 8.60174 34.9463 9.05434 34.9463 9.61439V14.4905H32.8651V7.08468C34.3439 6.64599 35.4268 5.25787 35.4268 3.61565C35.4268 1.6207 33.831 -0.00256348 31.868 -0.00256348C29.9038 -0.00256348 28.3055 1.6207 28.3055 3.61565C28.3055 5.25787 29.3909 6.64599 30.8709 7.08468V14.4905H28.7859V9.61565C28.7859 9.05686 28.3403 8.60301 27.7889 8.60301H23.0388C22.6069 7.10111 21.2401 6.00124 19.6232 6.00124C17.6589 6.00124 16.0606 7.62197 16.0606 9.61565C16.0606 11.6106 17.6589 13.2339 19.6232 13.2339C21.2401 13.2339 22.6069 12.1315 23.0388 10.6283H26.7918V14.4918H25.8906C25.3404 14.4918 24.8935 14.9444 24.8935 15.5044V22.6131H21.3883V15.1353C21.3883 14.5765 20.9426 14.1226 20.3912 14.1226H12.3923C11.9603 12.6194 10.5936 11.517 8.97661 11.517C7.01235 11.517 5.41406 13.1403 5.41406 15.1353C5.41406 17.1277 7.01235 18.7497 8.97661 18.7497C10.5923 18.7497 11.9603 17.6498 12.3923 16.1479H19.3954V22.6131H11.6504C11.1002 22.6131 10.6533 23.0657 10.6533 23.6258V27.1669C10.6533 28.0645 11.2172 28.8521 12.0512 29.1226L14.6403 29.9772C14.649 29.9798 14.6553 29.9823 14.6578 29.9836C14.6602 29.9899 14.6627 30.0025 14.6627 30.0025C15.0735 31.5803 15.6909 33.0923 16.4963 34.4905C16.5025 34.5006 16.5038 34.507 16.505 34.507C16.505 34.5095 16.5025 34.5145 16.4988 34.5234L15.2602 36.9924C14.8594 37.7927 15.0113 38.7535 15.6337 39.378L18.0971 41.8837C18.4867 42.2794 19.0033 42.4867 19.5298 42.4867C19.8422 42.4867 20.1572 42.4134 20.4509 42.263L22.8795 41.0063C22.8894 41.0013 22.8957 40.9987 22.8969 40.9987C22.8994 40.9987 22.9044 41.0013 22.9106 41.0051C23.1309 41.1365 23.3587 41.2617 23.589 41.3856C22.0218 43.2883 21.0771 45.7371 21.0771 48.4071C21.0771 54.4526 25.918 59.3717 31.8692 59.3717C37.8205 59.3717 42.6614 54.4526 42.6614 48.4071C42.6614 45.7383 41.7167 43.2895 40.1495 41.3869C40.381 41.263 40.6076 41.1378 40.8229 41.0089C40.8329 41.0025 40.8391 41.0013 40.8391 41C40.8416 41 40.8466 41.0025 40.8553 41.0063L43.2863 42.2642C43.5801 42.4159 43.895 42.4893 44.2075 42.4893C44.7327 42.4893 45.2493 42.2807 45.6352 41.8837L48.0974 39.3831C48.7247 38.7535 48.8766 37.7927 48.4758 36.9924L47.2385 34.5259C47.2335 34.5158 47.231 34.5095 47.2298 34.5082C47.231 34.5057 47.2335 34.5019 47.2372 34.4943C48.0476 33.0872 48.6637 31.5752 49.0695 30.0013C49.072 29.9937 49.0733 29.9886 49.0733 29.9874C49.0758 29.9861 49.082 29.9823 49.0907 29.9798L51.6798 29.1252C52.5188 28.8533 53.0827 28.0657 53.0827 27.1681V23.627C53.0827 23.0683 52.6358 22.6144 52.0856 22.6144H44.3419V16.1492H51.345C51.7769 17.6511 53.1437 18.7509 54.7606 18.7509C56.7249 18.7509 58.3232 17.1302 58.3232 15.1365C58.3244 13.139 56.7261 11.5158 54.7619 11.5158ZM44.1128 8.02652C44.978 8.02652 45.6813 8.73954 45.6813 9.61565C45.6813 10.4943 44.978 11.2086 44.1128 11.2086C43.2502 11.2086 42.5482 10.4943 42.5482 9.61565C42.5482 8.73828 43.2502 8.02652 44.1128 8.02652ZM30.3008 3.61565C30.3008 2.73701 31.0041 2.02272 31.8692 2.02272C32.7319 2.02272 33.4339 2.73701 33.4339 3.61565C33.4339 4.49175 32.7319 5.20477 31.8692 5.20477C31.0041 5.20604 30.3008 4.49302 30.3008 3.61565ZM19.6256 11.2086C18.7605 11.2086 18.0572 10.4943 18.0572 9.61565C18.0572 8.73954 18.7605 8.02652 19.6256 8.02652C20.4883 8.02652 21.1903 8.73954 21.1903 9.61565C21.1903 10.493 20.4883 11.2086 19.6256 11.2086ZM8.97661 16.7231C8.11149 16.7231 7.40819 16.0101 7.40819 15.134C7.40819 14.2554 8.11149 13.5411 8.97661 13.5411C9.83923 13.5411 10.5413 14.2554 10.5413 15.134C10.5413 16.0101 9.83923 16.7231 8.97661 16.7231ZM26.8889 16.5158H36.8496V26.6321H26.8889V16.5158ZM25.8918 28.6574H37.8467C38.3968 28.6574 38.8437 28.2048 38.8437 27.6447V24.6359H40.6574C40.6785 24.8875 40.6897 25.1403 40.6897 25.3944C40.6897 30.3338 36.7338 34.3515 31.8705 34.3515C27.0072 34.3515 23.0513 30.3338 23.0513 25.3944C23.0513 25.1403 23.0625 24.8875 23.0836 24.6359H24.8973V27.6447C24.8948 28.2035 25.3417 28.6574 25.8918 28.6574ZM31.8692 57.3439C27.0184 57.3439 23.0712 53.3338 23.0712 48.4046C23.0712 43.4779 27.0184 39.469 31.8692 39.469C36.7201 39.469 40.6673 43.4779 40.6673 48.4046C40.6673 53.3338 36.7201 57.3439 31.8692 57.3439ZM51.0911 27.1643C51.0911 27.1795 51.0886 27.1871 51.0886 27.1871C51.0886 27.1871 51.0836 27.1909 51.0711 27.1947L48.4733 28.0531C47.8061 28.2769 47.3219 28.799 47.1439 29.4855C46.7841 30.8824 46.2364 32.2225 45.5207 33.4665C45.1647 34.0796 45.1423 34.7977 45.4622 35.4412L46.7007 37.9102C46.7107 37.9292 46.707 37.933 46.6933 37.9469L44.2236 40.4564C44.2137 40.4665 44.2112 40.469 44.1925 40.4602L41.759 39.201C41.1353 38.8812 40.4296 38.9014 39.8209 39.2604C39.4537 39.4791 39.0616 39.689 38.6508 39.8875C36.7961 38.3628 34.4372 37.4475 31.8705 37.4475C29.305 37.4475 26.9462 38.3628 25.0915 39.8862C24.6844 39.6903 24.2911 39.4804 23.9164 39.2566C23.3114 38.9001 22.6069 38.8799 21.9795 39.2023L19.5522 40.4589C19.5273 40.4716 19.5236 40.4678 19.5099 40.4539L17.0427 37.9444C17.0328 37.9343 17.0303 37.9317 17.039 37.9128L18.2788 35.4412C18.5937 34.8078 18.5738 34.091 18.2215 33.4741C17.5046 32.2288 16.9569 30.8875 16.5946 29.4981C16.4228 28.8078 15.9386 28.2819 15.2627 28.0556L12.6649 27.1972C12.6562 27.1947 12.6524 27.1922 12.6524 27.1922C12.6524 27.1909 12.6487 27.1846 12.6487 27.1694V24.641H21.0858C21.0683 24.8925 21.0571 25.1454 21.0571 25.3995C21.0571 31.4551 25.908 36.3818 31.8705 36.3818C37.833 36.3818 42.6838 31.4551 42.6838 25.3995C42.6838 25.1466 42.6726 24.8938 42.6552 24.641H51.0923V27.1643H51.0911ZM54.7619 16.7231C53.8993 16.7231 53.1972 16.0101 53.1972 15.134C53.1972 14.2554 53.8993 13.5411 54.7619 13.5411C55.627 13.5411 56.3303 14.2554 56.3303 15.134C56.3303 16.0101 55.627 16.7231 54.7619 16.7231Z" fill="white"/>
</g>
<defs>
<clipPath id="clip0_177_276">
<rect width="63.7324" height="64.7283" fill="white"/>
</clipPath>
</defs>
</svg>
