<svg width="63" height="63" viewBox="0 0 63 63" fill="none" xmlns="http://www.w3.org/2000/svg">
<path d="M36.1231 23.9339C33.852 21.575 30.2007 25.1886 32.5534 27.4973C34.906 29.806 38.4632 26.2238 36.1231 23.9339ZM34.3351 26.6692C34.1177 26.6255 33.9221 26.5079 33.7816 26.3363C33.6411 26.1648 33.5644 25.9499 33.5644 25.7281C33.5644 25.5064 33.6411 25.2915 33.7816 25.1199C33.9221 24.9484 34.1177 24.8308 34.3351 24.7871C34.5525 24.8308 34.748 24.9484 34.8885 25.1199C35.029 25.2915 35.1058 25.5064 35.1058 25.7281C35.1058 25.9499 35.029 26.1648 34.8885 26.3363C34.748 26.5079 34.5525 26.6255 34.3351 26.6692Z" fill="white"/>
<path d="M8.5812 54.3109H6.27249C6.0645 54.3109 5.86504 54.3935 5.71797 54.5406C5.5709 54.6876 5.48828 54.8871 5.48828 55.0951V58.8154C5.48828 59.0233 5.5709 59.2228 5.71797 59.3699C5.86504 59.5169 6.0645 59.5996 6.27249 59.5996H53.325C53.5329 59.5996 53.7324 59.5169 53.8795 59.3699C54.0265 59.2228 54.1092 59.0233 54.1092 58.8154V55.0951C54.1092 54.8871 54.0265 54.6876 53.8795 54.5406C53.7324 54.3935 53.5329 54.3109 53.325 54.3109H51.0351C50.7277 37.9993 40.9972 27.0706 39.4037 25.3767C39.3423 24.4179 39.007 23.4969 38.4376 22.723L44.0525 17.0767C44.9433 16.2423 43.055 15.1381 42.6597 14.5672L46.8129 10.4141L47.6787 11.2924C48.3876 12.0201 49.5168 10.8971 48.7891 10.1882C48.7389 10.1192 47.4026 8.83937 47.3775 8.75781C46.3612 7.7352 42.9107 4.30351 41.9508 3.34991C41.2419 2.64099 40.1063 3.76397 40.8404 4.4729L41.7061 5.33866L37.553 9.4981C36.9883 9.09659 35.8842 7.21449 35.0435 8.10535L16.6303 26.5248C15.9277 27.1961 16.9503 27.9427 17.3894 28.4069C17.0255 29.0343 14.2902 30.6717 15.3128 31.5939L20.5702 36.8575C20.7203 37.0019 20.9203 37.0828 21.1285 37.0834C21.3351 37.0838 21.5335 37.0026 21.6806 36.8575L23.7572 34.781C24.2089 35.2201 24.9555 36.2427 25.6393 35.5401L31.3483 29.831C32.0532 30.3356 32.8766 30.649 33.7386 30.7407C34.3032 32.7922 36.1853 40.5653 33.2994 44.5114C32.1513 46.0798 30.3947 46.8452 27.9354 46.8452H23.318V44.9631H27.9354C28.1434 44.9631 28.3429 44.8805 28.49 44.7334C28.637 44.5864 28.7197 44.3869 28.7197 44.1789V40.4837C28.7197 40.2757 28.637 40.0763 28.49 39.9292C28.3429 39.7821 28.1434 39.6995 27.9354 39.6995H7.47076C7.36754 39.6987 7.26519 39.7184 7.16967 39.7575C7.07415 39.7966 6.98736 39.8544 6.91438 39.9273C6.84139 40.0003 6.78366 40.0871 6.74454 40.1826C6.70543 40.2782 6.68571 40.3805 6.68655 40.4837V44.2103C6.68571 44.3135 6.70543 44.4158 6.74454 44.5114C6.78366 44.6069 6.84139 44.6937 6.91438 44.7667C6.98736 44.8396 7.07415 44.8974 7.16967 44.9365C7.26519 44.9756 7.36754 44.9953 7.47076 44.9945H12.0882V47.2216C9.31522 48.7273 8.71294 52.6295 8.5812 54.3109ZM52.5407 58.0312H7.0567V55.8793H52.5407V58.0312ZM41.4866 54.3109C40.0624 44.204 40.3949 36.8011 42.4088 34.5049C42.6929 34.1492 43.0884 33.8995 43.5318 33.796C47.2109 40.0332 49.2566 47.0979 49.4792 54.336L41.4866 54.3109ZM34.3346 29.2162C29.7736 29.2852 29.7611 22.1019 34.3346 22.1709C38.8955 22.127 38.8955 29.3041 34.3346 29.235V29.2162ZM42.8166 6.4491L45.7025 9.34126L41.5493 13.4944L38.6571 10.6023L42.8166 6.4491ZM21.1285 35.1825L16.9754 31.023L18.4936 29.486L22.6467 33.6392L21.1285 35.1825ZM25.0935 33.8776L18.2928 27.0769L35.6019 9.76787C37.3208 11.5057 40.6208 14.8307 42.39 16.5497L37.371 21.6C32.8728 18.1495 26.8125 24.2224 30.2567 28.7143L25.0935 33.8776ZM34.5667 45.4587C37.7412 41.1174 36.0598 33.3694 35.3509 30.7031C36.2058 30.5242 37.0006 30.1292 37.6596 29.556C38.3185 28.9827 38.8196 28.2501 39.1151 27.4282C40.4219 28.9959 41.6188 30.6519 42.6974 32.3844C42.1227 32.611 41.6138 32.9776 41.2168 33.4509C38.08 37.0708 38.9896 47.78 39.8993 54.3109H10.1559C10.2939 52.755 10.8648 49.3484 13.1923 48.4387H27.9354C30.8903 48.4387 33.1175 47.4349 34.5667 45.4587ZM8.25497 41.2679H27.1512V43.4261H8.25497V41.2679ZM21.7496 44.9945V46.8766H13.6566V44.9945H21.7496Z" fill="white"/>
</svg>
