<svg width="53" height="54" viewBox="0 0 53 54" fill="none" xmlns="http://www.w3.org/2000/svg">
<path d="M47.0049 1.68054H5.77175C3.4627 1.68054 1.64844 3.52903 1.64844 5.88166V36.1297C1.64844 38.4823 3.4627 40.3308 5.77175 40.3308H20.4508L19.1313 47.0526H17.317C15.9151 47.0526 14.843 48.1449 14.843 49.5732C14.843 51.0016 15.9151 52.0939 17.317 52.0939H35.4596C36.8615 52.0939 37.9336 51.0016 37.9336 49.5732C37.9336 48.1449 36.8615 47.0526 35.4596 47.0526H33.6454L32.3259 40.3308H47.0049C49.314 40.3308 51.1282 38.4823 51.1282 36.1297V5.88166C51.1282 3.52903 49.314 1.68054 47.0049 1.68054ZM5.77175 3.36099H47.0049C48.4068 3.36099 49.4789 4.45328 49.4789 5.88166V33.609H3.29776V5.88166C3.29776 4.45328 4.36983 3.36099 5.77175 3.36099ZM36.2843 49.5732C36.2843 50.0774 35.9544 50.4135 35.4596 50.4135H17.317C16.8222 50.4135 16.4924 50.0774 16.4924 49.5732C16.4924 49.0691 16.8222 48.733 17.317 48.733H35.4596C35.9544 48.733 36.2843 49.0691 36.2843 49.5732ZM31.996 47.0526H20.7806L22.1001 40.3308H30.6766L31.996 47.0526ZM47.0049 38.6503H5.77175C4.36983 38.6503 3.29776 37.558 3.29776 36.1297V35.2894H49.4789V36.1297C49.4789 37.558 48.4068 38.6503 47.0049 38.6503Z" fill="white"/>
<path d="M13.6072 25.7109C14.102 26.6351 14.9267 27.2233 15.9163 27.4753C16.6585 27.6434 17.4007 27.8114 18.1429 27.7274C19.2149 27.7274 20.287 27.5593 21.359 27.3073C22.596 30.164 24.3278 31.9285 26.3895 31.9285C28.4511 31.9285 30.1829 30.164 31.4199 27.3073C32.492 27.5593 33.5641 27.6434 34.6361 27.7274C35.3783 27.7274 36.1205 27.6434 36.8627 27.4753C37.8523 27.2233 38.677 26.6351 39.1718 25.7109C40.1614 23.8624 39.1718 21.1737 36.7802 18.4849C39.1718 15.7962 40.1614 13.1915 39.1718 11.259C38.677 10.3348 37.8523 9.74663 36.8627 9.49456C35.0485 9.07445 33.1517 9.15847 31.4199 9.57858C30.1829 6.80585 28.3687 5.04138 26.3895 5.04138C24.4103 5.04138 22.596 6.80585 21.359 9.66261C19.5448 9.15847 17.7305 9.15847 15.9163 9.57858C14.9267 9.83065 14.102 10.4188 13.6072 11.3431C12.6176 13.1915 13.6072 15.8803 15.9987 18.569C13.6072 21.1737 12.6176 23.7783 13.6072 25.7109ZM26.3895 30.2481C25.235 30.2481 23.998 28.9877 23.0084 26.8872C24.1629 26.5511 25.3174 26.131 26.3895 25.6268C27.4616 26.131 28.6161 26.5511 29.7706 26.8872C28.781 28.9877 27.544 30.2481 26.3895 30.2481ZM21.4415 18.4849C21.4415 17.6447 21.524 16.7205 21.6064 15.8803C22.4311 15.2921 23.2558 14.788 24.1629 14.2838C24.9051 13.8637 25.6473 13.5276 26.3895 13.1075C27.1317 13.4436 27.8739 13.8637 28.6161 14.2838C29.5232 14.788 30.3479 15.3761 31.1725 15.8803C31.3375 17.6447 31.3375 19.4092 31.1725 21.0896C30.3479 21.6778 29.5232 22.1819 28.6161 22.6861C27.8739 23.1062 27.1317 23.5263 26.3895 23.8624C25.6473 23.5263 24.9051 23.1062 24.1629 22.6861C23.2558 22.1819 22.4311 21.5938 21.6064 21.0896C21.524 20.2494 21.4415 19.3252 21.4415 18.4849ZM19.7922 19.8293C19.2149 19.4092 18.7201 18.9891 18.3078 18.4849C18.8026 18.0648 19.2974 17.6447 19.7922 17.1406V18.4849C19.7922 18.4849 19.7922 19.4092 19.7922 19.8293ZM21.9363 13.6957C22.1012 13.0235 22.2662 12.3513 22.4311 11.6791C23.0908 11.8472 23.6681 12.0993 24.3278 12.3513C23.998 12.5194 23.6681 12.6874 23.3382 12.8555C22.8434 13.1075 22.3486 13.3596 21.9363 13.6957ZM28.4511 12.2673C29.1109 12.0152 29.7706 11.8472 30.3479 11.5951C30.5953 12.2673 30.7602 12.9395 30.8427 13.6117C30.3479 13.3596 29.9355 13.0235 29.4407 12.7714C29.1109 12.6034 28.781 12.4353 28.4511 12.2673ZM32.9868 17.1406C33.5641 17.5607 34.0589 17.9808 34.4712 18.4849C33.9764 18.9051 33.4816 19.3252 32.9868 19.8293C32.9868 19.4092 32.9868 18.9891 32.9868 18.4849C32.9868 17.9808 32.9868 17.5607 32.9868 17.1406ZM30.8427 23.2742C30.6777 23.9464 30.5128 24.6186 30.3479 25.2907C29.6881 25.1227 29.1109 24.8706 28.4511 24.6186L29.4407 24.1144C29.9355 23.8624 30.4303 23.6103 30.8427 23.2742ZM23.3382 24.1985C23.6681 24.3665 23.998 24.5345 24.3278 24.7026C23.6681 24.9547 23.0084 25.2067 22.4311 25.3748C22.1837 24.7026 22.0188 24.0304 21.9363 23.3582C22.3486 23.6103 22.8434 23.8624 23.3382 24.1985ZM37.7698 24.8706C37.44 25.3748 36.9452 25.7109 36.4504 25.7949C34.966 26.131 33.4816 26.131 31.9972 25.7109C32.3271 24.5345 32.6569 23.2742 32.8219 22.0139C33.8115 21.2577 34.8011 20.5015 35.7082 19.6613C37.5224 21.8458 38.3471 23.7783 37.7698 24.8706ZM34.5537 10.9229C35.1309 10.9229 35.7906 11.007 36.3679 11.175C36.9452 11.259 37.44 11.6791 37.6874 12.0993C38.2646 13.1915 37.5224 15.1241 35.5432 17.3086C34.6361 16.4684 33.6465 15.6282 32.6569 14.956C32.492 13.6957 32.2446 12.4353 31.8323 11.259C32.8219 11.007 33.729 10.9229 34.5537 10.9229ZM26.3895 6.72183C27.544 6.72183 28.781 7.98216 29.7706 10.0827C28.6161 10.4188 27.4616 10.8389 26.3895 11.3431C25.3174 10.8389 24.1629 10.4188 23.0084 10.0827C23.998 7.98216 25.235 6.72183 26.3895 6.72183ZM15.0091 12.0993C15.339 11.5951 15.8338 11.259 16.3286 11.175C16.9059 11.007 17.4831 10.9229 18.1429 10.9229C19.05 10.9229 19.8747 11.007 20.7818 11.259C20.4519 12.4353 20.1221 13.6957 19.9571 14.956C18.9675 15.7122 17.9779 16.4684 17.0708 17.3086C15.2565 15.1241 14.4319 13.1915 15.0091 12.0993ZM17.1533 19.6613C18.0604 20.5015 19.05 21.3417 20.0396 22.0139C20.2045 23.2742 20.4519 24.5345 20.8642 25.7109C19.3799 26.0469 17.8955 26.131 16.4111 25.7949C15.8338 25.7109 15.339 25.2907 15.0916 24.8706C14.4319 23.7783 15.2565 21.8458 17.1533 19.6613Z" fill="white"/>
<path d="M26.39 21.0057C27.7919 21.0057 28.864 19.9134 28.864 18.485C28.864 17.0566 27.7919 15.9644 26.39 15.9644C24.9881 15.9644 23.916 17.0566 23.916 18.485C23.916 19.9134 24.9881 21.0057 26.39 21.0057ZM26.39 17.6448C26.8848 17.6448 27.2147 17.9809 27.2147 18.485C27.2147 18.9892 26.8848 19.3252 26.39 19.3252C25.8952 19.3252 25.5653 18.9892 25.5653 18.485C25.5653 17.9809 25.8952 17.6448 26.39 17.6448Z" fill="white"/>
<path d="M43.707 5.88159H45.3564V7.56204H43.707V5.88159Z" fill="white"/>
<path d="M45.3574 7.56201H47.0067V9.24246H45.3574V7.56201Z" fill="white"/>
<path d="M43.707 9.24243H45.3564V10.9229H43.707V9.24243Z" fill="white"/>
<path d="M42.0605 7.56201H43.7099V9.24246H42.0605V7.56201Z" fill="white"/>
<path d="M9.07031 26.0469H10.7196V27.7273H9.07031V26.0469Z" fill="white"/>
<path d="M10.7227 27.7273H12.372V29.4077H10.7227V27.7273Z" fill="white"/>
<path d="M9.07031 29.4078H10.7196V31.0883H9.07031V29.4078Z" fill="white"/>
<path d="M7.42188 27.7273H9.0712V29.4077H7.42188V27.7273Z" fill="white"/>
<path d="M42.0605 15.9644H43.7099V17.6448H42.0605V15.9644Z" fill="white"/>
<path d="M43.707 17.6447H45.3564V19.3251H43.707V17.6447Z" fill="white"/>
<path d="M42.0605 19.3251H43.7099V21.0055H42.0605V19.3251Z" fill="white"/>
<path d="M40.4082 17.6447H42.0575V19.3251H40.4082V17.6447Z" fill="white"/>
<path d="M9.89844 7.56201H11.5478V9.24246H9.89844V7.56201Z" fill="white"/>
<path d="M5.77344 15.1241H7.42276V16.8046H5.77344V15.1241Z" fill="white"/>
<path d="M40.4082 29.4078H42.0575V31.0883H40.4082V29.4078Z" fill="white"/>
</svg>
