<svg width="35" height="35" viewBox="0 0 35 35" fill="none" xmlns="http://www.w3.org/2000/svg">
<path d="M27.7524 17.5C28.6579 16.7165 29.4738 15.9313 30.1808 15.1583C32.6574 12.4511 33.5131 10.2351 32.6556 8.75C31.7982 7.26476 29.4512 6.89787 25.8684 7.68906C24.8455 7.91492 23.7575 8.2289 22.6263 8.62135C22.4006 7.44543 22.1285 6.34621 21.8126 5.34741C20.7063 1.84912 19.2151 0 17.5002 0C16.5965 0 15.2697 0.55248 14.0374 3.14856C14.013 3.14747 13.9886 3.14672 13.964 3.14672C13.0759 3.14672 12.3533 3.86928 12.3533 4.75747C12.3533 5.27652 12.6003 5.7387 12.9827 6.03347C12.7532 6.84202 12.5501 7.70848 12.375 8.62176C11.2434 8.22917 10.1552 7.91506 9.13209 7.6892C5.54903 6.89794 3.20219 7.26489 2.34482 8.75C1.48732 10.2352 2.34318 12.4512 4.81964 15.1583C5.52695 15.9316 6.34323 16.7171 7.24913 17.5009C7.06887 17.6568 6.89298 17.8129 6.71962 17.9692C6.50148 17.8587 6.25518 17.796 5.99439 17.796C5.10627 17.796 4.38371 18.5185 4.38371 19.4067C4.38371 19.668 4.44667 19.9147 4.55755 20.1332C2.28392 22.7081 1.5187 24.8192 2.34482 26.25C2.90763 27.2249 4.11205 27.7179 5.88673 27.7179C6.81566 27.7179 7.90107 27.5827 9.13202 27.3109C10.155 27.0851 11.2429 26.7711 12.3742 26.3787C12.5999 27.5546 12.872 28.6538 13.1879 29.6526C14.2942 33.1509 15.7854 35 17.5002 35C19.2151 35 20.7063 33.1509 21.8126 29.6525C22.1286 28.6533 22.4008 27.5537 22.6266 26.3772C22.9328 26.4834 23.2358 26.5833 23.5361 26.6782C23.59 27.518 24.29 28.1848 25.1431 28.1848C25.7127 28.1848 26.2139 27.8873 26.5003 27.4398C27.4698 27.6231 28.3411 27.7153 29.1059 27.7153C30.8853 27.7153 32.0945 27.2221 32.6556 26.25C33.5131 24.7648 32.6573 22.5488 30.1808 19.8417C29.4738 19.0687 28.6579 18.2835 27.7524 17.5ZM26.1043 8.75711C29.0435 8.10824 31.1386 8.3099 31.7085 9.29688C32.4702 10.6162 30.6779 13.5443 26.901 16.7856C25.8036 15.8916 24.596 15.0055 23.305 14.1486C23.2083 12.6008 23.0446 11.1107 22.8187 9.71229C23.9683 9.30706 25.0714 8.98516 26.1043 8.75711ZM19.9074 21.6694C19.1045 22.1329 18.3001 22.5697 17.5005 22.978C16.7 22.5694 15.8955 22.1327 15.0931 21.6694C14.2771 21.1982 13.4979 20.7201 12.7559 20.2392C12.7103 19.3562 12.6859 18.4422 12.6859 17.5C12.6859 16.5743 12.7098 15.6591 12.7563 14.7614C13.5109 14.2721 14.2912 13.7936 15.0931 13.3306C15.8961 12.8669 16.7006 12.4301 17.5003 12.0217C18.3 12.4301 19.1045 12.8669 19.9075 13.3306C20.7235 13.8017 21.5027 14.2797 22.2446 14.7608C22.2902 15.6438 22.3146 16.5577 22.3146 17.5C22.3146 18.4423 22.2902 19.3562 22.2446 20.2392C21.5027 20.7202 20.7234 21.1983 19.9074 21.6694ZM22.1561 21.5922C22.0636 22.7598 21.9333 23.8653 21.7714 24.8983C20.7732 24.5126 19.7509 24.0708 18.7167 23.578C19.2955 23.2712 19.8754 22.9508 20.4543 22.6166C21.0333 22.2823 21.601 21.9401 22.1561 21.5922ZM16.2849 23.5787C15.2476 24.0732 14.2245 24.5154 13.2293 24.9002C13.0672 23.8666 12.9368 22.7605 12.8443 21.5921C13.3994 21.9401 13.9671 22.2821 14.5462 22.6165C15.1252 22.9508 15.7055 23.2717 16.2849 23.5787ZM11.6283 19.486C10.6633 18.8221 9.77104 18.1565 8.95729 17.4996C9.79039 16.8281 10.6851 16.1639 11.6284 15.515C11.6044 16.1701 11.5921 16.8325 11.5921 17.5001C11.5921 18.1686 11.6045 18.8313 11.6283 19.486ZM12.8449 13.4071C12.9355 12.2624 13.064 11.1544 13.2284 10.0993C14.2238 10.4843 15.2473 10.9266 16.2849 11.4213C15.7057 11.7283 15.1254 12.049 14.5461 12.3834C13.968 12.7173 13.4002 13.059 12.8449 13.4071ZM18.7155 11.4214C19.7527 10.9268 20.7759 10.4846 21.7711 10.0998C21.9332 11.1334 22.0636 12.2395 22.1561 13.4079C21.601 13.0599 21.0333 12.7178 20.4543 12.3835C19.875 12.049 19.2947 11.7283 18.7155 11.4214ZM23.3721 15.5139C24.3369 16.1778 25.2291 16.8433 26.0426 17.5C25.229 18.1567 24.3369 18.8222 23.3721 19.4861C23.3959 18.8313 23.4083 18.1686 23.4083 17.5C23.4083 16.8314 23.3959 16.1687 23.3721 15.5139ZM13.964 4.2404C14.2491 4.2404 14.481 4.47234 14.481 4.7574C14.481 5.04246 14.2491 5.2744 13.964 5.2744C13.6789 5.2744 13.447 5.04246 13.447 4.7574C13.447 4.47234 13.6789 4.2404 13.964 4.2404ZM14.0251 6.36658C14.885 6.33425 15.5747 5.62502 15.5747 4.7574C15.5747 4.28668 15.3717 3.86251 15.0487 3.56774C15.8154 1.97039 16.682 1.09375 17.5002 1.09375C19.0236 1.09375 20.6633 4.10997 21.582 9.00143C20.259 9.50476 18.8879 10.1075 17.5002 10.7972C16.1119 10.1072 14.74 9.50407 13.4162 9.00061C13.5902 8.06866 13.7937 7.18642 14.0251 6.36658ZM3.29194 9.29688C3.86185 8.3099 5.95686 8.10804 8.89611 8.75711C9.92923 8.98522 11.0328 9.30733 12.1827 9.71264C11.9568 11.112 11.7931 12.6029 11.6961 14.1485C10.4091 15.003 9.20209 15.8888 8.10048 16.7867C4.32294 13.5449 2.53015 10.6163 3.29194 9.29688ZM5.99446 18.8897C6.27952 18.8897 6.51146 19.1216 6.51146 19.4066C6.51146 19.6917 6.27952 19.9236 5.99446 19.9236C5.7094 19.9236 5.47753 19.6917 5.47753 19.4066C5.47753 19.1216 5.7094 18.8897 5.99446 18.8897ZM8.89618 26.2429C5.95693 26.8918 3.86185 26.6901 3.29208 25.7031C2.74903 24.7625 3.51917 22.9741 5.35428 20.8843C5.5506 20.9697 5.76703 21.0173 5.99446 21.0173C6.88259 21.0173 7.60521 20.2947 7.60521 19.4065C7.60521 19.1782 7.55716 18.961 7.47116 18.7641C7.67535 18.5804 7.88419 18.3967 8.09822 18.2133C9.19587 19.1077 10.4039 19.9941 11.6954 20.8513C11.7921 22.3992 11.9558 23.8893 12.1817 25.2877C11.0322 25.6929 9.92902 26.0148 8.89618 26.2429ZM17.5002 33.9062C15.9768 33.9062 14.3371 30.89 13.4184 25.9986C14.7414 25.4953 16.1126 24.8925 17.5002 24.2028C18.884 24.8904 20.2543 25.4931 21.582 25.998C20.6634 30.8898 19.0237 33.9062 17.5002 33.9062ZM25.1431 27.0911C24.858 27.0911 24.6261 26.8591 24.6261 26.5741C24.6261 26.289 24.858 26.0571 25.1431 26.0571C25.4281 26.0571 25.6601 26.289 25.6601 26.5741C25.6601 26.8591 25.4281 27.0911 25.1431 27.0911ZM31.7085 25.7031C31.1775 26.6228 29.3706 26.8643 26.7407 26.3724C26.6411 25.5792 25.9629 24.9633 25.1431 24.9633C24.6084 24.9633 24.1341 25.2254 23.841 25.6275C23.5043 25.5209 23.1635 25.4068 22.8191 25.2854C23.0449 23.8876 23.2084 22.3983 23.305 20.8513C24.5961 19.9944 25.8037 19.1084 26.9011 18.2143C30.6779 21.4557 32.4702 24.3838 31.7085 25.7031ZM17.5002 14.997C16.1201 14.997 14.9973 16.1199 14.9973 17.5C14.9973 18.8801 16.1201 20.003 17.5002 20.003C18.8803 20.003 20.0032 18.8801 20.0032 17.5C20.0032 16.1199 18.8803 14.997 17.5002 14.997ZM17.5002 18.9092C16.7232 18.9092 16.091 18.277 16.091 17.5C16.091 16.723 16.7232 16.0908 17.5002 16.0908C18.2773 16.0908 18.9095 16.723 18.9095 17.5C18.9095 18.277 18.2773 18.9092 17.5002 18.9092Z" fill="black"/>
</svg>
