<svg width="33" height="33" viewBox="0 0 33 33" fill="none" xmlns="http://www.w3.org/2000/svg">
<path d="M9.58055 9.59465C9.38216 9.79889 9.38681 10.1251 9.59107 10.3237L9.99076 10.7234L8.44379 12.2702C8.24277 12.4717 8.24277 12.7977 8.4438 12.999L11.9021 16.4586L10.3373 18.0233L8.79101 16.4763C8.5896 16.275 8.263 16.275 8.06159 16.4763L1.18235 23.359C0.980883 23.5603 0.980883 23.8869 1.18235 24.0884L5.00436 27.9116C5.20577 28.1131 5.53238 28.1131 5.73378 27.9116L12.6134 21.0288C12.8144 20.8275 12.8144 20.5014 12.6134 20.3001L11.0667 18.7527L12.6312 17.1882L16.0878 20.6462C16.2892 20.8477 16.6158 20.8477 16.8172 20.6462L18.3639 19.0996L19.2386 19.9743C18.9523 20.5692 19.0379 21.3035 19.5283 21.7941C20.1475 22.4136 21.1673 22.4136 21.7865 21.7941C22.4057 21.1747 22.4061 20.1551 21.7868 19.5356C21.2966 19.0453 20.5624 18.9591 19.9676 19.2452L19.0932 18.3702L20.6398 16.8236C20.8412 16.6223 20.8413 16.2961 20.6401 16.0945L17.1818 12.635L18.7466 11.0703L20.2932 12.6175C20.4947 12.8186 20.821 12.8184 21.0223 12.6175L27.9015 5.73502C28.1028 5.5337 28.103 5.20747 27.9018 5.00596L24.0794 1.18238C23.878 0.980873 23.5514 0.980873 23.35 1.18238L16.4704 8.06522C16.2693 8.26673 16.2694 8.59296 16.4708 8.79427L18.0174 10.3414L16.4529 11.906L12.9956 8.44738C12.7942 8.24626 12.4678 8.24646 12.2665 8.44738L10.7196 9.99436L10.3202 9.59426C10.1176 9.38593 9.78298 9.38632 9.58055 9.59465ZM9.53747 12.6346L12.6311 9.54106L19.5464 16.459L16.4528 19.5525L9.53747 12.6346ZM23.7149 2.27606L26.8078 5.37039L25.2434 6.93471L22.1501 3.84076L23.7149 2.27606ZM21.421 4.56982L24.514 7.66415L22.9498 9.22827L19.8566 6.13433L21.421 4.56982ZM19.1275 6.86338L22.2204 9.95772L20.656 11.522C19.6202 10.4498 18.6101 9.47519 17.563 8.42789L19.1275 6.86338ZM8.42523 17.5688L11.5182 20.663L9.95337 22.2279L6.86045 19.1337L8.42523 17.5688ZM6.13135 19.8626L9.22429 22.9569L7.65983 24.5212L4.56658 21.4275L6.13135 19.8626ZM3.83747 22.1565L6.93074 25.2511L5.36627 26.8154L2.27299 23.7209L3.83747 22.1565ZM21.0547 20.2623C21.2798 20.4876 21.2798 20.8372 21.0547 21.0625C20.8295 21.2876 20.4801 21.288 20.2549 21.0625C20.0298 20.8372 20.0298 20.487 20.2551 20.2619C20.4804 20.0368 20.8295 20.037 21.0547 20.2623ZM24.4989 20.6906C24.4999 22.6473 22.639 24.5088 20.6843 24.5086C19.9836 24.4891 19.9832 25.5529 20.6841 25.5397C23.2648 25.5397 25.5315 23.2726 25.5302 20.6903C25.5364 20.2202 24.9618 19.9875 24.6393 20.3297C24.5473 20.4272 24.497 20.5568 24.4989 20.6906ZM27.7015 20.638C27.7022 24.6045 24.607 27.7002 20.6426 27.7002C19.9415 27.6807 19.9418 28.7453 20.6428 28.7313C25.1495 28.7313 28.7334 25.146 28.7326 20.6376C28.739 20.1676 28.1642 19.9349 27.8417 20.2771C27.7497 20.3745 27.6996 20.5039 27.7015 20.638ZM30.9374 20.638C30.9381 26.2951 26.2965 30.9373 20.6419 30.9373C19.9542 30.9373 19.9542 31.9688 20.6419 31.9688C26.8612 31.9688 31.9694 26.859 31.9686 20.6376C31.975 20.1676 31.4002 19.9349 31.0777 20.2769C30.9857 20.3743 30.9355 20.5039 30.9374 20.638Z" fill="black"/>
</svg>
