<svg width="36" height="36" viewBox="0 0 36 36" fill="none" xmlns="http://www.w3.org/2000/svg">
<path d="M33.9825 3.82123H2.0175C1.48307 3.82123 0.970483 4.03327 0.592236 4.41081C0.213989 4.78836 0.000993355 5.30055 0 5.83498L0 26.79C0.000993355 27.3244 0.213989 27.8366 0.592236 28.2141C0.970483 28.5917 1.48307 28.8037 2.0175 28.8037H14.1262V31.4062H10.53C10.4305 31.4062 10.3352 31.4457 10.2648 31.5161C10.1945 31.5864 10.155 31.6818 10.155 31.7812V33.6562C10.155 33.7557 10.1945 33.8511 10.2648 33.9214C10.3352 33.9917 10.4305 34.0312 10.53 34.0312H25.47C25.5695 34.0312 25.6648 33.9917 25.7352 33.9214C25.8055 33.8511 25.845 33.7557 25.845 33.6562V31.7812C25.845 31.6818 25.8055 31.5864 25.7352 31.5161C25.6648 31.4457 25.5695 31.4062 25.47 31.4062H21.8738V28.8037H33.9825C34.5169 28.8037 35.0295 28.5917 35.4078 28.2141C35.786 27.8366 35.999 27.3244 36 26.79V5.83498C35.999 5.30055 35.786 4.78836 35.4078 4.41081C35.0295 4.03327 34.5169 3.82123 33.9825 3.82123ZM0.75 5.83498C0.749999 5.6687 0.782811 5.50406 0.846555 5.35049C0.910298 5.19692 1.00372 5.05744 1.12147 4.94004C1.23922 4.82264 1.37897 4.72964 1.53273 4.66635C1.68649 4.60306 1.85123 4.57073 2.0175 4.57123H33.9825C34.1488 4.57073 34.3135 4.60306 34.4673 4.66635C34.621 4.72964 34.7608 4.82264 34.8785 4.94004C34.9963 5.05744 35.0897 5.19692 35.1534 5.35049C35.2172 5.50406 35.25 5.6687 35.25 5.83498V23.9287C35.25 24.2649 35.1165 24.5873 34.8788 24.825C34.6411 25.0627 34.3187 25.1962 33.9825 25.1962H2.0175C1.68134 25.1962 1.35894 25.0627 1.12124 24.825C0.88354 24.5873 0.75 24.2649 0.75 23.9287V5.83498ZM25.095 33.2812H10.905V32.1562H25.095V33.2812ZM21.1238 31.4062H14.8762V28.8037H21.1238V31.4062ZM33.9825 28.0537H2.0175C1.85123 28.0542 1.68649 28.0219 1.53273 27.9586C1.37897 27.8953 1.23922 27.8023 1.12147 27.6849C1.00372 27.5675 0.910298 27.428 0.846555 27.2745C0.782811 27.1209 0.749999 26.9563 0.75 26.79V25.5C1.10598 25.7965 1.55421 25.9596 2.0175 25.9612H33.9825C34.4458 25.9596 34.894 25.7965 35.25 25.5V26.805C35.246 27.1382 35.1106 27.4564 34.8733 27.6902C34.6359 27.9241 34.3157 28.0547 33.9825 28.0537Z" fill="black"/>
<path d="M2.25 24.0712H33.75C33.8495 24.0712 33.9448 24.0317 34.0152 23.9614C34.0855 23.8911 34.125 23.7957 34.125 23.6962V6.07123C34.125 5.97177 34.0855 5.87639 34.0152 5.80606C33.9448 5.73574 33.8495 5.69623 33.75 5.69623H2.25C2.15054 5.69623 2.05516 5.73574 1.98484 5.80606C1.91451 5.87639 1.875 5.97177 1.875 6.07123V23.6962C1.875 23.7957 1.91451 23.8911 1.98484 23.9614C2.05516 24.0317 2.15054 24.0712 2.25 24.0712ZM2.625 6.44623H33.375V23.3212H2.625V6.44623Z" fill="black"/>
<path d="M20.2759 10.935C19.1246 7.85248 16.8746 7.87498 15.7234 10.935C12.4796 10.38 11.3321 12.345 13.4396 14.8837C11.3096 17.4525 12.5284 19.3837 15.7234 18.8325C16.8784 21.9112 19.1209 21.9075 20.2759 18.8325C23.4559 19.3762 24.6971 17.46 22.5596 14.8837C24.6559 12.375 23.5346 10.3762 20.2759 10.935ZM22.0496 14.31C21.6647 13.9256 21.2523 13.5697 20.8159 13.245C20.7526 12.7054 20.6485 12.1714 20.5046 11.6475C22.9159 11.2837 23.5946 12.3975 22.0496 14.3212V14.31ZM17.9996 17.31C17.2602 16.9713 16.5545 16.5632 15.8921 16.0912C15.8171 15.2817 15.8171 14.467 15.8921 13.6575C16.5558 13.1907 17.2613 12.7865 17.9996 12.45C18.739 12.7874 19.4446 13.1942 20.1071 13.665C20.1821 14.4745 20.1821 15.2892 20.1071 16.0987C19.4448 16.5708 18.7391 16.9788 17.9996 17.3175V17.31ZM19.9721 17.0887C19.9159 17.3925 19.8484 17.6812 19.7734 17.9512C19.4996 17.88 19.2146 17.7937 18.9296 17.6887C19.2746 17.5162 19.6234 17.3175 19.9721 17.0962V17.0887ZM17.0696 17.6887C16.7846 17.7937 16.4996 17.88 16.2259 17.9512C16.1509 17.6812 16.0834 17.3925 16.0271 17.0887C16.3571 17.3062 16.7096 17.5087 17.0696 17.6962V17.6887ZM15.0971 15.4875C14.8646 15.2887 14.6471 15.0862 14.4484 14.8837C14.6538 14.6712 14.8704 14.4697 15.0971 14.28C15.0784 14.7075 15.0784 15.06 15.0971 15.4875ZM16.0271 12.6712C16.0834 12.3637 16.1509 12.0787 16.2259 11.8087C16.4996 11.88 16.7846 11.9662 17.0696 12.0675C16.7246 12.2475 16.3759 12.45 16.0271 12.6712ZM18.9296 12.0675C19.2146 11.9662 19.4996 11.88 19.7734 11.8087C19.8484 12.0787 19.9159 12.3637 19.9721 12.6712C19.6421 12.4612 19.2896 12.2587 18.9296 12.0675ZM20.9021 14.28C21.1288 14.4697 21.3454 14.6712 21.5509 14.8837C21.3521 15.0862 21.1346 15.2887 20.9021 15.4875C20.9209 15.06 20.9209 14.7075 20.9021 14.28ZM17.9996 9.37498C18.5434 9.37498 19.1246 10.0125 19.5371 11.0925C19.0126 11.233 18.4987 11.411 17.9996 11.625C17.5005 11.411 16.9867 11.233 16.4621 11.0925C16.8746 10.0162 17.4559 9.37498 17.9996 9.37498ZM15.4946 11.655C15.3507 12.1789 15.2467 12.7129 15.1834 13.2525C14.7469 13.5772 14.3346 13.9331 13.9496 14.3175C12.4046 12.3975 13.0721 11.2837 15.4946 11.6587V11.655ZM13.9496 15.4425C14.3349 15.8242 14.7472 16.1776 15.1834 16.5C15.2471 17.0395 15.3511 17.5735 15.4946 18.0975C13.0871 18.48 12.4046 17.37 13.9496 15.4425ZM17.9996 20.3887C17.4559 20.3887 16.8746 19.7475 16.4621 18.6712C16.9873 18.531 17.5012 18.3518 17.9996 18.135C18.498 18.3518 19.012 18.531 19.5371 18.6712C19.1246 19.7475 18.5434 20.3887 17.9996 20.3887ZM20.5046 18.1087C20.6487 17.5811 20.7527 17.0433 20.8159 16.5C21.2524 16.174 21.6647 15.8168 22.0496 15.4312C23.5834 17.355 22.9384 18.4837 20.5046 18.1087Z" fill="black"/>
<path d="M8.4082 10.1962H5.71945C5.26394 10.1962 4.82709 10.3772 4.505 10.6993C4.1829 11.0214 4.00195 11.4582 4.00195 11.9137V17.85C4.00195 18.3058 4.18278 18.7431 4.50477 19.0658C4.82676 19.3885 5.2636 19.5702 5.71945 19.5712H8.4082C8.86406 19.5702 9.3009 19.3885 9.62289 19.0658C9.94487 18.7431 10.1257 18.3058 10.1257 17.85V11.9137C10.1247 11.4585 9.94344 11.0222 9.62156 10.7004C9.29969 10.3785 8.86341 10.1972 8.4082 10.1962ZM9.3757 17.85C9.37571 18.1069 9.27389 18.3534 9.09256 18.5354C8.91122 18.7175 8.66514 18.8202 8.4082 18.8212H5.71945C5.46251 18.8202 5.21643 18.7175 5.0351 18.5354C4.85376 18.3534 4.75195 18.1069 4.75195 17.85V11.9137C4.75294 11.6574 4.85519 11.4119 5.03642 11.2307C5.21765 11.0495 5.46316 10.9472 5.71945 10.9462H8.4082C8.6645 10.9472 8.91001 11.0495 9.09124 11.2307C9.27247 11.4119 9.37472 11.6574 9.3757 11.9137V17.85Z" fill="black"/>
<path d="M30.3105 10.1962H27.6255C27.1697 10.1962 26.7325 10.3771 26.4098 10.699C26.0871 11.021 25.9053 11.4579 25.9043 11.9137V17.85C25.9053 18.3062 26.087 18.7434 26.4095 19.066C26.7321 19.3886 27.1693 19.5702 27.6255 19.5712H30.3105C30.7667 19.5702 31.204 19.3886 31.5266 19.066C31.8491 18.7434 32.0308 18.3062 32.0318 17.85V11.9137C32.0308 11.4579 31.849 11.021 31.5263 10.699C31.2036 10.3771 30.7664 10.1962 30.3105 10.1962ZM26.6543 11.9137C26.6553 11.6568 26.7581 11.4107 26.9401 11.2294C27.1221 11.048 27.3686 10.9462 27.6255 10.9462H30.3105C30.5675 10.9462 30.814 11.048 30.996 11.2294C31.178 11.4107 31.2808 11.6568 31.2818 11.9137V12.2587H26.6543V11.9137ZM30.3105 18.8212H27.6255C27.368 18.8212 27.1209 18.7189 26.9388 18.5368C26.7566 18.3546 26.6543 18.1076 26.6543 17.85V13.0087H31.2818V17.85C31.2818 18.1076 31.1795 18.3546 30.9973 18.5368C30.8152 18.7189 30.5681 18.8212 30.3105 18.8212Z" fill="black"/>
<path d="M30.0722 13.7325H27.8672C27.7677 13.7325 27.6723 13.772 27.602 13.8423C27.5317 13.9126 27.4922 14.008 27.4922 14.1075C27.4922 14.2069 27.5317 14.3023 27.602 14.3726C27.6723 14.443 27.7677 14.4825 27.8672 14.4825H30.0722C30.1716 14.4825 30.267 14.443 30.3374 14.3726C30.4077 14.3023 30.4472 14.2069 30.4472 14.1075C30.4472 14.008 30.4077 13.9126 30.3374 13.8423C30.267 13.772 30.1716 13.7325 30.0722 13.7325Z" fill="black"/>
<path d="M30.0722 15.3525H27.8672C27.7677 15.3525 27.6723 15.392 27.602 15.4623C27.5317 15.5326 27.4922 15.628 27.4922 15.7275C27.4922 15.8269 27.5317 15.9223 27.602 15.9926C27.6723 16.063 27.7677 16.1025 27.8672 16.1025H30.0722C30.1716 16.1025 30.267 16.063 30.3374 15.9926C30.4077 15.9223 30.4472 15.8269 30.4472 15.7275C30.4472 15.628 30.4077 15.5326 30.3374 15.4623C30.267 15.392 30.1716 15.3525 30.0722 15.3525Z" fill="black"/>
<path d="M30.0722 16.9688H27.8672C27.7677 16.9688 27.6723 17.0083 27.602 17.0786C27.5317 17.1489 27.4922 17.2443 27.4922 17.3438C27.4922 17.4432 27.5317 17.5386 27.602 17.6089C27.6723 17.6792 27.7677 17.7188 27.8672 17.7188H30.0722C30.1716 17.7188 30.267 17.6792 30.3374 17.6089C30.4077 17.5386 30.4472 17.4432 30.4472 17.3438C30.4472 17.2443 30.4077 17.1489 30.3374 17.0786C30.267 17.0083 30.1716 16.9688 30.0722 16.9688Z" fill="black"/>
<path d="M8.18555 11.9437H5.93555C5.83609 11.9437 5.74071 11.9832 5.67038 12.0536C5.60006 12.1239 5.56055 12.2193 5.56055 12.3187C5.56055 12.4182 5.60006 12.5136 5.67038 12.5839C5.74071 12.6542 5.83609 12.6937 5.93555 12.6937H8.18555C8.285 12.6937 8.38039 12.6542 8.45071 12.5839C8.52104 12.5136 8.56055 12.4182 8.56055 12.3187C8.56055 12.2193 8.52104 12.1239 8.45071 12.0536C8.38039 11.9832 8.285 11.9437 8.18555 11.9437Z" fill="black"/>
<path d="M8.18555 13.5H5.93555C5.83609 13.5 5.74071 13.5395 5.67038 13.6098C5.60006 13.6802 5.56055 13.7755 5.56055 13.875C5.56055 13.9745 5.60006 14.0698 5.67038 14.1402C5.74071 14.2105 5.83609 14.25 5.93555 14.25H8.18555C8.285 14.25 8.38039 14.2105 8.45071 14.1402C8.52104 14.0698 8.56055 13.9745 8.56055 13.875C8.56055 13.7755 8.52104 13.6802 8.45071 13.6098C8.38039 13.5395 8.285 13.5 8.18555 13.5Z" fill="black"/>
<path d="M6.87305 15.0712H5.93555C5.83609 15.0712 5.74071 15.1107 5.67038 15.1811C5.60006 15.2514 5.56055 15.3468 5.56055 15.4462C5.56055 15.5457 5.60006 15.6411 5.67038 15.7114C5.74071 15.7817 5.83609 15.8212 5.93555 15.8212H6.87305C6.9725 15.8212 7.06789 15.7817 7.13821 15.7114C7.20854 15.6411 7.24805 15.5457 7.24805 15.4462C7.24805 15.3468 7.20854 15.2514 7.13821 15.1811C7.06789 15.1107 6.9725 15.0712 6.87305 15.0712Z" fill="black"/>
</svg>
