<svg width="36" height="36" viewBox="0 0 36 36" fill="none" xmlns="http://www.w3.org/2000/svg">
<path fill-rule="evenodd" clip-rule="evenodd" d="M30.3604 9.02307C29.9829 9.40013 29.3688 9.40013 28.9909 9.02307C28.6139 8.64593 28.6139 8.03026 28.9909 7.65319C29.3688 7.27613 29.9829 7.27613 30.3604 7.65319C30.7387 8.03033 30.7387 8.646 30.3604 9.02307ZM28.5388 16.1265C28.5388 16.7576 27.3217 17.6426 24.6204 18.2583V15.7302C24.6204 15.5301 24.4915 15.353 24.3014 15.2953C20.893 14.2362 15.1081 14.2362 11.6998 15.2953C11.5098 15.3531 11.3808 15.5301 11.3808 15.7302V18.2583C8.67951 17.6426 7.46235 16.7575 7.46235 16.1265C7.46235 14.9567 11.4712 13.3251 18.0006 13.3251C24.5299 13.3251 28.5388 14.9567 28.5388 16.1265ZM23.7072 21.1328V16.0688C23.1211 15.9034 22.4474 15.7687 21.7147 15.6648V20.6326C21.7147 20.7133 21.6939 20.7903 21.6546 20.8596L20.4159 23.026H22.6805L23.7072 21.1328ZM22.4301 28.7287H20.0863V23.9379H22.4301V28.7287ZM20.8016 32.1574H18.4574V29.6408H20.8016V32.1574ZM16.8285 28.7287V23.9379H19.1727V28.7287H16.8285ZM17.5439 32.1574H15.1997V29.6408H17.5439V32.1574ZM13.5708 28.7287V23.9379H15.9154V28.7287H13.5708ZM15.1996 20.5094L16.6369 23.0261H19.3647L20.8016 20.5094V15.5532C19.0304 15.3683 16.9708 15.3683 15.1996 15.5532V20.5094ZM12.294 21.1251L13.3791 23.026H15.5844L14.3465 20.8596C14.3068 20.7903 14.2864 20.7133 14.2864 20.6326V15.6648C13.553 15.7687 12.8796 15.9033 12.2939 16.0688V21.1251H12.294ZM7.00991 9.02307C6.40655 9.63406 5.35679 9.2004 5.35679 8.33813C5.35679 7.48003 6.40014 7.04019 7.00991 7.65319C7.38776 8.03033 7.38776 8.646 7.00991 9.02307ZM11.018 5.49831C10.4074 6.10771 9.36452 5.66916 9.36452 4.81337C9.36452 3.95686 10.4019 3.51679 11.018 4.12843C11.3967 4.50435 11.3967 5.11656 11.018 5.49831ZM24.9836 4.12843C25.3634 3.74863 25.9729 3.74914 26.3527 4.12843C26.7302 4.5055 26.7302 5.12124 26.3527 5.49831C25.7427 6.10771 24.6996 5.66938 24.6996 4.81337C24.6996 4.55172 24.8 4.3093 24.9836 4.12843ZM31.0065 7.00671C30.2727 6.27173 29.0786 6.27173 28.3448 7.00671C27.7226 7.63008 27.6283 8.58437 28.062 9.30783L25.7535 11.6166C25.6685 11.7013 25.6208 11.8129 25.6196 11.936L25.6115 13.3021C24.4818 12.9904 23.1723 12.7557 21.7562 12.6056L21.7751 9.35023L24.7004 6.42574C25.4372 6.86587 26.3814 6.76147 26.9988 6.14487C27.7327 5.40989 27.7327 4.21699 26.9988 3.48202C26.265 2.74704 25.071 2.74704 24.3376 3.48202C23.7238 4.09474 23.6117 5.04773 24.0536 5.77925L20.9963 8.83839C20.9113 8.92306 20.8636 9.03847 20.8624 9.15778L20.8428 12.521C19.0367 12.377 16.9643 12.377 15.1581 12.521L15.1389 9.15778C15.1377 9.03847 15.09 8.92306 15.0049 8.83839L11.9477 5.77925C12.3894 5.04629 12.2774 4.09503 11.6637 3.48202C10.9302 2.74704 9.73619 2.74704 9.00243 3.48202C8.26602 4.21743 8.26861 5.41018 9.00243 6.14487C9.61818 6.76126 10.5643 6.8658 11.3009 6.42574L14.2262 9.35023L14.245 12.6056C12.8286 12.7557 11.5195 12.9905 10.3893 13.3021L10.3816 11.936C10.3804 11.8129 10.3327 11.7013 10.2477 11.6166L7.93921 9.30783C8.37287 8.58437 8.27826 7.63008 7.65596 7.00671C6.92092 6.27259 5.72752 6.27317 4.9947 7.00671C4.25958 7.74262 4.25958 8.93364 4.9947 9.66955C5.60677 10.2823 6.56063 10.3931 7.29388 9.95431L9.46878 12.1284L9.4772 13.583C7.55819 14.2525 6.54925 15.1222 6.54925 16.1265C6.54925 17.8427 9.42299 18.7662 11.3808 19.1972V21.2482C11.3808 21.329 11.4012 21.406 11.4409 21.4753L12.6576 23.6032V29.1828C12.6576 29.4369 12.8616 29.6408 13.1144 29.6408H14.2864V32.6153C14.2864 32.8654 14.4908 33.0694 14.7428 33.0694H21.2583C21.5103 33.0694 21.7146 32.8654 21.7146 32.6153V29.6408H22.8867C23.1395 29.6408 23.3435 29.4368 23.3435 29.1828V23.7187L24.5648 21.4676C24.6014 21.3984 24.6202 21.3253 24.6202 21.2483V19.1973C26.5781 18.7663 29.4518 17.8428 29.4518 16.1266C29.4518 15.1223 28.4429 14.2526 26.5238 13.583L26.5323 12.1285L28.7076 9.9505C29.4343 10.3935 30.3921 10.2837 31.0064 9.66963C31.7403 8.93458 31.7403 7.74168 31.0065 7.00671Z" fill="black"/>
</svg>
