<svg width="35" height="35" viewBox="0 0 35 35" fill="none" xmlns="http://www.w3.org/2000/svg">
<g clip-path="url(#clip0_176_255)">
<path d="M16.2608 14.1329C14.9933 14.1329 13.9621 15.1641 13.9621 16.4317C13.9621 17.6992 14.9933 18.7304 16.2608 18.7304C17.5284 18.7304 18.5596 17.6992 18.5596 16.4317C18.5596 15.1641 17.5284 14.1329 16.2608 14.1329ZM16.2608 17.6366C15.5964 17.6366 15.0559 17.0961 15.0559 16.4317C15.0559 15.7672 15.5965 15.2267 16.2608 15.2267C16.9252 15.2267 17.4658 15.7672 17.4658 16.4317C17.4658 17.0961 16.9253 17.6366 16.2608 17.6366ZM12.6623 8.09871C12.5026 8.5198 12.3564 8.9664 12.2242 9.43466C11.7491 9.31366 11.2863 9.21604 10.8391 9.14345C8.30204 8.73097 6.51629 9.17688 5.81103 10.3985C5.43587 11.0482 5.40374 11.853 5.70049 12.7637C5.30503 13.1972 5.21555 13.8528 5.52453 14.388C5.82675 14.9114 6.41908 15.1612 6.981 15.0545C7.06351 15.1625 7.14889 15.271 7.23816 15.3805C7.52391 15.7305 7.83897 16.0817 8.18022 16.4317C7.83891 16.7817 7.52384 17.1329 7.23816 17.4829C5.61265 19.4741 5.10583 21.2433 5.81109 22.4649C6.34498 23.3895 7.49786 23.8697 9.12714 23.8697C9.65029 23.8697 10.2225 23.8202 10.8392 23.7201C11.2863 23.6474 11.7492 23.5498 12.2242 23.4288C12.3564 23.8971 12.5027 24.3436 12.6623 24.7648C13.5756 27.1723 14.8535 28.4982 16.2609 28.4982C17.0091 28.4982 17.7207 28.1234 18.3604 27.4106C18.9347 27.5385 19.5495 27.2881 19.8593 26.7516C20.1624 26.2266 20.0812 25.5863 19.7048 25.1529C19.7574 25.0267 19.809 24.8977 19.8595 24.7648C20.0192 24.3437 20.1655 23.8972 20.2976 23.4288C20.7726 23.5498 21.2355 23.6475 21.6826 23.7201C22.2994 23.8203 22.8715 23.8697 23.3947 23.8697C25.0238 23.8697 26.1769 23.3895 26.7107 22.4649C27.416 21.2433 26.9092 19.474 25.2837 17.4829C24.9979 17.1329 24.6829 16.7817 24.3415 16.4317C24.6829 16.0817 24.9979 15.7306 25.2837 15.3805C26.9092 13.3894 27.416 11.62 26.7107 10.3985C26.3355 9.74856 25.6545 9.31831 24.7172 9.11993C24.5388 8.56178 24.015 8.15552 23.3989 8.15552C22.7966 8.15552 22.2834 8.54448 22.0941 9.08356C21.9591 9.10106 21.8222 9.12068 21.6826 9.14338C21.2355 9.21604 20.7726 9.31359 20.2976 9.43459C20.1654 8.96626 20.0192 8.51974 19.8594 8.09864C18.9463 5.69109 17.6682 4.36526 16.2609 4.36526C14.8536 4.36526 13.5756 5.69123 12.6623 8.09871ZM7.891 14.437C8.15739 14.0161 8.18761 13.4656 7.92121 13.0044C7.6622 12.5558 7.1899 12.3079 6.7064 12.3132C6.54452 11.7608 6.55758 11.2931 6.75828 10.9454C7.08142 10.3857 7.91608 10.0911 9.11128 10.0911C9.91286 10.0911 10.8767 10.2239 11.9568 10.4979C11.7358 11.4875 11.5719 12.5524 11.4697 13.6645C10.5561 14.3094 9.71489 14.9836 8.968 15.669C8.55798 15.2478 8.19813 14.835 7.891 14.437ZM11.3738 17.7744C10.7831 17.3264 10.2423 16.8761 9.75488 16.4306C10.2525 15.9767 10.7943 15.5273 11.3738 15.0883C11.3546 15.5315 11.3445 15.9797 11.3445 16.4317C11.3445 16.8837 11.3546 17.3315 11.3738 17.7744ZM10.6638 22.6405C8.6666 22.9652 7.20672 22.6949 6.75828 21.9181C6.30984 21.1413 6.80593 19.7419 8.08541 18.1746C8.35208 17.8479 8.6465 17.5198 8.96567 17.1924C9.71318 17.8785 10.5552 18.5534 11.4697 19.199C11.5721 20.3123 11.7361 21.3782 11.9575 22.3687C11.5133 22.4817 11.0809 22.5728 10.6638 22.6405V22.6405ZM22.1743 10.1809C22.4063 10.6213 22.8681 10.9231 23.3989 10.9231C23.9153 10.9231 24.3664 10.6373 24.6041 10.2163C25.1639 10.3523 25.5627 10.5976 25.7635 10.9453C26.3028 11.8801 25.4883 13.6812 23.5536 15.6689C22.8067 14.9835 21.9656 14.3094 21.052 13.6645C20.9498 12.5523 20.7859 11.4874 20.5649 10.4978C21.1364 10.3528 21.6747 10.2479 22.1742 10.1808L22.1743 10.1809ZM21.148 15.089C21.7381 15.5366 22.2785 15.9865 22.7655 16.4317C22.2785 16.8768 21.7381 17.3267 21.148 17.7744C21.1672 17.3315 21.1773 16.8834 21.1773 16.4317C21.1773 15.9799 21.1672 15.5319 21.148 15.089ZM21.052 19.1989C21.9656 18.5539 22.8069 17.8798 23.5538 17.1943C25.4887 19.1822 26.3031 20.9833 25.7635 21.918C25.315 22.6948 23.8551 22.9648 21.858 22.6403C21.4408 22.5726 21.0085 22.4815 20.5642 22.3685C20.7856 21.378 20.9496 20.3121 21.052 19.1988V19.1989ZM13.0084 10.7989C13.6375 10.9982 14.297 11.2406 14.9798 11.528C14.5868 11.7328 14.1939 11.9482 13.8026 12.1741C13.4114 12.4 13.0284 12.6326 12.6546 12.8705C12.7471 12.1358 12.8666 11.4431 13.0084 10.7989ZM12.6546 19.9929C13.0285 20.2308 13.4114 20.4634 13.8026 20.6893C14.1942 20.9153 14.5873 21.1308 14.9805 21.3358C14.3107 21.6182 13.6507 21.8627 13.0089 22.0666C12.8667 21.4217 12.7472 20.7284 12.6546 19.9929ZM18.7182 24.6775C18.2205 24.6573 17.7287 24.9064 17.4624 25.3677C17.2034 25.8162 17.2249 26.3492 17.4713 26.7653C17.0738 27.1817 16.6623 27.4043 16.2608 27.4043C15.1816 27.4043 14.029 25.7984 13.2749 23.1288C14.2417 22.8248 15.2458 22.4335 16.2608 21.965C17.2758 22.4335 18.2799 22.8248 19.2467 23.1288C19.0869 23.6945 18.9092 24.2126 18.7182 24.6776L18.7182 24.6775ZM19.5128 22.0666C18.8709 21.8627 18.2109 21.6181 17.5411 21.3358C17.9343 21.1308 18.3275 20.9153 18.719 20.6893C19.1103 20.4634 19.4932 20.2308 19.8671 19.9929C19.7745 20.7284 19.6548 21.4218 19.5127 22.0666H19.5128ZM20.0834 16.4316C20.0834 17.18 20.0562 17.9018 20.0056 18.5937C19.4317 18.9834 18.8203 19.368 18.1722 19.7422C17.5362 20.1094 16.8967 20.448 16.2608 20.7558C15.625 20.448 14.9856 20.1094 14.3495 19.7422C13.7014 19.368 13.09 18.9834 12.5161 18.5937C12.4655 17.9018 12.4383 17.18 12.4383 16.4316C12.4383 15.6832 12.4655 14.9615 12.5161 14.2696C13.1005 13.8728 13.7135 13.4884 14.3495 13.1211C14.9976 12.7469 15.6363 12.4098 16.2608 12.1076C16.8853 12.4098 17.524 12.7469 18.1721 13.1211C18.8202 13.4953 19.4316 13.8798 20.0056 14.2695C20.0561 14.9614 20.0834 15.6832 20.0834 16.4315L20.0834 16.4316ZM19.8671 12.8704C19.4932 12.6325 19.1103 12.3999 18.7191 12.174C18.3278 11.9481 17.9348 11.7328 17.5419 11.5279C18.2247 11.2406 18.8842 10.9981 19.5133 10.7988C19.6552 11.4431 19.7746 12.1357 19.8671 12.8704ZM16.2608 5.45895C17.34 5.45895 18.4927 7.06484 19.2468 9.73448C18.28 10.0385 17.2759 10.4298 16.2608 10.8983C15.2458 10.4298 14.2417 10.0385 13.2749 9.73448C14.029 7.06484 15.1817 5.45895 16.2608 5.45895ZM31.3544 18.6496C31.2216 18.5729 31.0822 18.5134 30.9389 18.4706V13.5267C30.9389 13.2247 30.6941 12.9798 30.392 12.9798C30.09 12.9798 29.8452 13.2247 29.8452 13.5267V18.4716C29.3703 18.612 28.9737 18.9234 28.7252 19.3539C28.4681 19.7992 28.3998 20.3179 28.5329 20.8144C28.666 21.311 28.9844 21.726 29.4297 21.9831C29.732 22.1576 30.0624 22.2406 30.3888 22.2406C31.0544 22.2406 31.7028 21.8953 32.0588 21.2787C32.5894 20.3596 32.2734 19.1802 31.3544 18.6496ZM31.1117 20.7318C30.8826 21.1285 30.3734 21.265 29.9766 21.0359C29.7844 20.9249 29.6469 20.7457 29.5894 20.5314C29.532 20.3169 29.5615 20.093 29.6724 19.9008C29.7834 19.7086 29.9626 19.5711 30.177 19.5136C30.2485 19.4945 30.3211 19.485 30.3933 19.485C30.5373 19.485 30.6795 19.5228 30.8075 19.5967C31.2043 19.8258 31.3407 20.335 31.1117 20.7317V20.7318ZM18.9999 3.91819C19.3022 4.09278 19.6326 4.17563 19.959 4.17563C20.447 4.17563 20.9252 3.98942 21.2863 3.64729L25.1568 5.88188C25.2429 5.93165 25.3369 5.95523 25.4298 5.95523C25.6188 5.95523 25.8026 5.85714 25.9039 5.68173C26.0549 5.42019 25.9653 5.0857 25.7037 4.9347L21.8344 2.70078C21.9089 2.39228 21.9058 2.06839 21.8214 1.75325C21.6884 1.25662 21.3699 0.841611 20.9247 0.58458C20.0055 0.0539746 18.8262 0.37 18.2955 1.28909C17.7649 2.20812 18.0809 3.38752 19 3.91819H18.9999ZM19.2426 1.83597C19.3964 1.56971 19.6762 1.42068 19.9636 1.42068C20.1045 1.42068 20.2472 1.4565 20.3777 1.53184C20.5699 1.64278 20.7074 1.82202 20.7648 2.03633C20.8223 2.2507 20.7928 2.47465 20.6819 2.66688C20.4527 3.0637 19.9436 3.20008 19.5468 2.97101C19.1501 2.74193 19.0136 2.23272 19.2427 1.83597H19.2426ZM25.7284 25.0605C25.2832 25.3176 24.9647 25.7326 24.8317 26.2293C24.7473 26.5443 24.7442 26.8683 24.8187 27.1768L17.5861 31.3525C17.3562 31.1338 17.0741 30.9744 16.7591 30.89C16.2625 30.7569 15.7438 30.8253 15.2986 31.0822C15.1659 31.1589 15.0446 31.2499 14.9359 31.3527L7.7013 27.1757C7.81238 26.713 7.75407 26.2087 7.49793 25.765C6.96726 24.8459 5.78785 24.53 4.86876 25.0605C4.42354 25.3176 4.10505 25.7326 3.97202 26.2293C3.83899 26.7258 3.90722 27.2445 4.16425 27.6897C4.42135 28.1349 4.83636 28.4534 5.33292 28.5864C5.49876 28.6309 5.66699 28.6529 5.8342 28.6529C6.16766 28.6529 6.49687 28.5654 6.79342 28.3941C6.92727 28.3169 7.04792 28.2255 7.15545 28.1235L14.3899 32.3003C14.2741 32.7818 14.3456 33.2809 14.5941 33.7114C14.9502 34.3281 15.5984 34.6734 16.2641 34.6733C16.5904 34.6733 16.9209 34.5904 17.2232 34.4158C17.9778 33.9802 18.3254 33.1072 18.1322 32.3L25.3655 28.1238C25.5954 28.3426 25.8775 28.5019 26.1926 28.5864C26.3584 28.6308 26.5267 28.6528 26.6939 28.6528C27.0273 28.6528 27.3565 28.5653 27.6531 28.3941C28.5721 27.8635 28.8881 26.6841 28.3575 25.765C27.8269 24.8459 26.6475 24.5299 25.7284 25.0604V25.0605ZM6.24647 27.4469C6.05432 27.5578 5.83037 27.5875 5.616 27.5299C5.40162 27.4725 5.22245 27.335 5.11144 27.1428C5.00049 26.9506 4.97096 26.7266 5.02845 26.5123C5.08594 26.2979 5.22341 26.1187 5.41563 26.0078C5.81232 25.7786 6.3216 25.9151 6.55067 26.3118C6.77975 26.7087 6.6433 27.2178 6.24647 27.4469V27.4469ZM16.6763 33.4687C16.4841 33.5796 16.2603 33.6091 16.0458 33.5516C15.8314 33.4941 15.6522 33.3567 15.5413 33.1645C15.4303 32.9723 15.4008 32.7484 15.4583 32.534C15.5157 32.3196 15.6533 32.1404 15.8455 32.0294C15.9735 31.9555 16.1156 31.9177 16.2596 31.9177C16.3317 31.9177 16.4044 31.9272 16.476 31.9464C16.6904 32.0038 16.8695 32.1414 16.9805 32.3335C17.2096 32.7304 17.0732 33.2395 16.6764 33.4686L16.6763 33.4687ZM27.1062 27.4469C26.914 27.5578 26.6901 27.5874 26.4757 27.53C26.2613 27.4725 26.0822 27.335 25.9712 27.1428C25.8601 26.9506 25.8307 26.7267 25.8882 26.5123C25.9456 26.2979 26.0831 26.1187 26.2754 26.0078C26.4059 25.9324 26.5485 25.8966 26.6894 25.8966C26.9768 25.8966 27.2567 26.0456 27.4104 26.3118C27.6395 26.7087 27.503 27.2178 27.1063 27.4469L27.1062 27.4469ZM34.6347 7.29686C34.5279 7.40363 34.3879 7.45702 34.248 7.45702C34.108 7.45702 33.968 7.40363 33.8613 7.29686C31.9484 5.38389 28.8358 5.38396 26.9228 7.29686C26.7092 7.51048 26.3629 7.51048 26.1494 7.29686C25.9358 7.0833 25.9359 6.73706 26.1494 6.52351C27.2827 5.39024 28.7894 4.76612 30.392 4.76612C31.9946 4.76612 33.5014 5.39018 34.6346 6.52351C34.8482 6.73706 34.8482 7.0833 34.6346 7.29686H34.6347ZM31.4936 10.2114C31.3537 10.2114 31.2137 10.158 31.1069 10.0513C30.7128 9.65703 30.0715 9.65689 29.6772 10.0513C29.4636 10.2647 29.1174 10.2647 28.9038 10.0513C28.6903 9.83764 28.6903 9.49146 28.9038 9.27784C29.7244 8.45726 31.0598 8.45726 31.8804 9.27784C32.0939 9.49146 32.0939 9.83764 31.8804 10.0513C31.7736 10.158 31.6336 10.2114 31.4936 10.2114ZM33.2482 7.90997C33.4617 8.12353 33.4618 8.46977 33.2482 8.68332C33.0346 8.89694 32.6884 8.89688 32.4748 8.68332C31.3264 7.53502 29.4579 7.53495 28.3095 8.68332C28.2027 8.7901 28.0627 8.84349 27.9228 8.84349C27.7828 8.84349 27.6428 8.7901 27.536 8.68332C27.3224 8.4697 27.3225 8.12346 27.536 7.9099C29.1109 6.33511 31.6734 6.33524 33.2482 7.90997ZM31.1691 11.378C31.1691 11.806 30.82 12.155 30.3921 12.155C29.9642 12.155 29.6151 11.806 29.6151 11.378C29.6151 10.9501 29.9642 10.6011 30.3921 10.6011C30.82 10.6011 31.1691 10.9501 31.1691 11.378ZM2.67661 18.4713V10.1181C3.47225 9.88187 4.05446 9.14434 4.05446 8.27303C4.05446 8.11847 4.03566 7.96828 4.00107 7.82411L11.2362 3.64687C11.5814 3.97445 12.0473 4.17604 12.5596 4.17604C13.6209 4.17604 14.4843 3.31267 14.4843 2.25139C14.4843 1.19011 13.6209 0.32666 12.5596 0.32666C11.4983 0.32666 10.6349 1.19011 10.6349 2.25139C10.6349 2.40595 10.6537 2.55613 10.6883 2.7003L3.45311 6.87754C3.10789 6.55003 2.64202 6.34844 2.12974 6.34844C1.06853 6.34844 0.205078 7.21182 0.205078 8.2731C0.205078 9.1444 0.787227 9.88186 1.58286 10.1182V18.4714C0.787227 18.7076 0.205078 19.4451 0.205078 20.3164C0.205078 21.3777 1.06846 22.2411 2.12974 22.2411C3.19102 22.2411 4.05446 21.3777 4.05446 20.3164C4.05446 19.4451 3.47231 18.7076 2.67661 18.4713ZM12.5596 1.42041C13.0178 1.42041 13.3905 1.79317 13.3905 2.25139C13.3905 2.7096 13.0177 3.08229 12.5596 3.08229C12.1015 3.08229 11.7287 2.70953 11.7287 2.25139C11.7287 1.79324 12.1015 1.42041 12.5596 1.42041ZM1.29883 8.27303C1.29883 7.81488 1.67159 7.44212 2.12974 7.44212C2.58788 7.44212 2.96071 7.81488 2.96071 8.27303C2.96071 8.73117 2.58795 9.10393 2.12974 9.10393C1.67152 9.10393 1.29883 8.73117 1.29883 8.27303ZM2.12974 21.1473C1.67159 21.1473 1.29883 20.7745 1.29883 20.3164C1.29883 19.8582 1.67159 19.4855 2.12974 19.4855C2.58788 19.4855 2.96071 19.8582 2.96071 20.3164C2.96071 20.7745 2.58795 21.1473 2.12974 21.1473Z" fill="black"/>
</g>
<defs>
<clipPath id="clip0_176_255">
<rect width="35" height="35" fill="white"/>
</clipPath>
</defs>
</svg>
