<svg width="37" height="37" viewBox="0 0 37 37" fill="none" xmlns="http://www.w3.org/2000/svg">
<path d="M2.3125 12.7187C2.15917 12.7187 2.01212 12.7797 1.9037 12.8881C1.79528 12.9965 1.73438 13.1435 1.73438 13.2969V15.6094C1.73438 15.7627 1.79528 15.9098 1.9037 16.0182C2.01212 16.1266 2.15917 16.1875 2.3125 16.1875H3.57303C3.75433 16.9732 4.05497 17.7264 4.4645 18.421L3.05994 19.8256C3.00626 19.8792 2.96367 19.943 2.93461 20.0131C2.90556 20.0833 2.8906 20.1585 2.8906 20.2344C2.8906 20.3103 2.90556 20.3855 2.93461 20.4556C2.96367 20.5258 3.00626 20.5895 3.05994 20.6432L4.79432 22.3776C4.848 22.4312 4.91174 22.4738 4.98188 22.5029C5.05202 22.5319 5.1272 22.5469 5.20312 22.5469C5.27905 22.5469 5.35423 22.5319 5.42437 22.5029C5.49451 22.4738 5.55825 22.4312 5.61193 22.3776L7.01649 20.973C7.71107 21.3825 8.46432 21.6832 9.25 21.8645V23.7031C9.25 23.8565 9.31091 24.0035 9.41933 24.1119C9.52775 24.2203 9.6748 24.2812 9.82812 24.2812H11.8552C12.2255 25.7175 12.9358 27.0435 13.9263 28.1475C14.9169 29.2515 16.1584 30.1009 17.5462 30.6242C18.9341 31.1475 20.4274 31.3292 21.9002 31.154C23.373 30.9788 24.7821 30.4518 26.0084 29.6176L31.7267 35.3358C31.8878 35.4968 32.079 35.6246 32.2894 35.7118C32.4998 35.7989 32.7254 35.8438 32.9531 35.8438C33.1809 35.8438 33.4064 35.7989 33.6169 35.7118C33.8273 35.6246 34.0185 35.4968 34.1795 35.3358C34.3406 35.1747 34.4684 34.9835 34.5555 34.7731C34.6427 34.5627 34.6875 34.3371 34.6875 34.1094C34.6875 33.8816 34.6427 33.6561 34.5555 33.4456C34.4684 33.2352 34.3406 33.044 34.1795 32.883L28.4612 27.1646C29.729 25.3027 30.2724 23.0416 29.9892 20.8069C29.706 18.5722 28.6158 16.5181 26.9236 15.0312H27.75C27.9033 15.0312 28.0504 14.9703 28.1588 14.8619C28.2672 14.7535 28.3281 14.6065 28.3281 14.4531V12.2461C28.4421 11.9441 30.0625 7.64021 30.0625 7.51562C30.0625 6.24433 29.704 5.24128 28.997 4.53423C28.29 3.82719 27.2869 3.46875 26.0156 3.46875C24.7443 3.46875 23.7413 3.82726 23.0342 4.53423C22.3272 5.24121 21.9687 6.24433 21.9687 7.51562C21.9687 7.58493 23.7031 12.2454 23.7031 12.2454V13.1818C22.7704 12.8744 21.7946 12.7181 20.8125 12.7187H18.3957C18.2144 11.9331 17.9138 11.1798 17.5042 10.4852L18.9088 9.08068C18.9625 9.027 19.0051 8.96326 19.0341 8.89312C19.0632 8.82298 19.0781 8.7478 19.0781 8.67187C19.0781 8.59595 19.0632 8.52077 19.0341 8.45063C19.0051 8.38049 18.9625 8.31675 18.9088 8.26307L17.1744 6.52869C17.1207 6.47501 17.057 6.43242 16.9869 6.40336C16.9167 6.37431 16.8415 6.35935 16.7656 6.35935C16.6897 6.35935 16.6145 6.37431 16.5444 6.40336C16.4742 6.43242 16.4105 6.47501 16.3568 6.52869L14.9523 7.93325C14.2577 7.52372 13.5044 7.22308 12.7187 7.04178V5.20312C12.7187 5.0498 12.6578 4.90275 12.5494 4.79433C12.441 4.68591 12.294 4.625 12.1406 4.625H9.82812C9.6748 4.625 9.52775 4.68591 9.41933 4.79433C9.31091 4.90275 9.25 5.0498 9.25 5.20312V7.04178C8.46432 7.22308 7.71107 7.52372 7.01649 7.93325L5.61193 6.52869C5.55825 6.47501 5.49451 6.43242 5.42437 6.40336C5.35423 6.37431 5.27905 6.35935 5.20312 6.35935C5.1272 6.35935 5.05202 6.37431 4.98188 6.40336C4.91174 6.43242 4.848 6.47501 4.79432 6.52869L3.05994 8.26307C3.00626 8.31675 2.96367 8.38049 2.93461 8.45063C2.90556 8.52077 2.8906 8.59595 2.8906 8.67187C2.8906 8.7478 2.90556 8.82298 2.93461 8.89312C2.96367 8.96326 3.00626 9.027 3.05994 9.08068L4.4645 10.4852C4.05497 11.1798 3.75433 11.9331 3.57303 12.7187H2.3125ZM33.3619 33.7006C33.4169 33.754 33.4607 33.8178 33.4908 33.8883C33.5209 33.9588 33.5367 34.0345 33.5372 34.1111C33.5378 34.1878 33.5231 34.2638 33.494 34.3347C33.465 34.4056 33.4221 34.47 33.3679 34.5242C33.3137 34.5783 33.2493 34.6212 33.1784 34.6503C33.1075 34.6793 33.0315 34.694 32.9549 34.6935C32.8783 34.6929 32.8025 34.6771 32.732 34.647C32.6616 34.6169 32.5978 34.5731 32.5444 34.5181L26.9282 28.9021C27.2173 28.6467 27.4904 28.3737 27.7457 28.0845L33.3619 33.7006ZM23.1259 7.4133C23.1602 5.56294 24.132 4.625 26.0156 4.625C27.9018 4.625 28.8734 5.56518 28.9054 7.42002C28.7429 7.8664 27.9528 9.96565 27.3503 11.5625H24.6818L23.1259 7.4133ZM24.8594 12.7187H27.1719V13.875H25.2863C25.1462 13.7972 25.0039 13.723 24.8594 13.6522V12.7187ZM28.9062 21.9687C28.9062 23.5693 28.4317 25.1339 27.5426 26.4648C26.6535 27.7957 25.3897 28.8331 23.9111 29.4459C22.4325 30.0586 20.8054 30.2192 19.2355 29.9074C17.6657 29.5955 16.2235 28.8252 15.0913 27.6939C13.9592 26.5625 13.1879 25.1208 12.8749 23.5512C12.562 21.9815 12.7215 20.3543 13.3333 18.8753C13.945 17.3962 14.9815 16.1318 16.3118 15.2417C17.6421 14.3517 19.2064 13.8761 20.8069 13.875H20.8125C22.9583 13.8774 25.0156 14.7309 26.533 16.2483C28.0503 17.7656 28.9038 19.8229 28.9062 21.9687ZM10.9844 17.3437C10.4127 17.3437 9.85379 17.1742 9.37843 16.8566C8.90307 16.539 8.53257 16.0875 8.31378 15.5593C8.095 15.0311 8.03776 14.4499 8.14929 13.8892C8.26083 13.3285 8.53613 12.8134 8.94039 12.4091C9.34466 12.0049 9.85971 11.7296 10.4204 11.618C10.9812 11.5065 11.5624 11.5638 12.0906 11.7825C12.6188 12.0013 13.0702 12.3718 13.3878 12.8472C13.7055 13.3225 13.875 13.8814 13.875 14.4531C13.8741 15.2195 13.5693 15.9542 13.0274 16.4962C12.4855 17.0381 11.7508 17.3429 10.9844 17.3437ZM4.61712 13.392C4.77598 12.4414 5.13746 11.536 5.67704 10.7374C5.75484 10.626 5.79097 10.4909 5.77907 10.3556C5.76718 10.2203 5.70803 10.0935 5.612 9.99744L4.28629 8.67187L5.20312 7.75504L6.52869 9.08068C6.62474 9.17671 6.75153 9.23586 6.88683 9.24775C7.02213 9.25964 7.15729 9.22352 7.26862 9.14572C8.06727 8.60614 8.97264 8.24466 9.9233 8.0858C10.0582 8.06328 10.1808 7.99362 10.2693 7.88922C10.3577 7.78482 10.4062 7.65244 10.4062 7.51562V5.78125H11.5625V7.51562C11.5625 7.65245 11.611 7.78485 11.6995 7.88927C11.7879 7.99368 11.9105 8.06335 12.0455 8.08587C12.9961 8.24473 13.9015 8.60621 14.7001 9.14579C14.8115 9.22359 14.9466 9.25972 15.0819 9.24782C15.2172 9.23593 15.344 9.17678 15.4401 9.08075L16.7656 7.75504L17.6825 8.67187L16.3568 9.99744C16.2608 10.0935 16.2016 10.2203 16.1897 10.3556C16.1779 10.4909 16.214 10.626 16.2918 10.7374C16.8311 11.5357 17.1925 12.4406 17.3515 13.3908C16.5106 13.7317 15.7244 14.1943 15.0181 14.7639C15.026 14.661 15.0312 14.5575 15.0312 14.4528C15.0316 13.5931 14.7583 12.7556 14.2509 12.0616C13.7436 11.3676 13.0284 10.8531 12.2091 10.5927C11.3898 10.3322 10.5089 10.3394 9.69394 10.613C8.87896 10.8866 8.17225 11.4126 7.67615 12.1147C7.18005 12.8168 6.92033 13.6586 6.93459 14.5182C6.94885 15.3778 7.23636 16.2105 7.75548 16.8958C8.2746 17.581 8.99837 18.0832 9.82198 18.3297C10.6456 18.5762 11.5263 18.5541 12.3365 18.2666C11.8248 19.4337 11.5612 20.6944 11.5625 21.9687C11.5626 22.3553 11.5867 22.7415 11.6348 23.125H10.4062V21.3906C10.4063 21.2538 10.3577 21.1214 10.2693 21.017C10.1809 20.9126 10.0583 20.8429 9.9233 20.8204C8.97264 20.6615 8.06727 20.3 7.26862 19.7605C7.15729 19.6827 7.02213 19.6465 6.88683 19.6584C6.75153 19.6703 6.62474 19.7295 6.52869 19.8255L5.20312 21.1512L4.28629 20.2344L5.61193 18.9088C5.70796 18.8128 5.76711 18.686 5.779 18.5507C5.79089 18.4154 5.75477 18.2802 5.67697 18.1689C5.13739 17.3702 4.77591 16.4649 4.61705 15.5142C4.59453 15.3792 4.52487 15.2567 4.42047 15.1682C4.31607 15.0798 4.18369 15.0313 4.04687 15.0312H2.89062V13.875H4.04687C4.18371 13.875 4.3161 13.8265 4.42052 13.738C4.52493 13.6496 4.5946 13.527 4.61712 13.392Z" fill="black"/>
<path d="M19.7173 3.21016C19.6487 3.34729 19.6374 3.50605 19.6859 3.65151C19.7344 3.79696 19.8387 3.91721 19.9758 3.98579L21.132 4.56391C21.2 4.59857 21.2742 4.61943 21.3502 4.62529C21.4263 4.63114 21.5028 4.62189 21.5753 4.59804C21.6478 4.5742 21.7148 4.53625 21.7725 4.48637C21.8303 4.4365 21.8776 4.37568 21.9117 4.30744C21.9458 4.2392 21.9661 4.16488 21.9714 4.08876C21.9766 4.01264 21.9668 3.93623 21.9424 3.86394C21.918 3.79165 21.8795 3.72491 21.8292 3.66756C21.7789 3.61021 21.7177 3.56338 21.6492 3.52979L20.4929 2.95167C20.3558 2.8831 20.197 2.87181 20.0516 2.92028C19.9061 2.96876 19.7859 3.07303 19.7173 3.21016Z" fill="black"/>
<path d="M25.4375 0.578125V1.73438C25.4375 1.8877 25.4984 2.03475 25.6068 2.14317C25.7152 2.25159 25.8623 2.3125 26.0156 2.3125C26.169 2.3125 26.316 2.25159 26.4244 2.14317C26.5328 2.03475 26.5938 1.8877 26.5938 1.73438V0.578125C26.5938 0.424797 26.5328 0.277748 26.4244 0.169329C26.316 0.0609094 26.169 0 26.0156 0C25.8623 0 25.7152 0.0609094 25.6068 0.169329C25.4984 0.277748 25.4375 0.424797 25.4375 0.578125Z" fill="black"/>
<path d="M22.2883 0.639166C22.1512 0.707746 22.0469 0.827989 21.9984 0.973446C21.9499 1.1189 21.9612 1.27766 22.0298 1.41479L22.6079 2.57104C22.6415 2.63955 22.6883 2.70073 22.7457 2.75105C22.803 2.80138 22.8698 2.83985 22.9421 2.86426C23.0144 2.88867 23.0908 2.89852 23.1669 2.89326C23.243 2.88799 23.3173 2.86771 23.3856 2.83359C23.4538 2.79946 23.5146 2.75216 23.5645 2.69442C23.6144 2.63668 23.6523 2.56964 23.6762 2.49716C23.7 2.42468 23.7093 2.3482 23.7034 2.27212C23.6976 2.19605 23.6767 2.12189 23.642 2.05391L23.0639 0.89766C22.9953 0.760531 22.8751 0.656259 22.7296 0.607783C22.5842 0.559306 22.4254 0.570595 22.2883 0.639166Z" fill="black"/>
<path d="M28.9674 0.897687L28.3893 2.05394C28.3546 2.12191 28.3337 2.19607 28.3279 2.27215C28.322 2.34822 28.3313 2.4247 28.3551 2.49718C28.379 2.56966 28.4169 2.63671 28.4668 2.69445C28.5167 2.75219 28.5775 2.79949 28.6457 2.83361C28.714 2.86774 28.7883 2.88802 28.8644 2.89328C28.9405 2.89855 29.0169 2.88869 29.0892 2.86429C29.1615 2.83988 29.2283 2.80141 29.2856 2.75108C29.343 2.70076 29.3898 2.63958 29.4234 2.57107L30.0015 1.41482C30.0362 1.34685 30.057 1.27268 30.0629 1.19661C30.0687 1.12053 30.0595 1.04405 30.0356 0.971573C30.0118 0.899094 29.9738 0.832051 29.924 0.77431C29.8741 0.716569 29.8133 0.669272 29.745 0.635145C29.6768 0.601019 29.6025 0.580739 29.5263 0.575475C29.4502 0.57021 29.3738 0.580065 29.3015 0.604471C29.2292 0.628877 29.1625 0.667351 29.1051 0.717676C29.0478 0.768001 29.001 0.82918 28.9674 0.897687Z" fill="black"/>
<path d="M31.5384 2.95163L30.3822 3.52976C30.3137 3.56335 30.2525 3.61017 30.2022 3.66752C30.1518 3.72487 30.1134 3.79162 30.089 3.86391C30.0646 3.9362 30.0547 4.01261 30.06 4.08872C30.0652 4.16484 30.0855 4.23916 30.1196 4.30741C30.1538 4.37565 30.2011 4.43646 30.2588 4.48634C30.3165 4.53621 30.3836 4.57417 30.4561 4.59801C30.5285 4.62185 30.605 4.63111 30.6811 4.62525C30.7572 4.61939 30.8313 4.59853 30.8993 4.56388L32.0556 3.98575C32.1241 3.95216 32.1853 3.90534 32.2356 3.84799C32.2859 3.79064 32.3244 3.72389 32.3488 3.6516C32.3732 3.57931 32.383 3.5029 32.3778 3.42678C32.3725 3.35067 32.3522 3.27634 32.3181 3.2081C32.284 3.13986 32.2367 3.07905 32.1789 3.02917C32.1212 2.97929 32.0542 2.94134 31.9817 2.9175C31.9092 2.89366 31.8327 2.8844 31.7566 2.89026C31.6806 2.89611 31.6064 2.91697 31.5384 2.95163Z" fill="black"/>
<path d="M13.875 21.9688C13.875 23.3409 14.2819 24.6822 15.0442 25.823C15.8065 26.9639 16.89 27.8531 18.1576 28.3782C19.4253 28.9032 20.8202 29.0406 22.1659 28.7729C23.5117 28.5053 24.7478 27.8445 25.7181 26.8743C26.6883 25.9041 27.349 24.6679 27.6167 23.3222C27.8844 21.9764 27.747 20.5815 27.2219 19.3139C26.6968 18.0462 25.8076 16.9627 24.6668 16.2004C23.5259 15.4381 22.1846 15.0312 20.8125 15.0312C18.9732 15.0333 17.2098 15.7649 15.9092 17.0655C14.6086 18.3661 13.8771 20.1294 13.875 21.9688ZM26.5938 21.9688C26.5938 23.1122 26.2547 24.2299 25.6194 25.1806C24.9842 26.1314 24.0813 26.8724 23.0249 27.3099C21.9685 27.7475 20.8061 27.862 19.6846 27.6389C18.5632 27.4158 17.5331 26.8652 16.7245 26.0567C15.916 25.2482 15.3654 24.2181 15.1423 23.0966C14.9193 21.9752 15.0338 20.8127 15.4713 19.7564C15.9089 18.7 16.6499 17.7971 17.6006 17.1618C18.5513 16.5266 19.6691 16.1875 20.8125 16.1875C22.3452 16.1892 23.8147 16.7989 24.8985 17.8827C25.9824 18.9665 26.592 20.436 26.5938 21.9688Z" fill="black"/>
<path d="M17.3438 21.9688C17.3438 21.8154 17.2828 21.6684 17.1744 21.56C17.066 21.4515 16.919 21.3906 16.7656 21.3906C16.6123 21.3906 16.4652 21.4515 16.3568 21.56C16.2484 21.6684 16.1875 21.8154 16.1875 21.9688C16.1889 23.195 16.6766 24.3705 17.5437 25.2376C18.4107 26.1047 19.5863 26.5924 20.8125 26.5938C20.9658 26.5938 21.1129 26.5328 21.2213 26.4244C21.3297 26.316 21.3906 26.169 21.3906 26.0156C21.3906 25.8623 21.3297 25.7152 21.2213 25.6068C21.1129 25.4984 20.9658 25.4375 20.8125 25.4375C19.8928 25.4365 19.0111 25.0707 18.3608 24.4204C17.7105 23.7701 17.3448 22.8884 17.3438 21.9688Z" fill="black"/>
</svg>
