<svg width="64" height="64" viewBox="0 0 64 64" fill="none" xmlns="http://www.w3.org/2000/svg">
<path d="M43.3346 16.33C41.5504 14.7212 39.4431 13.5123 37.1537 12.784C34.8644 12.0558 32.4459 11.825 30.0601 12.1073C26.4592 12.5185 23.0841 14.0706 20.428 16.5366C17.7719 19.0026 15.9741 22.2534 15.2971 25.814C14.6201 29.3746 15.0995 33.0584 16.6652 36.3271C18.2309 39.5959 20.8009 42.2782 23.9996 43.9824V54C24.0002 54.5302 24.2111 55.0386 24.586 55.4136C24.961 55.7886 25.4694 55.9994 25.9996 56H27.9996V58C28.0002 58.5302 28.2111 59.0386 28.586 59.4136C28.961 59.7886 29.4694 59.9994 29.9996 60H33.9996C34.5299 59.9994 35.0383 59.7886 35.4133 59.4136C35.7882 59.0386 35.9991 58.5302 35.9996 58V56H37.9996C38.5299 55.9994 39.0383 55.7886 39.4133 55.4136C39.7882 55.0386 39.9991 54.5302 39.9996 54V43.9829C42.4132 42.6974 44.4807 40.8482 46.0263 38.5923C47.572 36.3365 48.5501 33.7409 48.8775 31.026C49.2049 28.3111 48.872 25.5573 47.907 22.9987C46.9419 20.4401 45.3734 18.1524 43.3346 16.33ZM37.9996 48V50H25.9996V48H37.9996ZM34.0011 58H29.9996V56H34.0001L34.0011 58ZM34.9996 54H25.9996V52H37.9996V54H34.9996ZM38.5611 42.4722C38.3927 42.5542 38.2508 42.6819 38.1515 42.8408C38.0522 42.9997 37.9996 43.1832 37.9996 43.3706V46H32.9996V41.4141L35.7066 38.707C35.8888 38.5184 35.9896 38.2658 35.9873 38.0036C35.985 37.7414 35.8799 37.4906 35.6945 37.3051C35.5091 37.1197 35.2582 37.0146 34.996 37.0123C34.7338 37.01 34.4812 37.1108 34.2926 37.293L31.9996 39.5859L29.7066 37.293C29.518 37.1108 29.2654 37.01 29.0032 37.0123C28.741 37.0146 28.4902 37.1197 28.3048 37.3051C28.1194 37.4906 28.0142 37.7414 28.012 38.0036C28.0097 38.2658 28.1105 38.5184 28.2926 38.707L30.9996 41.4141V46H25.9996V43.3706C25.9997 43.1832 25.9471 42.9997 25.8478 42.8408C25.7485 42.6819 25.6066 42.5542 25.4381 42.4722C22.519 41.0544 20.1388 38.7276 18.6551 35.8414C17.1714 32.9552 16.6645 29.6655 17.2104 26.4665C17.7564 23.2675 19.3257 20.3321 21.6827 18.1014C24.0396 15.8706 27.0568 14.465 30.2809 14.0957C30.8584 14.0312 31.4391 13.9987 32.0201 13.9985C35.7063 13.9875 39.2645 15.3499 42.0006 17.82C43.8348 19.4593 45.2372 21.525 46.0839 23.8346C46.9307 26.1443 47.1958 28.6269 46.8559 31.0633C46.516 33.4997 45.5814 35.8149 44.1348 37.8046C42.6882 39.7943 40.774 41.3975 38.5611 42.4722Z" fill="white"/>
<path d="M32 10C32.2652 10 32.5196 9.89464 32.7071 9.70711C32.8946 9.51957 33 9.26522 33 9V5C33 4.73478 32.8946 4.48043 32.7071 4.29289C32.5196 4.10536 32.2652 4 32 4C31.7348 4 31.4804 4.10536 31.2929 4.29289C31.1054 4.48043 31 4.73478 31 5V9C31 9.26522 31.1054 9.51957 31.2929 9.70711C31.4804 9.89464 31.7348 10 32 10Z" fill="white"/>
<path d="M17.1515 15.5649C17.2437 15.6604 17.3541 15.7365 17.4761 15.789C17.5981 15.8414 17.7293 15.869 17.8621 15.8701C17.9948 15.8713 18.1265 15.846 18.2494 15.7957C18.3723 15.7454 18.484 15.6711 18.5779 15.5773C18.6718 15.4834 18.746 15.3717 18.7963 15.2488C18.8466 15.1259 18.8719 14.9942 18.8707 14.8615C18.8696 14.7287 18.842 14.5975 18.7896 14.4755C18.7372 14.3534 18.661 14.2431 18.5655 14.1509L15.7369 11.3223C15.6446 11.2267 15.5343 11.1506 15.4123 11.0982C15.2903 11.0457 15.159 11.0182 15.0263 11.017C14.8935 11.0159 14.7618 11.0412 14.6389 11.0914C14.516 11.1417 14.4044 11.216 14.3105 11.3099C14.2166 11.4038 14.1423 11.5154 14.092 11.6383C14.0418 11.7612 14.0165 11.8929 14.0176 12.0257C14.0188 12.1584 14.0464 12.2897 14.0988 12.4117C14.1512 12.5337 14.2274 12.644 14.3229 12.7363L17.1515 15.5649Z" fill="white"/>
<path d="M12 28H8C7.73478 28 7.48043 28.1054 7.29289 28.2929C7.10536 28.4804 7 28.7348 7 29C7 29.2652 7.10536 29.5196 7.29289 29.7071C7.48043 29.8946 7.73478 30 8 30H12C12.2652 30 12.5196 29.8946 12.7071 29.7071C12.8946 29.5196 13 29.2652 13 29C13 28.7348 12.8946 28.4804 12.7071 28.2929C12.5196 28.1054 12.2652 28 12 28Z" fill="white"/>
<path d="M17.1515 42.4351L14.3229 45.2637C14.2274 45.356 14.1512 45.4663 14.0988 45.5883C14.0464 45.7103 14.0188 45.8416 14.0176 45.9743C14.0165 46.1071 14.0418 46.2388 14.092 46.3617C14.1423 46.4846 14.2166 46.5962 14.3105 46.6901C14.4044 46.784 14.516 46.8583 14.6389 46.9086C14.7618 46.9588 14.8935 46.9841 15.0263 46.983C15.159 46.9818 15.2903 46.9542 15.4123 46.9018C15.5343 46.8494 15.6446 46.7732 15.7369 46.6777L18.5655 43.8491C18.7476 43.6605 18.8484 43.4079 18.8461 43.1457C18.8439 42.8835 18.7387 42.6327 18.5533 42.4473C18.3679 42.2619 18.1171 42.1567 17.8549 42.1545C17.5927 42.1522 17.3401 42.253 17.1515 42.4351Z" fill="white"/>
<path d="M48.2628 11.3223L45.4342 14.1509C45.3387 14.2431 45.2625 14.3534 45.2101 14.4755C45.1577 14.5975 45.1301 14.7287 45.1289 14.8615C45.1278 14.9942 45.1531 15.1259 45.2034 15.2488C45.2537 15.3717 45.3279 15.4834 45.4218 15.5773C45.5157 15.6711 45.6273 15.7454 45.7502 15.7957C45.8731 15.846 46.0048 15.8713 46.1376 15.8701C46.2704 15.869 46.4016 15.8414 46.5236 15.789C46.6456 15.7365 46.7559 15.6604 46.8482 15.5649L49.6768 12.7363C49.7723 12.644 49.8485 12.5337 49.9009 12.4117C49.9533 12.2897 49.9809 12.1584 49.982 12.0257C49.9832 11.8929 49.9579 11.7612 49.9076 11.6383C49.8573 11.5154 49.7831 11.4038 49.6892 11.3099C49.5953 11.216 49.4836 11.1417 49.3607 11.0914C49.2379 11.0412 49.1062 11.0159 48.9734 11.017C48.8406 11.0182 48.7094 11.0457 48.5874 11.0982C48.4654 11.1506 48.355 11.2267 48.2628 11.3223Z" fill="white"/>
<path d="M46.849 42.4351C46.6604 42.253 46.4078 42.1522 46.1456 42.1545C45.8834 42.1567 45.6326 42.2619 45.4472 42.4473C45.2618 42.6327 45.1566 42.8835 45.1543 43.1457C45.1521 43.4079 45.2529 43.6605 45.435 43.8491L48.2636 46.6777C48.4522 46.8599 48.7048 46.9607 48.967 46.9584C49.2292 46.9561 49.48 46.851 49.6654 46.6655C49.8508 46.4801 49.956 46.2293 49.9583 45.9671C49.9606 45.7049 49.8598 45.4523 49.6776 45.2637L46.849 42.4351Z" fill="white"/>
<path d="M56 28H52C51.7348 28 51.4804 28.1054 51.2929 28.2929C51.1054 28.4804 51 28.7348 51 29C51 29.2652 51.1054 29.5196 51.2929 29.7071C51.4804 29.8946 51.7348 30 52 30H56C56.2652 30 56.5196 29.8946 56.7071 29.7071C56.8946 29.5196 57 29.2652 57 29C57 28.7348 56.8946 28.4804 56.7071 28.2929C56.5196 28.1054 56.2652 28 56 28Z" fill="white"/>
</svg>
