<svg width="64" height="64" viewBox="0 0 64 64" fill="none" xmlns="http://www.w3.org/2000/svg">
<g clip-path="url(#clip0_138_3274)">
<path d="M54.26 35C54.14 35 54.01 34.98 53.88 34.93C53.37 34.72 53.12 34.14 53.33 33.63C54.44 30.89 55 27.99 55 25.01C55 12.33 44.68 2.01 32 2.01C19.32 2.01 9 12.32 9 25C9 27.98 9.56 30.89 10.67 33.62C10.88 34.13 10.63 34.71 10.12 34.92C9.61 35.13 9.03 34.88 8.82 34.37C7.61 31.39 7 28.24 7 24.99C7 11.21 18.21 0 32 0C45.79 0 57 11.21 57 25C57 28.24 56.39 31.4 55.18 34.38C55.02 34.77 54.65 35 54.25 35H54.26Z" fill="white"/>
<path d="M26.9995 36.9999C26.7395 36.9999 26.4895 36.8999 26.2895 36.7099C25.8995 36.3199 25.8995 35.6899 26.2895 35.2999L27.0195 34.5699L26.9995 32.4699C26.9995 31.8699 27.2895 31.2999 27.7695 30.9399L31.0395 28.4899L31.0095 26.0099H28.9295C27.8695 26.0099 27.0095 25.1499 27.0095 24.0899V24.0099H24.9295C23.8695 24.0099 23.0095 23.1499 23.0095 22.0899V21.0099H21.2895C20.9095 21.0099 20.5395 20.8999 20.2295 20.6899L17.8695 19.1199C17.3395 18.7699 17.0195 18.1699 17.0195 17.5199V14.9299C17.0195 13.8699 17.8795 13.0099 18.9395 13.0099H21.7195L25.0595 10.4899L25.0295 10.0099H24.9395C23.8795 10.0099 23.0195 9.14995 23.0195 8.08995V5.47995C23.0195 5.32995 22.9795 5.16995 22.9095 5.02995L22.1195 3.44995C21.8695 2.95995 22.0695 2.35995 22.5695 2.10995C23.0595 1.85995 23.6595 2.05995 23.9095 2.55995L24.6995 4.13995C24.9095 4.54995 25.0195 5.01995 25.0195 5.47995V8.00995H25.0995C26.1595 8.00995 27.0195 8.86995 27.0195 9.92995V10.5499C27.0195 11.1499 26.7295 11.7199 26.2495 12.0799L22.8595 14.6199C22.5295 14.8699 22.1195 14.9999 21.7095 14.9999H19.0195V17.5099L21.3395 19.0099H23.0995C24.1595 18.9999 25.0195 19.8599 25.0195 20.9099V21.9899H27.0995C28.1595 21.9899 29.0195 22.8499 29.0195 23.9099V23.9899H31.0995C32.1595 23.9899 33.0195 24.8499 33.0195 25.9099V28.5299C33.0195 29.1299 32.7295 29.6999 32.2495 30.0599L28.9795 32.5099L29.0095 34.6099C29.0095 35.1099 28.7995 35.6099 28.4495 35.9699L27.7195 36.6999C27.5195 36.8999 27.2695 36.9899 27.0095 36.9899L26.9995 36.9999Z" fill="white"/>
<path d="M20.9998 37C20.7398 37 20.4898 36.9 20.2898 36.71L19.5598 35.98C19.1998 35.62 18.9998 35.13 18.9998 34.62V30.57L14.0598 28.15C13.4098 27.82 12.9998 27.17 12.9998 26.43V23.92C12.9998 22.8601 13.8598 22 14.9198 22H14.9998V21.49L12.8498 20.1C12.3198 19.7501 11.9998 19.1501 11.9998 18.5001V15.46C11.9998 15.31 11.9598 15.1501 11.8898 15.0101L11.0998 13.4301C10.8498 12.9401 11.0498 12.3401 11.5498 12.0901C12.0398 11.8401 12.6398 12.04 12.8898 12.54L13.6798 14.12C13.8898 14.53 13.9998 15 13.9998 15.46V18.5001L16.1498 19.89C16.6798 20.24 16.9998 20.84 16.9998 21.49V22.08C16.9998 23.14 16.1398 24 15.0798 24H14.9998V26.43L19.9398 28.85C20.5898 29.18 20.9998 29.83 20.9998 30.57V34.62L21.7098 35.2901C22.0998 35.68 22.0998 36.3101 21.7098 36.7001C21.5098 36.9001 21.2598 36.9901 20.9998 36.9901V37Z" fill="white"/>
<path d="M48.0102 35C47.4602 35 47.0102 34.56 47.0102 34.01V32.31L44.3802 28.85C44.1302 28.52 44.0002 28.11 44.0002 27.7V24.22C44.0002 23.92 44.0702 23.63 44.2002 23.36L44.8502 22.06C45.1802 21.41 45.8302 21 46.5702 21H48.0002V20.57C48.0002 19.84 48.4102 19.18 49.0602 18.85L50.0402 18.36L50.0002 17H49.2102L47.8502 17.69C47.3102 17.96 46.6702 17.96 46.1402 17.69L44.7402 16.99H39.9102C38.8502 16.99 37.9902 16.14 37.9902 15.08V13.57C37.9902 12.84 38.4002 12.18 39.0502 11.85L40.0302 11.36L39.9902 10.28C39.9902 9.89999 40.1002 9.52999 40.3102 9.21999L41.7002 7.12999C41.1602 6.54999 41.0302 5.67999 41.3902 4.95999L42.0902 3.54999C42.3402 3.05999 42.9402 2.85999 43.4302 3.09999C43.9202 3.34999 44.1202 3.94999 43.8802 4.43999L43.1802 5.84999C43.8102 6.39999 43.9102 7.41999 43.4102 8.16999L41.9802 10.31V11.42C41.9902 12.15 41.5902 12.81 40.9302 13.14L39.9502 13.63L39.9902 14.99H44.7802C45.0802 14.99 45.3702 15.06 45.6402 15.19L47.0402 15.89L48.3602 15.19C48.6202 15.06 48.9202 14.99 49.2202 14.99H50.0902C51.1502 14.99 52.0102 15.85 52.0102 16.91V18.42C52.0102 19.15 51.6002 19.81 50.9502 20.14L49.9702 20.63L50.0102 21.07C50.0102 22.13 49.1502 22.99 48.0902 22.99H46.5802L46.0002 24.24V27.68L48.6302 31.14C48.8802 31.47 49.0102 31.87 49.0102 32.28V33.98C49.0302 34.53 48.5802 34.98 48.0302 34.99L48.0102 35Z" fill="white"/>
<path d="M33.5005 63.6199C32.6705 63.6199 31.8805 63.2999 31.2905 62.7099L25.7905 57.2099C25.4005 56.8199 25.4005 56.1899 25.7905 55.7999C26.1805 55.4099 26.8105 55.4099 27.2005 55.7999L32.7005 61.2999C33.1405 61.7399 33.8505 61.7399 34.2905 61.2999C34.7305 60.8599 34.7305 60.1499 34.2905 59.7099L30.7905 56.2099C30.4005 55.8199 30.4005 55.1899 30.7905 54.7999C31.1805 54.4099 31.8105 54.4099 32.2005 54.7999L35.7005 58.2999C36.2905 58.8899 36.6105 59.6699 36.6105 60.5099C36.6105 61.3499 36.2905 62.1299 35.7005 62.7199C35.1105 63.3099 34.3305 63.6299 33.4905 63.6299L33.5005 63.6199Z" fill="white"/>
<path d="M38.5005 62.62C37.6705 62.62 36.8805 62.3 36.2905 61.71L32.7905 58.21C32.4005 57.82 32.4005 57.19 32.7905 56.8C33.1805 56.41 33.8105 56.41 34.2005 56.8L37.7005 60.3C38.1205 60.72 38.8605 60.72 39.2905 60.3C39.5005 60.09 39.6205 59.81 39.6205 59.51C39.6205 59.21 39.5005 58.93 39.2905 58.72L35.7905 55.22C35.4005 54.83 35.4005 54.2 35.7905 53.81C36.1805 53.42 36.8105 53.42 37.2005 53.81L40.7005 57.31C41.2905 57.9 41.6105 58.68 41.6105 59.52C41.6105 60.36 41.2905 61.14 40.7005 61.73C40.1105 62.32 39.3305 62.64 38.4905 62.64L38.5005 62.62Z" fill="white"/>
<path d="M27.4992 64C26.6592 64 25.8692 63.66 25.2792 63.05L18.8692 56.38C18.6792 56.19 18.4392 56.08 18.1792 56.08H17.8392C17.0392 56.08 16.2692 55.75 15.7092 55.16L14.2992 53.69C13.9192 53.29 13.9292 52.66 14.3292 52.28C14.7292 51.9 15.3592 51.91 15.7392 52.31L17.1492 53.78C17.3392 53.98 17.5792 54.08 17.8392 54.08H18.1792C18.9792 54.08 19.7592 54.41 20.3092 55L26.7192 61.67C27.1392 62.11 27.8592 62.11 28.2792 61.67C28.7392 61.19 28.7392 60.18 28.2792 59.7C27.8992 59.3 27.9092 58.67 28.3092 58.29C28.7092 57.91 29.3392 57.92 29.7192 58.32C30.9092 59.56 30.9092 61.82 29.7192 63.06C29.1292 63.67 28.3392 64.01 27.4992 64.01V64Z" fill="white"/>
<path d="M46.17 55.9999H43C42.45 55.9999 42 55.5499 42 54.9999C42 54.4499 42.45 53.9999 43 53.9999H46.17C46.43 53.9999 46.69 53.8899 46.88 53.7099L48.29 52.2999C48.68 51.9099 49.31 51.9099 49.7 52.2999C50.09 52.6899 50.09 53.3199 49.7 53.7099L48.29 55.1199C47.72 55.6899 46.97 55.9999 46.17 55.9999Z" fill="white"/>
<path d="M30.0003 43C29.7403 43 29.4903 42.9 29.2903 42.71L26.8803 40.3C26.6903 40.11 26.4403 40.01 26.1703 40.01H17.8303C17.5703 40.01 17.3103 40.12 17.1203 40.3L15.7103 41.71C15.3203 42.1 14.6903 42.1 14.3003 41.71C13.9103 41.32 13.9103 40.69 14.3003 40.3L15.7103 38.89C16.2803 38.32 17.0303 38.01 17.8303 38.01H26.1703C26.9703 38.01 27.7203 38.32 28.2903 38.89L30.7003 41.3C31.0903 41.69 31.0903 42.32 30.7003 42.71C30.5003 42.91 30.2503 43 29.9903 43H30.0003Z" fill="white"/>
<path d="M43.5002 61.62C42.7002 61.62 41.9002 61.32 41.2902 60.71L38.2902 57.71C37.9002 57.32 37.9002 56.69 38.2902 56.3C38.6802 55.91 39.3102 55.91 39.7002 56.3L42.7002 59.3C43.1402 59.74 43.8502 59.74 44.2902 59.3C44.7302 58.86 44.7302 58.15 44.2902 57.71L34.5802 48H32.4102L30.7002 49.71C29.4802 50.93 27.5002 50.93 26.2902 49.71C25.0802 48.49 25.0702 46.51 26.2902 45.3L32.7002 38.89C33.2702 38.32 34.0202 38.01 34.8202 38.01H46.1602C46.9602 38.01 47.7102 38.32 48.2802 38.89L49.6902 40.3C50.0802 40.69 50.0802 41.32 49.6902 41.71C49.3002 42.1 48.6702 42.1 48.2802 41.71L46.8702 40.3C46.6802 40.11 46.4302 40.01 46.1602 40.01H34.8202C34.5602 40.01 34.3002 40.12 34.1102 40.3L27.7002 46.71C27.2602 47.15 27.2602 47.86 27.7002 48.3C28.1402 48.74 28.8502 48.74 29.2902 48.3L31.2902 46.3C31.4802 46.11 31.7302 46.01 32.0002 46.01H35.0002C35.2702 46.01 35.5202 46.12 35.7102 46.3L45.7102 56.3C46.9302 57.52 46.9302 59.5 45.7102 60.71C45.1002 61.32 44.3002 61.62 43.5002 61.62Z" fill="white"/>
<path d="M15 58H8C7.45 58 7 57.55 7 57V37C7 36.45 7.45 36 8 36H15C15.55 36 16 36.45 16 37V57C16 57.55 15.55 58 15 58ZM9 56H14V38H9V56Z" fill="white"/>
<path d="M56 58H49C48.45 58 48 57.55 48 57V37C48 36.45 48.45 36 49 36H56C56.55 36 57 36.45 57 37V57C57 57.55 56.55 58 56 58ZM50 56H55V38H50V56Z" fill="white"/>
</g>
<defs>
<clipPath id="clip0_138_3274">
<rect width="64" height="64" fill="white"/>
</clipPath>
</defs>
</svg>
