<svg width="62" height="62" viewBox="0 0 62 62" fill="none" xmlns="http://www.w3.org/2000/svg">
<g clip-path="url(#clip0_138_3270)">
<path d="M57.8067 33.2558C57.3987 32.8478 56.9144 32.5241 56.3813 32.3033C55.8482 32.0824 55.2769 31.9688 54.6999 31.9688C54.1229 31.9688 53.5515 32.0824 53.0184 32.3033C52.4854 32.5241 52.001 32.8478 51.5931 33.2558L44.0721 40.7768C43.7421 40.166 43.2537 39.6554 42.6581 39.2987C42.0625 38.942 41.3818 38.7525 40.6875 38.75H29.686C28.7389 37.6037 27.5627 36.668 26.2329 36.0027C24.9031 35.3375 23.4489 34.9575 21.9637 34.887C20.4784 34.8165 18.9948 35.0571 17.608 35.5933C16.2211 36.1296 14.9616 36.9497 13.9102 38.0012L9.68753 42.2239L8.43494 40.9713C8.34501 40.8814 8.23823 40.81 8.12071 40.7613C8.00318 40.7126 7.87722 40.6875 7.75 40.6875C7.62279 40.6875 7.49682 40.7126 7.3793 40.7613C7.26178 40.81 7.155 40.8814 7.06507 40.9713L3.19007 44.8463C3.10009 44.9363 3.02871 45.043 2.98001 45.1606C2.93132 45.2781 2.90625 45.4041 2.90625 45.5313C2.90625 45.6585 2.93132 45.7845 2.98001 45.902C3.02871 46.0195 3.10009 46.1263 3.19007 46.2162L18.6901 61.7162C18.78 61.8062 18.8868 61.8776 19.0043 61.9263C19.1218 61.975 19.2478 62 19.375 62C19.5022 62 19.6282 61.975 19.7457 61.9263C19.8632 61.8776 19.97 61.8062 20.0599 61.7162L23.9349 57.8412C24.0249 57.7513 24.0963 57.6445 24.145 57.527C24.1937 57.4095 24.2188 57.2835 24.2188 57.1563C24.2188 57.0291 24.1937 56.9031 24.145 56.7856C24.0963 56.668 24.0249 56.5613 23.9349 56.4713L22.6824 55.2187L23.7689 54.1322C24.3153 53.5893 25.0535 53.2836 25.8237 53.2812H39.9823C41.255 53.2848 42.5159 53.0358 43.6917 52.5487C44.8676 52.0616 45.9352 51.3461 46.8326 50.4436L57.8067 39.4695C58.2147 39.0615 58.5384 38.5772 58.7593 38.0441C58.9801 37.511 59.0938 36.9397 59.0938 36.3627C59.0938 35.7856 58.9801 35.2143 58.7593 34.6812C58.5384 34.1481 58.2147 33.6638 57.8067 33.2558ZM19.375 59.6614L5.2449 45.5312L7.75003 43.0261L21.8802 57.1562L19.375 59.6614ZM56.4368 38.0996L45.4627 49.0737C44.7447 49.7957 43.8906 50.368 42.9499 50.7577C42.0092 51.1473 41.0005 51.3465 39.9823 51.3437H25.8237C25.1875 51.342 24.5572 51.4665 23.9693 51.71C23.3815 51.9535 22.8477 52.3112 22.3991 52.7623L21.3125 53.8489L11.0574 43.5937L15.2801 39.3711C16.1519 38.4994 17.1983 37.822 18.3506 37.3836C19.5029 36.9452 20.7349 36.7556 21.9656 36.8273C23.1964 36.899 24.398 37.2304 25.4916 37.7997C26.5851 38.3689 27.5458 39.1632 28.3105 40.1303L28.4595 40.319C28.5501 40.4339 28.6656 40.5267 28.7972 40.5906C28.9289 40.6544 29.0733 40.6875 29.2196 40.6875H40.6875C41.2014 40.6875 41.6942 40.8916 42.0576 41.255C42.4209 41.6183 42.625 42.1111 42.625 42.625C42.625 43.1389 42.4209 43.6317 42.0576 43.995C41.6942 44.3584 41.2014 44.5625 40.6875 44.5625H27.125C26.8681 44.5625 26.6217 44.6646 26.44 44.8462C26.2583 45.0279 26.1563 45.2743 26.1563 45.5312C26.1563 45.7882 26.2583 46.0346 26.44 46.2163C26.6217 46.3979 26.8681 46.5 27.125 46.5H40.6875C41.6351 46.497 42.5487 46.1462 43.2547 45.5141C43.9607 44.8821 44.41 44.0127 44.5174 43.0712L52.963 34.6257C53.4309 34.1789 54.053 33.9296 54.6999 33.9296C55.3469 33.9296 55.9689 34.1789 56.4368 34.6257C56.665 34.8538 56.8459 35.1246 56.9693 35.4226C57.0928 35.7206 57.1563 36.04 57.1563 36.3626C57.1563 36.6852 57.0928 37.0046 56.9693 37.3026C56.8459 37.6007 56.6649 37.8715 56.4368 38.0996Z" fill="white"/>
<path d="M19.127 19.741C19.1134 19.7599 19.0931 19.7707 19.0808 19.7908C19.0776 19.7961 19.0778 19.8022 19.0747 19.8075C16.1284 23.5496 14.5279 28.1748 14.5313 32.9376C14.5313 33.096 14.5322 33.2535 14.5431 33.4115C14.5601 33.6561 14.6692 33.885 14.8484 34.0523C15.0275 34.2196 15.2634 34.3128 15.5085 34.3131C15.5312 34.3131 15.5539 34.3121 15.5766 34.3107C15.7035 34.3019 15.8275 34.2682 15.9414 34.2115C16.0552 34.1548 16.1568 34.0762 16.2403 33.9802C16.3239 33.8843 16.3876 33.7728 16.428 33.6521C16.4684 33.5315 16.4847 33.4041 16.4758 33.2772C16.4678 33.1637 16.4688 33.0506 16.4688 32.9376C16.4696 28.8657 17.7619 24.8991 20.1596 21.6081C22.8993 23.3969 24.5029 25.1252 24.5688 26.4127C24.4675 27.6374 24.0806 28.8213 23.4392 29.8695C23.154 30.4584 22.8546 31.0781 22.5783 31.7418C22.5294 31.8592 22.5042 31.9852 22.504 32.1124C22.5037 32.2396 22.5286 32.3657 22.5771 32.4833C22.675 32.7209 22.8633 32.9098 23.1006 33.0085C23.218 33.0574 23.344 33.0827 23.4712 33.0829C23.5984 33.0831 23.7245 33.0583 23.8421 33.0098C24.0796 32.9118 24.2686 32.7235 24.3673 32.4863C24.6289 31.8581 24.9132 31.2716 25.1833 30.7139C25.9876 29.3807 26.4417 27.8658 26.5035 26.31C26.4033 24.3561 24.6678 22.2668 21.3785 20.0926C22.8618 18.4136 24.6235 17.003 26.5861 15.9228C28.473 19.5995 30.7433 21.5401 33.2223 21.5401C33.4026 21.5401 33.5828 21.53 33.762 21.5098C35.4795 21.4004 37.1187 20.7521 38.4463 19.657C39.2992 18.9976 39.6525 18.7251 41.608 19.4081C43.4344 20.044 45.3597 19.2469 47.1039 17.1781C48.6137 18.2598 49.9602 19.5526 51.1023 21.0172C49.9362 22.2626 49.0186 23.7191 48.3988 25.3087C47.5724 27.1128 47.0137 28.2239 45.9863 28.3204C45.319 28.3619 44.6496 28.359 43.9826 28.3119C41.4264 28.186 38.2472 28.0371 35.9762 32.5014C35.4613 33.5074 35.1153 34.5912 34.9521 35.7095C34.9165 35.9639 34.9834 36.222 35.1381 36.4271C35.2928 36.6322 35.5227 36.7675 35.7771 36.8031C35.822 36.8095 35.8674 36.8127 35.9128 36.8126C36.1462 36.8123 36.3717 36.7277 36.5477 36.5744C36.7237 36.421 36.8384 36.2093 36.8707 35.9781C37.0024 35.0708 37.2843 34.1918 37.7046 33.377C39.4056 30.0327 41.3866 30.1306 43.8903 30.247C44.6475 30.3 45.4074 30.301 46.1646 30.2498C48.3618 30.0427 49.2762 28.046 50.1603 26.1152C50.661 24.8484 51.3623 23.6704 52.2373 22.6264C53.5329 24.6767 54.4285 26.9538 54.8768 29.3374C54.9 29.4625 54.9477 29.5818 55.0171 29.6885C55.0865 29.7952 55.1763 29.8872 55.2812 29.9592C55.3862 30.0312 55.5043 30.0818 55.6289 30.1081C55.7534 30.1344 55.8819 30.136 56.007 30.1126C56.1321 30.0892 56.2514 30.0414 56.358 29.9719C56.4647 29.9024 56.5566 29.8126 56.6285 29.7076C56.7004 29.6025 56.7508 29.4844 56.7771 29.3598C56.8033 29.2353 56.8047 29.1068 56.7812 28.9817C55.8893 24.2685 53.4322 19.9944 49.8079 16.8521C46.1836 13.7097 41.6045 11.883 36.8125 11.668V10.5976C36.8126 10.0551 36.9652 9.52351 37.253 9.06354C37.5407 8.60358 37.9519 8.23377 38.4398 7.99632C38.9787 8.62434 39.6471 9.12846 40.399 9.47416C41.1509 9.81987 41.9686 9.999 42.7962 9.99928C43.581 9.99255 44.359 9.85276 45.097 9.58586C46.3327 9.15334 47.5046 8.55673 48.5813 7.81206C49.0475 7.39368 49.6209 7.11339 50.2374 7.00261C50.8539 6.89183 51.4891 6.95492 52.0717 7.18483C52.2679 7.23516 52.475 7.22272 52.6638 7.14925C52.8526 7.07578 53.0136 6.94498 53.1242 6.77524C53.2347 6.60551 53.2893 6.40538 53.2803 6.20301C53.2712 6.00063 53.1989 5.80619 53.0736 5.64704C52.8659 5.38305 47.9333 -0.796044 43.1851 0.0880376C38.6018 0.94232 38.065 3.72221 37.8415 6.13297C37.0467 6.46969 36.3569 7.01347 35.8438 7.70761C35.3308 7.01334 34.6408 6.46946 33.8459 6.13267C33.6224 3.72199 33.0856 0.942262 28.5025 0.0880376C23.7538 -0.800771 18.8216 5.38353 18.6139 5.647C18.4886 5.80615 18.4163 6.00059 18.4072 6.20297C18.3982 6.40534 18.4527 6.60547 18.5633 6.7752C18.6739 6.94494 18.8349 7.07574 19.0237 7.14921C19.2125 7.22268 19.4196 7.23512 19.6158 7.18479C20.1984 6.95475 20.8336 6.89158 21.4501 7.00237C22.0666 7.11316 22.6401 7.39352 23.1062 7.81202C24.1829 8.5567 25.3548 9.15332 26.5905 9.58584C27.3285 9.85301 28.1065 9.99281 28.8913 9.99926C29.7189 9.99894 30.5366 9.81978 31.2885 9.47406C32.0405 9.12833 32.7088 8.6242 33.2478 7.99619C33.7356 8.23366 34.1469 8.6035 34.4346 9.06349C34.7223 9.52348 34.8749 10.0551 34.875 10.5976V11.6497C31.8226 11.7865 28.8356 12.5802 26.1179 13.9766C23.4002 15.373 21.0157 17.3392 19.127 19.741ZM43.5398 1.99243C45.6623 1.59367 48.1996 3.43704 49.9271 5.08741C49.0514 5.26939 48.2281 5.64697 47.5189 6.19192C46.5732 6.84968 45.5427 7.37622 44.4556 7.75715C43.7852 8.04966 43.0467 8.15053 42.3224 8.04856C41.5981 7.94659 40.9162 7.64577 40.3526 7.17953L42.9131 6.10489C43.0307 6.05589 43.1376 5.98415 43.2274 5.89379C43.3173 5.80343 43.3885 5.69622 43.4368 5.57831C43.4852 5.4604 43.5098 5.3341 43.5093 5.20665C43.5088 5.07921 43.4831 4.95312 43.4337 4.83561C43.3844 4.71811 43.3123 4.6115 43.2217 4.52189C43.1311 4.43228 43.0237 4.36144 42.9056 4.31343C42.7875 4.26541 42.6612 4.24116 42.5337 4.24207C42.4063 4.24299 42.2803 4.26904 42.1629 4.31874L39.8941 5.27111C40.1633 3.61401 40.8437 2.49525 43.5398 1.99243ZM27.2319 7.75715C26.1448 7.37622 25.1143 6.84968 24.1686 6.19192C23.4588 5.64615 22.6345 5.26836 21.7576 5.08696C23.4823 3.43612 26.012 1.59559 28.1477 1.99245C30.8439 2.49515 31.524 3.61413 31.7933 5.27097L29.5246 4.31874C29.4074 4.26948 29.2815 4.24381 29.1543 4.24318C29.0271 4.24255 28.901 4.26698 28.7833 4.31508C28.6655 4.36317 28.5584 4.434 28.468 4.5235C28.3776 4.613 28.3057 4.71943 28.2565 4.83671C28.2072 4.95398 28.1815 5.07982 28.1809 5.20702C28.1803 5.33422 28.2047 5.4603 28.2528 5.57806C28.3009 5.69582 28.3717 5.80296 28.4612 5.89335C28.5507 5.98374 28.6572 6.05562 28.7744 6.10488L31.3353 7.17958C30.7715 7.64553 30.0895 7.94617 29.3652 8.04812C28.6409 8.15007 27.9025 8.04936 27.2319 7.75715ZM42.2466 17.5785C39.5049 16.6221 38.4922 17.1731 37.2614 18.1239C36.2137 18.999 34.9108 19.5113 33.5477 19.5841C31.2524 19.8472 29.4051 17.1856 28.3185 15.0842C31.0638 13.9269 34.039 13.4182 37.0129 13.5978C39.9867 13.7774 42.8791 14.6403 45.4652 16.1196C44.6257 17.0648 43.4415 17.996 42.2466 17.5785Z" fill="white"/>
</g>
<defs>
<clipPath id="clip0_138_3270">
<rect width="62" height="62" fill="white"/>
</clipPath>
</defs>
</svg>
