<svg width="60" height="60" viewBox="0 0 60 60" fill="none" xmlns="http://www.w3.org/2000/svg">
<path d="M58.1178 36.1359L47.7022 21.0035C47.4819 20.6836 47.0448 20.6027 46.7249 20.823L41.1456 24.6633C40.9921 24.7687 40.8866 24.9316 40.8526 25.1144C40.8186 25.2984 40.8596 25.4871 40.9651 25.6406L41.9167 27.0222C39.7792 27.3375 37.8866 27.0914 36.28 26.2851C35.155 25.7215 33.9632 25.6078 32.5276 25.9277C29.8124 26.5336 27.5389 27.1722 25.2948 27.9633C23.012 28.0898 20.087 27.7781 18.2706 26.5851L19.0346 25.4742C19.1401 25.3207 19.1811 25.1308 19.1471 24.948C19.1132 24.7652 19.0077 24.6023 18.8542 24.4968L13.2749 20.6566C12.955 20.4363 12.5167 20.5172 12.2975 20.8371L1.88191 35.9718C1.6616 36.2918 1.74246 36.7289 2.06238 36.9492L7.64167 40.7894C7.76003 40.8703 7.89949 40.9136 8.04011 40.9136C8.0823 40.9136 8.12566 40.9101 8.16785 40.9019C8.35066 40.8679 8.51355 40.7625 8.61902 40.609L9.19089 39.7781C9.87292 40.9066 10.7917 41.9953 11.9718 43.0769L11.5721 43.6511C10.6757 44.939 10.9944 46.7156 12.2823 47.6121C12.7042 47.9051 13.187 48.075 13.6874 48.1125L13.6522 48.1629C12.7557 49.4508 13.0745 51.2273 14.3624 52.1238C14.8569 52.4683 15.4229 52.6324 15.9831 52.6324C16.7319 52.6324 17.4702 52.3371 18.0151 51.7828C18.219 52.2457 18.5471 52.6605 18.9925 52.9711C19.4729 53.3051 20.0331 53.4797 20.6085 53.4797C20.7784 53.4797 20.9495 53.4644 21.1194 53.434C21.4253 53.3789 21.7124 53.2758 21.9772 53.1316C22.1589 53.714 22.5268 54.2437 23.0659 54.6187C23.5604 54.9621 24.1264 55.1273 24.6866 55.1273C25.5878 55.1273 26.4737 54.7019 27.0268 53.9086L27.4417 53.3121L31.3768 55.7894C31.8866 56.1105 32.455 56.264 33.0175 56.264C34.0452 56.264 35.0507 55.7531 35.6366 54.8215C35.9729 54.2883 36.1241 53.6906 36.1089 53.1023C36.5155 53.2945 36.955 53.3929 37.4026 53.3929C37.63 53.3929 37.8585 53.3683 38.0858 53.3168C38.8979 53.1351 39.5882 52.6488 40.03 51.948C40.3792 51.3937 40.5385 50.7562 40.4964 50.1117C40.7718 50.1914 41.0577 50.2324 41.3471 50.2324C41.578 50.2324 41.8112 50.2066 42.0421 50.1539C42.8483 49.9711 43.5339 49.4859 43.9721 48.7898C44.3928 48.1218 44.5382 47.3344 44.3882 46.5586C44.4198 46.5597 44.4503 46.5621 44.4819 46.5621C45.5085 46.5621 46.5151 46.0511 47.101 45.1195C47.7444 44.0976 47.7128 42.8414 47.1268 41.8722C48.4241 41.4715 49.644 40.7261 50.6483 39.7148L51.3784 40.7754C51.4839 40.9289 51.6468 41.0344 51.8296 41.0683C51.8717 41.0765 51.9151 41.0801 51.9573 41.0801C52.0991 41.0801 52.2374 41.0379 52.3557 40.9558L57.935 37.1156C58.2573 36.8941 58.3382 36.4558 58.1178 36.1359ZM7.85964 39.232L3.43816 36.1886L13.0557 22.214L17.4772 25.2574L7.85964 39.232ZM15.0901 46.098C14.8721 46.4121 14.5428 46.6219 14.162 46.6898C13.7823 46.7578 13.4003 46.6758 13.0862 46.4566C12.7721 46.2386 12.5624 45.9094 12.4944 45.5285C12.4264 45.1476 12.5085 44.7668 12.7276 44.4527L14.7936 41.4844C15.0116 41.1703 15.3409 40.9605 15.7218 40.8926C16.1014 40.8246 16.4835 40.9066 16.7975 41.1258C17.4491 41.5793 17.6096 42.4769 17.1573 43.1285L15.0901 46.098ZM15.1675 50.9683C14.5159 50.5148 14.3553 49.616 14.8077 48.9644L18.3104 43.9312C18.3104 43.9312 18.3104 43.9312 18.3104 43.9301L19.746 41.8664C20.0249 41.4644 20.4737 41.25 20.9296 41.25C21.2132 41.25 21.5003 41.3332 21.7499 41.5078C22.0639 41.7258 22.2737 42.0551 22.3417 42.4359C22.4096 42.8168 22.3276 43.1976 22.1085 43.5117L17.1702 50.6086C16.7167 51.2613 15.819 51.4218 15.1675 50.9683ZM20.8733 52.0488C20.4936 52.1168 20.1116 52.0347 19.7975 51.8156C19.146 51.3621 18.9854 50.4633 19.4378 49.8117L22.1495 45.9164C22.603 45.2648 23.5018 45.1043 24.1534 45.5566C24.805 46.0101 24.9655 46.909 24.5132 47.5605L23.9577 48.3586C23.9577 48.3597 23.9565 48.3597 23.9565 48.3609L21.8026 51.457C21.5835 51.7699 21.2542 51.9808 20.8733 52.0488ZM25.8749 53.1035C25.4214 53.7551 24.5225 53.9168 23.871 53.4633C23.2194 53.0097 23.0589 52.1109 23.5112 51.4594L25.1085 49.1636C25.562 48.5121 26.4608 48.3504 27.1124 48.8039C27.7639 49.2574 27.9245 50.1562 27.4721 50.8078L25.8749 53.1035ZM45.9128 44.3695C45.4182 45.1547 44.3764 45.3914 43.5913 44.8969L35.435 39.7605C35.1069 39.5531 34.6721 39.6527 34.4659 39.9808C34.2585 40.309 34.3581 40.7437 34.6862 40.95L42.2565 45.716L42.2577 45.7172C42.6362 45.9551 42.8999 46.3289 42.9995 46.7695C43.0991 47.2101 43.0229 47.6601 42.785 48.0386C42.5471 48.4172 42.1733 48.6797 41.7327 48.7804C41.2921 48.8801 40.8421 48.8039 40.4636 48.566L39.0667 47.6871C39.0655 47.6871 39.0655 47.6859 39.0643 47.6859C39.0643 47.6859 39.0632 47.6859 39.0632 47.6847L32.9718 43.8492C32.6436 43.6418 32.2089 43.7414 32.0026 44.0695C31.7952 44.3976 31.8948 44.8324 32.2229 45.0386L38.3167 48.8754C38.6952 49.1133 38.9577 49.4871 39.0585 49.9277C39.1581 50.3683 39.0819 50.8183 38.844 51.1968C38.6038 51.5789 38.2264 51.8437 37.7823 51.9433C37.344 52.0418 36.8987 51.9644 36.526 51.7277L31.4026 48.457C31.0757 48.2484 30.6409 48.3445 30.4311 48.6715C30.2225 48.9984 30.3186 49.4332 30.6456 49.6429L33.9292 51.7394L33.9221 51.7511C34.7073 52.2457 34.944 53.2863 34.4495 54.0726C33.955 54.8578 32.9132 55.0945 32.128 54.6L28.2479 52.1566L28.6264 51.6129C29.0589 50.9906 29.2241 50.2359 29.0893 49.4859C28.9546 48.7359 28.5385 48.0844 27.9163 47.6519C27.3784 47.2781 26.755 47.1164 26.1456 47.148C26.2932 46.1168 25.8678 45.0398 24.9561 44.4047C24.5214 44.1023 24.021 43.9312 23.503 43.9019C24.0819 42.6703 23.7069 41.1597 22.5526 40.357C21.2647 39.4605 19.4882 39.7793 18.5917 41.0672L18.5553 41.1199C18.3468 40.6629 18.0221 40.2668 17.6003 39.9726C16.978 39.5402 16.2233 39.375 15.4733 39.5097C14.7233 39.6445 14.0718 40.0605 13.6393 40.6828L12.7827 41.9133C11.5745 40.7847 10.685 39.6562 10.0792 38.4902L17.4725 27.7476C18.955 28.7332 20.8686 29.1457 22.487 29.3062C22.0557 29.6402 21.696 30.0234 21.3878 30.4734L18.8495 34.1754C18.6913 34.4074 18.6362 34.6863 18.6948 34.9594C18.7534 35.2336 18.9186 35.4656 19.1589 35.6109C22.3675 37.5586 25.5737 36.8308 28.6897 33.4465C28.7202 33.4136 28.7401 33.4054 28.7846 33.409L32.0096 33.6269L45.3854 42.0492C46.1706 42.5426 46.4073 43.5844 45.9128 44.3695ZM45.9128 40.7191L32.6085 32.3426C32.51 32.2804 32.3975 32.2441 32.2815 32.2359L28.8796 32.0062C28.4096 31.9746 27.9749 32.148 27.655 32.4949C25.1425 35.223 22.7167 35.9191 20.251 34.616L22.5468 31.2679C23.0542 30.5273 23.7409 30.0363 24.8436 29.625C27.3385 28.6945 29.803 27.9785 32.8323 27.3023C33.9503 27.0539 34.8186 27.1277 35.6483 27.5437C37.6909 28.5679 40.0932 28.8199 42.7932 28.2984L49.8362 38.5312C48.7604 39.6949 47.3647 40.4754 45.9128 40.7191ZM52.1401 39.3972L42.5225 25.4226L46.944 22.3793L56.5616 36.3539L52.1401 39.3972ZM28.0264 22.2047C28.555 22.5082 29.101 22.8222 29.626 23.1515C29.7409 23.223 29.871 23.2593 29.9999 23.2593C30.1288 23.2593 30.26 23.223 30.3737 23.1515C30.8987 22.8211 31.4448 22.5082 31.9733 22.2047C34.4823 20.7633 37.078 19.2738 38.0577 15.6551C38.0741 15.5953 38.0823 15.5332 38.0823 15.4711V6.84021C38.0823 6.53552 37.8866 6.26599 37.596 6.17107L30.2167 3.77341C30.0749 3.72771 29.9237 3.72771 29.7819 3.77341L22.4026 6.17107C22.1132 6.26482 21.9163 6.53552 21.9163 6.84021V15.4711C21.9163 15.5332 21.9245 15.5953 21.9409 15.6551C22.9218 19.2726 25.5175 20.7633 28.0264 22.2047ZM23.3237 7.35115L29.9999 5.18201L36.676 7.35115V15.3761C35.8311 18.3679 33.7171 19.582 31.2737 20.9859C30.8553 21.2261 30.4264 21.4722 30.001 21.7312C29.5745 21.4722 29.1456 21.2261 28.7284 20.9859C26.285 19.582 24.171 18.3679 23.326 15.3761V7.35115H23.3237ZM25.1085 13.9558C24.8343 13.6816 24.8343 13.2363 25.1085 12.9609C25.3827 12.6867 25.828 12.6867 26.1034 12.9609L28.562 15.4207L33.8964 10.0875C34.1706 9.81326 34.6159 9.81326 34.8913 10.0875C35.1655 10.3617 35.1655 10.807 34.8913 11.0812L29.06 16.9125C28.9276 17.0449 28.7495 17.1187 28.5632 17.1187C28.3768 17.1187 28.1975 17.0449 28.0663 16.9125L25.1085 13.9558Z" fill="white"/>
</svg>
