<svg width="44" height="44" viewBox="0 0 44 44" fill="none" xmlns="http://www.w3.org/2000/svg">
<g clip-path="url(#clip0_138_3227)">
<path d="M13.0625 4.8125C13.442 4.8125 13.75 4.50519 13.75 4.125V3.4375C13.75 2.30037 14.6754 1.375 15.8125 1.375H22.6875C23.8246 1.375 24.75 2.30037 24.75 3.4375V4.125C24.75 4.50519 25.058 4.8125 25.4375 4.8125C25.817 4.8125 26.125 4.50519 26.125 4.125V3.4375C26.125 1.54206 24.5829 0 22.6875 0H15.8125C13.9171 0 12.375 1.54206 12.375 3.4375V4.125C12.375 4.50519 12.683 4.8125 13.0625 4.8125Z" fill="white"/>
<path d="M17.875 18.5625C16.7379 18.5625 15.8125 19.4879 15.8125 20.625V26.125C15.8125 27.2621 16.7379 28.1875 17.875 28.1875H20.625C21.7621 28.1875 22.6875 27.2621 22.6875 26.125V20.625C22.6875 19.4879 21.7621 18.5625 20.625 18.5625H17.875ZM21.3125 20.625V26.125C21.3125 26.5045 21.0038 26.8125 20.625 26.8125H17.875C17.4962 26.8125 17.1875 26.5045 17.1875 26.125V20.625C17.1875 20.2455 17.4962 19.9375 17.875 19.9375H20.625C21.0038 19.9375 21.3125 20.2455 21.3125 20.625Z" fill="white"/>
<path d="M41.25 26.125H32.3125C30.7959 26.125 29.5625 27.3584 29.5625 28.875V37.125H28.1875C26.6709 37.125 25.4375 38.3584 25.4375 39.875V41.25C25.4375 42.7666 26.6709 44 28.1875 44H41.25C42.7666 44 44 42.7666 44 41.25V28.875C44 27.3584 42.7666 26.125 41.25 26.125ZM28.1875 42.625C27.4292 42.625 26.8125 42.0083 26.8125 41.25V39.875C26.8125 39.1167 27.4292 38.5 28.1875 38.5H29.5625V41.25C29.5625 42.0083 28.9458 42.625 28.1875 42.625ZM42.625 41.25C42.625 42.0083 42.0083 42.625 41.25 42.625H30.5683C30.8034 42.2201 30.9375 41.7505 30.9375 41.25V28.875C30.9375 28.1167 31.5542 27.5 32.3125 27.5H41.25C42.0083 27.5 42.625 28.1167 42.625 28.875V41.25Z" fill="white"/>
<path d="M39.875 30.9375H34.375C33.9955 30.9375 33.6875 31.2448 33.6875 31.625C33.6875 32.0052 33.9955 32.3125 34.375 32.3125H39.875C40.2545 32.3125 40.5625 32.0052 40.5625 31.625C40.5625 31.2448 40.2545 30.9375 39.875 30.9375Z" fill="white"/>
<path d="M39.875 34.375H34.375C33.9955 34.375 33.6875 34.6823 33.6875 35.0625C33.6875 35.4427 33.9955 35.75 34.375 35.75H39.875C40.2545 35.75 40.5625 35.4427 40.5625 35.0625C40.5625 34.6823 40.2545 34.375 39.875 34.375Z" fill="white"/>
<path d="M39.875 37.8125H34.375C33.9955 37.8125 33.6875 38.1198 33.6875 38.5C33.6875 38.8802 33.9955 39.1875 34.375 39.1875H39.875C40.2545 39.1875 40.5625 38.8802 40.5625 38.5C40.5625 38.1198 40.2545 37.8125 39.875 37.8125Z" fill="white"/>
<path d="M28.875 35.0625C28.875 34.6823 28.567 34.375 28.1875 34.375H3.4375C2.30037 34.375 1.375 33.4496 1.375 32.3125V18.5515C1.57506 18.7021 1.7875 18.8382 2.02125 18.9441L10.2389 23.738C10.2616 23.7511 10.285 23.7628 10.3098 23.7738C10.7463 23.9649 11.2104 24.0625 11.6875 24.0625H14.4375C14.817 24.0625 15.125 23.7552 15.125 23.375C15.125 22.9948 14.817 22.6875 14.4375 22.6875H11.6875C11.4139 22.6875 11.1471 22.6346 10.8948 22.5294L2.68125 17.7375C2.65856 17.7244 2.6345 17.7127 2.61044 17.7017C1.86037 17.3738 1.375 16.6313 1.375 15.8125V8.9375C1.375 7.80037 2.30037 6.875 3.4375 6.875H35.0625C36.1996 6.875 37.125 7.80037 37.125 8.9375V15.8125C37.125 16.6519 36.6238 17.4006 35.8483 17.7196C35.8263 17.7292 35.805 17.7389 35.7844 17.7499L26.8806 22.5445C26.6386 22.6394 26.3842 22.6875 26.125 22.6875H24.0625C23.683 22.6875 23.375 22.9948 23.375 23.375C23.375 23.7552 23.683 24.0625 24.0625 24.0625H26.125C26.5753 24.0625 27.0153 23.9759 27.4333 23.804C27.4553 23.7951 27.4773 23.7854 27.4986 23.7738L36.4066 18.9764C36.6678 18.8657 36.905 18.7186 37.125 18.5536V24.75C37.125 25.1302 37.433 25.4375 37.8125 25.4375C38.192 25.4375 38.5 25.1302 38.5 24.75V8.9375C38.5 7.04206 36.9579 5.5 35.0625 5.5H3.4375C1.54206 5.5 0 7.04206 0 8.9375V32.3125C0 34.2079 1.54206 35.75 3.4375 35.75H28.1875C28.567 35.75 28.875 35.4427 28.875 35.0625Z" fill="white"/>
</g>
<defs>
<clipPath id="clip0_138_3227">
<rect width="44" height="44" fill="white"/>
</clipPath>
</defs>
</svg>
