<svg width="65" height="63" viewBox="0 0 65 63" fill="none" xmlns="http://www.w3.org/2000/svg">
<g clip-path="url(#clip0_0_269)">
<path d="M22.884 33.8633L28.3282 39.1185C30.5359 41.2498 34.4204 41.2957 36.6759 39.1185L42.1203 33.8633L61.6743 52.7358C60.9465 53.0596 60.144 53.2528 59.2908 53.2528H5.71332C4.86014 53.2528 4.05788 53.0598 3.33026 52.7359L22.884 33.8633Z" fill="black"/>
<path d="M5.71357 9.28271H59.291C60.1442 9.28271 60.9467 9.47594 61.6743 9.79973L40.7795 29.9678C40.7781 29.9691 40.7765 29.9694 40.7751 29.9707C40.7737 29.9721 40.7734 29.9739 40.7734 29.9739L33.9794 36.5316C33.2577 37.2258 31.7466 37.2258 31.025 36.5316L24.2323 29.975C24.2323 29.975 24.2307 29.9721 24.2293 29.9707C24.2293 29.9707 24.2262 29.9691 24.2248 29.9678L3.33051 9.79961C4.05813 9.4757 4.86039 9.28271 5.71357 9.28271Z" fill="black"/>
<path d="M64.3963 12.3618C64.7729 13.0944 65.0039 13.9076 65.0039 14.7787V47.7564C65.0039 48.6275 64.7731 49.4407 64.3964 50.1733L44.8085 31.2682L64.3963 12.3618Z" fill="black"/>
<path d="M0.607704 12.3618L20.1953 31.2684L0.607704 50.1738C0.231138 49.4412 6.86646e-05 48.628 6.86646e-05 47.7566V14.779C6.86646e-05 13.9076 0.231138 13.0944 0.607704 12.3618Z" fill="black"/>
</g>
<defs>
<clipPath id="clip0_0_269">
<rect width="65.0039" height="62.5354" fill="white" transform="matrix(-1 0 0 1 65.0039 0)"/>
</clipPath>
</defs>
</svg>
