<svg width="74" height="75" viewBox="0 0 74 75" fill="none" xmlns="http://www.w3.org/2000/svg">
<path d="M25.2438 28.416V27.5747H28.9266V30.6932C27.8003 29.749 26.5627 28.9795 25.2438 28.416Z" fill="black"/>
<path d="M17.6154 7.40527H57.7174V11.2006H55.6376H55.6273H17.6154V7.40527Z" fill="black"/>
<path d="M10.9702 33.0015C12.1368 31.8218 13.496 30.9191 14.9673 30.2933C16.4488 29.6779 18.0511 29.3491 19.6944 29.3491C22.9913 29.3491 26.0956 30.6517 28.4186 33.0015C30.7517 35.3609 32.0399 38.5001 32.0399 41.8341C32.0399 42.1725 32.0296 42.5213 32.0091 42.8597V42.8805V42.9012C31.5339 56.3296 22.1396 64.7008 19.6951 66.6499C17.1891 64.6497 7.35916 55.8883 7.35916 41.8341C7.35843 38.5001 8.63707 35.3609 10.9702 33.0015ZM19.6951 48.1636C23.1444 48.1636 25.9543 45.3221 25.9543 41.8341C25.9543 38.3357 23.1444 35.5046 19.6951 35.5046C16.2459 35.5046 13.436 38.3357 13.436 41.8341C13.4352 45.3221 16.2459 48.1636 19.6951 48.1636Z" fill="black"/>
<path d="M36.6468 43.9062V59.9814H28.5005C31.1786 55.9395 33.5725 50.5534 33.9885 43.9062H36.6468Z" fill="black"/>
<path d="M47.9276 43.9062H38.6754V59.9814H47.9276V43.9062Z" fill="black"/>
<path d="M34.0698 41.8338C34.0698 38.4687 32.9435 35.2784 30.8739 32.7035C30.9245 32.5806 30.9552 32.4576 30.9552 32.3236V26.548C30.9552 25.9734 30.499 25.5224 29.9409 25.5224H24.2296C23.6613 25.5224 23.2153 25.9741 23.2153 26.548V27.7485C22.3936 27.5433 21.5617 27.41 20.7093 27.3486V13.2529H54.6129V59.9817H49.9568V42.8802C49.9568 42.3159 49.5006 41.8545 48.9425 41.8545H34.0705C34.0698 41.8441 34.0698 41.8338 34.0698 41.8338ZM30.9552 16.3307C30.9552 15.756 30.499 15.305 29.9409 15.305H24.2296C23.6613 15.305 23.2153 15.7567 23.2153 16.3307V22.1062C23.2153 22.6705 23.662 23.1319 24.2296 23.1319H29.9409C30.499 23.1319 30.9552 22.6705 30.9552 22.1062V16.3307ZM41.5365 16.3307C41.5365 15.756 41.0803 15.305 40.5223 15.305H34.8109C34.2426 15.305 33.7966 15.7567 33.7966 16.3307V22.1062C33.7966 22.6705 34.2433 23.1319 34.8109 23.1319H40.5223C41.0803 23.1319 41.5365 22.6705 41.5365 22.1062V16.3307ZM44.3765 32.3236C44.3765 32.8879 44.8327 33.3493 45.3908 33.3493H51.1021C51.6704 33.3493 52.1164 32.8879 52.1164 32.3236V26.548C52.1164 25.9734 51.6697 25.5224 51.1021 25.5224H45.3908C44.8327 25.5224 44.3765 25.9741 44.3765 26.548V32.3236ZM44.3765 22.1062C44.3765 22.6705 44.8327 23.1319 45.3908 23.1319H51.1021C51.6704 23.1319 52.1164 22.6705 52.1164 22.1062V16.3307C52.1164 15.756 51.6697 15.305 51.1021 15.305H45.3908C44.8327 15.305 44.3765 15.7567 44.3765 16.3307V22.1062ZM34.8102 33.35H40.5215C41.0796 33.35 41.5358 32.8886 41.5358 32.3243V26.5488C41.5358 25.9741 41.0796 25.5231 40.5215 25.5231H34.8102C34.2419 25.5231 33.7959 25.9749 33.7959 26.5488V32.3243C33.7959 32.8879 34.2419 33.35 34.8102 33.35Z" fill="black"/>
<path d="M65.8739 59.9821H56.6415V28.231L65.8739 33.0734V59.9821Z" fill="black"/>
<path d="M50.0887 17.3564H46.4059V21.0807H50.0887V17.3564Z" fill="black"/>
<path d="M39.5074 17.3564H35.8246V21.0807H39.5074V17.3564Z" fill="black"/>
<path d="M28.9266 17.3564H25.2438V21.0807H28.9266V17.3564Z" fill="black"/>
<path d="M50.0887 27.5747H46.4059V31.2989H50.0887V27.5747Z" fill="black"/>
<path d="M39.5074 27.5747H35.8246V31.2989H39.5074V27.5747Z" fill="black"/>
</svg>
