<svg width="36" height="36" viewBox="0 0 36 36" fill="none" xmlns="http://www.w3.org/2000/svg">
<g clip-path="url(#clip0_0_1089)">
<path d="M21.1641 18C21.1641 19.7474 19.7474 21.1641 18 21.1641C16.2526 21.1641 14.8359 19.7474 14.8359 18C14.8359 16.2526 16.2526 14.8359 18 14.8359C19.7474 14.8359 21.1641 16.2526 21.1641 18Z" fill="white"/>
<path d="M23.3438 8.4375H12.6562C10.3299 8.4375 8.4375 10.3299 8.4375 12.6562V23.3438C8.4375 25.6701 10.3299 27.5625 12.6562 27.5625H23.3438C25.6701 27.5625 27.5625 25.6701 27.5625 23.3438V12.6562C27.5625 10.3299 25.6701 8.4375 23.3438 8.4375ZM18 23.2734C15.0922 23.2734 12.7266 20.9078 12.7266 18C12.7266 15.0922 15.0922 12.7266 18 12.7266C20.9078 12.7266 23.2734 15.0922 23.2734 18C23.2734 20.9078 20.9078 23.2734 18 23.2734ZM24.0469 13.0078C23.4643 13.0078 22.9922 12.5357 22.9922 11.9531C22.9922 11.3706 23.4643 10.8984 24.0469 10.8984C24.6294 10.8984 25.1016 11.3706 25.1016 11.9531C25.1016 12.5357 24.6294 13.0078 24.0469 13.0078Z" fill="white"/>
<path d="M26.5078 0H9.49219C4.2583 0 0 4.2583 0 9.49219V26.5078C0 31.7417 4.2583 36 9.49219 36H26.5078C31.7417 36 36 31.7417 36 26.5078V9.49219C36 4.2583 31.7417 0 26.5078 0ZM29.6719 23.3438C29.6719 26.833 26.833 29.6719 23.3438 29.6719H12.6562C9.16699 29.6719 6.32812 26.833 6.32812 23.3438V12.6562C6.32812 9.16699 9.16699 6.32812 12.6562 6.32812H23.3438C26.833 6.32812 29.6719 9.16699 29.6719 12.6562V23.3438Z" fill="white"/>
</g>
<defs>
<clipPath id="clip0_0_1089">
<rect width="36" height="36" fill="white"/>
</clipPath>
</defs>
</svg>
