<svg width="44" height="44" viewBox="0 0 44 44" fill="none" xmlns="http://www.w3.org/2000/svg">
<path d="M41.2496 24.0625C41.2488 22.9563 40.9807 21.8666 40.4683 20.8861C39.9559 19.9057 39.2142 19.0635 38.3064 18.4312C39.6277 18.1372 40.7941 17.3664 41.5825 16.2661C42.3709 15.1659 42.7259 13.8136 42.5796 12.468C42.4333 11.1224 41.7959 9.87796 40.7895 8.9729C39.783 8.06784 38.4781 7.56569 37.1246 7.56254H27.9121C28.8902 7.21959 29.8088 6.72598 30.6346 6.09954C30.9335 5.80601 31.1712 5.45618 31.3341 5.07026C31.497 4.68433 31.5818 4.26996 31.5837 3.85107C31.5855 3.43218 31.5044 3.01707 31.3449 2.62972C31.1855 2.24236 30.9509 1.89043 30.6546 1.59425C30.3584 1.29807 30.0065 1.06351 29.6191 0.904108C29.2317 0.74471 28.8166 0.663633 28.3977 0.665561C27.9788 0.667488 27.5644 0.752382 27.1785 0.915338C26.7926 1.07829 26.4428 1.31609 26.1494 1.61498C25.4921 2.26879 24.6582 4.31754 24.0621 5.95379C23.4654 4.31617 22.6307 2.27085 21.9749 1.61498C21.6814 1.31609 21.3316 1.07829 20.9457 0.915338C20.5598 0.752382 20.1454 0.667488 19.7265 0.665561C19.3076 0.663633 18.8925 0.74471 18.5051 0.904108C18.1178 1.06351 17.7658 1.29807 17.4696 1.59425C17.1733 1.89043 16.9387 2.24236 16.7793 2.62972C16.6198 3.01707 16.5387 3.43218 16.5405 3.85107C16.5424 4.26996 16.6272 4.68433 16.7901 5.07026C16.953 5.45618 17.1908 5.80601 17.4896 6.09954C18.3156 6.72571 19.2341 7.2193 20.2121 7.56254H6.8746C5.70942 7.56105 4.57392 7.93 3.63216 8.61611C2.6904 9.30222 1.99114 10.27 1.6354 11.3795C1.27965 12.4891 1.28584 13.683 1.65308 14.7888C2.02032 15.8946 2.72959 16.855 3.67841 17.5313C3.30964 17.7759 3.02932 18.1326 2.87886 18.5488C2.7284 18.965 2.71578 19.4185 2.84287 19.8424C2.96996 20.2663 3.23002 20.638 3.58462 20.9028C3.93922 21.1675 4.36958 21.3112 4.8121 21.3125H4.99841C5.65324 23.0874 5.65324 25.0377 4.99841 26.8125H4.8121C4.26509 26.8125 3.74049 27.0298 3.35369 27.4166C2.9669 27.8034 2.7496 28.328 2.7496 28.875C2.7496 29.4221 2.9669 29.9467 3.35369 30.3335C3.74049 30.7202 4.26509 30.9375 4.8121 30.9375H5.51748C4.35878 31.7995 3.50137 33.0048 3.06718 34.3822C2.63299 35.7595 2.64414 37.2386 3.09903 38.6093C3.55392 39.9799 4.4294 41.1722 5.60095 42.0166C6.7725 42.861 8.18047 43.3144 9.6246 43.3125H39.1871C39.7341 43.3125 40.2587 43.0952 40.6455 42.7085C41.0323 42.3217 41.2496 41.7971 41.2496 41.25C41.2496 40.703 41.0323 40.1784 40.6455 39.7916C40.2587 39.4048 39.7341 39.1875 39.1871 39.1875H39.0015C38.3466 37.4127 38.3466 35.4624 39.0015 33.6875H39.1871C39.7341 33.6875 40.2587 33.4702 40.6455 33.0835C41.0323 32.6967 41.2496 32.1721 41.2496 31.625C41.2496 31.078 41.0323 30.5534 40.6455 30.1666C40.2587 29.7798 39.7341 29.5625 39.1871 29.5625H38.4817C39.3397 28.9248 40.0367 28.0954 40.5173 27.1405C40.9978 26.1855 41.2486 25.1316 41.2496 24.0625ZM37.1246 8.93754C38.2186 8.93754 39.2678 9.37214 40.0414 10.1457C40.815 10.9193 41.2496 11.9685 41.2496 13.0625C41.2496 14.1566 40.815 15.2058 40.0414 15.9794C39.2678 16.7529 38.2186 17.1875 37.1246 17.1875H28.3755C28.9641 16.6735 29.4359 16.0394 29.7591 15.3279C30.0824 14.6165 30.2496 13.844 30.2496 13.0625C30.2496 12.2811 30.0824 11.5086 29.7591 10.7971C29.4359 10.0857 28.9641 9.45159 28.3755 8.93754H37.1246ZM24.7496 8.93754C25.8436 8.93754 26.8928 9.37214 27.6664 10.1457C28.44 10.9193 28.8746 11.9685 28.8746 13.0625C28.8746 14.1566 28.44 15.2058 27.6664 15.9794C26.8928 16.7529 25.8436 17.1875 24.7496 17.1875H23.563C24.1516 16.6735 24.6234 16.0394 24.9466 15.3279C25.2699 14.6165 25.4371 13.844 25.4371 13.0625C25.4371 12.2811 25.2699 11.5086 24.9466 10.7971C24.6234 10.0857 24.1516 9.45159 23.563 8.93754H24.7496ZM27.1222 2.5871C27.4595 2.24978 27.917 2.06028 28.394 2.06028C28.8711 2.06028 29.3286 2.24978 29.6659 2.5871C30.0032 2.92443 30.1927 3.38193 30.1927 3.85898C30.1927 4.33603 30.0032 4.79353 29.6659 5.13086C29.1915 5.60523 27.0163 6.48454 25.0989 7.15761C25.7685 5.23673 26.6471 3.06148 27.1222 2.5871ZM18.4597 2.5871C18.6267 2.42006 18.825 2.28754 19.0432 2.19713C19.2614 2.10673 19.4953 2.06019 19.7315 2.06019C19.9678 2.06019 20.2017 2.10673 20.4199 2.19713C20.6381 2.28754 20.8364 2.42006 21.0034 2.5871C21.4785 3.06148 22.3571 5.23673 23.0302 7.15417C21.1127 6.48111 18.9375 5.60179 18.4631 5.12742C18.1268 4.79036 17.9378 4.33371 17.9375 3.85755C17.9372 3.38138 18.1258 2.92453 18.4617 2.5871H18.4597ZM19.9371 8.93754C21.0311 8.93754 22.0803 9.37214 22.8539 10.1457C23.6275 10.9193 24.0621 11.9685 24.0621 13.0625C24.0621 14.1566 23.6275 15.2058 22.8539 15.9794C22.0803 16.7529 21.0311 17.1875 19.9371 17.1875H10.5005C11.0891 16.6735 11.5609 16.0394 11.8841 15.3279C12.2074 14.6165 12.3746 13.844 12.3746 13.0625C12.3746 12.2811 12.2074 11.5086 11.8841 10.7971C11.5609 10.0857 11.0891 9.45159 10.5005 8.93754H19.9371ZM7.5621 17.1257V14.6665C7.56246 14.4235 7.65913 14.1906 7.83092 14.0189C8.00271 13.8471 8.2356 13.7504 8.47854 13.75H10.9377C10.7937 14.5929 10.3916 15.3703 9.78696 15.9749C9.18233 16.5795 8.40496 16.9816 7.5621 17.1257ZM2.7496 13.0625C2.75557 12.0324 3.14676 11.0418 3.84624 10.2855C4.54572 9.52926 5.50286 9.06209 6.5294 8.9759C7.55594 8.88971 8.57757 9.19073 9.39337 9.81977C10.2092 10.4488 10.7601 11.3603 10.9377 12.375H8.47854C7.87103 12.3758 7.28862 12.6174 6.85905 13.047C6.42948 13.4766 6.18783 14.059 6.1871 14.6665V17.1257C5.22698 16.9625 4.35541 16.4653 3.7264 15.7218C3.09738 14.9783 2.75141 14.0364 2.7496 13.0625ZM39.1871 30.9375C39.3694 30.9375 39.5443 31.01 39.6732 31.1389C39.8022 31.2678 39.8746 31.4427 39.8746 31.625C39.8746 31.8074 39.8022 31.9823 39.6732 32.1112C39.5443 32.2401 39.3694 32.3125 39.1871 32.3125H9.6246C8.53058 32.3125 7.48137 32.7471 6.70779 33.5207C5.9342 34.2943 5.4996 35.3435 5.4996 36.4375C5.4996 37.5316 5.9342 38.5808 6.70779 39.3544C7.48137 40.1279 8.53058 40.5625 9.6246 40.5625H39.1871C39.3694 40.5625 39.5443 40.635 39.6732 40.7639C39.8022 40.8928 39.8746 41.0677 39.8746 41.25C39.8746 41.4324 39.8022 41.6073 39.6732 41.7362C39.5443 41.8651 39.3694 41.9375 39.1871 41.9375H9.6246C8.16591 41.9375 6.76696 41.3581 5.73551 40.3266C4.70406 39.2952 4.1246 37.8962 4.1246 36.4375C4.1246 34.9789 4.70406 33.5799 5.73551 32.5485C6.76696 31.517 8.16591 30.9375 9.6246 30.9375H39.1871ZM37.5467 39.1875H9.6246C8.89526 39.1875 8.19578 38.8978 7.68006 38.3821C7.16433 37.8664 6.8746 37.1669 6.8746 36.4375C6.8746 35.7082 7.16433 35.0087 7.68006 34.493C8.19578 33.9773 8.89526 33.6875 9.6246 33.6875H37.546C36.9932 35.4792 36.9934 37.396 37.5467 39.1875ZM34.3746 29.5625H4.8121C4.62976 29.5625 4.4549 29.4901 4.32596 29.3612C4.19703 29.2322 4.1246 29.0574 4.1246 28.875C4.1246 28.6927 4.19703 28.5178 4.32596 28.3889C4.4549 28.26 4.62976 28.1875 4.8121 28.1875H34.3746C35.4686 28.1875 36.5178 27.7529 37.2914 26.9794C38.065 26.2058 38.4996 25.1566 38.4996 24.0625C38.4996 22.9685 38.065 21.9193 37.2914 21.1457C36.5178 20.3721 35.4686 19.9375 34.3746 19.9375H4.8121C4.62976 19.9375 4.4549 19.8651 4.32596 19.7362C4.19703 19.6072 4.1246 19.4324 4.1246 19.25C4.1246 19.0677 4.19703 18.8928 4.32596 18.7639C4.4549 18.635 4.62976 18.5625 4.8121 18.5625H34.3746C35.8333 18.5625 37.2322 19.142 38.2637 20.1735C39.2951 21.2049 39.8746 22.6039 39.8746 24.0625C39.8746 25.5212 39.2951 26.9202 38.2637 27.9516C37.2322 28.9831 35.8333 29.5625 34.3746 29.5625ZM6.45316 21.3125H34.3746C35.1039 21.3125 35.8034 21.6023 36.3191 22.118C36.8349 22.6337 37.1246 23.3332 37.1246 24.0625C37.1246 24.7919 36.8349 25.4914 36.3191 26.0071C35.8034 26.5228 35.1039 26.8125 34.3746 26.8125H6.45248C7.00581 25.021 7.00605 23.1042 6.45316 21.3125Z" fill="white"/>
</svg>
