<svg width="32" height="32" viewBox="0 0 32 32" fill="none" xmlns="http://www.w3.org/2000/svg">
<g clip-path="url(#clip0_258_1313)">
<mask id="mask0_258_1313" style="mask-type:luminance" maskUnits="userSpaceOnUse" x="0" y="0" width="32" height="32">
<path d="M0 -0.000179291H31.3347V31.3345H0V-0.000179291Z" fill="white"/>
</mask>
<g mask="url(#mask0_258_1313)">
<path d="M15.668 21.481H26.7453C28.7733 21.481 30.4173 19.8369 30.4173 17.8089V13.5249C30.4173 11.4969 28.7733 9.85286 26.7453 9.85286H21.482" stroke="black" stroke-width="1.83601" stroke-miterlimit="10" stroke-linecap="round" stroke-linejoin="round"/>
<path d="M15.6673 9.85286H4.59C2.562 9.85286 0.917969 11.4969 0.917969 13.5249V17.8089C0.917969 19.8369 2.562 21.481 4.59 21.481H9.85324" stroke="black" stroke-width="1.83601" stroke-miterlimit="10" stroke-linecap="round" stroke-linejoin="round"/>
<path d="M9.85547 9.85314V4.58989C9.85547 2.56189 11.4995 0.917865 13.5275 0.917865H17.8115C19.8395 0.917865 21.4836 2.56189 21.4836 4.58989V15.6672H9.85547V26.7445C9.85547 28.7725 11.4995 30.4165 13.5275 30.4165H17.8115C19.8395 30.4165 21.4836 28.7725 21.4836 26.7445V21.4812" stroke="black" stroke-width="1.83601" stroke-miterlimit="10" stroke-linecap="round" stroke-linejoin="round"/>
<path d="M13.5274 4.58928C14.0344 4.58928 14.4454 5.0003 14.4454 5.50729C14.4454 6.01427 14.0344 6.42529 13.5274 6.42529C13.0204 6.42529 12.6094 6.01427 12.6094 5.50729C12.6094 5.0003 13.0204 4.58928 13.5274 4.58928Z" fill="black"/>
<path d="M17.8086 26.7441C17.3016 26.7441 16.8906 26.3331 16.8906 25.8261C16.8906 25.3191 17.3016 24.9081 17.8086 24.9081C18.3156 24.9081 18.7266 25.3191 18.7266 25.8261C18.7266 26.3331 18.3156 26.7441 17.8086 26.7441Z" fill="black"/>
</g>
</g>
<defs>
<clipPath id="clip0_258_1313">
<rect width="31.3347" height="31.3347" fill="white"/>
</clipPath>
</defs>
</svg>
