<svg width="65" height="63" viewBox="0 0 65 63" fill="none" xmlns="http://www.w3.org/2000/svg">
<path d="M46.1652 9.28083C46.1652 8.74342 46.6223 8.30371 47.1809 8.30371H50.228C50.7866 8.30371 51.2437 8.74342 51.2437 9.28083V10.2579H46.1652V9.28083Z" fill="black"/>
<path d="M51.7514 18.075H45.6573C44.8142 18.075 44.1338 17.4203 44.1338 16.6093V14.1665H53.2749V16.6093C53.2749 17.4203 52.5944 18.075 51.7514 18.075Z" fill="black"/>
<path d="M59.877 13.678C59.877 18.3231 56.7198 22.4701 52.1517 23.8957L49.5659 27.8757C49.3799 28.161 49.0545 28.3347 48.7044 28.3347C48.3543 28.3347 48.029 28.161 47.843 27.8757L45.2571 23.8957C33.2822 19.914 36.0077 3.16126 48.7046 2.92969C54.865 2.92969 59.877 7.75134 59.877 13.678ZM54.2907 12.7008C54.2907 11.5185 53.4172 10.5316 52.2593 10.3069V9.28094C52.2593 8.20608 51.3452 7.32671 50.228 7.32671H47.1809C46.0636 7.32671 45.1495 8.20608 45.1495 9.28094V10.3069C43.9916 10.5316 43.1181 11.5185 43.1181 12.7008V16.6093C43.1181 17.9577 44.2557 19.0521 45.6574 19.0521H51.7515C53.1531 19.0521 54.2907 17.9577 54.2907 16.6093V12.7008Z" fill="black"/>
<path d="M11.632 20.0294C11.632 19.492 12.0891 19.0522 12.6477 19.0522H15.6948C16.2534 19.0522 16.7105 19.492 16.7105 20.0294V21.0065H11.632V20.0294Z" fill="black"/>
<path d="M18.7417 27.3578C18.7417 28.1688 18.0612 28.8235 17.2182 28.8235H11.1241C10.281 28.8235 9.60055 28.1688 9.60055 27.3578V24.915H18.7417V27.3578Z" fill="black"/>
<path d="M11.5873 39.6597C12.6888 41.4753 15.6516 41.4755 16.7535 39.6625L18.9669 36.256C20.0919 35.8353 21.1263 35.2708 22.0642 34.5997C20.4373 38.8376 18.2432 42.8861 20.0015 47.3204C20.682 49.5009 21.121 52.0176 20.2652 54.2482C36.6791 63.648 58.5557 52.618 59.7856 34.315C52.4293 33.513 47.3654 30.7309 42.7119 38.2041C41.398 40.1263 40.1463 42.1301 38.2022 43.6172C33.088 47.5446 26.927 44.4044 27.3446 38.1451C27.5068 35.7821 28.4539 33.6831 29.254 31.54C30.9801 27.4758 30.5853 23.9536 26.899 21.0961C25.6962 16.8485 22.2647 13.4824 17.8842 12.2443C17.8274 12.117 17.7599 11.9866 17.7057 11.8609C17.5915 11.9427 17.4861 12.0342 17.3734 12.1177C16.5045 11.9083 15.6037 11.7827 14.6768 11.7488C21.0807 6.15359 30.2694 3.77736 38.7455 5.36386C32.7653 11.7279 35.4716 22.5118 43.9087 25.5078L46.1206 28.9114C46.683 29.775 47.6486 30.2893 48.7045 30.2893C49.7603 30.2893 50.7259 29.775 51.2868 28.9143L53.5002 25.5078C55.9348 24.5973 57.967 23.0404 59.4268 21.0872C67.948 38.7641 53.8057 59.899 33.4688 59.6026C18.6966 59.8435 5.50562 47.7986 5.07576 33.6327C6.29595 34.7457 7.74509 35.6463 9.37538 36.256L11.5873 39.6597Z" fill="black"/>
<path d="M14.1711 13.6782C26.875 13.9122 29.5873 30.6673 17.6183 34.6442L15.0325 38.6243C14.8465 38.9096 14.5212 39.0832 14.1711 39.0832C13.8209 39.0832 13.4956 38.9096 13.3096 38.6243L10.7238 34.6442C-1.25245 30.6623 1.47591 13.9091 14.1711 13.6782ZM8.58478 27.3579C8.58478 28.7063 9.72235 29.8006 11.124 29.8006H17.2181C18.6198 29.8006 19.7573 28.7063 19.7573 27.3579V23.4494C19.7573 22.2671 18.8839 21.2802 17.726 21.0554V20.0295C17.726 18.9546 16.8118 18.0752 15.6946 18.0752H12.6475C11.5302 18.0752 10.6162 18.9546 10.6162 20.0295V21.0554C9.45826 21.2802 8.58478 22.2671 8.58478 23.4494V27.3579Z" fill="black"/>
</svg>
