<svg width="46" height="46" viewBox="0 0 46 46" fill="none" xmlns="http://www.w3.org/2000/svg">
<path d="M30.8964 15.8844C31.2198 16.8188 31.3815 17.798 31.3815 18.7953C31.3815 19.1906 31.0671 19.5051 30.6718 19.5051C30.2765 19.5051 29.962 19.1906 29.962 18.7953C29.962 17.9598 29.8272 17.1332 29.5577 16.3516C28.812 14.1863 27.1409 12.4973 24.9757 11.7246C24.6073 11.5898 24.4097 11.1855 24.5444 10.8172C24.6792 10.4488 25.0835 10.2512 25.4519 10.3859C28.0214 11.3023 30.0069 13.3059 30.8964 15.8844ZM34.1218 19.4602C33.9511 22.6227 32.5315 25.5246 30.1237 27.618C28.264 29.2352 27.1679 31.5531 27.0511 34.0418C29.369 33.907 30.6179 36.827 28.9378 38.3902C30.573 39.8996 29.4409 42.7656 27.1858 42.7387H26.4312C26.503 44.4547 25.1284 45.9102 23.4034 45.9102H18.0397C16.3147 45.9191 14.9401 44.4547 15.012 42.7387H14.2573C12.0022 42.7656 10.8702 39.8996 12.5054 38.3902C11.0679 37.1055 11.7597 34.5449 13.6284 34.1316C13.2601 33.7363 12.9636 33.2691 12.7659 32.748C9.37881 32.9996 6.80928 29.5137 7.92334 26.3602C3.65576 24.4285 3.65576 18.1664 7.92334 16.2348C6.80928 13.0902 9.37881 9.6043 12.7659 9.84688C14.3831 5.56133 20.7171 6.65742 20.771 11.2664V31.3285C20.771 32.3707 20.3847 33.3141 19.7468 34.0418H21.7413V8.75078C21.7233 7.84336 22.5679 7.05273 23.4753 7.15156C29.6296 7.5918 34.571 13.2969 34.1218 19.4602ZM15.2636 29.0914C15.4073 29.4598 15.2187 29.8641 14.8503 30.0078C14.6616 30.0797 14.4999 30.1785 14.3741 30.3133C13.8351 30.8523 13.9788 31.7418 13.9968 31.8496C14.6706 35.048 19.3065 34.6078 19.3694 31.3375V11.2754C19.3515 8.37344 15.3894 7.53789 14.2034 10.1613C15.1558 10.35 17.9769 12.7578 15.9554 13.207C15.2726 13.1891 15.1378 12.2906 14.5897 11.9852C11.9304 9.87383 8.13897 12.7668 9.29795 15.8395C10.6366 15.6418 12.0292 16.1898 12.8917 17.223C13.1433 17.5195 13.1073 17.9688 12.8019 18.2203C12.5054 18.4719 12.0562 18.4359 11.8046 18.1305C11.6159 17.9059 11.2026 17.5016 10.5468 17.3129C9.90889 17.1242 9.35186 17.241 9.08232 17.3219C5.4167 18.4 5.12022 23.6109 8.60615 25.1113C9.08232 24.3477 11.8854 22.2094 12.3796 23.7008C12.4784 24.0781 12.2448 24.4645 11.8675 24.5633C7.8335 25.5605 8.39053 31.2297 12.5503 31.3375C12.5683 30.7445 12.73 29.9449 13.3679 29.307C13.8261 28.8309 14.8862 28.2109 15.2636 29.0914ZM25.0206 42.7387H16.4405C16.3687 43.673 17.1054 44.4906 18.0487 44.4906H23.4124C24.3558 44.4996 25.0835 43.673 25.0206 42.7387ZM28.2999 40.2141C28.2999 39.6031 27.8058 39.1 27.1858 39.1H14.2753C13.6644 39.1 13.1612 39.5941 13.1612 40.2141C13.1612 40.825 13.6554 41.3281 14.2753 41.3281H27.1948C27.7968 41.3191 28.2999 40.825 28.2999 40.2141ZM14.2753 35.4613C12.8108 35.4973 12.8108 37.6445 14.2753 37.6805H27.1948C27.8058 37.6805 28.3089 37.1863 28.3089 36.5664C28.3089 35.9555 27.8147 35.4523 27.1948 35.4523H14.2753V35.4613ZM23.3495 8.56211C23.2237 8.57109 23.1698 8.61602 23.1519 8.75078V34.0418H25.6136C25.7394 31.1398 27.0241 28.4266 29.1894 26.5488C36.0265 20.7 32.271 9.28984 23.3495 8.56211ZM32.4776 9.87383L35.7569 6.59453C36.4038 5.92969 35.4245 4.94141 34.7507 5.58828L31.4714 8.86758C30.8245 9.54141 31.8128 10.5207 32.4776 9.87383ZM40.5636 18.1934H35.9276C34.9933 18.2113 34.9933 19.5949 35.9276 19.6129H40.5636C41.4979 19.5949 41.4979 18.2113 40.5636 18.1934ZM32.4776 27.9234C31.8128 27.2766 30.8245 28.2559 31.4714 28.9297L34.7507 32.209C35.4245 32.8559 36.4038 31.8766 35.7569 31.2027L32.4776 27.9234ZM23.1608 5.42656V0.790625C23.1429 -0.14375 21.7593 -0.14375 21.7413 0.790625V5.42656C21.7593 6.36094 23.1429 6.36094 23.1608 5.42656Z" fill="white"/>
</svg>
