<svg width="35" height="35" viewBox="0 0 35 35" fill="none" xmlns="http://www.w3.org/2000/svg">
<g clip-path="url(#clip0_0_1100)">
<path d="M23.5513 11.4485L23.5076 11.4048C22.0775 9.97424 20.1839 9.10089 18.1674 8.94184C16.1508 8.78279 14.1437 9.34848 12.5071 10.5371C10.8704 11.7258 9.71157 13.4595 9.23901 15.4263C8.76644 17.3931 9.01116 19.464 9.92915 21.2664L10.303 22.0022L9.60699 25.3829L9.59705 25.4267L12.9559 24.6312L13.7215 25.019C15.3145 25.8104 17.1155 26.0825 18.8713 25.7972C20.627 25.5118 22.2491 24.6833 23.5095 23.4281C25.0949 21.8425 25.9892 19.6945 25.9974 17.4523C26.0056 15.2101 25.127 13.0556 23.5533 11.4585L23.5513 11.4485ZM23.2093 20.9383C22.7976 21.5866 22.1473 22.3781 21.33 22.575C19.8982 22.923 17.7007 22.5869 14.9664 20.0395L14.9326 20.0076C12.5283 17.7804 11.9039 15.925 12.055 14.4534C12.1385 13.6162 12.8345 12.8625 13.4212 12.3673C13.5141 12.2885 13.6241 12.2325 13.7424 12.2037C13.8608 12.1749 13.9842 12.1741 14.1029 12.2013C14.2216 12.2285 14.3324 12.283 14.4263 12.3605C14.5203 12.438 14.5949 12.5363 14.6442 12.6477L15.5291 14.6483C15.5871 14.7771 15.6086 14.9194 15.5915 15.0596C15.5743 15.1998 15.519 15.3327 15.4317 15.4437L14.9843 16.0244C14.8906 16.1435 14.834 16.2875 14.8216 16.4385C14.8093 16.5895 14.8416 16.7408 14.9147 16.8735C15.1652 17.311 15.7658 17.9573 16.432 18.5579C17.1797 19.2321 18.009 19.8505 18.534 20.0633C18.6748 20.1197 18.8291 20.1329 18.9775 20.1014C19.1258 20.0699 19.2615 19.995 19.3672 19.8863L19.8863 19.3633C19.9864 19.2646 20.1109 19.1941 20.2472 19.1592C20.3834 19.1243 20.5265 19.1261 20.6618 19.1645L22.7638 19.761C22.8801 19.7965 22.9866 19.8582 23.0753 19.9413C23.164 20.0244 23.2325 20.1267 23.2755 20.2403C23.3185 20.354 23.3349 20.476 23.3234 20.597C23.312 20.718 23.2729 20.8348 23.2093 20.9383Z" fill="white"/>
<path d="M30.2273 0H4.77273C3.50692 0 2.29296 0.502839 1.3979 1.3979C0.502839 2.29296 0 3.50692 0 4.77273L0 30.2273C0 31.4931 0.502839 32.707 1.3979 33.6021C2.29296 34.4972 3.50692 35 4.77273 35H30.2273C31.4931 35 32.707 34.4972 33.6021 33.6021C34.4972 32.707 35 31.4931 35 30.2273V4.77273C35 3.50692 34.4972 2.29296 33.6021 1.3979C32.707 0.502839 31.4931 0 30.2273 0ZM28.344 17.7585C28.2854 19.5753 27.7712 21.3483 26.8489 22.9147C25.9265 24.481 24.6255 25.7906 23.0652 26.7232C21.5049 27.6557 19.7353 28.1814 17.9189 28.252C16.1026 28.3226 14.2975 27.9357 12.6696 27.127L7.19091 28.4256C7.10787 28.4449 7.02093 28.4387 6.94145 28.4079C6.86198 28.377 6.79367 28.3229 6.74545 28.2526C6.71291 28.2059 6.6903 28.153 6.67901 28.0973C6.66772 28.0415 6.668 27.9841 6.67983 27.9284L7.83125 22.3384C7.08022 20.8636 6.67649 19.2366 6.65097 17.5819C6.62545 15.9271 6.9788 14.2884 7.68399 12.7913C8.38918 11.2941 9.42752 9.97803 10.7196 8.94385C12.0116 7.90968 13.5231 7.18477 15.1384 6.8246C16.7537 6.46443 18.4299 6.47854 20.0389 6.86585C21.6479 7.25317 23.147 8.00342 24.4214 9.0592C25.6959 10.115 26.7119 11.4483 27.3918 12.9572C28.0717 14.466 28.3974 16.1104 28.344 17.7645V17.7585Z" fill="white"/>
</g>
<defs>
<clipPath id="clip0_0_1100">
<rect width="35" height="35" fill="white"/>
</clipPath>
</defs>
</svg>
