<svg width="36" height="35" viewBox="0 0 36 35" fill="none" xmlns="http://www.w3.org/2000/svg">
<g clip-path="url(#clip0_0_1097)">
<path d="M19.2042 16.9023L27.3055 28.1682H23.9807L17.3699 18.9752V18.9746L16.3993 17.6251L8.67676 6.8855H12.0015L18.2336 15.5528L19.2042 16.9023Z" fill="white"/>
<path d="M32.1101 0H3.88988C1.74161 0 0 1.69324 0 3.78183V31.2182C0 33.3068 1.74161 35 3.88988 35H32.1101C34.2584 35 36 33.3068 36 31.2182V3.78183C36 1.69324 34.2584 0 32.1101 0ZM22.962 29.6807L16.2722 20.215L7.89653 29.6807H5.73183L15.311 18.8555L5.73183 5.30134H13.038L19.3728 14.2647L27.304 5.30134H29.4687L20.3343 15.6245H20.3337L30.2682 29.6807H22.962Z" fill="white"/>
</g>
<defs>
<clipPath id="clip0_0_1097">
<rect width="36" height="35" fill="white"/>
</clipPath>
</defs>
</svg>
