<svg width="38" height="27" viewBox="0 0 38 27" fill="none" xmlns="http://www.w3.org/2000/svg">
<path d="M36.7273 4.10843C36.2952 2.50191 35.0285 1.2355 33.4222 0.802917C30.4877 0 18.7495 0 18.7495 0C18.7495 0 7.0118 0 4.0773 0.772476C2.50191 1.20461 1.20438 2.50214 0.772247 4.10843C0 7.04269 0 13.128 0 13.128C0 13.128 0 19.2439 0.772247 22.1475C1.20483 23.7538 2.47101 25.0202 4.07753 25.4528C7.04269 26.256 18.75 26.256 18.75 26.256C18.75 26.256 30.4877 26.256 33.4222 25.4835C35.0288 25.0511 36.2952 23.7847 36.7278 22.1784C37.4998 19.2439 37.4998 13.1589 37.4998 13.1589C37.4998 13.1589 37.5307 7.04269 36.7273 4.10843ZM15.0124 18.7498V7.50618L24.7733 13.128L15.0124 18.7498Z" fill="white"/>
</svg>
