<svg width="36" height="36" viewBox="0 0 36 36" fill="none" xmlns="http://www.w3.org/2000/svg">
<g clip-path="url(#clip0_138_2090)">
<path d="M7.20039 6C6.84439 6 6.49637 6.10557 6.20037 6.30335C5.90436 6.50114 5.67365 6.78226 5.53741 7.11117C5.40117 7.44008 5.36552 7.802 5.43498 8.15116C5.50443 8.50033 5.67586 8.82106 5.9276 9.07279C6.17933 9.32453 6.50006 9.49596 6.84923 9.56541C7.1984 9.63487 7.56031 9.59922 7.88922 9.46298C8.21813 9.32675 8.49925 9.09604 8.69704 8.80003C8.89482 8.50402 9.00039 8.15601 9.00039 7.8C9.00039 7.32261 8.81075 6.86477 8.47318 6.52721C8.13562 6.18964 7.67778 6 7.20039 6ZM7.20039 8.4C7.08172 8.4 6.96572 8.36481 6.86705 8.29888C6.76838 8.23295 6.69148 8.13925 6.64606 8.02961C6.60065 7.91997 6.58877 7.79933 6.61192 7.68295C6.63507 7.56656 6.69222 7.45965 6.77613 7.37574C6.86004 7.29182 6.96695 7.23468 7.08334 7.21153C7.19973 7.18838 7.32037 7.20026 7.43 7.24567C7.53964 7.29108 7.63334 7.36799 7.69927 7.46666C7.7652 7.56533 7.80039 7.68133 7.80039 7.8C7.80039 7.95913 7.73718 8.11174 7.62466 8.22426C7.51213 8.33679 7.35952 8.4 7.20039 8.4Z" fill="black"/>
<path d="M33.5998 18H29.6944C30.3422 14.8376 29.9534 11.5506 28.5858 8.62666C27.2181 5.70268 24.9443 3.29741 22.1018 1.76762C19.2593 0.237836 15.9993 -0.334988 12.8056 0.134117C9.6118 0.603223 6.65429 2.08927 4.37172 4.37184C2.08915 6.65441 0.603101 9.61192 0.133995 12.8057C-0.33511 15.9995 0.237714 19.2594 1.7675 22.1019C3.29729 24.9444 5.70256 27.2182 8.62654 28.5859C11.5505 29.9536 14.8375 30.3424 17.9998 29.6946V33.6C17.9998 34.2365 18.2527 34.8469 18.7028 35.297C19.1529 35.7471 19.7633 36 20.3998 36H33.5998C34.2364 36 34.8468 35.7471 35.2969 35.297C35.747 34.8469 35.9998 34.2365 35.9998 33.6V20.4C35.9998 19.7634 35.747 19.153 35.2969 18.7029C34.8468 18.2528 34.2364 18 33.5998 18ZM14.9998 28.8C12.1339 28.8056 9.33701 27.9205 6.99605 26.2671C4.65509 24.6137 2.88574 22.2738 1.93271 19.5709C0.979688 16.8681 0.890089 13.9358 1.67631 11.1798C2.46253 8.42382 4.08572 5.98022 6.32136 4.187C8.557 2.39378 11.2946 1.33957 14.1556 1.17017C17.0165 1.00077 19.8594 1.72456 22.2911 3.24143C24.7227 4.75829 26.6229 6.99328 27.7289 9.63725C28.8348 12.2812 29.0919 15.2035 28.4644 18H24.4894C24.5605 17.8078 24.5979 17.6048 24.5998 17.4C24.5998 16.9226 24.4102 16.4647 24.0726 16.1272C23.7351 15.7896 23.2772 15.6 22.7998 15.6H11.9998C11.5225 15.6 11.0646 15.7896 10.7271 16.1272C10.3895 16.4647 10.1998 16.9226 10.1998 17.4C10.1998 17.8774 10.3895 18.3352 10.7271 18.6728C11.0646 19.0103 11.5225 19.2 11.9998 19.2H18.3334C18.1175 19.5632 18.0023 19.9774 17.9998 20.4H11.9998C11.5225 20.4 11.0646 20.5896 10.7271 20.9272C10.3895 21.2647 10.1998 21.7226 10.1998 22.2C10.1998 22.6774 10.3895 23.1352 10.7271 23.4728C11.0646 23.8103 11.5225 24 11.9998 24H17.9998V28.4646C17.0152 28.6864 16.0091 28.7988 14.9998 28.8ZM17.9998 22.8H11.9998C11.8407 22.8 11.6881 22.7368 11.5756 22.6242C11.4631 22.5117 11.3998 22.3591 11.3998 22.2C11.3998 22.0408 11.4631 21.8882 11.5756 21.7757C11.6881 21.6632 11.8407 21.6 11.9998 21.6H17.9998V22.8ZM11.9998 18C11.8407 18 11.6881 17.9368 11.5756 17.8242C11.4631 17.7117 11.3998 17.5591 11.3998 17.4C11.3998 17.2408 11.4631 17.0882 11.5756 16.9757C11.6881 16.8632 11.8407 16.8 11.9998 16.8H22.7998C22.959 16.8 23.1116 16.8632 23.2241 16.9757C23.3366 17.0882 23.3998 17.2408 23.3998 17.4C23.3998 17.5591 23.3366 17.7117 23.2241 17.8242C23.1116 17.9368 22.959 18 22.7998 18H11.9998ZM34.7998 33.6C34.7998 33.9182 34.6734 34.2235 34.4484 34.4485C34.2233 34.6735 33.9181 34.8 33.5998 34.8H20.3998C20.0816 34.8 19.7764 34.6735 19.5513 34.4485C19.3263 34.2235 19.1998 33.9182 19.1998 33.6V20.4C19.1998 20.0817 19.3263 19.7765 19.5513 19.5514C19.7764 19.3264 20.0816 19.2 20.3998 19.2H33.5998C33.9181 19.2 34.2233 19.3264 34.4484 19.5514C34.6734 19.7765 34.7998 20.0817 34.7998 20.4V33.6Z" fill="black"/>
<path d="M11.9992 9.6H22.7992C23.2766 9.6 23.7344 9.41036 24.072 9.07279C24.4096 8.73523 24.5992 8.27739 24.5992 7.8C24.5992 7.32261 24.4096 6.86477 24.072 6.52721C23.7344 6.18964 23.2766 6 22.7992 6H11.9992C11.5218 6 11.064 6.18964 10.7264 6.52721C10.3889 6.86477 10.1992 7.32261 10.1992 7.8C10.1992 8.27739 10.3889 8.73523 10.7264 9.07279C11.064 9.41036 11.5218 9.6 11.9992 9.6ZM11.9992 7.2H22.7992C22.9584 7.2 23.111 7.26321 23.2235 7.37574C23.336 7.48826 23.3992 7.64087 23.3992 7.8C23.3992 7.95913 23.336 8.11174 23.2235 8.22426C23.111 8.33679 22.9584 8.4 22.7992 8.4H11.9992C11.8401 8.4 11.6875 8.33679 11.575 8.22426C11.4624 8.11174 11.3992 7.95913 11.3992 7.8C11.3992 7.64087 11.4624 7.48826 11.575 7.37574C11.6875 7.26321 11.8401 7.2 11.9992 7.2Z" fill="black"/>
<path d="M7.20039 10.8C6.84439 10.8 6.49637 10.9056 6.20037 11.1034C5.90436 11.3012 5.67365 11.5823 5.53741 11.9112C5.40117 12.2401 5.36552 12.602 5.43498 12.9512C5.50443 13.3004 5.67586 13.6211 5.9276 13.8728C6.17933 14.1246 6.50006 14.296 6.84923 14.3655C7.1984 14.4349 7.56031 14.3993 7.88922 14.263C8.21813 14.1268 8.49925 13.8961 8.69704 13.6001C8.89482 13.3041 9.00039 12.9561 9.00039 12.6C9.00039 12.1227 8.81075 11.6648 8.47318 11.3273C8.13562 10.9897 7.67778 10.8 7.20039 10.8ZM7.20039 13.2C7.08172 13.2 6.96572 13.1649 6.86705 13.0989C6.76838 13.033 6.69148 12.9393 6.64606 12.8297C6.60065 12.72 6.58877 12.5994 6.61192 12.483C6.63507 12.3666 6.69222 12.2597 6.77613 12.1758C6.86004 12.0919 6.96695 12.0347 7.08334 12.0116C7.19973 11.9884 7.32037 12.0003 7.43 12.0457C7.53964 12.0911 7.63334 12.168 7.69927 12.2667C7.7652 12.3654 7.80039 12.4814 7.80039 12.6C7.80039 12.7592 7.73718 12.9118 7.62466 13.0243C7.51213 13.1368 7.35952 13.2 7.20039 13.2Z" fill="black"/>
<path d="M11.9992 14.4H22.7992C23.2766 14.4 23.7344 14.2104 24.072 13.8728C24.4096 13.5353 24.5992 13.0774 24.5992 12.6C24.5992 12.1227 24.4096 11.6648 24.072 11.3273C23.7344 10.9897 23.2766 10.8 22.7992 10.8H11.9992C11.5218 10.8 11.064 10.9897 10.7264 11.3273C10.3889 11.6648 10.1992 12.1227 10.1992 12.6C10.1992 13.0774 10.3889 13.5353 10.7264 13.8728C11.064 14.2104 11.5218 14.4 11.9992 14.4ZM11.9992 12H22.7992C22.9584 12 23.111 12.0633 23.2235 12.1758C23.336 12.2883 23.3992 12.4409 23.3992 12.6C23.3992 12.7592 23.336 12.9118 23.2235 13.0243C23.111 13.1368 22.9584 13.2 22.7992 13.2H11.9992C11.8401 13.2 11.6875 13.1368 11.575 13.0243C11.4624 12.9118 11.3992 12.7592 11.3992 12.6C11.3992 12.4409 11.4624 12.2883 11.575 12.1758C11.6875 12.0633 11.8401 12 11.9992 12Z" fill="black"/>
<path d="M7.20039 15.6C6.84439 15.6 6.49637 15.7055 6.20037 15.9033C5.90436 16.1011 5.67365 16.3822 5.53741 16.7111C5.40117 17.0401 5.36552 17.402 5.43498 17.7511C5.50443 18.1003 5.67586 18.421 5.9276 18.6728C6.17933 18.9245 6.50006 19.0959 6.84923 19.1654C7.1984 19.2348 7.56031 19.1992 7.88922 19.063C8.21813 18.9267 8.49925 18.696 8.69704 18.4C8.89482 18.104 9.00039 17.756 9.00039 17.4C9.00039 16.9226 8.81075 16.4647 8.47318 16.1272C8.13562 15.7896 7.67778 15.6 7.20039 15.6ZM7.20039 18C7.08172 18 6.96572 17.9648 6.86705 17.8989C6.76838 17.8329 6.69148 17.7392 6.64606 17.6296C6.60065 17.5199 6.58877 17.3993 6.61192 17.2829C6.63507 17.1665 6.69222 17.0596 6.77613 16.9757C6.86004 16.8918 6.96695 16.8347 7.08334 16.8115C7.19973 16.7884 7.32037 16.8002 7.43 16.8456C7.53964 16.8911 7.63334 16.968 7.69927 17.0666C7.7652 17.1653 7.80039 17.2813 7.80039 17.4C7.80039 17.5591 7.73718 17.7117 7.62466 17.8242C7.51213 17.9368 7.35952 18 7.20039 18Z" fill="black"/>
<path d="M7.20039 20.4C6.84439 20.4 6.49637 20.5056 6.20037 20.7034C5.90436 20.9012 5.67365 21.1823 5.53741 21.5112C5.40117 21.8401 5.36552 22.202 5.43498 22.5512C5.50443 22.9004 5.67586 23.2211 5.9276 23.4728C6.17933 23.7246 6.50006 23.896 6.84923 23.9654C7.1984 24.0349 7.56031 23.9992 7.88922 23.863C8.21813 23.7268 8.49925 23.4961 8.69704 23.2001C8.89482 22.904 9.00039 22.556 9.00039 22.2C9.00039 21.7226 8.81075 21.2648 8.47318 20.9272C8.13562 20.5897 7.67778 20.4 7.20039 20.4ZM7.20039 22.8C7.08172 22.8 6.96572 22.7648 6.86705 22.6989C6.76838 22.633 6.69148 22.5393 6.64606 22.4296C6.60065 22.32 6.58877 22.1994 6.61192 22.083C6.63507 21.9666 6.69222 21.8597 6.77613 21.7758C6.86004 21.6918 6.96695 21.6347 7.08334 21.6116C7.19973 21.5884 7.32037 21.6003 7.43 21.6457C7.53964 21.6911 7.63334 21.768 7.69927 21.8667C7.7652 21.9654 7.80039 22.0814 7.80039 22.2C7.80039 22.3592 7.73718 22.5118 7.62466 22.6243C7.51213 22.7368 7.35952 22.8 7.20039 22.8Z" fill="black"/>
<path d="M31.3201 21.84L24.5352 30.8868L22.6242 28.9758C22.5111 28.8665 22.3595 28.806 22.2022 28.8074C22.0449 28.8087 21.8944 28.8718 21.7832 28.9831C21.6719 29.0943 21.6088 29.2448 21.6074 29.4021C21.6061 29.5595 21.6666 29.711 21.7758 29.8242L24.1758 32.2242C24.2883 32.3367 24.4409 32.3999 24.6 32.4H24.6426C24.7285 32.3937 24.812 32.369 24.8875 32.3276C24.9629 32.2862 25.0286 32.229 25.08 32.16L32.28 22.56C32.3273 22.4969 32.3617 22.4252 32.3813 22.3489C32.4008 22.2726 32.4052 22.1931 32.394 22.1151C32.3829 22.0371 32.3565 21.9621 32.3163 21.8943C32.2762 21.8265 32.2231 21.7673 32.16 21.72C32.097 21.6727 32.0253 21.6383 31.949 21.6187C31.8726 21.5992 31.7932 21.5949 31.7152 21.606C31.6372 21.6171 31.5622 21.6435 31.4944 21.6837C31.4266 21.7238 31.3673 21.7769 31.3201 21.84Z" fill="black"/>
</g>
<defs>
<clipPath id="clip0_138_2090">
<rect width="36" height="36" fill="white"/>
</clipPath>
</defs>
</svg>
