<svg width="34" height="34" viewBox="0 0 34 34" fill="none" xmlns="http://www.w3.org/2000/svg">
<path d="M27.3056 19.1502V15.9428C27.977 15.48 28.396 14.7116 28.396 13.8397V10.2677C28.396 8.85594 27.2471 7.70711 25.8354 7.70711H21.6272V6.56559C21.6272 6.34578 21.4486 6.16715 21.2288 6.16715H20.833V5.4659C20.833 3.61449 19.3269 2.1084 17.4755 2.1084H11.9166C10.0652 2.1084 8.5591 3.61449 8.5591 5.4659V6.16715H8.16332C7.94352 6.16715 7.76488 6.34578 7.76488 6.56559V7.70711H3.55672C2.14492 7.70711 0.996094 8.85594 0.996094 10.2677V13.8397C0.996094 14.7123 1.41512 15.48 2.08648 15.9428V25.2257C2.08648 26.6375 3.23531 27.7864 4.64711 27.7864H20.6484C21.5701 30.1843 23.897 31.8903 26.615 31.8903C30.1378 31.8903 33.0039 29.0242 33.0039 25.5013C33.0039 22.2129 30.505 19.4962 27.3056 19.1502ZM18.3255 7.70711V6.96402H20.8303V7.70711H18.3255ZM11.465 6.16715H11.0693V5.4659C11.0693 5.00703 11.4571 4.61856 11.9166 4.61856H17.4755C17.9343 4.61856 18.3228 5.00637 18.3228 5.4659V6.16715H17.927C17.7072 6.16715 17.5286 6.34578 17.5286 6.56559V7.70711H11.8635V6.56559C11.8635 6.34578 11.6848 6.16715 11.465 6.16715ZM9.35598 5.4659C9.35598 4.0541 10.5048 2.90527 11.9166 2.90527H17.4755C18.8873 2.90527 20.0361 4.0541 20.0361 5.4659V6.16715H19.119V5.4659C19.119 4.55945 18.3813 3.82168 17.4748 3.82168H11.9159C11.0095 3.82168 10.2717 4.55945 10.2717 5.4659V6.16715H9.35465V5.4659H9.35598ZM8.56176 6.96402H11.0666V7.70711H8.56176V6.96402ZM1.79297 10.2677C1.79297 9.29488 2.58453 8.50398 3.55672 8.50398H25.8347C26.8075 8.50398 27.5984 9.29555 27.5984 10.2677V13.8397C27.5984 14.6984 27.0094 15.4109 26.1661 15.5723L16.4873 17.4257C16.4721 17.4237 16.4568 17.423 16.4415 17.423H12.9499C12.9346 17.423 12.9193 17.4243 12.9041 17.4257L3.22535 15.5723C2.38199 15.4109 1.79297 14.6984 1.79297 13.8397V10.2677ZM16.0431 19.7824H13.3483V18.2192H16.0431V19.7824ZM13.3483 20.5793H16.0431V22.092L14.6957 22.5383L13.3483 22.092V20.5793ZM4.64711 26.9902C3.67426 26.9902 2.88336 26.1986 2.88336 25.2264V16.31C2.94645 16.3266 3.0102 16.3419 3.07527 16.3545L12.5514 18.1688V22.3796C12.5514 22.5516 12.6617 22.7036 12.8244 22.7581L14.5702 23.3365C14.6107 23.3498 14.6532 23.3564 14.6957 23.3564C14.7382 23.3564 14.78 23.3498 14.8212 23.3365L16.567 22.7581C16.7304 22.7043 16.84 22.5516 16.84 22.3796V18.1688L26.3161 16.3545C26.3812 16.3419 26.445 16.3266 26.508 16.31V19.1137C23.0337 19.1708 20.2247 22.0143 20.2247 25.5013C20.2247 26.0133 20.2858 26.512 20.4 26.9895H4.64711V26.9902ZM26.615 31.0947C23.5311 31.0947 21.0222 28.5859 21.0222 25.5027C21.0222 22.4194 23.5311 19.9106 26.615 19.9106C29.6989 19.9106 32.207 22.4194 32.207 25.5027C32.207 28.5859 29.6982 31.0947 26.615 31.0947ZM29.8423 23.2568C29.9977 23.4122 29.9977 23.6645 29.8423 23.8199L25.9144 27.7479C25.8367 27.8256 25.7344 27.8647 25.6328 27.8647C25.5305 27.8647 25.4289 27.8256 25.3512 27.7479L23.387 25.7836C23.2316 25.6282 23.2316 25.3758 23.387 25.2204C23.5423 25.065 23.7947 25.065 23.9507 25.2204L25.6328 26.9025L29.2792 23.2561C29.4346 23.1007 29.6869 23.1007 29.8423 23.2568Z" fill="black"/>
</svg>
