<svg width="35" height="35" viewBox="0 0 35 35" fill="none" xmlns="http://www.w3.org/2000/svg">
<path d="M13.9952 32.8836C13.6944 32.8836 13.4483 32.6375 13.4483 32.3367V23.7891C13.4483 23.4883 13.6944 23.2422 13.9952 23.2422H15.2366L12.0593 18.5664L8.88192 23.2422H10.1233C10.4241 23.2422 10.6702 23.4883 10.6702 23.7891V32.3367C10.6702 32.6375 10.4241 32.8836 10.1233 32.8836C9.82254 32.8836 9.57645 32.6375 9.57645 32.3367V24.336H7.84832C7.64598 24.336 7.46004 24.2211 7.36707 24.0461C7.27411 23.8711 7.28504 23.6524 7.39989 23.4828L11.6108 17.2867C11.8132 16.986 12.3108 16.986 12.5132 17.2867L16.7241 23.4828C16.8389 23.6524 16.8499 23.8657 16.7569 24.0461C16.6639 24.2266 16.478 24.336 16.2757 24.336H14.5475V32.3367C14.5421 32.643 14.3014 32.8836 13.9952 32.8836Z" fill="black"/>
<path d="M31.6375 31.1883H24.7578C24.457 31.1883 24.2109 30.9422 24.2109 30.6414C24.2109 30.3406 24.457 30.0945 24.7578 30.0945H31.6375C32.2336 30.0945 32.7203 29.6133 32.7203 29.0172V10.407C32.7203 9.81094 32.2336 9.32422 31.6375 9.32422H3.36406C2.76797 9.32422 2.28125 9.81094 2.28125 10.407V29.0172C2.28125 29.6133 2.76797 30.0945 3.36406 30.0945H10.1234C10.4242 30.0945 10.6703 30.3406 10.6703 30.6414C10.6703 30.9422 10.4242 31.1883 10.1234 31.1883H3.36406C2.16641 31.1883 1.1875 30.2148 1.1875 29.0172V10.407C1.1875 9.20938 2.16641 8.23047 3.36406 8.23047H31.632C32.8297 8.23047 33.8086 9.20938 33.8086 10.407V29.0172C33.8086 30.2094 32.8352 31.1883 31.6375 31.1883Z" fill="black"/>
<path d="M20.8852 31.1883H14C13.6992 31.1883 13.4531 30.9422 13.4531 30.6414C13.4531 30.3406 13.6992 30.0945 14 30.0945H20.8852C21.1859 30.0945 21.432 30.3406 21.432 30.6414C21.432 30.9422 21.1859 31.1883 20.8852 31.1883Z" fill="black"/>
<path d="M28.0824 9.32421C27.7816 9.32421 27.5355 9.07811 27.5355 8.77733V5.9828C27.5355 4.45155 26.2887 3.21014 24.7629 3.21014H10.2434C8.71211 3.21014 7.4707 4.45155 7.4707 5.9828V8.77733C7.4707 9.07811 7.22461 9.32421 6.92383 9.32421C6.62305 9.32421 6.37695 9.07811 6.37695 8.77733V5.9828C6.37695 3.84999 8.11055 2.11639 10.2434 2.11639H24.7574C26.8902 2.11639 28.6238 3.84999 28.6238 5.9828V8.77733C28.6293 9.07811 28.3832 9.32421 28.0824 9.32421Z" fill="black"/>
<path d="M26.0262 9.32421C25.7254 9.32421 25.4793 9.07811 25.4793 8.77733V6.10311C25.4793 5.63827 25.102 5.26093 24.6371 5.26093H10.3637C9.89883 5.26093 9.52148 5.63827 9.52148 6.10311V8.77733C9.52148 9.07811 9.27539 9.32421 8.97461 9.32421C8.67383 9.32421 8.42773 9.07811 8.42773 8.77733V6.10311C8.42773 5.03671 9.29727 4.16718 10.3637 4.16718H24.6426C25.709 4.16718 26.5785 5.03671 26.5785 6.10311V8.77733C26.573 9.07811 26.3324 9.32421 26.0262 9.32421Z" fill="black"/>
<path d="M29.9969 28.257H24.7578C24.457 28.257 24.2109 28.0109 24.2109 27.7102C24.2109 27.4094 24.457 27.1633 24.7578 27.1633H29.45V14.8367H5.58984V27.1633H10.1289C10.4297 27.1633 10.6758 27.4094 10.6758 27.7102C10.6758 28.0109 10.4297 28.257 10.1289 28.257H5.04297C4.74219 28.257 4.49609 28.0109 4.49609 27.7102V14.2899C4.49609 13.9891 4.74219 13.743 5.04297 13.743H29.9969C30.2977 13.743 30.5438 13.9891 30.5438 14.2899V27.7102C30.5438 28.0109 30.2977 28.257 29.9969 28.257Z" fill="black"/>
<path d="M20.8852 28.257H14C13.6992 28.257 13.4531 28.0109 13.4531 27.7101C13.4531 27.4094 13.6992 27.1633 14 27.1633H20.8852C21.1859 27.1633 21.432 27.4094 21.432 27.7101C21.432 28.0109 21.1859 28.257 20.8852 28.257Z" fill="black"/>
<path d="M10.9711 11.5336H5.04297C4.74219 11.5336 4.49609 11.2875 4.49609 10.9867V8.77734C4.49609 8.47656 4.74219 8.23047 5.04297 8.23047H10.9711C11.2719 8.23047 11.518 8.47656 11.518 8.77734V10.9867C11.518 11.2875 11.2719 11.5336 10.9711 11.5336ZM5.58984 10.4398H10.4242V9.32422H5.58984V10.4398Z" fill="black"/>
<path d="M29.9965 11.5336H24.0684C23.7676 11.5336 23.5215 11.2875 23.5215 10.9867V8.77734C23.5215 8.47656 23.7676 8.23047 24.0684 8.23047H29.9965C30.2973 8.23047 30.5434 8.47656 30.5434 8.77734V10.9867C30.5434 11.2875 30.2973 11.5336 29.9965 11.5336ZM24.6152 10.4398H29.4496V9.32422H24.6152V10.4398Z" fill="black"/>
<path d="M24.7569 32.8836C24.4561 32.8836 24.21 32.6375 24.21 32.3367V23.7891C24.21 23.4883 24.4561 23.2422 24.7569 23.2422H25.9983L22.821 18.5664L19.6436 23.2422H20.885C21.1858 23.2422 21.4319 23.4883 21.4319 23.7891V32.3367C21.4319 32.6375 21.1858 32.8836 20.885 32.8836C20.5843 32.8836 20.3382 32.6375 20.3382 32.3367V24.3359H18.61C18.4077 24.3359 18.2218 24.2211 18.1288 24.0461C18.0358 23.8711 18.0468 23.6523 18.1616 23.4828L22.3725 17.2867C22.4764 17.1391 22.646 17.0461 22.8265 17.0461C23.0069 17.0461 23.1764 17.1336 23.2804 17.2867L27.4913 23.4828C27.6061 23.6523 27.6171 23.8656 27.5241 24.0461C27.4311 24.2266 27.2452 24.3359 27.0429 24.3359H25.3147V32.3367C25.3038 32.643 25.0577 32.8836 24.7569 32.8836Z" fill="black"/>
</svg>
