<svg width="37" height="36" viewBox="0 0 37 36" fill="none" xmlns="http://www.w3.org/2000/svg">
<path d="M22.0974 17.988C24.5891 17.988 26.6162 16.0157 26.6162 13.5914C26.6162 11.1684 24.5891 9.19683 22.0974 9.19683C19.6071 9.19683 17.5808 11.1684 17.5808 13.5914C17.5801 16.0157 19.6064 17.988 22.0974 17.988ZM22.0974 10.3204C23.9524 10.3204 25.4606 11.7878 25.4606 13.5914C25.4606 15.3963 23.9517 16.8637 22.0974 16.8637C20.2438 16.8637 18.7356 15.3956 18.7356 13.5914C18.7356 11.7878 20.2438 10.3204 22.0974 10.3204ZM31.4789 27.8655H30.6515V24.4272C30.6515 21.1239 27.888 18.4359 24.4915 18.4359H22.9031C22.9017 18.4359 22.901 18.4359 22.8995 18.4359H21.2938C21.2931 18.4359 21.2923 18.4359 21.2916 18.4359H19.7025C16.5105 18.4359 13.8786 20.8096 13.5729 23.8373C12.718 23.175 11.6413 22.7193 10.4511 22.5632C11.8913 21.7033 12.8546 20.1571 12.8546 18.3958C12.8546 15.7035 10.6021 13.5126 7.83359 13.5126C5.06654 13.5126 2.81475 15.7028 2.81475 18.3958C2.81475 20.1571 3.77732 21.7033 5.21758 22.5632C2.3284 22.9422 0.108398 25.0832 0.108398 27.6602V32.9217C0.108398 33.847 0.961133 34.6 2.00971 34.6H13.6596C14.7068 34.6 15.5588 33.847 15.5588 32.9217V31.3291H31.4789C32.0773 31.3291 32.5643 30.8552 32.5643 30.273V28.9216C32.5651 28.3394 32.078 27.8655 31.4789 27.8655ZM22.7976 24.0278L22.0967 25.2365L21.3957 24.0278L21.8235 19.5609H22.3684L22.7976 24.0278ZM19.7025 19.5602H20.6644L20.2293 24.0982C20.2185 24.2121 20.2438 24.3267 20.3016 24.4265L21.5944 26.6568C21.697 26.8333 21.8893 26.943 22.0974 26.943C22.3055 26.943 22.4985 26.834 22.6004 26.6568L23.8932 24.4265C23.951 24.3267 23.9763 24.2121 23.9655 24.0982L23.5304 19.5602H24.4923C27.2521 19.5602 29.4967 21.7434 29.4967 24.4272V27.8655H26.606V24.802C26.606 24.4912 26.3473 24.2402 26.0286 24.2402C25.7099 24.2402 25.4512 24.4919 25.4512 24.802V27.8655H18.7457V24.802C18.7457 24.4912 18.487 24.2402 18.1683 24.2402C17.8496 24.2402 17.5909 24.4919 17.5909 24.802V27.8655H15.5588V27.6602C15.5588 26.6906 15.2444 25.7828 14.6981 25.0073V24.4272C14.6981 21.7441 16.9427 19.5602 19.7025 19.5602ZM3.97027 18.3965C3.97027 16.3237 5.7032 14.6376 7.83359 14.6376C9.96471 14.6376 11.6991 16.3237 11.6991 18.3965C11.6991 20.47 9.96471 22.1575 7.83359 22.1575C5.7032 22.1575 3.97027 20.4707 3.97027 18.3965ZM14.4033 32.9224C14.4033 33.2226 14.0629 33.4764 13.6596 33.4764H2.00971C1.60574 33.4764 1.26393 33.2226 1.26393 32.9224V27.6609C1.26393 25.4376 3.44852 23.6292 6.13318 23.6292H9.53545C11.246 23.6292 12.752 24.3646 13.6206 25.4735C13.6437 25.5114 13.6705 25.5473 13.7016 25.5789C14.146 26.1871 14.4025 26.9001 14.4025 27.6616V32.9224H14.4033ZM31.4095 30.2055H15.5581V28.9898H31.4095V30.2055ZM35.5149 1.39917H27.2225C26.4037 1.39917 25.7374 2.04745 25.7374 2.84409V8.07394C25.7374 8.87058 26.4037 9.51886 27.2225 9.51886H27.909V10.9117C27.909 11.3596 28.1872 11.7506 28.615 11.9074C28.7437 11.9545 28.8759 11.9777 29.0067 11.9777C29.3109 11.9777 29.6072 11.8532 29.8226 11.6205L31.7499 9.51815H35.5149C36.3337 9.51815 37 8.86987 37 8.07323V2.84409C37 2.04745 36.3337 1.39917 35.5149 1.39917ZM35.8445 8.07394C35.8445 8.24761 35.6934 8.39456 35.5149 8.39456H31.7232C31.4066 8.39456 31.1161 8.52112 30.9051 8.75175L29.0645 10.7599V9.4612C29.0645 8.87339 28.5717 8.39456 27.9668 8.39456H27.2225C27.0404 8.39456 26.8929 8.25042 26.8929 8.07394V2.84409C26.8929 2.6669 27.0411 2.52347 27.2225 2.52347H35.5149C35.6934 2.52347 35.8445 2.67042 35.8445 2.84409V8.07394ZM34.1809 4.29323C34.1809 4.60401 33.9222 4.85503 33.6035 4.85503H29.1339C28.8145 4.85503 28.5565 4.60331 28.5565 4.29323C28.5565 3.98315 28.8152 3.73144 29.1339 3.73144H33.6035C33.9222 3.73144 34.1809 3.98315 34.1809 4.29323ZM32.448 6.6255C32.448 6.93628 32.1893 7.18729 31.8706 7.18729H29.1339C28.8145 7.18729 28.5565 6.93558 28.5565 6.6255C28.5565 6.31542 28.8152 6.0637 29.1339 6.0637H31.8706C32.1893 6.063 32.448 6.31472 32.448 6.6255ZM1.48506 9.51956H5.2501L7.17598 11.6205C7.38916 11.8539 7.68473 11.9791 7.99041 11.9791C8.12193 11.9791 8.2549 11.9559 8.38426 11.9081C8.81352 11.7492 9.09029 11.3582 9.09029 10.9125V9.51956H9.77682C10.5949 9.51956 11.2597 8.87128 11.2597 8.07464V2.84409C11.2597 2.04745 10.5941 1.39917 9.77682 1.39917H1.48506C0.666289 1.39917 0 2.04745 0 2.84409V8.07394C0 8.87128 0.666289 9.51956 1.48506 9.51956ZM1.15553 2.84409C1.15553 2.6669 1.30367 2.52347 1.48506 2.52347H9.77754C9.9582 2.52347 10.1056 2.66761 10.1056 2.84409V8.07394C10.1056 8.25112 9.95893 8.39456 9.77754 8.39456H9.03176C8.42762 8.39456 7.93549 8.87269 7.93549 9.4612V10.7599L6.09488 8.75175C5.88387 8.52183 5.59336 8.39456 5.27684 8.39456H1.48506C1.30295 8.39456 1.15553 8.25042 1.15553 8.07394V2.84409ZM2.81691 4.29323C2.81691 3.98245 3.07563 3.73144 3.39432 3.73144H7.86611C8.1848 3.73144 8.44352 3.98315 8.44352 4.29323C8.44352 4.60331 8.1848 4.85503 7.86611 4.85503H3.39432C3.07563 4.85503 2.81691 4.60401 2.81691 4.29323ZM8.44424 6.6255C8.44424 6.93628 8.18553 7.18729 7.86684 7.18729H5.12941C4.81072 7.18729 4.55201 6.93558 4.55201 6.6255C4.55201 6.31542 4.81072 6.0637 5.12941 6.0637H7.86611C8.18553 6.063 8.44424 6.31472 8.44424 6.6255Z" fill="black"/>
</svg>
