<svg width="33" height="33" viewBox="0 0 33 33" fill="none" xmlns="http://www.w3.org/2000/svg">
<g clip-path="url(#clip0_138_1753)">
<path d="M27.9008 32.5C26.6008 32.5 25.5508 31.45 25.5508 30.15V20.1C25.5508 19.8 25.7508 19.6 26.0508 19.6C26.3508 19.6 26.5508 19.8 26.5508 20.1V30.15C26.5508 30.9 27.1508 31.5 27.9008 31.5C28.6508 31.5 29.2508 30.9 29.2508 30.15V13.5C29.2508 13.2 29.4508 13 29.7508 13C30.0508 13 30.2508 13.2 30.2508 13.5V30.15C30.2508 31.45 29.2008 32.5 27.9008 32.5Z" fill="black"/>
<path d="M24.1508 32.5C22.8508 32.5 21.8008 31.45 21.8008 30.15V13.5C21.8008 13.2 22.0008 13 22.3008 13C22.6008 13 22.8008 13.2 22.8008 13.5V30.15C22.8008 30.9 23.4008 31.5 24.1508 31.5C24.9008 31.5 25.5008 30.9 25.5008 30.15V20.1C25.5008 19.8 25.7008 19.6 26.0008 19.6C26.3008 19.6 26.5008 19.8 26.5008 20.1V30.15C26.5008 31.45 25.4508 32.5 24.1508 32.5Z" fill="black"/>
<path d="M22.3 20.9H21.35C20.35 20.9 19.5 20.05 19.5 19.05V12C19.5 10.5 20.75 9.25 22.25 9.25H29.75C31.25 9.25 32.5 10.5 32.5 12V18.85C32.5 19.95 31.6 20.85 30.5 20.85H29.75C29.45 20.85 29.25 20.65 29.25 20.35C29.25 20.05 29.45 19.85 29.75 19.85H30.5C31.05 19.85 31.5 19.4 31.5 18.85V12C31.5 11 30.75 10.25 29.75 10.25H22.25C21.25 10.25 20.5 11 20.5 12V19.05C20.5 19.55 20.85 19.9 21.35 19.9H22.3C22.6 19.9 22.8 20.1 22.8 20.4C22.8 20.7 22.6 20.9 22.3 20.9Z" fill="black"/>
<path d="M26.0508 7.7C24.3008 7.7 22.7508 6.45 22.5008 4.7C22.2008 2.7 23.5508 0.850003 25.4508 0.600003C27.4508 0.300003 29.2508 1.65 29.5508 3.55C29.8508 5.5 28.5008 7.4 26.6008 7.65C26.4008 7.65 26.2008 7.7 26.0508 7.7ZM25.5508 1.55C24.1508 1.75 23.2008 3.1 23.4008 4.55C23.6008 5.95 24.9508 6.9 26.4008 6.7C27.7508 6.5 28.7508 5.15 28.5508 3.7C28.3508 2.3 27.0008 1.35 25.5508 1.55Z" fill="black"/>
<path d="M18.3992 32.5H8.74922C7.59922 32.5 6.69922 31.6 6.69922 30.45V24.7C6.69922 23.55 7.59922 22.65 8.74922 22.65H18.3992C19.5492 22.65 20.4492 23.55 20.4492 24.7V30.45C20.4492 31.6 19.5492 32.5 18.3992 32.5ZM8.74922 23.65C8.19922 23.65 7.69922 24.15 7.69922 24.7V30.45C7.69922 31 8.19922 31.5 8.74922 31.5H18.3992C18.9492 31.5 19.4492 31 19.4492 30.45V24.7C19.4492 24.15 18.9492 23.65 18.3992 23.65H8.74922Z" fill="black"/>
<path d="M19.95 26.65H17C16.7 26.65 16.5 26.45 16.5 26.15C16.5 25.85 16.7 25.65 17 25.65H19.95C20.25 25.65 20.45 25.85 20.45 26.15C20.45 26.45 20.25 26.65 19.95 26.65Z" fill="black"/>
<path d="M15.0496 26.65H12.0996C11.7996 26.65 11.5996 26.45 11.5996 26.15C11.5996 25.85 11.7996 25.65 12.0996 25.65H15.0496C15.3496 25.65 15.5496 25.85 15.5496 26.15C15.5496 26.45 15.3496 26.65 15.0496 26.65Z" fill="black"/>
<path d="M10.0992 26.65H7.19922C6.89922 26.65 6.69922 26.45 6.69922 26.15C6.69922 25.85 6.89922 25.65 7.19922 25.65H10.0992C10.3992 25.65 10.5992 25.85 10.5992 26.15C10.5992 26.45 10.3992 26.65 10.0992 26.65Z" fill="black"/>
<path d="M16.8004 27.55H15.1504C14.8504 27.55 14.6504 27.35 14.6504 27.05V25.25C14.6504 24.95 14.8504 24.75 15.1504 24.75H16.8004C17.1004 24.75 17.3004 24.95 17.3004 25.25V27.05C17.3004 27.35 17.1004 27.55 16.8004 27.55ZM15.6504 26.55H16.3004V25.75H15.6504V26.55Z" fill="black"/>
<path d="M11.9996 27.55H10.3496C10.0496 27.55 9.84961 27.35 9.84961 27.05V25.25C9.84961 24.95 10.0496 24.75 10.3496 24.75H11.9996C12.2996 24.75 12.4996 24.95 12.4996 25.25V27.05C12.4996 27.35 12.2996 27.55 11.9996 27.55ZM10.8496 26.55H11.4996V25.75H10.8496V26.55Z" fill="black"/>
<path d="M16.4492 23.65C16.1492 23.65 15.9492 23.45 15.9492 23.15V21.55C15.9492 21.4 15.7992 21.25 15.6492 21.25H11.4992C11.3492 21.25 11.1992 21.4 11.1992 21.55V23.15C11.1992 23.45 10.9992 23.65 10.6992 23.65C10.3992 23.65 10.1992 23.45 10.1992 23.15V21.55C10.1992 20.8 10.7492 20.25 11.4992 20.25H15.6492C16.3992 20.25 16.9492 20.8 16.9492 21.55V23.15C16.9492 23.45 16.7492 23.65 16.4492 23.65Z" fill="black"/>
<path d="M4.1 4.6H1C0.7 4.6 0.5 4.4 0.5 4.1V1C0.5 0.7 0.7 0.5 1 0.5H4.1C4.4 0.5 4.6 0.7 4.6 1V4.1C4.6 4.4 4.4 4.6 4.1 4.6ZM1.5 3.6H3.6V1.5H1.5V3.6Z" fill="black"/>
<path d="M4.1 10.05H1C0.7 10.05 0.5 9.84995 0.5 9.54995V6.44995C0.5 6.14995 0.7 5.94995 1 5.94995H4.1C4.4 5.94995 4.6 6.14995 4.6 6.44995V9.54995C4.6 9.84995 4.4 10.05 4.1 10.05ZM1.5 9.04995H3.6V6.94995H1.5V9.04995Z" fill="black"/>
<path d="M4.1 15.5H1C0.7 15.5 0.5 15.3 0.5 15V11.9C0.5 11.6 0.7 11.4 1 11.4H4.1C4.4 11.4 4.6 11.6 4.6 11.9V15C4.6 15.3 4.4 15.5 4.1 15.5ZM1.5 14.5H3.6V12.4H1.5V14.5Z" fill="black"/>
<path d="M4.1 20.95H1C0.7 20.95 0.5 20.75 0.5 20.45V17.35C0.5 17.05 0.7 16.85 1 16.85H4.1C4.4 16.85 4.6 17.05 4.6 17.35V20.45C4.6 20.75 4.4 20.95 4.1 20.95ZM1.5 19.95H3.6V17.85H1.5V19.95Z" fill="black"/>
<path d="M12.5008 1.84998H6.05078C5.75078 1.84998 5.55078 1.64998 5.55078 1.34998C5.55078 1.04998 5.75078 0.849976 6.05078 0.849976H12.5008C12.8008 0.849976 13.0008 1.04998 13.0008 1.34998C13.0008 1.64998 12.8008 1.84998 12.5008 1.84998Z" fill="black"/>
<path d="M17.5008 4.19995H6.05078C5.75078 4.19995 5.55078 3.99995 5.55078 3.69995C5.55078 3.39995 5.75078 3.19995 6.05078 3.19995H17.5008C17.8008 3.19995 18.0008 3.39995 18.0008 3.69995C18.0008 3.99995 17.8008 4.19995 17.5008 4.19995Z" fill="black"/>
<path d="M12.5008 7.30005H6.05078C5.75078 7.30005 5.55078 7.10005 5.55078 6.80005C5.55078 6.50005 5.75078 6.30005 6.05078 6.30005H12.5008C12.8008 6.30005 13.0008 6.50005 13.0008 6.80005C13.0008 7.10005 12.8008 7.30005 12.5008 7.30005Z" fill="black"/>
<path d="M17.5008 9.65002H6.05078C5.75078 9.65002 5.55078 9.45002 5.55078 9.15002C5.55078 8.85002 5.75078 8.65002 6.05078 8.65002H17.5008C17.8008 8.65002 18.0008 8.85002 18.0008 9.15002C18.0008 9.45002 17.8008 9.65002 17.5008 9.65002Z" fill="black"/>
<path d="M12.5008 12.75H6.05078C5.75078 12.75 5.55078 12.55 5.55078 12.25C5.55078 11.95 5.75078 11.75 6.05078 11.75H12.5008C12.8008 11.75 13.0008 11.95 13.0008 12.25C13.0008 12.55 12.8008 12.75 12.5008 12.75Z" fill="black"/>
<path d="M17.5008 15.1H6.05078C5.75078 15.1 5.55078 14.9 5.55078 14.6C5.55078 14.3 5.75078 14.1 6.05078 14.1H17.5008C17.8008 14.1 18.0008 14.3 18.0008 14.6C18.0008 14.9 17.8008 15.1 17.5008 15.1Z" fill="black"/>
<path d="M12.5008 18.2H6.05078C5.75078 18.2 5.55078 18 5.55078 17.7C5.55078 17.4 5.75078 17.2 6.05078 17.2H12.5008C12.8008 17.2 13.0008 17.4 13.0008 17.7C13.0008 18 12.8008 18.2 12.5008 18.2Z" fill="black"/>
<path d="M8.65078 20.5499H6.05078C5.75078 20.5499 5.55078 20.3499 5.55078 20.0499C5.55078 19.7499 5.75078 19.5499 6.05078 19.5499H8.65078C8.95078 19.5499 9.15078 19.7499 9.15078 20.0499C9.15078 20.3499 8.95078 20.5499 8.65078 20.5499Z" fill="black"/>
<path d="M27.9008 32.5C26.6008 32.5 25.5508 31.45 25.5508 30.15V20.1C25.5508 19.8 25.7508 19.6 26.0508 19.6C26.3508 19.6 26.5508 19.8 26.5508 20.1V30.15C26.5508 30.9 27.1508 31.5 27.9008 31.5C28.6508 31.5 29.2508 30.9 29.2508 30.15V13.5C29.2508 13.2 29.4508 13 29.7508 13C30.0508 13 30.2508 13.2 30.2508 13.5V30.15C30.2508 31.45 29.2008 32.5 27.9008 32.5Z" fill="black"/>
<path d="M24.1508 32.5C22.8508 32.5 21.8008 31.45 21.8008 30.15V13.5C21.8008 13.2 22.0008 13 22.3008 13C22.6008 13 22.8008 13.2 22.8008 13.5V30.15C22.8008 30.9 23.4008 31.5 24.1508 31.5C24.9008 31.5 25.5008 30.9 25.5008 30.15V20.1C25.5008 19.8 25.7008 19.6 26.0008 19.6C26.3008 19.6 26.5008 19.8 26.5008 20.1V30.15C26.5008 31.45 25.4508 32.5 24.1508 32.5Z" fill="black"/>
<path d="M22.3 20.9H21.35C20.35 20.9 19.5 20.05 19.5 19.05V12C19.5 10.5 20.75 9.25 22.25 9.25H29.75C31.25 9.25 32.5 10.5 32.5 12V18.85C32.5 19.95 31.6 20.85 30.5 20.85H29.75C29.45 20.85 29.25 20.65 29.25 20.35C29.25 20.05 29.45 19.85 29.75 19.85H30.5C31.05 19.85 31.5 19.4 31.5 18.85V12C31.5 11 30.75 10.25 29.75 10.25H22.25C21.25 10.25 20.5 11 20.5 12V19.05C20.5 19.55 20.85 19.9 21.35 19.9H22.3C22.6 19.9 22.8 20.1 22.8 20.4C22.8 20.7 22.6 20.9 22.3 20.9Z" fill="black"/>
<path d="M26.0508 7.7C24.3008 7.7 22.7508 6.45 22.5008 4.7C22.2008 2.7 23.5508 0.850003 25.4508 0.600003C27.4508 0.300003 29.2508 1.65 29.5508 3.55C29.8508 5.5 28.5008 7.4 26.6008 7.65C26.4008 7.65 26.2008 7.7 26.0508 7.7ZM25.5508 1.55C24.1508 1.75 23.2008 3.1 23.4008 4.55C23.6008 5.95 24.9508 6.9 26.4008 6.7C27.7508 6.5 28.7508 5.15 28.5508 3.7C28.3508 2.3 27.0008 1.35 25.5508 1.55Z" fill="black"/>
<path d="M18.3992 32.5H8.74922C7.59922 32.5 6.69922 31.6 6.69922 30.45V24.7C6.69922 23.55 7.59922 22.65 8.74922 22.65H18.3992C19.5492 22.65 20.4492 23.55 20.4492 24.7V30.45C20.4492 31.6 19.5492 32.5 18.3992 32.5ZM8.74922 23.65C8.19922 23.65 7.69922 24.15 7.69922 24.7V30.45C7.69922 31 8.19922 31.5 8.74922 31.5H18.3992C18.9492 31.5 19.4492 31 19.4492 30.45V24.7C19.4492 24.15 18.9492 23.65 18.3992 23.65H8.74922Z" fill="black"/>
<path d="M19.95 26.65H17C16.7 26.65 16.5 26.45 16.5 26.15C16.5 25.85 16.7 25.65 17 25.65H19.95C20.25 25.65 20.45 25.85 20.45 26.15C20.45 26.45 20.25 26.65 19.95 26.65Z" fill="black"/>
<path d="M15.0496 26.65H12.0996C11.7996 26.65 11.5996 26.45 11.5996 26.15C11.5996 25.85 11.7996 25.65 12.0996 25.65H15.0496C15.3496 25.65 15.5496 25.85 15.5496 26.15C15.5496 26.45 15.3496 26.65 15.0496 26.65Z" fill="black"/>
<path d="M10.0992 26.65H7.19922C6.89922 26.65 6.69922 26.45 6.69922 26.15C6.69922 25.85 6.89922 25.65 7.19922 25.65H10.0992C10.3992 25.65 10.5992 25.85 10.5992 26.15C10.5992 26.45 10.3992 26.65 10.0992 26.65Z" fill="black"/>
<path d="M16.8004 27.55H15.1504C14.8504 27.55 14.6504 27.35 14.6504 27.05V25.25C14.6504 24.95 14.8504 24.75 15.1504 24.75H16.8004C17.1004 24.75 17.3004 24.95 17.3004 25.25V27.05C17.3004 27.35 17.1004 27.55 16.8004 27.55ZM15.6504 26.55H16.3004V25.75H15.6504V26.55Z" fill="black"/>
<path d="M11.9996 27.55H10.3496C10.0496 27.55 9.84961 27.35 9.84961 27.05V25.25C9.84961 24.95 10.0496 24.75 10.3496 24.75H11.9996C12.2996 24.75 12.4996 24.95 12.4996 25.25V27.05C12.4996 27.35 12.2996 27.55 11.9996 27.55ZM10.8496 26.55H11.4996V25.75H10.8496V26.55Z" fill="black"/>
<path d="M16.4492 23.65C16.1492 23.65 15.9492 23.45 15.9492 23.15V21.55C15.9492 21.4 15.7992 21.25 15.6492 21.25H11.4992C11.3492 21.25 11.1992 21.4 11.1992 21.55V23.15C11.1992 23.45 10.9992 23.65 10.6992 23.65C10.3992 23.65 10.1992 23.45 10.1992 23.15V21.55C10.1992 20.8 10.7492 20.25 11.4992 20.25H15.6492C16.3992 20.25 16.9492 20.8 16.9492 21.55V23.15C16.9492 23.45 16.7492 23.65 16.4492 23.65Z" fill="black"/>
<path d="M4.1 4.6H1C0.7 4.6 0.5 4.4 0.5 4.1V1C0.5 0.7 0.7 0.5 1 0.5H4.1C4.4 0.5 4.6 0.7 4.6 1V4.1C4.6 4.4 4.4 4.6 4.1 4.6ZM1.5 3.6H3.6V1.5H1.5V3.6Z" fill="black"/>
<path d="M4.1 10.05H1C0.7 10.05 0.5 9.84995 0.5 9.54995V6.44995C0.5 6.14995 0.7 5.94995 1 5.94995H4.1C4.4 5.94995 4.6 6.14995 4.6 6.44995V9.54995C4.6 9.84995 4.4 10.05 4.1 10.05ZM1.5 9.04995H3.6V6.94995H1.5V9.04995Z" fill="black"/>
<path d="M4.1 15.5H1C0.7 15.5 0.5 15.3 0.5 15V11.9C0.5 11.6 0.7 11.4 1 11.4H4.1C4.4 11.4 4.6 11.6 4.6 11.9V15C4.6 15.3 4.4 15.5 4.1 15.5ZM1.5 14.5H3.6V12.4H1.5V14.5Z" fill="black"/>
<path d="M4.1 20.95H1C0.7 20.95 0.5 20.75 0.5 20.45V17.35C0.5 17.05 0.7 16.85 1 16.85H4.1C4.4 16.85 4.6 17.05 4.6 17.35V20.45C4.6 20.75 4.4 20.95 4.1 20.95ZM1.5 19.95H3.6V17.85H1.5V19.95Z" fill="black"/>
<path d="M12.5008 1.84998H6.05078C5.75078 1.84998 5.55078 1.64998 5.55078 1.34998C5.55078 1.04998 5.75078 0.849976 6.05078 0.849976H12.5008C12.8008 0.849976 13.0008 1.04998 13.0008 1.34998C13.0008 1.64998 12.8008 1.84998 12.5008 1.84998Z" fill="black"/>
<path d="M17.5008 4.19995H6.05078C5.75078 4.19995 5.55078 3.99995 5.55078 3.69995C5.55078 3.39995 5.75078 3.19995 6.05078 3.19995H17.5008C17.8008 3.19995 18.0008 3.39995 18.0008 3.69995C18.0008 3.99995 17.8008 4.19995 17.5008 4.19995Z" fill="black"/>
<path d="M12.5008 7.30005H6.05078C5.75078 7.30005 5.55078 7.10005 5.55078 6.80005C5.55078 6.50005 5.75078 6.30005 6.05078 6.30005H12.5008C12.8008 6.30005 13.0008 6.50005 13.0008 6.80005C13.0008 7.10005 12.8008 7.30005 12.5008 7.30005Z" fill="black"/>
<path d="M17.5008 9.65002H6.05078C5.75078 9.65002 5.55078 9.45002 5.55078 9.15002C5.55078 8.85002 5.75078 8.65002 6.05078 8.65002H17.5008C17.8008 8.65002 18.0008 8.85002 18.0008 9.15002C18.0008 9.45002 17.8008 9.65002 17.5008 9.65002Z" fill="black"/>
<path d="M12.5008 12.75H6.05078C5.75078 12.75 5.55078 12.55 5.55078 12.25C5.55078 11.95 5.75078 11.75 6.05078 11.75H12.5008C12.8008 11.75 13.0008 11.95 13.0008 12.25C13.0008 12.55 12.8008 12.75 12.5008 12.75Z" fill="black"/>
<path d="M17.5008 15.1H6.05078C5.75078 15.1 5.55078 14.9 5.55078 14.6C5.55078 14.3 5.75078 14.1 6.05078 14.1H17.5008C17.8008 14.1 18.0008 14.3 18.0008 14.6C18.0008 14.9 17.8008 15.1 17.5008 15.1Z" fill="black"/>
<path d="M12.5008 18.2H6.05078C5.75078 18.2 5.55078 18 5.55078 17.7C5.55078 17.4 5.75078 17.2 6.05078 17.2H12.5008C12.8008 17.2 13.0008 17.4 13.0008 17.7C13.0008 18 12.8008 18.2 12.5008 18.2Z" fill="black"/>
<path d="M8.65078 20.5499H6.05078C5.75078 20.5499 5.55078 20.3499 5.55078 20.0499C5.55078 19.7499 5.75078 19.5499 6.05078 19.5499H8.65078C8.95078 19.5499 9.15078 19.7499 9.15078 20.0499C9.15078 20.3499 8.95078 20.5499 8.65078 20.5499Z" fill="black"/>
</g>
<defs>
<clipPath id="clip0_138_1753">
<rect width="33" height="33" fill="white"/>
</clipPath>
</defs>
</svg>
