<svg width="37" height="36" viewBox="0 0 37 36" fill="none" xmlns="http://www.w3.org/2000/svg">
<g clip-path="url(#clip0_138_2107)">
<path d="M5.54961 0C3.5097 0 1.84961 1.61459 1.84961 3.6C1.84961 5.58541 3.5097 7.2 5.54961 7.2C7.58952 7.2 9.24961 5.58541 9.24961 3.6C9.24961 1.61459 7.58952 0 5.54961 0ZM5.54961 5.99998C4.18921 5.99998 3.08297 4.92356 3.08297 3.6C3.08297 2.27644 4.18921 1.20002 5.54961 1.20002C6.91001 1.20002 8.01625 2.27644 8.01625 3.6C8.01625 4.92356 6.91001 5.99998 5.54961 5.99998Z" fill="black"/>
<path d="M8.01787 4.8H8.00248C7.80946 4.8 7.62691 4.88817 7.51035 5.03822C7.03614 5.64958 6.32144 5.99995 5.55 5.99995C4.77856 5.99995 4.06386 5.64958 3.58965 5.03815C3.47309 4.88817 3.27515 4.79993 3.08213 4.79993C1.38259 4.8 0 6.14515 0 7.79875V10.1999C0 10.5311 0.276271 10.7999 0.616643 10.7999H10.4833C10.8237 10.7999 11.0999 10.5311 11.0999 10.1999V7.79875C11.1 6.14515 9.71741 4.8 8.01787 4.8ZM9.86664 9.59995H1.23336V7.79875C1.23336 6.89573 1.92031 6.14634 2.82436 6.01915C3.52613 6.77339 4.50229 7.19997 5.55 7.19997C6.59836 7.19997 7.5751 6.77276 8.27687 6.01739C9.17412 6.14036 9.86664 6.89278 9.86664 7.79875V9.59995Z" fill="black"/>
<path d="M31.45 0C29.4101 0 27.75 1.61459 27.75 3.6C27.75 5.58541 29.4101 7.2 31.45 7.2C33.4899 7.2 35.15 5.58541 35.15 3.6C35.15 1.61459 33.4899 0 31.45 0ZM31.45 5.99998C30.0896 5.99998 28.9834 4.92356 28.9834 3.6C28.9834 2.27644 30.0897 1.20002 31.45 1.20002C32.8104 1.20002 33.9166 2.27644 33.9166 3.6C33.9166 4.92356 32.8104 5.99998 31.45 5.99998Z" fill="black"/>
<path d="M33.9183 4.80005H33.9029C33.7099 4.80005 33.5274 4.88822 33.4108 5.03827C32.9366 5.64963 32.2219 6.00007 31.4504 6.00007C30.679 6.00007 29.9642 5.64971 29.49 5.03827C29.3735 4.88829 29.1755 4.80005 28.9825 4.80005C27.283 4.80005 25.9004 6.14527 25.9004 7.79888V10.2C25.9004 10.5312 26.1767 10.8 26.517 10.8H36.3837C36.724 10.8 37.0003 10.5312 37.0003 10.2V7.79888C37.0005 6.1452 35.6179 4.80005 33.9183 4.80005ZM35.7671 9.6H27.1338V7.79881C27.1338 6.89578 27.8208 6.14639 28.7248 6.0192C29.4266 6.77337 30.4028 7.20003 31.4505 7.20003C32.4988 7.20003 33.4756 6.77281 34.1773 6.01744C35.0746 6.14042 35.7671 6.89283 35.7671 7.79881V9.6Z" fill="black"/>
<path d="M5.54961 25.2C3.5097 25.2 1.84961 26.8145 1.84961 28.8C1.84961 30.7854 3.5097 32.4 5.54961 32.4C7.58952 32.4 9.24961 30.7854 9.24961 28.8C9.24961 26.8145 7.58952 25.2 5.54961 25.2ZM5.54961 31.1999C4.18921 31.1999 3.08297 30.1235 3.08297 28.8C3.08297 27.4763 4.18928 26.4 5.54961 26.4C6.90994 26.4 8.01625 27.4764 8.01625 28.8C8.01625 30.1236 6.91001 31.1999 5.54961 31.1999Z" fill="black"/>
<path d="M8.01794 30H8.00255C7.80953 30 7.62699 30.0882 7.51042 30.2382C7.03622 30.8496 6.32151 31.2 5.55 31.2C4.77856 31.2 4.06386 30.8497 3.58965 30.2382C3.47309 30.0882 3.27515 30 3.08213 30C1.38259 30 0 31.3452 0 32.9988V35.4C7.22656e-05 35.7312 0.276344 36 0.616715 36H10.4834C10.8237 36 11.1 35.7312 11.1 35.4V32.9988C11.1001 31.3451 9.71749 30 8.01794 30ZM9.86672 34.8H1.23343V32.9988C1.23343 32.0957 1.92039 31.3463 2.82443 31.2191C3.5262 31.9734 4.50237 32.4 5.55007 32.4C6.59843 32.4 7.57517 31.9728 8.27694 31.2174C9.17419 31.3404 9.86672 32.0928 9.86672 32.9988V34.8Z" fill="black"/>
<path d="M31.45 25.2C29.4101 25.2 27.75 26.8145 27.75 28.8C27.75 30.7854 29.4101 32.4 31.45 32.4C33.4899 32.4 35.15 30.7854 35.15 28.8C35.15 26.8145 33.4899 25.2 31.45 25.2ZM31.45 31.1999C30.0896 31.1999 28.9834 30.1235 28.9834 28.8C28.9834 27.4763 30.0897 26.4 31.45 26.4C32.8104 26.4 33.9166 27.4764 33.9166 28.8C33.9166 30.1236 32.8104 31.1999 31.45 31.1999Z" fill="black"/>
<path d="M33.9183 30H33.9029C33.7099 30 33.5274 30.0882 33.4108 30.2382C32.9366 30.8496 32.2219 31.2 31.4504 31.2C30.679 31.2 29.9642 30.8497 29.49 30.2382C29.3735 30.0882 29.1755 30 28.9825 30C27.283 30 25.9004 31.3452 25.9004 32.9988V35.4C25.9004 35.7312 26.1767 36 26.517 36H36.3837C36.724 36 37.0003 35.7312 37.0003 35.4V32.9988C37.0005 31.3451 35.6179 30 33.9183 30ZM35.7671 34.8H27.1338V32.9988C27.1338 32.0957 27.8208 31.3463 28.7248 31.2191C29.4266 31.9733 30.4028 32.4 31.4505 32.4C32.4988 32.4 33.4756 31.9728 34.1773 31.2174C35.0746 31.3404 35.7671 32.0928 35.7671 32.9988V34.8Z" fill="black"/>
<path d="M28.7187 2.99641C28.1878 2.65377 27.634 2.33462 27.0728 2.04838C26.7713 1.89475 26.3988 2.0076 26.2403 2.30101C26.0824 2.59443 26.199 2.95738 26.5006 3.11101C27.0247 3.37862 27.5415 3.67619 28.0367 3.99604C28.1416 4.06382 28.26 4.09623 28.3771 4.09623C28.5763 4.09623 28.7724 4.00201 28.8914 3.82806C29.0794 3.55201 29.0023 3.17943 28.7187 2.99641Z" fill="black"/>
<path d="M23.7765 0.743976C22.6412 0.415757 21.4659 0.193148 20.2831 0.0827574C19.9452 0.0533668 19.6424 0.293343 19.6103 0.622757C19.5776 0.952172 19.8262 1.24559 20.1653 1.27737C21.2692 1.38059 22.3662 1.58815 23.425 1.89415C23.4836 1.91095 23.5428 1.91932 23.6007 1.91932C23.8659 1.91932 24.1114 1.75015 24.1921 1.49034C24.2889 1.17239 24.1027 0.838195 23.7765 0.743976Z" fill="black"/>
<path d="M16.7243 0.0822039C15.5415 0.192032 14.3662 0.414009 13.2303 0.742227C12.9041 0.836446 12.7178 1.17064 12.8147 1.48803C12.8942 1.74903 13.1397 1.91764 13.4054 1.91764C13.4634 1.91764 13.5226 1.90927 13.5818 1.89247C14.6413 1.58647 15.7377 1.37884 16.8415 1.27688C17.1801 1.24566 17.4286 0.952884 17.3965 0.622907C17.3644 0.29293 17.0635 0.0516179 16.7243 0.0822039Z" fill="black"/>
<path d="M10.76 2.30098C10.6021 2.00757 10.2291 1.89479 9.92753 2.04835C9.36638 2.33452 8.81261 2.65374 8.2816 2.99637C7.99796 3.1794 7.92028 3.55198 8.10896 3.82796C8.22733 4.00198 8.42346 4.09613 8.62328 4.09613C8.74042 4.09613 8.85886 4.06372 8.96365 3.99594C9.45881 3.67552 9.97623 3.37796 10.4998 3.11091C10.8019 2.95742 10.9179 2.5944 10.76 2.30098Z" fill="black"/>
<path d="M34.975 24.8017C34.6666 24.6607 34.2997 24.7915 34.1554 25.0915C33.905 25.6135 33.6233 26.1295 33.318 26.6251C33.1435 26.9095 33.2379 27.2779 33.5301 27.4483C33.6294 27.5065 33.7385 27.5341 33.8465 27.5341C34.0561 27.5341 34.2609 27.4297 34.375 27.2425C34.7024 26.7115 35.0046 26.1589 35.2729 25.5991C35.4171 25.299 35.2834 24.9421 34.975 24.8017Z" fill="black"/>
<path d="M36.9165 16.2834C36.8845 15.9534 36.5848 15.7145 36.2444 15.7427C35.9053 15.774 35.6567 16.0667 35.6888 16.3967C35.7411 16.9265 35.7671 17.4659 35.7671 17.9999C35.7671 18.9539 35.6838 19.9109 35.5204 20.8445C35.4637 21.1709 35.6894 21.4812 36.0249 21.5369C36.0594 21.5429 36.0945 21.5453 36.1291 21.5453C36.4238 21.5453 36.6847 21.3389 36.7359 21.0467C36.9116 20.0466 37.0004 19.0218 37.0004 18C37.0004 17.4282 36.972 16.8504 36.9165 16.2834Z" fill="black"/>
<path d="M35.8052 11.6346C35.5807 11.058 35.3217 10.4844 35.0356 9.93057C34.882 9.63476 34.5114 9.51474 34.2074 9.66415C33.9028 9.81293 33.78 10.1736 33.933 10.4699C34.2 10.9865 34.4418 11.5217 34.6514 12.0599C34.7445 12.2993 34.9788 12.4475 35.228 12.4475C35.3008 12.4475 35.3741 12.435 35.4469 12.4085C35.7657 12.291 35.9261 11.9448 35.8052 11.6346Z" fill="black"/>
<path d="M2.79238 9.66415C2.48778 9.51474 2.11713 9.63476 1.96422 9.93057C1.67812 10.4843 1.41912 11.058 1.19459 11.6346C1.07369 11.9448 1.23405 12.291 1.55288 12.4086C1.625 12.435 1.69842 12.4476 1.7712 12.4476C2.0203 12.4476 2.25465 12.2994 2.34838 12.06C2.55802 11.5218 2.79975 10.9866 3.06677 10.47C3.21976 10.1736 3.0964 9.813 2.79238 9.66415Z" fill="black"/>
<path d="M1.47935 20.8404C1.31596 19.9087 1.23329 18.9528 1.23329 18C1.23329 17.4636 1.25981 16.9231 1.31097 16.3938C1.34363 16.0638 1.09511 15.771 0.755971 15.7392C0.419863 15.711 0.115842 15.9492 0.0838281 16.2792C0.0284004 16.8468 0 17.4252 0 18C0 19.0206 0.0888145 20.0437 0.263336 21.042C0.31515 21.3348 0.575379 21.5413 0.870728 21.5413C0.905271 21.5413 0.940393 21.5389 0.974936 21.5328C1.31104 21.4771 1.53673 21.1668 1.47935 20.8404Z" fill="black"/>
<path d="M3.68066 26.6251C3.37541 26.1294 3.09357 25.6135 2.84324 25.0915C2.69893 24.7915 2.33203 24.6607 2.02368 24.8017C1.71532 24.9421 1.58213 25.299 1.7258 25.5991C1.9947 26.1589 2.29619 26.7115 2.6237 27.2425C2.73961 27.4303 2.94376 27.5341 3.15341 27.5341C3.2613 27.5341 3.37049 27.5064 3.46856 27.4483C3.7608 27.2779 3.85576 26.9094 3.68066 26.6251Z" fill="black"/>
<path d="M27.1323 15.6H16.0354C15.3546 15.6 14.8008 16.1388 14.8008 16.8012V23.9988C14.8008 24.6612 15.3546 25.2 16.0359 25.2H21.9455L25.4648 28.6242C25.5826 28.7388 25.7404 28.8 25.9008 28.8C25.9803 28.8 26.0605 28.785 26.1369 28.7544C26.367 28.6614 26.5174 28.4424 26.5174 28.2V25.2H27.1328C27.8137 25.2 28.3674 24.6611 28.3674 23.9982V16.8011C28.3674 16.1388 27.8137 15.6 27.1323 15.6ZM27.1329 23.9999H25.9008C25.5604 23.9999 25.2841 24.2687 25.2841 24.5999V26.7515L22.6368 24.1757C22.5214 24.0629 22.3642 23.9999 22.2008 23.9999L16.0341 23.9981V16.8011L16.0354 16.7999L27.1341 16.8011L27.1329 23.9999Z" fill="black"/>
<path d="M20.3491 12H9.25216C8.57135 12 8.01758 12.5388 8.01758 13.2012V20.3988C8.01758 21.0612 8.57135 21.6 9.25216 21.6H9.86758V24.6001C9.86758 24.8424 10.018 25.0615 10.2487 25.1545C10.3246 25.1851 10.4047 25.2001 10.4843 25.2001C10.6447 25.2001 10.8025 25.1389 10.9203 25.0243L14.4396 21.6001H15.4177C15.758 21.6001 16.0343 21.3313 16.0343 21.0001V16.8011L20.9677 16.8C21.308 16.8 21.5843 16.5311 21.5843 16.2V13.2011C21.5843 12.5388 21.0305 12 20.3491 12ZM20.3509 15.6H16.0355C15.3547 15.6 14.8009 16.1388 14.8009 16.8012V20.4H14.1843C14.0209 20.4 13.8636 20.463 13.7483 20.5758L11.1009 23.1516V20.9999C11.1009 20.6688 10.8247 20.4 10.4843 20.4L9.25094 20.3988L9.25216 13.2L20.3509 13.2011V15.6Z" fill="black"/>
<path d="M21.5842 18.6H17.8842C17.5438 18.6 17.2676 18.8688 17.2676 19.2C17.2676 19.5311 17.5438 19.7999 17.8842 19.7999H21.5842C21.9246 19.7999 22.2009 19.5311 22.2009 19.2C22.2009 18.8688 21.9246 18.6 21.5842 18.6Z" fill="black"/>
<path d="M25.2836 18.6H24.0502C23.7099 18.6 23.4336 18.8688 23.4336 19.2C23.4336 19.5311 23.7099 19.7999 24.0502 19.7999H25.2836C25.624 19.7999 25.9002 19.5311 25.9002 19.2C25.9002 18.8688 25.624 18.6 25.2836 18.6Z" fill="black"/>
<path d="M25.2834 21H21.5834C21.2431 21 20.9668 21.2688 20.9668 21.6C20.9668 21.9311 21.2431 22.2 21.5834 22.2H25.2834C25.6238 22.2 25.9001 21.9311 25.9001 21.6C25.9001 21.2688 25.6238 21 25.2834 21Z" fill="black"/>
<path d="M19.1176 21H17.8842C17.5438 21 17.2676 21.2688 17.2676 21.6C17.2676 21.9311 17.5438 22.2 17.8842 22.2H19.1176C19.4579 22.2 19.7342 21.9311 19.7342 21.6C19.7342 21.2688 19.458 21 19.1176 21Z" fill="black"/>
<path d="M12.3953 33.7159C11.8427 33.5119 11.2933 33.2773 10.7611 33.0169C10.4571 32.8687 10.0859 32.9875 9.93297 33.2833C9.78006 33.5797 9.90276 33.9403 10.2074 34.0891C10.7772 34.3681 11.3667 34.6201 11.9587 34.8379C12.0308 34.8643 12.1043 34.8769 12.177 34.8769C12.4262 34.8769 12.6605 34.7287 12.7536 34.4893C12.8745 34.179 12.7141 33.8329 12.3953 33.7159Z" fill="black"/>
<path d="M21.2552 35.205C21.2145 34.8762 20.9093 34.641 20.5695 34.6806C19.2042 34.8396 17.7914 34.8396 16.4206 34.6794C16.0814 34.6398 15.7755 34.8744 15.7348 35.2032C15.6947 35.532 15.9359 35.8308 16.2738 35.8704C17.0088 35.9562 17.7575 36 18.4999 36C19.2406 36 19.9867 35.9568 20.7162 35.8722C21.0548 35.8326 21.2959 35.5338 21.2552 35.205Z" fill="black"/>
<path d="M27.0678 33.2832C26.9142 32.9874 26.5437 32.8674 26.2397 33.0168C25.7081 33.2772 25.1581 33.5124 24.6055 33.7158C24.2873 33.8328 24.1264 34.179 24.2472 34.4892C24.3409 34.7286 24.5753 34.8768 24.8244 34.8768C24.8972 34.8768 24.9705 34.8642 25.0421 34.8378C25.6341 34.6194 26.2236 34.3674 26.7934 34.0889C27.098 33.9402 27.2207 33.5797 27.0678 33.2832Z" fill="black"/>
</g>
<defs>
<clipPath id="clip0_138_2107">
<rect width="37" height="36" fill="white"/>
</clipPath>
</defs>
</svg>
