<svg width="34" height="31" viewBox="0 0 34 31" fill="none" xmlns="http://www.w3.org/2000/svg">
<path d="M6.71977 21.5512H3.07433C2.78095 21.5512 2.54308 21.789 2.54308 22.0824V30.0122C2.54308 30.3056 2.78095 30.5434 3.07433 30.5434H6.71977C7.01315 30.5434 7.25102 30.3056 7.25102 30.0122V22.0824C7.25102 21.789 7.01315 21.5512 6.71977 21.5512ZM6.18852 29.4809H3.60558V22.6137H6.18852V29.4809ZM21.8223 16.7064H18.1769C17.8835 16.7064 17.6457 16.9443 17.6457 17.2377V30.0121C17.6457 30.3055 17.8835 30.5434 18.1769 30.5434H21.8223C22.1157 30.5434 22.3536 30.3055 22.3536 30.0121V17.2377C22.3536 16.9443 22.1157 16.7064 21.8223 16.7064ZM21.2911 29.4809H18.7082V17.7689H21.2911V29.4809ZM29.3736 12.2518H25.7282C25.4348 12.2518 25.1969 12.4896 25.1969 12.783V30.0121C25.1969 30.3055 25.4348 30.5434 25.7282 30.5434H29.3736C29.667 30.5434 29.9048 30.3055 29.9048 30.0121V12.783C29.9048 12.4896 29.667 12.2518 29.3736 12.2518ZM28.8423 29.4809H26.2594V13.3143H28.8423V29.4809ZM14.5813 8.99367C13.6513 9.02495 11.8668 8.0679 10.9603 6.78593C10.2166 5.73439 8.90506 5.39923 7.93467 5.53338L5.24535 5.90552C4.82885 5.96316 4.51315 6.29798 4.14765 6.68566C3.78587 7.06935 3.37581 7.50425 2.82723 7.75194C1.30181 8.44057 0.729125 9.76777 0.387066 10.5608C0.30625 10.7481 0.23639 10.9098 0.179148 11.0049C-0.16477 11.5755 -0.000613604 12.272 0.560918 12.625C1.05113 12.9332 1.77682 12.8948 2.2153 12.2253C2.38098 11.9725 2.52236 11.7254 2.65909 11.4864C3.17792 10.5792 3.48691 10.0406 4.44641 10.0616C4.57624 10.5426 4.48646 11.0523 4.36952 11.7162C4.19772 12.6912 3.98396 13.9047 4.34913 15.6342C4.57896 16.7226 3.43286 17.7703 2.74349 18.4004C2.49274 18.6297 2.34745 18.9447 2.33436 19.2874C2.32135 19.6298 2.44785 19.9688 2.6816 20.2177C2.93355 20.4858 3.27454 20.6212 3.61627 20.6212C3.93117 20.6212 4.24673 20.5063 4.49376 20.2742C4.59948 20.1748 4.82187 19.9952 5.05735 19.8051C5.7667 19.2321 6.22657 18.8498 6.42054 18.5509C6.52201 18.4188 6.70848 18.0682 7.25334 16.752C7.273 16.7044 7.61884 15.8681 7.82198 15.3244C7.90724 15.3272 7.9935 15.3322 8.1137 15.3393C8.30515 15.3505 8.56732 15.3658 9.02287 15.3843C10.7171 15.4533 11.019 16.5484 11.2861 18.2113C11.3142 18.3869 11.3668 18.5408 11.4364 18.6756H10.6255C10.3321 18.6756 10.0943 18.9135 10.0943 19.2069V30.012C10.0943 30.3054 10.3321 30.5433 10.6255 30.5433H14.271C14.5643 30.5433 14.8022 30.3054 14.8022 30.012V19.207C14.8022 18.9136 14.5643 18.6758 14.271 18.6758H13.7225C13.8479 18.4381 13.9103 18.1437 13.8745 17.7992C13.6105 15.2572 13.2375 14.0643 11.6103 13.2568C11.3833 13.1442 11.2015 13.0735 11.0555 13.0168C10.7334 12.8916 10.6249 12.8494 10.3368 12.4769C9.66621 11.6094 9.74842 10.854 9.83528 10.0544C9.84126 9.99979 9.84717 9.94554 9.85275 9.89168C10.9836 10.5563 13.0592 11.677 14.7067 11.4466C15.4821 11.3379 15.836 10.6848 15.7848 10.0959C15.7275 9.43547 15.219 8.9695 14.5813 8.99367ZM13.7398 29.4809H11.1568V19.7383H13.7398V29.4809ZM14.5592 10.3942C13.1016 10.5984 10.8927 9.27696 10.0611 8.77951C9.92407 8.6975 9.81582 8.63269 9.73222 8.58634C9.60233 8.51409 9.33192 8.36387 9.0489 8.55141C8.87843 8.66416 8.78566 8.87102 8.81369 9.07343C8.84702 9.31428 8.81555 9.60401 8.77909 9.93956C8.68825 10.7756 8.5638 11.9204 9.49634 13.1267C9.93336 13.692 10.2315 13.8364 10.6707 14.0071C10.81 14.0612 10.954 14.1172 11.1381 14.2086C12.2614 14.766 12.5597 15.4231 12.8179 17.909C12.8416 18.1384 12.764 18.2821 12.6048 18.3032C12.5378 18.3121 12.3772 18.3042 12.3352 18.0431C12.1042 16.6052 11.7553 14.4323 9.06616 14.3229C8.61991 14.3048 8.36325 14.2898 8.17585 14.2788C7.89469 14.2624 7.76633 14.2549 7.43171 14.2626C7.18866 14.2683 6.98094 14.4381 6.92649 14.6741C6.84149 14.9756 5.80761 17.5282 5.58329 17.8946C5.56191 17.9203 5.54298 17.948 5.52664 17.9772C5.41103 18.1539 4.7471 18.69 4.38984 18.9786C4.1276 19.1904 3.90109 19.3734 3.76635 19.4999C3.67955 19.5816 3.53745 19.577 3.45596 19.4904C3.40078 19.4315 3.39474 19.3635 3.39613 19.3281C3.39739 19.2954 3.40742 19.2333 3.46506 19.1806C4.26147 18.4525 5.74393 17.0973 5.38872 15.4148C5.06605 13.8865 5.25186 12.8316 5.41588 11.9007C5.56961 11.028 5.71484 10.2037 5.30651 9.33234C5.22888 9.16666 5.0715 9.05264 4.88994 9.03046C4.71934 9.00961 4.55884 8.99971 4.4073 8.99971C2.85758 8.99971 2.26503 10.0355 1.73684 10.9589C1.60801 11.1842 1.47473 11.4172 1.32665 11.6432C1.24171 11.7727 1.18022 11.7592 1.12637 11.7255C1.02417 11.6612 1.06966 11.5856 1.08911 11.5533C1.18354 11.3967 1.26655 11.2043 1.36257 10.9817C1.6798 10.2465 2.11423 9.23957 3.26445 8.72028C4.00461 8.38612 4.53407 7.82459 4.92062 7.4146C5.08551 7.23975 5.30976 7.00182 5.40731 6.9558L8.0803 6.58591C8.71029 6.49866 9.60937 6.71594 10.0927 7.39946C11.1076 8.8345 13.1636 10.057 14.541 10.0569C14.5667 10.0569 14.5922 10.0564 14.6174 10.0556C14.6414 10.0548 14.7145 10.0523 14.7263 10.1878C14.742 10.3686 14.6044 10.3879 14.5592 10.3942ZM6.6687 5.4853C6.79341 5.4853 6.91952 5.47673 7.04642 5.4592C8.54441 5.25181 9.59436 3.86452 9.38704 2.36666C9.17965 0.868801 7.79282 -0.180949 6.2945 0.0260392C4.79664 0.233426 3.74669 1.62072 3.95388 3.11858C4.14367 4.4896 5.32185 5.4853 6.6687 5.4853ZM6.44013 1.07858C7.35773 0.951278 8.20746 1.59482 8.3345 2.51236C8.39606 2.95681 8.28078 3.39875 8.00997 3.75648C7.73917 4.11434 7.34518 4.34523 6.90072 4.40673C5.98345 4.5337 5.13332 3.89048 5.00635 2.97295C4.87938 2.05541 5.52259 1.20555 6.44013 1.07858ZM27.2785 5.16011C25.2284 5.16017 23.3778 6.0953 22.3282 7.66163C22.3281 7.66163 22.3281 7.66163 22.3281 7.6617C22.0623 8.05841 22.0623 8.571 22.3282 8.96777C23.3778 10.5341 25.2284 11.4692 27.2785 11.4693H27.2787C29.3288 11.4693 31.1795 10.5341 32.2292 8.96777C32.495 8.57106 32.495 8.05834 32.2291 7.66156C31.1794 6.09517 29.3288 5.16011 27.2785 5.16011ZM27.2786 9.47319C26.6653 9.47319 26.1618 8.99407 26.1227 8.39044C26.7849 8.38725 27.3227 7.8475 27.3227 7.18457C27.3227 7.1754 27.3226 7.1663 27.3224 7.15714C27.9409 7.18025 28.4371 7.69058 28.4371 8.31473C28.4371 8.95343 27.9174 9.47319 27.2786 9.47319ZM23.2108 8.37643C23.1826 8.33432 23.1826 8.29508 23.2108 8.25304L23.2108 8.25311C23.9051 7.21697 25.0436 6.52123 26.3587 6.29924C26.2399 6.37162 26.1527 6.48783 26.1189 6.62503C26.0784 6.78932 26.1186 6.9631 26.2271 7.09293C26.2422 7.11099 26.2602 7.1416 26.2602 7.18463C26.2602 7.26366 26.1959 7.328 26.1168 7.328C26.0756 7.328 26.0459 7.3114 26.0282 7.29746C25.8956 7.19254 25.7205 7.15727 25.5576 7.20216C25.3944 7.24725 25.2625 7.36725 25.2024 7.52543C25.1064 7.77791 25.0577 8.04346 25.0577 8.31473C25.0577 9.20431 25.5837 9.9731 26.3408 10.3273C25.0333 10.102 23.902 9.40778 23.2108 8.37643ZM31.3465 8.37643C30.6553 9.40785 29.5239 10.102 28.2164 10.3273C28.9736 9.9731 29.4996 9.20431 29.4996 8.31473C29.4996 7.42516 28.9736 6.65644 28.2164 6.30223C29.5239 6.52754 30.6553 7.22162 31.3464 8.25298C31.3747 8.29508 31.3747 8.33432 31.3465 8.37643ZM26.7474 3.98086V2.09127C26.7474 1.79789 26.9853 1.56002 27.2787 1.56002C27.5721 1.56002 27.8099 1.79789 27.8099 2.09127V3.98086C27.8099 4.27425 27.5721 4.51211 27.2787 4.51211C26.9853 4.51211 26.7474 4.27425 26.7474 3.98086ZM29.0607 4.16866L30.0055 2.53221C30.1521 2.27807 30.4771 2.19102 30.7312 2.33777C30.9853 2.48446 31.0724 2.80939 30.9256 3.06346L29.9808 4.69991C29.8825 4.87031 29.7038 4.9656 29.5202 4.9656C29.4301 4.9656 29.3388 4.94263 29.2551 4.89435C29.001 4.74766 28.9139 4.42273 29.0607 4.16866ZM23.6247 3.10855C23.478 2.85448 23.5651 2.52955 23.8192 2.38286C24.0734 2.23604 24.3982 2.3233 24.5449 2.5773L25.4897 4.21382C25.6364 4.46789 25.5493 4.79281 25.2953 4.9395C25.2116 4.98785 25.1202 5.01076 25.0302 5.01076C24.8465 5.01076 24.668 4.91547 24.5696 4.74507L23.6247 3.10855ZM20.8821 4.18486C21.0417 3.93876 21.3705 3.86857 21.6169 4.02841L23.2849 5.1107C23.531 5.27034 23.6011 5.59938 23.4413 5.84548C23.3396 6.00227 23.1691 6.0876 22.9951 6.0876C22.8961 6.0876 22.7959 6.05991 22.7065 6.00194L21.0385 4.91965C20.7924 4.75994 20.7223 4.43096 20.8821 4.18486ZM33.6199 4.9828L31.9415 6.04882C31.8532 6.10493 31.7547 6.1317 31.6572 6.1317C31.4815 6.1317 31.3095 6.0445 31.2083 5.8852C31.0509 5.63757 31.1242 5.30919 31.3719 5.15194L33.0503 4.08592C33.298 3.92867 33.6263 4.00191 33.7836 4.24954C33.9409 4.49717 33.8676 4.82548 33.6199 4.9828Z" fill="black"/>
</svg>
