<svg width="34" height="36" viewBox="0 0 34 36" fill="none" xmlns="http://www.w3.org/2000/svg">
<path fill-rule="evenodd" clip-rule="evenodd" d="M30.7211 22.2517L30.6711 22.1698C30.3046 21.7129 29.7381 21.8844 29.5049 21.9794L21.6411 25.1879C21.1413 25.3912 20.5748 25.5179 19.8751 25.5813C19.4821 26.4077 18.5541 26.8155 17.6759 26.615C16.7625 26.4065 15.455 26.0564 14.6603 25.9741C13.824 25.8875 12.9189 26.1379 12.0613 26.4689C11.8281 26.5578 11.5615 26.4372 11.4782 26.1898C11.3949 25.9424 11.5115 25.6702 11.7448 25.5751C12.7205 25.186 13.7746 24.9355 14.7436 25.0294C15.41 25.0929 16.2931 25.3084 17.0594 25.4988C17.3593 25.5683 17.6259 25.6318 17.8591 25.6828C18.7724 25.887 19.487 25.0448 19.0587 24.1859C18.9421 23.9324 18.7255 23.7485 18.4756 23.6726L13.7274 22.1566C12.5278 21.7701 11.6115 22.258 10.5452 22.823C9.97873 23.1206 9.37897 23.4376 8.69584 23.6339C8.1294 23.7994 7.54623 23.9517 6.96313 24.0908V30.3058C9.22896 30.2802 11.2949 30.3058 13.3108 30.6103C14.8226 30.8408 16.4285 31.4444 17.8924 31.3209C19.6751 31.1684 21.5911 30.0012 23.3904 28.7649L29.5048 24.5734C29.9241 24.2867 30.2675 23.8904 30.6544 23.5073C30.9877 23.1777 31.021 22.6196 30.7211 22.2517ZM6.06356 23.3935C6.06356 23.2034 5.91362 23.0447 5.74702 23.0447H3.39789C3.23129 23.0447 3.08135 23.2034 3.08135 23.3935V31.6307C3.08135 31.8209 3.23129 31.9802 3.39789 31.9802H5.74702C5.91362 31.9802 6.06356 31.821 6.06356 31.6307V23.3935ZM13.9939 21.2437C13.0943 20.9583 12.3279 21.0472 11.6281 21.2814C10.7951 20.0515 10.3452 18.5988 10.3452 17.0704C10.3452 13.082 13.4108 9.84131 17.1761 9.84131C20.9413 9.84131 24.0069 13.082 24.0069 17.0704C24.0069 19.9818 22.3574 22.6011 19.8584 23.7228C19.6085 23.2536 19.2086 22.9112 18.7255 22.7595L13.9939 21.2437ZM7.86291 19.855C7.82959 19.6966 7.71297 19.5759 7.57969 19.525L5.09728 18.6754C4.94734 18.6244 4.84738 18.4914 4.84738 18.3266V15.8157C4.84738 15.6502 4.94734 15.5174 5.09728 15.4664L7.57969 14.6104C7.71297 14.5657 7.82959 14.4388 7.86291 14.2866C8.07949 13.5196 8.36271 12.7713 8.72923 12.067C8.81253 11.9279 8.81253 11.7631 8.74589 11.617L7.56303 9.15638C7.49639 9.01101 7.51305 8.84555 7.62967 8.73194L9.31239 6.95606C9.41235 6.84172 9.56229 6.81616 9.71223 6.88658L12.028 8.14204C12.1613 8.21174 12.3279 8.21174 12.4612 8.13585C13.1276 7.7361 13.8274 7.42528 14.5604 7.20971C14.6937 7.16558 14.8103 7.0511 14.8603 6.89889L15.66 4.27348C15.71 4.12127 15.8433 4.01997 15.9932 4.01997H18.359C18.5256 4.01997 18.6422 4.1212 18.6922 4.27348L19.4919 6.89889C19.5418 7.0511 19.6585 7.16565 19.8084 7.20971C20.5414 7.43162 21.2412 7.7361 21.9076 8.13585C22.0242 8.21166 22.1908 8.21166 22.3241 8.14204L24.6566 6.88658C24.7899 6.81004 24.9398 6.84179 25.0564 6.95606L26.7392 8.73194C26.8391 8.84555 26.8724 9.01101 26.7891 9.15638L25.6062 11.617C25.5396 11.7631 25.5562 11.9279 25.6229 12.067C25.9894 12.7713 26.2893 13.5196 26.4893 14.2866C26.5226 14.4388 26.6392 14.5657 26.7891 14.6104L29.2549 15.4664C29.4048 15.5174 29.5048 15.6502 29.5048 15.8157V18.3266C29.5048 18.4913 29.4048 18.6243 29.2549 18.6754L26.7891 19.525C26.6392 19.5759 26.5226 19.6966 26.4893 19.8482C26.2893 20.6221 25.9895 21.3704 25.6229 22.0745C25.5571 22.2064 25.5331 22.4393 25.6229 22.544L21.3245 24.3004C21.0079 24.4271 20.6581 24.516 20.2582 24.5795C23.0572 23.2923 24.9065 20.3429 24.9065 17.0705C24.9065 12.5557 21.4411 8.89041 17.1761 8.89041C12.911 8.89041 9.44554 12.5558 9.44554 17.0705C9.44554 18.7264 9.91202 20.2927 10.7784 21.6433C10.5618 21.7509 10.3452 21.859 10.1453 21.9665C9.67885 22.2201 9.19571 22.4744 8.69584 22.6453C8.7771 22.449 8.85448 22.299 8.72916 22.0746C8.36271 21.3703 8.07949 20.622 7.86291 19.855ZM31.2709 24.199C31.2042 24.2749 31.1209 24.3576 31.0376 24.4334C30.7211 24.7635 30.3879 25.1059 30.0047 25.3719L23.8903 29.5636C21.869 30.9484 19.6317 32.2903 17.476 32.2903C16.0005 32.2903 14.6136 31.7764 13.1776 31.5487C11.2283 31.2504 9.19571 31.2319 6.9632 31.2573V31.6307C6.9632 32.3475 6.41342 32.931 5.74702 32.931H3.39789C2.73142 32.931 2.18164 32.3474 2.18164 31.6307V23.3935C2.18164 22.677 2.73142 22.0933 3.39789 22.0933H5.74702C6.33012 22.0933 6.81326 22.5376 6.94654 23.1206C7.1298 23.0697 7.32972 23.0256 7.51298 22.9745L7.82952 22.3152C7.52964 21.6873 7.26308 21.028 7.06316 20.356L4.81399 19.5823C4.29753 19.3982 3.96433 18.9096 3.96433 18.3266V15.8157C3.96433 15.2383 4.29753 14.7373 4.81399 14.5595L7.06316 13.7863C7.26308 13.1074 7.52964 12.4543 7.82952 11.8266L6.76328 9.58766C6.51338 9.08049 6.61334 8.46518 6.99652 8.05931L8.66259 6.28358C9.06243 5.87152 9.62887 5.77641 10.1121 6.0431L12.228 7.17789C12.8277 6.84784 13.4441 6.57561 14.0773 6.36623L14.8103 3.98195C14.9769 3.43619 15.4434 3.06885 15.9933 3.06885H18.359C18.9088 3.06885 19.3754 3.43612 19.542 3.98195L20.2917 6.36623C20.9248 6.57561 21.5412 6.84784 22.1243 7.17789L24.2402 6.0431C24.74 5.77634 25.3065 5.87145 25.6897 6.28358L27.3724 8.05931C27.7556 8.46518 27.8389 9.08049 27.589 9.58766L26.5228 11.8266C26.8393 12.4542 27.0892 13.1074 27.2891 13.7863L29.5383 14.5595C30.0548 14.7373 30.4047 15.2383 30.4047 15.8157V18.3266C30.4047 18.8973 30.0548 19.4044 29.5383 19.5823L27.2891 20.356C27.1059 20.9707 26.8727 21.573 26.6061 22.1442L29.1718 21.0912C30.0381 20.7426 30.8545 20.9202 31.3543 21.5668L31.421 21.6432C32.0039 22.404 31.9373 23.5265 31.2709 24.199ZM15.0769 17.9209L16.4764 19.3919C16.643 19.5759 16.9262 19.5759 17.1095 19.3919L21.3579 14.9018V15.828C21.3579 16.0878 21.5412 16.3035 21.7911 16.3035C22.041 16.3035 22.2409 16.0878 22.2409 15.828V13.7545C22.2409 13.6439 22.1902 13.4878 22.1243 13.4114C22.023 13.2941 21.7911 13.2646 21.7911 13.2784H19.8418C19.5919 13.2784 19.392 13.488 19.392 13.7546C19.392 14.0144 19.5919 14.2301 19.8418 14.2301H20.7081L16.7929 18.384L15.3934 16.912C15.2101 16.7218 14.9435 16.7218 14.7603 16.912L12.1446 19.671C11.978 19.8549 11.978 20.1596 12.1446 20.3429C12.3268 20.5232 12.5977 20.5337 12.7777 20.3429L15.0769 17.9209Z" fill="black"/>
</svg>
