<svg width="35" height="35" viewBox="0 0 35 35" fill="none" xmlns="http://www.w3.org/2000/svg">
<path d="M30.1026 10.0394L21.8003 1.73709C21.731 1.66537 21.6477 1.60867 21.5556 1.57048C21.4635 1.5323 21.3645 1.51345 21.2647 1.51512H7.70413C6.90045 1.51512 6.12968 1.83438 5.56138 2.40267C4.99309 2.97096 4.67383 3.74173 4.67383 4.54542V30.4545C4.67383 31.2582 4.99309 32.029 5.56138 32.5973C6.12968 33.1655 6.90045 33.4848 7.70413 33.4848H27.2943C28.098 33.4848 28.8687 33.1655 29.437 32.5973C30.0053 32.029 30.3246 31.2582 30.3246 30.4545V10.575C30.324 10.3742 30.2442 10.1817 30.1026 10.0394ZM27.7382 9.81739H23.1587C22.8573 9.81739 22.5683 9.69766 22.3551 9.48455C22.142 9.27145 22.0223 8.98241 22.0223 8.68102V4.10148L27.7382 9.81739ZM27.2943 31.9697H7.7064C7.30456 31.9697 6.91918 31.81 6.63503 31.5259C6.35088 31.2417 6.19125 30.8564 6.19125 30.4545V4.54542C6.19125 4.14358 6.35088 3.75819 6.63503 3.47404C6.91918 3.1899 7.30456 3.03027 7.7064 3.03027H20.5094V8.68102C20.5094 9.38425 20.7888 10.0587 21.286 10.5559C21.7833 11.0532 22.4577 11.3325 23.1609 11.3325H28.8117V30.4545C28.8117 30.6537 28.7724 30.8509 28.6962 31.0349C28.6199 31.2188 28.5081 31.386 28.3671 31.5267C28.2262 31.6674 28.0589 31.779 27.8748 31.855C27.6907 31.931 27.4934 31.97 27.2943 31.9697Z" fill="black"/>
<path d="M14.4569 13.1818C15.0637 13.1818 15.6569 13.0018 16.1614 12.6647C16.666 12.3276 17.0593 11.8484 17.2915 11.2877C17.5237 10.7271 17.5845 10.1102 17.4661 9.51502C17.3477 8.91985 17.0555 8.37315 16.6264 7.94406C16.1973 7.51497 15.6506 7.22275 15.0554 7.10437C14.4603 6.98598 13.8433 7.04674 13.2827 7.27896C12.7221 7.51119 12.2429 7.90444 11.9058 8.409C11.5686 8.91356 11.3887 9.50676 11.3887 10.1136C11.3897 10.927 11.7132 11.7068 12.2884 12.282C12.8636 12.8572 13.6434 13.1808 14.4569 13.1818ZM14.4569 8.56056C14.764 8.56056 15.0643 8.65165 15.3197 8.8223C15.5751 8.99294 15.7741 9.2355 15.8917 9.51927C16.0092 9.80305 16.04 10.1153 15.98 10.4166C15.9201 10.7178 15.7722 10.9946 15.555 11.2118C15.3378 11.4289 15.0611 11.5769 14.7598 11.6368C14.4586 11.6967 14.1463 11.666 13.8625 11.5484C13.5788 11.4309 13.3362 11.2318 13.1656 10.9764C12.9949 10.721 12.9038 10.4208 12.9038 10.1136C12.9044 9.70189 13.0682 9.30722 13.3594 9.0161C13.6505 8.72498 14.0451 8.56116 14.4569 8.56056Z" fill="black"/>
<path d="M10.0173 19.053C10.2183 19.053 10.411 18.9732 10.553 18.8312C10.6951 18.6891 10.7749 18.4964 10.7749 18.2955V17.8333C10.7759 17.089 11.072 16.3755 11.5983 15.8492C12.1246 15.3229 12.8382 15.0268 13.5825 15.0258H15.3325C16.0768 15.0268 16.7903 15.3229 17.3166 15.8492C17.8429 16.3755 18.1391 17.089 18.1401 17.8333V18.2955C18.1401 18.4964 18.2199 18.6891 18.362 18.8312C18.504 18.9732 18.6967 19.053 18.8976 19.053C19.0986 19.053 19.2913 18.9732 19.4333 18.8312C19.5754 18.6891 19.6552 18.4964 19.6552 18.2955V17.8333C19.6538 16.6873 19.1979 15.5886 18.3876 14.7783C17.5772 13.9679 16.4785 13.512 15.3325 13.5106H13.5825C12.4365 13.512 11.3378 13.9679 10.5274 14.7783C9.71705 15.5886 9.26117 16.6873 9.25977 17.8333V18.2955C9.25977 18.4964 9.33958 18.6891 9.48165 18.8312C9.62373 18.9732 9.81642 19.053 10.0173 19.053Z" fill="black"/>
<path d="M9.59547 24.5962H18.7886C18.9896 24.5962 19.1823 24.5164 19.3243 24.3743C19.4664 24.2322 19.5462 24.0396 19.5462 23.8386C19.5462 23.6377 19.4664 23.445 19.3243 23.3029C19.1823 23.1609 18.9896 23.0811 18.7886 23.0811H9.59547C9.39454 23.0811 9.20185 23.1609 9.05978 23.3029C8.91771 23.445 8.83789 23.6377 8.83789 23.8386C8.83789 24.0396 8.91771 24.2322 9.05978 24.3743C9.20185 24.5164 9.39454 24.5962 9.59547 24.5962Z" fill="black"/>
<path d="M23.9894 27.0704H9.59547C9.39454 27.0704 9.20185 27.1503 9.05978 27.2923C8.91771 27.4344 8.83789 27.6271 8.83789 27.828C8.83789 28.0289 8.91771 28.2216 9.05978 28.3637C9.20185 28.5058 9.39454 28.5856 9.59547 28.5856H23.9894C24.1903 28.5856 24.383 28.5058 24.5251 28.3637C24.6672 28.2216 24.747 28.0289 24.747 27.828C24.747 27.6271 24.6672 27.4344 24.5251 27.2923C24.383 27.1503 24.1903 27.0704 23.9894 27.0704Z" fill="black"/>
</svg>
