<svg width="45" height="44" viewBox="0 0 45 44" fill="none" xmlns="http://www.w3.org/2000/svg">
<path d="M39.9436 24.8477C39.2298 24.2749 38.0708 24.0712 37.2131 24.9771L33.1171 29.3031C32.8897 28.1177 31.8233 27.2179 30.546 27.2179H23.5252L22.7452 26.7777C21.8381 26.2655 20.9275 26.0269 19.8796 26.0269H16.938C15.3898 26.0269 14.0279 26.5777 12.89 27.664L9.15241 31.2321L8.23563 30.3357C8.02987 30.1344 7.6958 30.1343 7.48996 30.3357L4.41818 33.3392C4.31922 33.4359 4.26367 33.567 4.26367 33.7038C4.26367 33.8406 4.31922 33.9717 4.41818 34.0684L14.0695 43.5053C14.1725 43.606 14.3074 43.6563 14.4424 43.6563C14.5774 43.6563 14.7123 43.606 14.8152 43.5053L17.887 40.5018C17.9859 40.4051 18.0415 40.274 18.0415 40.1372C18.0415 40.0004 17.9859 39.8693 17.887 39.7725L16.9497 38.8562L17.4557 38.2879C17.9409 37.7429 18.5616 37.4666 19.3006 37.4666H29.9352C31.9002 37.4666 33.6479 36.5694 34.8562 34.9404L40.3531 27.5292C41.0714 26.5609 40.6906 25.4474 39.9434 24.8478L39.9436 24.8477ZM14.4425 42.4113L5.53694 33.7036L7.86297 31.4294L16.7685 40.1371L14.4425 42.4113ZM39.4995 26.9236L34.0026 34.3348C32.9834 35.7089 31.577 36.4352 29.9355 36.4352H19.3009C18.2582 36.4352 17.3451 36.8416 16.6605 37.6106L16.2024 38.1251L9.89843 31.9613L13.627 28.4017C14.574 27.4976 15.6572 27.0581 16.9382 27.0581H19.8798C20.7465 27.0581 21.4676 27.247 22.2181 27.6707L23.1204 28.18C23.2006 28.2252 23.2916 28.2491 23.3841 28.2491H30.5461C31.407 28.2491 32.1074 28.9339 32.1074 29.7758C32.1074 30.1495 31.9658 30.51 31.7087 30.7909C31.7087 30.7909 31.7087 30.791 31.7087 30.791C31.4112 31.116 30.9875 31.3024 30.5462 31.3024H24.44C24.1488 31.3024 23.9127 31.5333 23.9127 31.818C23.9127 32.1027 24.1488 32.3336 24.44 32.3336H30.5462C31.2836 32.3336 31.9904 32.0248 32.4873 31.4863C32.4877 31.4858 32.4883 31.4855 32.4887 31.4851L37.9873 25.6777C38.4105 25.2305 38.9453 25.3806 39.2748 25.6448C39.6141 25.9171 39.8767 26.4155 39.4997 26.9236H39.4995ZM24.6537 16.2944C21.5825 17.0599 19.6729 18.9083 19.5838 21.2951C19.5835 21.3014 19.5834 21.3077 19.5834 21.3139V24.8241C19.5834 25.1089 19.8196 25.3398 20.1108 25.3398H35.4336C35.7247 25.3398 35.9609 25.1089 35.9609 24.8241V21.3139C35.9609 21.3077 35.9609 21.3014 35.9605 21.2951C35.8716 18.9083 33.9619 17.0599 30.8907 16.2944C31.7879 15.4766 32.3503 14.3123 32.3503 13.0213C32.3503 10.553 30.2965 8.54492 27.772 8.54492C25.2476 8.54492 23.1939 10.553 23.1939 13.0213C23.1939 14.3123 23.7564 15.4766 24.6535 16.2944H24.6537ZM34.9062 21.3236V24.3084H20.6381V21.3236C20.7386 18.7963 23.3848 17.4913 25.8853 17.0982C26.4611 17.354 27.0996 17.4977 27.7721 17.4977C28.4447 17.4977 29.0832 17.354 29.659 17.0982C32.1595 17.4913 34.8058 18.7964 34.9062 21.3236ZM27.7721 9.57617C29.715 9.57617 31.2957 11.1217 31.2957 13.0213C31.2957 14.921 29.715 16.4665 27.7721 16.4665C25.8292 16.4665 24.2487 14.921 24.2487 13.0213C24.2487 11.1217 25.8292 9.57617 27.7721 9.57617ZM17.9012 16.261C18.002 16.3596 18.1369 16.412 18.2741 16.412C18.3421 16.412 18.4106 16.3992 18.4759 16.3727C18.6729 16.2929 18.8014 16.1048 18.8014 15.8964V14.5831H21.9935C22.2847 14.5831 22.5208 14.3522 22.5208 14.0674V11.9753C22.5208 11.8385 22.4654 11.7073 22.3664 11.6107C22.2675 11.514 22.1334 11.4597 21.9936 11.4597H18.8014V10.1465C18.8014 9.93788 18.6729 9.74985 18.4759 9.6701C18.2789 9.59035 18.052 9.63435 17.9012 9.78191L14.9608 12.6569C14.8619 12.7535 14.8063 12.8847 14.8063 13.0215C14.8063 13.1583 14.8619 13.2894 14.9608 13.3861L17.9012 16.2612V16.261ZM17.7467 11.3912V11.9753C17.7467 12.112 17.8023 12.2432 17.9012 12.3399C18.0001 12.4366 18.1342 12.4909 18.2741 12.4909H21.4662V13.5518H18.2741C17.983 13.5518 17.7468 13.7827 17.7468 14.0674V14.6516L16.0795 13.0213L17.7467 11.3912ZM24.8317 4.24994H26.1749V7.37119C26.1749 7.6559 26.4111 7.88681 26.7022 7.88681H28.842C28.9819 7.88681 29.116 7.8325 29.2149 7.73582C29.3138 7.63914 29.3694 7.508 29.3694 7.37119V4.24994H30.7124C30.9257 4.24994 31.1179 4.1243 31.1996 3.93163C31.2812 3.73895 31.2362 3.51724 31.0853 3.36968L28.145 0.494642C27.9392 0.293376 27.6051 0.293204 27.3993 0.494642L24.4589 3.36959C24.308 3.51706 24.263 3.73887 24.3446 3.93154C24.4262 4.12421 24.6184 4.24994 24.8317 4.24994ZM27.7721 1.58854L29.4393 3.21869H28.842C28.5508 3.21869 28.3147 3.4496 28.3147 3.73431V6.85556H27.2296V3.73431C27.2296 3.4496 26.9934 3.21869 26.7022 3.21869H26.1048L27.7721 1.58854ZM33.5507 14.5831H36.7428V15.8964C36.7428 16.1049 36.8713 16.293 37.0683 16.3727C37.1335 16.3991 37.202 16.412 37.27 16.412C37.4073 16.412 37.5421 16.3596 37.6429 16.261L40.5833 13.386C40.6823 13.2893 40.7378 13.1581 40.7378 13.0213C40.7378 12.8845 40.6823 12.7534 40.5833 12.6567L37.6429 9.78173C37.4921 9.63418 37.2651 9.59018 37.0683 9.66993C36.8713 9.74977 36.7428 9.9378 36.7428 10.1463V11.4595H33.5507C33.2595 11.4595 33.0233 11.6904 33.0233 11.9751V14.0674C33.0233 14.2041 33.0789 14.3352 33.1778 14.432C33.2767 14.5287 33.4108 14.583 33.5507 14.583V14.5831ZM34.078 12.4908H37.2701C37.5613 12.4908 37.7975 12.2599 37.7975 11.9752V11.3912L39.4647 13.0213L37.7975 14.6516V14.0674C37.7975 13.9307 37.7419 13.7996 37.6429 13.7028C37.5441 13.6061 37.41 13.5518 37.2701 13.5518H34.078V12.4908Z" fill="black"/>
</svg>
