<svg width="36" height="35" viewBox="0 0 36 35" fill="none" xmlns="http://www.w3.org/2000/svg">
<g clip-path="url(#clip0_138_2485)">
<path fill-rule="evenodd" clip-rule="evenodd" d="M33.2606 22.641H2.73834C1.76126 22.641 0.976562 21.8683 0.976562 20.9232V3.61274C0.976562 2.67265 1.76126 1.8999 2.73834 1.8999H33.2606C34.2377 1.8999 35.0224 2.67265 35.0224 3.61274V20.9183C35.0224 21.8683 34.2377 22.641 33.2606 22.641ZM2.73834 2.85476C2.31308 2.85476 1.9587 3.1993 1.9587 3.61274V20.9183C1.9587 21.3268 2.31815 21.6763 2.73834 21.6763H33.2606C33.6808 21.6763 34.0403 21.3268 34.0403 20.9183V3.61274C34.0403 3.1993 33.6859 2.85476 33.2606 2.85476H2.73834Z" fill="black"/>
<path fill-rule="evenodd" clip-rule="evenodd" d="M32.1009 20.2686H3.90238C3.62394 20.2686 3.40625 20.057 3.40625 19.7912V4.7448C3.40625 4.4741 3.62394 4.26245 3.90238 4.26245H32.1009C32.3743 4.26245 32.592 4.4741 32.592 4.7448V19.7961C32.592 20.057 32.3743 20.2686 32.1009 20.2686ZM4.39345 19.3089H31.6048V5.22223H4.39345V19.3089Z" fill="black"/>
<path fill-rule="evenodd" clip-rule="evenodd" d="M28.2892 15.8388C28.1576 15.8388 28.0209 15.7847 27.9247 15.6813L22.2445 9.48951C22.0623 9.29263 22.0825 8.9924 22.285 8.81521C22.4926 8.63802 22.8014 8.6577 22.9837 8.85458L28.6639 15.0464C28.8461 15.2433 28.8259 15.5435 28.6183 15.7256C28.5221 15.7995 28.4006 15.8388 28.2892 15.8388ZM7.75037 15.4303C7.6238 15.4303 7.49724 15.3811 7.40611 15.2925C7.2188 15.1104 7.2188 14.8003 7.40611 14.6182L10.8993 11.2122C11.0917 11.0301 11.4055 11.0301 11.5979 11.2122C11.7852 11.3992 11.7852 11.7044 11.5979 11.8914L8.10475 15.2925C8.0035 15.3811 7.87693 15.4303 7.75037 15.4303ZM15.7087 13.5993C15.5619 13.5993 15.4151 13.5354 15.324 13.4123C15.1519 13.2007 15.1974 12.9004 15.4151 12.7429L20.8473 8.66263C21.0649 8.5002 21.3738 8.53958 21.5358 8.75122C21.7028 8.96779 21.6623 9.26803 21.4446 9.42553L16.0125 13.5009C15.9214 13.5649 15.8151 13.5993 15.7087 13.5993ZM14.195 13.5009C14.0685 13.5009 13.9419 13.4566 13.8508 13.3582L12.3371 11.8816C12.1447 11.6995 12.1447 11.3894 12.3371 11.2073C12.5244 11.0202 12.8433 11.0202 13.0306 11.2073L14.5494 12.6839C14.7367 12.866 14.7367 13.1761 14.5494 13.3582C14.4431 13.4566 14.3165 13.5009 14.195 13.5009Z" fill="black"/>
<path fill-rule="evenodd" clip-rule="evenodd" d="M7.03679 17.1038C6.20653 17.1038 5.5332 16.4492 5.5332 15.642C5.5332 14.8348 6.20653 14.1802 7.03679 14.1802C7.86705 14.1802 8.53025 14.8348 8.53025 15.642C8.53025 16.4492 7.86705 17.1038 7.03679 17.1038ZM7.03679 15.135C6.74822 15.135 6.51534 15.3614 6.51534 15.642C6.51534 15.9225 6.74822 16.149 7.03679 16.149C7.31523 16.149 7.54811 15.9225 7.54811 15.642C7.54811 15.3614 7.32536 15.135 7.03679 15.135Z" fill="black"/>
<path fill-rule="evenodd" clip-rule="evenodd" d="M11.9626 12.3197C11.1323 12.3197 10.459 11.6651 10.459 10.8579C10.459 10.0507 11.1323 9.39606 11.9626 9.39606C12.7928 9.39606 13.4611 10.0507 13.4611 10.8579C13.4611 11.6651 12.7928 12.3197 11.9626 12.3197ZM11.9626 10.3509C11.674 10.3509 11.4411 10.5773 11.4411 10.8579C11.4411 11.1384 11.674 11.3648 11.9626 11.3648C12.2461 11.3648 12.4739 11.1384 12.4739 10.8579C12.4739 10.5773 12.2461 10.3509 11.9626 10.3509Z" fill="black"/>
<path fill-rule="evenodd" clip-rule="evenodd" d="M14.9079 15.1842C14.0776 15.1842 13.4043 14.5296 13.4043 13.7224C13.4043 12.9152 14.0776 12.2655 14.9079 12.2655C15.7381 12.2655 16.4013 12.9201 16.4013 13.7224C16.4013 14.5296 15.7381 15.1842 14.9079 15.1842ZM14.9079 13.2154C14.6193 13.2154 14.3864 13.4418 14.3864 13.7126C14.3864 13.9931 14.6193 14.2195 14.9079 14.2195C15.1863 14.2195 15.4192 13.9931 15.4192 13.7126C15.4192 13.4418 15.1863 13.2154 14.9079 13.2154Z" fill="black"/>
<path fill-rule="evenodd" clip-rule="evenodd" d="M21.9352 9.90297C21.105 9.90297 20.4316 9.24343 20.4316 8.44115C20.4316 7.63395 21.105 6.98425 21.9352 6.98425C22.7655 6.98425 23.4337 7.63887 23.4337 8.44115C23.4337 9.24343 22.7655 9.90297 21.9352 9.90297ZM21.9352 7.93911C21.6467 7.93911 21.4138 8.16552 21.4138 8.44115C21.4138 8.7217 21.6467 8.94319 21.9352 8.94319C22.2187 8.94319 22.4465 8.7217 22.4465 8.44115C22.4465 8.16552 22.2238 7.93911 21.9352 7.93911Z" fill="black"/>
<path fill-rule="evenodd" clip-rule="evenodd" d="M28.9622 17.5566C28.137 17.5566 27.4688 16.8971 27.4688 16.0948C27.4688 15.2876 28.1421 14.6379 28.9622 14.6379C29.7925 14.6379 30.4658 15.2925 30.4658 16.0948C30.4658 16.8971 29.7925 17.5566 28.9622 17.5566ZM28.9622 15.5878C28.6838 15.5878 28.4509 15.8142 28.4509 16.0849C28.4509 16.3655 28.6838 16.5919 28.9622 16.5919C29.2508 16.5919 29.4837 16.3655 29.4837 16.0849C29.4837 15.8142 29.2457 15.5878 28.9622 15.5878Z" fill="black"/>
<path fill-rule="evenodd" clip-rule="evenodd" d="M24.4817 2.85475C24.2033 2.85475 23.9856 2.64311 23.9856 2.37732V1.43723C23.9856 1.17637 23.7679 0.964724 23.5097 0.964724H12.4885C12.2202 0.964724 12.0126 1.17637 12.0126 1.43723V2.37732C12.0126 2.64311 11.7949 2.85475 11.5165 2.85475C11.2431 2.85475 11.0254 2.64311 11.0254 2.37732V1.43723C11.0254 0.64972 11.6785 0.00494385 12.4885 0.00494385H23.5097C24.3197 0.00494385 24.9728 0.64972 24.9728 1.43723V2.37732C24.9728 2.64311 24.7551 2.85475 24.4817 2.85475Z" fill="black"/>
<path fill-rule="evenodd" clip-rule="evenodd" d="M12.7563 34.9951H8.31138C8.038 34.9951 7.82031 34.7835 7.82031 34.5177V34.5078C7.82031 34.4734 7.83044 34.434 7.8355 34.3995L7.85575 34.3159L10.8882 22.0504C10.949 21.7895 11.2173 21.6369 11.4755 21.696C11.7438 21.755 11.9058 22.0159 11.84 22.2719L8.93408 34.0353H12.3665L15.3332 22.0454C15.399 21.7846 15.6673 21.6271 15.9255 21.6911C16.1938 21.7501 16.3558 22.011 16.29 22.262L13.2322 34.6259C13.1866 34.8425 12.9791 34.9951 12.7563 34.9951Z" fill="black"/>
<path fill-rule="evenodd" clip-rule="evenodd" d="M27.6866 34.9951H23.2417C23.0189 34.9951 22.8215 34.8425 22.7658 34.6259L19.708 22.262C19.6422 22.0011 19.8042 21.7501 20.0725 21.6911C20.3408 21.6271 20.599 21.7846 20.6648 22.0454L23.6315 34.0353H27.069L24.158 22.2719C24.0922 22.011 24.2542 21.755 24.5225 21.696C24.7908 21.6369 25.049 21.7895 25.1148 22.0504L28.1423 34.3109L28.1625 34.3995C28.1676 34.434 28.1777 34.4734 28.1777 34.5078V34.5177C28.1777 34.7835 27.96 34.9951 27.6866 34.9951Z" fill="black"/>
</g>
<defs>
<clipPath id="clip0_138_2485">
<rect width="36" height="35" fill="white"/>
</clipPath>
</defs>
</svg>
