<svg width="30" height="30" viewBox="0 0 30 30" fill="none" xmlns="http://www.w3.org/2000/svg">
<g clip-path="url(#clip0_138_3122)">
<path d="M3.91406 11.0758H15.1631" stroke="black" stroke-width="0.878908" stroke-miterlimit="10" stroke-linecap="round" stroke-linejoin="round"/>
<path d="M3.91406 14.1635H15.1631" stroke="black" stroke-width="0.878908" stroke-miterlimit="10" stroke-linecap="round" stroke-linejoin="round"/>
<path d="M3.91406 17.2512H15.1631" stroke="black" stroke-width="0.878908" stroke-miterlimit="10" stroke-linecap="round" stroke-linejoin="round"/>
<path d="M3.91406 20.3387H15.1631" stroke="black" stroke-width="0.878908" stroke-miterlimit="10" stroke-linecap="round" stroke-linejoin="round"/>
<path d="M3.91406 24.8638H9.55302" stroke="black" stroke-width="0.878908" stroke-miterlimit="10" stroke-linecap="round" stroke-linejoin="round"/>
<mask id="mask0_138_3122" style="mask-type:luminance" maskUnits="userSpaceOnUse" x="0" y="0" width="30" height="31">
<path d="M0 4.76837e-05H30.0001V30.0001H0V4.76837e-05Z" fill="white"/>
</mask>
<g mask="url(#mask0_138_3122)">
<path d="M10.9818 5.98757H10.22C9.91866 5.98757 9.67438 5.7433 9.67438 5.44195V4.01612C9.67438 3.71478 9.91866 3.4705 10.22 3.4705H19.2415C19.5429 3.4705 19.7872 3.71478 19.7872 4.01612V5.44195C19.7872 5.7433 19.5429 5.98757 19.2415 5.98757H13.0361M23.5121 8.02559V2.17546C23.5121 1.21739 22.7355 0.440726 21.7774 0.440726H6.8689C6.40882 0.440726 5.96755 0.623538 5.64224 0.948852L1.11158 5.47951C0.78627 5.80482 0.603516 6.24603 0.603516 6.70611V27.8272C0.603516 28.7852 1.38018 29.5619 2.33819 29.5619H21.7774C22.7355 29.5619 23.5121 28.7852 23.5121 27.8272V27.2354" stroke="black" stroke-width="0.878908" stroke-miterlimit="10" stroke-linecap="round" stroke-linejoin="round"/>
<path d="M20.8906 21.3858V25.8245C20.8906 26.2104 21.3138 26.4468 21.6424 26.2445L23.254 25.2524C23.3332 25.2036 23.4229 25.1792 23.5125 25.1792C23.6021 25.1792 23.6918 25.2036 23.771 25.2524L25.3826 26.2445C25.7112 26.4468 26.1343 26.2104 26.1343 25.8245V21.3858" stroke="black" stroke-width="0.878908" stroke-miterlimit="10" stroke-linecap="round" stroke-linejoin="round"/>
<path d="M23.5135 19.4422C21.7222 19.4422 20.2701 17.99 20.2701 16.1988C20.2701 14.4075 21.7222 12.9554 23.5135 12.9554C25.3047 12.9554 26.7569 14.4075 26.7569 16.1988C26.7569 17.99 25.3047 19.4422 23.5135 19.4422ZM29.1688 16.9406C28.8638 16.493 28.8638 15.9045 29.1688 15.4569C29.6541 14.7446 29.3361 13.7659 28.5247 13.4748C28.0149 13.292 27.669 12.8158 27.6527 12.2745C27.6266 11.413 26.794 10.8081 25.9666 11.0495C25.4467 11.2012 24.8869 11.0193 24.5555 10.591C24.2918 10.2502 23.9026 10.0797 23.5135 10.0797C23.1243 10.0797 22.7352 10.2502 22.4715 10.591C22.14 11.0193 21.5803 11.2012 21.0604 11.0495C20.233 10.8081 19.4004 11.413 19.3743 12.2745C19.3579 12.8158 19.012 13.292 18.5022 13.4748C17.6909 13.7659 17.3729 14.7446 17.8582 15.4569C18.1631 15.9045 18.1631 16.493 17.8582 16.9406C17.3729 17.6529 17.6909 18.6316 18.5022 18.9227C19.012 19.1055 19.3579 19.5817 19.3743 20.123C19.3986 20.9259 20.1234 21.5059 20.8916 21.3857C20.9478 21.3769 21.0041 21.3645 21.0604 21.348C21.5803 21.1963 22.14 21.3782 22.4715 21.8065C22.999 22.4882 24.028 22.4882 24.5555 21.8065C24.8869 21.3782 25.4467 21.1963 25.9666 21.348C26.0229 21.3645 26.0792 21.3769 26.1353 21.3857C26.9036 21.5059 27.6284 20.9259 27.6527 20.123C27.669 19.5817 28.0149 19.1055 28.5247 18.9227C29.3361 18.6316 29.6541 17.6529 29.1688 16.9406Z" stroke="black" stroke-width="0.878908" stroke-miterlimit="10" stroke-linecap="round" stroke-linejoin="round"/>
<path d="M23.511 12.9553C21.7197 12.9553 20.2676 14.4075 20.2676 16.1987C20.2676 17.9901 21.7197 19.4421 23.511 19.4421C25.3023 19.4421 26.7544 17.9901 26.7544 16.1987C26.7544 14.4075 25.3023 12.9553 23.511 12.9553Z" stroke="black" stroke-width="0.878908" stroke-miterlimit="10" stroke-linecap="round" stroke-linejoin="round"/>
<path d="M6.1488 0.596558V4.91206C6.1488 5.50608 5.66728 5.98755 5.07337 5.98755H0.757812" stroke="black" stroke-width="0.878908" stroke-miterlimit="10" stroke-linecap="round" stroke-linejoin="round"/>
</g>
</g>
<defs>
<clipPath id="clip0_138_3122">
<rect width="30.0001" height="30.0001" fill="white"/>
</clipPath>
</defs>
</svg>
