<svg width="34" height="34" viewBox="0 0 34 34" fill="none" xmlns="http://www.w3.org/2000/svg">
<path d="M33.3797 22.0913L24.5557 18.6017V3.13033C24.5557 2.11498 23.7296 1.28955 22.7149 1.28955H7.5125C6.49715 1.28955 5.67172 2.11564 5.67172 3.13033V4.12045H4.68359C3.66824 4.12045 2.84281 4.94654 2.84281 5.96123V12.3728H1.61297C0.724453 12.3728 0.00195312 13.0468 0.00195312 13.8749V29.5965C0.00195312 29.744 0.0444531 29.8801 0.128125 30.0003L1.76238 32.3863C1.89984 32.5888 2.13227 32.7097 2.38461 32.7097C2.6343 32.7097 2.85809 32.5954 3.0002 32.3956C3.00219 32.3929 3.00352 32.3909 3.00551 32.3883L4.64176 29.9996C4.72543 29.8794 4.76793 29.7433 4.76793 29.5959V29.2931H16.83C16.9707 29.7068 17.3008 30.0282 17.7709 30.1889C19.5599 30.8005 21.2911 31.1066 23.0263 31.1066C24.7775 31.1066 26.5319 30.7952 28.3528 30.1723C28.9405 29.9717 29.3203 29.4405 29.3203 28.8189V25.5212L30.6584 24.9919V27.0027C30.6584 27.2962 30.8961 27.5333 31.189 27.5333C31.4818 27.5333 31.7196 27.2956 31.7196 27.0027V24.5722L33.3804 23.9155C33.7563 23.7661 33.9993 23.4075 33.9993 23.0024C33.9993 22.5987 33.7562 22.2414 33.3797 22.0913ZM6.73289 3.13033C6.73289 2.70068 7.08219 2.35072 7.5125 2.35072H22.7149C23.1445 2.35072 23.4945 2.70002 23.4945 3.13033V18.182L23.3955 18.1428C23.1611 18.0512 22.9134 18.0512 22.6764 18.1435L21.7254 18.5193V5.96189C21.7254 4.94654 20.8993 4.12111 19.8846 4.12111H6.73289V3.13033ZM2.91586 29.1204V16.0683H3.70609V29.1204H2.91586ZM1.06379 16.0683H1.85402V29.1204H1.06379V16.0683ZM1.61297 13.4346H3.15625C3.45441 13.4346 3.70609 13.6365 3.70609 13.8749V15.0064H1.06313V13.8749C1.06379 13.6365 1.31547 13.4346 1.61297 13.4346ZM2.38461 31.4161L1.53926 30.1822H3.22996L2.38461 31.4161ZM4.76793 13.8749C4.76793 13.2978 4.4173 12.7964 3.90398 12.5447V5.96189C3.90398 5.53225 4.25328 5.18229 4.68359 5.18229H19.884C20.3136 5.18229 20.6636 5.53158 20.6636 5.96189V18.9403L12.6922 22.092L12.6915 22.0926C12.3157 22.2421 12.0726 22.6 12.0726 23.0037C12.0726 23.4088 12.3157 23.7674 12.6929 23.9168L16.7543 25.5225V28.2326H4.76793V13.8749ZM28.2585 28.8196C28.2585 28.9843 28.1655 29.1151 28.0095 29.1682C24.6181 30.3283 21.4744 30.3343 18.1149 29.1855C17.9077 29.1144 17.8154 29.0015 17.8154 28.8203V25.9429L22.679 27.8653C22.7959 27.9112 22.9161 27.9337 23.037 27.9337C23.1585 27.9337 23.28 27.9105 23.3982 27.8647L28.2591 25.9422V28.8196H28.2585ZM30.9924 23.7189C30.9878 23.7209 30.9838 23.7222 30.9791 23.7242L28.6038 24.6632C28.5938 24.6665 28.5845 24.6705 28.5752 24.6745L23.0363 26.8646L17.5027 24.6765C17.4874 24.6699 17.4714 24.6632 17.4555 24.6579L13.2712 23.0037L23.0363 19.1429L23.8139 19.4503C23.8192 19.453 23.8252 19.455 23.8305 19.457L32.8 23.0037L30.9924 23.7189ZM6.34508 8.69119C6.34508 8.39834 6.58281 8.16061 6.87566 8.16061H17.6879C17.9814 8.16061 18.2185 8.39834 18.2185 8.69119C18.2185 8.98404 17.9808 9.22178 17.6879 9.22178H6.87633C6.58281 9.22178 6.34508 8.98404 6.34508 8.69119ZM6.34508 12.6988C6.34508 12.406 6.58281 12.1682 6.87566 12.1682H17.6879C17.9814 12.1682 18.2185 12.406 18.2185 12.6988C18.2185 12.9917 17.9808 13.2294 17.6879 13.2294H6.87633C6.58281 13.2294 6.34508 12.9917 6.34508 12.6988ZM6.34508 16.7064C6.34508 16.4136 6.58281 16.1758 6.87566 16.1758H17.6879C17.9814 16.1758 18.2185 16.4136 18.2185 16.7064C18.2185 16.9993 17.9808 17.237 17.6879 17.237H6.87633C6.58281 17.237 6.34508 16.9993 6.34508 16.7064ZM10.3925 20.714C10.3925 21.0076 10.1548 21.2446 9.86195 21.2446H6.87633C6.58281 21.2446 6.34574 21.0069 6.34574 20.714C6.34574 20.4212 6.58348 20.1835 6.87633 20.1835H9.86195C10.1548 20.1828 10.3925 20.4205 10.3925 20.714ZM10.3925 24.7217C10.3925 25.0152 10.1548 25.2522 9.86195 25.2522H6.87633C6.58281 25.2522 6.34574 25.0145 6.34574 24.7217C6.34574 24.4288 6.58348 24.1911 6.87633 24.1911H9.86195C10.1548 24.1904 10.3925 24.4281 10.3925 24.7217Z" fill="black"/>
</svg>
