<svg width="34" height="34" viewBox="0 0 34 34" fill="none" xmlns="http://www.w3.org/2000/svg">
<g clip-path="url(#clip0_138_3192)">
<path d="M6.07763 3.73621H6.0696C4.83982 3.7542 3.83961 4.76982 3.83961 6.00019V9.23551H0.500437C0.224055 9.23551 0 9.45956 0 9.73594C0 10.0123 0.224055 10.2364 0.500437 10.2364H3.83968V12.8675H0.500437C0.224055 12.8675 0 13.0916 0 13.368C0 13.6444 0.224055 13.8684 0.500437 13.8684H3.83968V16.4995H0.500437C0.224055 16.4996 0 16.7236 0 17C0 17.2764 0.224055 17.5004 0.500437 17.5004H3.83968V20.1315H0.500437C0.224055 20.1315 0 20.3556 0 20.6319C0 20.9083 0.224055 21.1324 0.500437 21.1324H3.83968V23.7635H0.500437C0.224055 23.7635 0 23.9876 0 24.264C0 24.5404 0.224055 24.7644 0.500437 24.7644H3.83968V26.4757C3.83968 26.7519 4.06386 26.9761 4.34011 26.9761C4.61636 26.9761 4.84055 26.7519 4.84055 26.4757V6.00026C4.84055 5.31362 5.39836 4.74717 6.085 4.73648C6.36125 4.7325 6.58212 4.50559 6.57747 4.22867C6.57342 3.95508 6.35056 3.73621 6.07763 3.73621Z" fill="black"/>
<path d="M27.2381 29.0559H6.10471C5.58894 29.0559 5.12987 28.7477 4.93437 28.2706C4.82958 28.0144 4.53799 27.8922 4.28179 27.997C4.02553 28.1018 3.90348 28.394 4.0082 28.6495C4.35783 29.5043 5.1806 30.0568 6.10471 30.0568H9.23597V33.4994C9.23597 33.7758 9.46002 33.9998 9.7364 33.9998C10.0128 33.9998 10.2368 33.7758 10.2368 33.4994V30.0568H12.868V33.4994C12.868 33.7758 13.092 33.9998 13.3684 33.9998C13.6448 33.9998 13.8689 33.7758 13.8689 33.4994V30.0568H16.4999V33.4994C16.4999 33.7758 16.724 33.9998 17.0004 33.9998C17.2768 33.9998 17.5008 33.7758 17.5008 33.4994V30.0568H20.1319V33.4994C20.1319 33.7758 20.356 33.9998 20.6323 33.9998C20.9087 33.9998 21.1328 33.7758 21.1328 33.4994V30.0568H23.7639V33.4994C23.7639 33.7758 23.988 33.9998 24.2644 33.9998C24.5407 33.9998 24.7648 33.7758 24.7648 33.4994V30.0568H27.2381C27.5144 30.0568 27.7385 29.8326 27.7385 29.5563C27.7385 29.2795 27.5144 29.0559 27.2381 29.0559Z" fill="black"/>
<path d="M23.7873 8.50916H10.2127C9.33054 8.50916 8.61328 9.22648 8.61328 10.1086V23.6839C8.61328 24.5661 9.3306 25.2833 10.2127 25.2833H23.7874C24.6695 25.2833 25.3868 24.566 25.3868 23.6839V10.1086C25.3868 9.22641 24.6695 8.50916 23.7873 8.50916ZM9.61409 10.1086C9.61409 9.77825 9.8823 9.51003 10.2126 9.51003H20.5643V14.7367C19.6596 14.9322 18.945 15.6468 18.7495 16.5516H15.0616V13.9853C16.0071 13.8005 16.7224 12.9657 16.7224 11.9669C16.7224 10.8332 15.7996 9.91039 14.6653 9.91039C13.6664 9.91039 12.8317 10.6257 12.6468 11.5705H9.61409V10.1086ZM21.0649 15.6842C21.8189 15.6842 22.4322 16.298 22.4322 17.0521C22.4322 17.8061 21.819 18.4193 21.0649 18.4193C20.3055 18.4193 19.697 17.8001 19.697 17.0521C19.6971 16.3027 20.3072 15.6842 21.0649 15.6842ZM14.6653 13.0231C14.0866 13.0231 13.609 12.5524 13.609 11.9669C13.609 11.385 14.0828 10.9113 14.6653 10.9113C15.2478 10.9113 15.7215 11.385 15.7215 11.9669C15.7215 12.5544 15.2431 13.0231 14.6653 13.0231ZM12.504 21.2024C12.2138 21.0395 12.0176 20.728 12.0176 20.3723C12.0176 19.8472 12.4453 19.4201 12.9705 19.4201C13.4956 19.4201 13.9227 19.8472 13.9227 20.3723C13.9226 21.1 13.1355 21.5594 12.504 21.2024ZM16.5515 24.2824H13.194V22.3127C14.1662 22.2019 14.9235 21.3738 14.9235 20.3723C14.9235 19.2953 14.0474 18.4192 12.9705 18.4192C11.8928 18.4192 11.0167 19.2953 11.0167 20.3723C11.0167 21.173 11.5012 21.8637 12.1931 22.1645V24.2824H10.2127C9.88237 24.2824 9.61416 24.0136 9.61416 23.6839V12.5714H12.6989C12.7031 12.5783 12.9721 13.5987 14.0607 13.9333V17.0521C14.0607 17.3283 14.2849 17.5525 14.5612 17.5525H16.5515V24.2824ZM24.3859 23.6839C24.3859 24.0136 24.1177 24.2824 23.7874 24.2824H17.5524V22.1183H24.3859V23.6839ZM24.3859 21.1174H17.5524V17.5525H18.7495C18.9798 18.6188 19.9306 19.4202 21.0649 19.4202C22.3707 19.4202 23.433 18.3579 23.433 17.0521C23.433 15.9177 22.6316 14.9669 21.5654 14.7367C21.5654 14.7367 21.5653 14.7367 21.5652 14.7367V9.51003H23.7873C24.1176 9.51003 24.3858 9.77825 24.3858 10.1086V21.1174H24.3859Z" fill="black"/>
<path d="M33.4987 13.8685C33.7751 13.8685 33.9991 13.6444 33.9991 13.368C33.9991 13.0917 33.7751 12.8676 33.4987 12.8676H30.1594V10.2365H33.4987C33.7751 10.2365 33.9991 10.0124 33.9991 9.73602C33.9991 9.45964 33.7751 9.23558 33.4987 9.23558H30.1594V6.00027C30.1594 4.75183 29.1439 3.73562 27.8948 3.73562H24.7635V0.500437C24.7635 0.224055 24.5395 0 24.2631 0C23.9867 0 23.7627 0.224055 23.7627 0.500437V3.73555H21.1315V0.500437C21.1315 0.224055 20.9075 0 20.6311 0C20.3547 0 20.1306 0.224055 20.1306 0.500437V3.73555H17.4996V0.500437C17.4996 0.224055 17.2755 0 16.9991 0C16.7227 0 16.4987 0.224055 16.4987 0.500437V3.73555H13.8676V0.500437C13.8676 0.224055 13.6435 0 13.3672 0C13.0908 0 12.8667 0.224055 12.8667 0.500437V3.73555H10.2356V0.500437C10.2356 0.224055 10.0115 0 9.73513 0C9.45875 0 9.2347 0.224055 9.2347 0.500437V3.73555H8.07856C7.80165 3.73555 7.57812 3.95974 7.57812 4.23599C7.57812 4.51224 7.80165 4.73643 8.07856 4.73643C10.7001 4.73643 25.7967 4.73643 27.8948 4.73643C28.5921 4.73643 29.1586 5.3036 29.1586 6.0002V27.7922C29.1586 28.1412 29.0198 28.4662 28.7669 28.707C28.5667 28.8979 28.5587 29.2148 28.7496 29.4143C28.8483 29.5177 28.9798 29.5698 29.1119 29.5698C29.236 29.5698 29.3601 29.5238 29.4575 29.4316C29.91 28.9999 30.1595 28.4174 30.1595 27.7922V24.7644H33.4987C33.7751 24.7644 33.9992 24.5404 33.9992 24.264C33.9992 23.9876 33.7751 23.7635 33.4987 23.7635H30.1595V21.1324H33.4987C33.7751 21.1324 33.9992 20.9083 33.9992 20.632C33.9992 20.3556 33.7751 20.1315 33.4987 20.1315H30.1595V17.5004H33.4987C33.7751 17.5004 33.9992 17.2764 33.9992 17C33.9992 16.7236 33.7751 16.4996 33.4987 16.4996H30.1595V13.8685H33.4987Z" fill="black"/>
</g>
<defs>
<clipPath id="clip0_138_3192">
<rect width="34" height="34" fill="white"/>
</clipPath>
</defs>
</svg>
