<svg width="38" height="38" viewBox="0 0 38 38" fill="none" xmlns="http://www.w3.org/2000/svg">
<path d="M34.7247 29.9354L30.6813 28.7954C30.5254 28.7516 30.4252 28.6188 30.4252 28.4577V27.3949C31.2416 26.485 31.7612 25.1364 31.7612 23.6328C31.7612 23.1466 31.707 22.6687 31.6016 22.2085C31.7471 22.0371 31.8324 21.8166 31.8324 21.5754V19.7511L33.2025 19.3073V22.8557C32.9932 22.9025 32.8173 23.0464 32.7342 23.252L32.2636 24.4165C32.159 24.6748 32.1887 24.9561 32.3445 25.1869C32.5004 25.4177 32.7498 25.5506 33.0281 25.5506H34.2675C34.5459 25.5506 34.7952 25.4177 34.9518 25.1869C35.1077 24.9561 35.1374 24.6748 35.0327 24.4165L34.5622 23.2513C34.4791 23.0464 34.3032 22.9017 34.0939 22.855V18.6957V18.695C34.0939 18.502 33.9692 18.3306 33.7859 18.2712L31.281 17.4593C31.1711 13.5739 29.5992 9.93867 26.8316 7.19035C23.9868 4.36484 20.2113 2.80847 16.2012 2.80847C7.88129 2.80847 1.11328 9.57648 1.11328 17.8949C1.11328 26.2134 7.88129 32.9814 16.1997 32.9814C17.1445 32.9814 18.0856 32.8923 19.0074 32.7186C19.0067 32.7424 19.0059 32.7669 19.0059 32.7914V34.7463C19.0059 34.9919 19.2056 35.1916 19.4512 35.1916H36.4414C36.6871 35.1916 36.8867 34.9919 36.8867 34.7463V32.7914C36.8867 31.448 36.0176 30.3006 34.7247 29.9354ZM30.4393 29.6534L30.8861 29.7796L27.9463 34.013L25.0065 29.7796L25.4533 29.6534C25.5802 29.6178 25.696 29.5636 25.8014 29.4953L27.6858 30.8565C27.7638 30.9129 27.855 30.9411 27.9463 30.9411C28.0376 30.9411 28.1289 30.9129 28.2068 30.8565L30.0912 29.4953C30.1966 29.5636 30.3132 29.6178 30.4393 29.6534ZM29.5739 28.7702L27.9463 29.9458L26.3187 28.7702C26.3439 28.67 26.358 28.5653 26.358 28.4577V28.1371C26.842 28.4266 27.38 28.5891 27.9463 28.5891C28.5134 28.5891 29.0507 28.4266 29.5346 28.1371V28.4577C29.5346 28.5661 29.548 28.6707 29.5739 28.7702ZM27.9463 27.6985C26.3343 27.6985 25.0221 25.8749 25.0221 23.6328C25.0221 23.2825 25.0548 22.9388 25.1179 22.6048C25.9543 22.8023 26.9236 22.9062 27.9456 22.9062C28.9676 22.9062 29.9369 22.8023 30.7733 22.6048C30.8364 22.9388 30.8691 23.2832 30.8691 23.6328C30.8705 25.8742 29.5584 27.6985 27.9463 27.6985ZM30.9411 21.5754C30.9411 21.6177 30.9188 21.6467 30.8787 21.6578C30.0578 21.8879 29.0166 22.0148 27.9463 22.0148C26.8768 22.0148 25.8355 21.8879 25.0139 21.6578C24.9739 21.6467 24.9516 21.617 24.9516 21.5754V20.0398L27.809 20.9661C27.8536 20.9802 27.9003 20.9876 27.9463 20.9876C27.9923 20.9876 28.0391 20.9802 28.0836 20.9661L30.9411 20.0398V21.5754ZM33.1253 24.66L33.5016 23.7285H33.7933L34.1696 24.66H33.1253ZM27.9463 20.0747L23.6891 18.695L27.9463 17.3153L32.2035 18.695L27.9463 20.0747ZM28.0836 16.4232C27.9946 16.3942 27.8981 16.3942 27.809 16.4232L24.8848 17.3709V17.2982C24.8848 17.1824 24.8395 17.0718 24.7594 16.9887L23.7834 15.9801C23.5273 15.7159 23.1533 15.629 22.8074 15.7537L21.2674 16.3096C21.2236 16.3252 21.1924 16.3259 21.1479 16.3133L19.2063 15.7337C19.1366 15.7129 19.095 15.6698 19.0764 15.5993L18.5465 13.5709L19.4097 12.1801C19.4475 12.1185 19.4995 12.0903 19.5715 12.0903H22.0341C22.0875 12.0903 22.1224 12.1036 22.1617 12.1393L23.701 13.5301C23.7686 13.591 23.8532 13.6296 23.943 13.6414L26.5429 13.9747C26.7974 14.0073 27.0364 13.9546 27.2539 13.8188L29.332 12.5178C29.9287 13.9643 30.2924 15.5296 30.3755 17.1668L28.0836 16.4232ZM26.9459 8.64132L26.3914 9.14378C26.3269 9.20242 26.246 9.21132 26.1695 9.16828L23.9393 7.9021C23.8331 7.84199 23.7062 7.82789 23.5889 7.86351L21.3164 8.55746C21.2481 8.57824 21.1909 8.56636 21.1368 8.52035L20.1808 7.70468C20.1059 7.64085 20.091 7.53918 20.1445 7.45679L20.7924 6.4541C20.831 6.39472 20.8814 6.36726 20.9527 6.36726H24.4618C25.3769 7.02558 26.2104 7.79003 26.9459 8.64132ZM12.5222 4.183L13.087 5.28664C13.2488 5.60281 13.5427 5.81285 13.8938 5.86406L15.767 6.13644L16.32 6.37914C16.3764 6.40363 16.4068 6.43777 16.4254 6.49714C16.4439 6.55578 16.438 6.60105 16.4053 6.65375L15.9014 7.47015L13.49 7.99414C13.3854 8.01714 13.2926 8.07652 13.2288 8.16187L11.3844 10.6163L8.81793 11.9634L6.48227 12.3782C5.99465 12.4651 5.63988 12.8822 5.6191 13.3936L5.56715 14.6939C5.56121 14.8393 5.62652 14.9781 5.7423 15.0664L7.35285 16.2918C7.44711 16.363 7.49164 16.4551 7.4909 16.5731L7.47754 17.8719L4.25645 16.2851L2.52492 14.0808C3.86902 9.26773 7.69129 5.4796 12.5222 4.183ZM19.1811 31.7761C18.2066 31.9839 17.2054 32.0907 16.1997 32.0907C8.37188 32.0907 2.00391 25.7228 2.00391 17.8949C2.00391 16.9694 2.09371 16.0654 2.26367 15.1889L3.61891 16.9137C3.66047 16.9664 3.71242 17.0087 3.77254 17.0384L7.71875 18.9822C7.78109 19.0127 7.84863 19.0282 7.91543 19.0282C7.99633 19.0282 8.07723 19.006 8.14848 18.9622C8.2791 18.882 8.35852 18.7403 8.36074 18.5874L8.38227 16.5812C8.38672 16.1797 8.21305 15.8242 7.89316 15.5815L6.46742 14.4972L6.51047 13.4284C6.51344 13.355 6.555 13.2689 6.63961 13.254L9.04355 12.8273C9.08883 12.8191 9.13188 12.8043 9.1727 12.7835L11.8891 11.3577C11.9477 11.3273 11.9982 11.2835 12.0383 11.2308L13.8433 8.8291L16.2769 8.29992C16.3949 8.27394 16.4973 8.20195 16.5612 8.09878L17.1646 7.12207C17.3316 6.85191 17.3716 6.53574 17.2766 6.23218C17.1824 5.92863 16.9701 5.69113 16.6784 5.56347L16.0706 5.29703C16.0342 5.2807 15.9956 5.26957 15.9555 5.26437L14.0229 4.98382C13.9554 4.97417 13.9116 4.943 13.8804 4.88214L13.4158 3.97445C14.3161 3.79484 15.2468 3.69984 16.1997 3.69984C18.6823 3.69984 21.0217 4.34628 23.0583 5.47812H20.9527C20.5786 5.47812 20.2476 5.65847 20.045 5.97242L19.3971 6.97511C19.1039 7.42859 19.193 8.03421 19.6034 8.38453L20.5593 9.20019C20.8458 9.44437 21.2169 9.52156 21.5769 9.41171L23.6661 8.77343L25.7294 9.94535C25.9001 10.0426 26.0842 10.0901 26.2668 10.0901C26.5265 10.0901 26.7826 9.99359 26.9889 9.80656L27.507 9.33675C28.0658 10.0723 28.5549 10.8627 28.9639 11.6991L26.7811 13.0655C26.7388 13.0922 26.7061 13.0996 26.6557 13.093L24.1953 12.7753L22.7599 11.478C22.558 11.2954 22.3072 11.1989 22.0348 11.1989H19.5722C19.19 11.1989 18.8553 11.3852 18.6534 11.7095L17.6893 13.2629C17.6247 13.3668 17.6062 13.4923 17.6366 13.6103L18.2148 15.8235C18.3127 16.1975 18.5807 16.4751 18.951 16.5857L20.8926 17.1653C21.1189 17.2329 21.3468 17.2262 21.5687 17.1461L23.1087 16.5902C23.1243 16.5842 23.1303 16.5857 23.1421 16.5976L23.9927 17.4771V17.6582L22.1068 18.2697C21.9235 18.3291 21.7988 18.5005 21.7988 18.6935C21.7988 18.8865 21.9235 19.0579 22.1068 19.1173L24.0595 19.7504V21.5747C24.0595 21.8152 24.1448 22.0363 24.2903 22.2078C24.1849 22.6679 24.1307 23.1459 24.1307 23.632C24.1307 25.1357 24.6495 26.485 25.4667 27.3942V28.457C25.4667 28.6188 25.3665 28.7509 25.2106 28.7947L21.1672 29.9347C20.2179 30.2034 19.4965 30.8951 19.1811 31.7761ZM19.8966 32.7914C19.8966 31.851 20.5044 31.048 21.4099 30.7927L24.0996 30.0341L27.0616 34.3002H19.8966V32.7914ZM35.9961 34.301H28.831L31.7931 30.0349L34.4828 30.7927C35.3875 31.048 35.9961 31.851 35.9961 32.7914V34.301ZM19.8223 20.9839H18.9228L18.1383 19.7311C17.9765 19.4736 17.7101 19.3259 17.4058 19.3259H15.5421C15.5065 19.3259 15.488 19.3184 15.462 19.2925L14.1936 18.027C13.919 17.7532 13.5063 17.6945 13.1664 17.8816L10.8708 19.1455C10.5903 19.2999 10.4233 19.5827 10.4233 19.9025V21.9517C10.4233 22.2278 10.5443 22.4727 10.7647 22.6397L12.7404 24.1412V26.0976C12.7404 26.1458 12.7478 26.1933 12.7634 26.2386L13.7223 29.1057C13.8359 29.4463 14.0852 29.7002 14.4237 29.8204L15.0612 30.0475C15.1725 30.0876 15.2876 30.1069 15.4011 30.1069C15.6023 30.1069 15.8004 30.0453 15.9726 29.925C16.242 29.7365 16.3986 29.4404 16.4016 29.1116L16.4187 27.2814L18.0263 26.5295C18.433 26.3395 18.6853 25.9425 18.6853 25.4942V24.6325C18.6853 24.5805 18.7113 24.5434 18.7603 24.5256L19.6999 24.1909C20.0302 24.0729 20.2647 23.8094 20.3419 23.4673L20.6647 22.0393C20.7241 21.778 20.6647 21.5183 20.497 21.309C20.33 21.0989 20.0903 20.9839 19.8223 20.9839ZM19.4735 23.2706C19.4639 23.3136 19.4431 23.3374 19.4008 23.3522L18.4612 23.6869C18.0559 23.8317 17.7947 24.2028 17.7947 24.6325V25.4942C17.7947 25.5996 17.7442 25.6782 17.6492 25.7228L15.7878 26.5934C15.6327 26.6661 15.5325 26.8212 15.531 26.9927L15.5117 29.1027C15.5117 29.145 15.4984 29.1702 15.4635 29.194C15.4286 29.2185 15.4011 29.2222 15.3611 29.2081L14.7228 28.981C14.6426 28.9528 14.5951 28.9038 14.5677 28.8229L13.6318 26.0248V24.1278C13.6318 23.8517 13.5108 23.6068 13.2904 23.4398L11.3146 21.9384V19.9181L13.5791 18.6712L14.8334 19.9226C15.0256 20.1141 15.2705 20.2157 15.5421 20.2157H17.3909L18.1754 21.4686C18.3365 21.7261 18.6037 21.8745 18.908 21.8745H19.7889L19.4735 23.2706Z" fill="black"/>
</svg>
