<svg width="37" height="37" viewBox="0 0 37 37" fill="none" xmlns="http://www.w3.org/2000/svg">
<path d="M23.6215 12.6616H13.3887C12.9898 12.6616 12.666 12.9854 12.666 13.3843V23.6171C12.666 24.016 12.9898 24.3397 13.3887 24.3397H23.6215C24.0204 24.3397 24.3441 24.016 24.3441 23.6171V13.3843C24.3441 12.9854 24.0204 12.6616 23.6215 12.6616ZM22.8988 22.8944H14.1113V14.1069H22.8988V22.8944Z" fill="black"/>
<path d="M34.6953 14.2106C35.0942 14.2106 35.418 13.8869 35.418 13.488V10.7245C35.418 10.3256 35.0942 10.0019 34.6953 10.0019H29.9258V7.79924C29.9258 7.40033 29.602 7.07658 29.2031 7.07658H26.9947V2.30127C26.9947 1.90236 26.6709 1.57861 26.272 1.57861H23.5086C23.1097 1.57861 22.7859 1.90236 22.7859 2.30127V7.08236H20.6006V2.30127C20.6006 1.90236 20.2769 1.57861 19.878 1.57861H17.1145C16.7156 1.57861 16.3919 1.90236 16.3919 2.30127V7.08236H14.2297V2.30127C14.2297 1.90236 13.9059 1.57861 13.507 1.57861H10.7436C10.3447 1.57861 10.0209 1.90236 10.0209 2.30127V7.08236H7.8125C7.41359 7.08236 7.08984 7.40611 7.08984 7.80502V10.0077H2.32031C1.92141 10.0077 1.59766 10.3314 1.59766 10.7303V13.4938C1.59766 13.8927 1.92141 14.2164 2.32031 14.2164H7.08984V16.4017H2.32031C1.92141 16.4017 1.59766 16.7255 1.59766 17.1244V19.8878C1.59766 20.2867 1.92141 20.6105 2.32031 20.6105H7.08984V22.7727H2.32031C1.92141 22.7727 1.59766 23.0964 1.59766 23.4953V26.2588C1.59766 26.6577 1.92141 26.9814 2.32031 26.9814H7.08984V29.2014C7.08984 29.6003 7.41359 29.9241 7.8125 29.9241H10.0209V34.682C10.0209 35.0809 10.3447 35.4047 10.7436 35.4047H13.507C13.9059 35.4047 14.2297 35.0809 14.2297 34.682V29.9241H16.3919V34.682C16.3919 35.0809 16.7156 35.4047 17.1145 35.4047H19.878C20.2769 35.4047 20.6006 35.0809 20.6006 34.682V29.9241H22.7859V34.682C22.7859 35.0809 23.1097 35.4047 23.5086 35.4047H26.272C26.6709 35.4047 26.9947 35.0809 26.9947 34.682V29.9241H29.2031C29.602 29.9241 29.9258 29.6003 29.9258 29.2014V26.9814H34.6953C35.0942 26.9814 35.418 26.6577 35.418 26.2588V23.4953C35.418 23.0964 35.0942 22.7727 34.6953 22.7727H29.9258V20.6105H34.6953C35.0942 20.6105 35.418 20.2867 35.418 19.8878V17.1244C35.418 16.7255 35.0942 16.4017 34.6953 16.4017H29.9258V14.2164H34.6953V14.2106ZM24.2312 3.02393H25.5494V7.0708H24.2312V3.02393ZM17.8372 3.02393H19.1553V7.0708H17.8372V3.02393ZM11.4662 3.02393H12.7844V7.0708H11.4662V3.02393ZM33.9726 11.4472V12.7653H29.9258V11.4472H33.9726ZM3.04297 12.7653V11.4472H7.08984V12.7653H3.04297ZM3.04297 19.1594V17.8413H7.08984V19.1594H3.04297ZM3.04297 25.5303V24.2122H7.08984V25.5303H3.04297ZM12.7844 33.9536H11.4662V29.9183H12.7844V33.9536ZM19.1553 33.9536H17.8372V29.9183H19.1553V33.9536ZM25.5494 33.9536H24.2312V29.9183H25.5494V33.9536ZM28.4805 28.473H8.53515V8.52767H28.4805V28.473ZM33.9726 24.2122V25.5303H29.9258V24.2122H33.9726ZM33.9726 17.8413V19.1594H29.9258V17.8413H33.9726Z" fill="black"/>
</svg>
