<svg width="34" height="34" viewBox="0 0 34 34" fill="none" xmlns="http://www.w3.org/2000/svg">
<g clip-path="url(#clip0_138_3154)">
<path d="M26.4644 6.19397H7.31953C7.02085 6.19397 6.7344 6.31262 6.52321 6.52382C6.31201 6.73501 6.19336 7.02146 6.19336 7.32014V26.465C6.19336 26.7637 6.31201 27.0501 6.52321 27.2613C6.7344 27.4725 7.02085 27.5912 7.31953 27.5912H26.4644C26.7631 27.5912 27.0495 27.4725 27.2607 27.2613C27.4719 27.0501 27.5906 26.7637 27.5906 26.465V7.32014C27.5906 7.02146 27.4719 6.73501 27.2607 6.52382C27.0495 6.31262 26.7631 6.19397 26.4644 6.19397ZM26.4644 26.465H7.31953V7.32014H26.4644V26.465Z" fill="black"/>
<path d="M32.0958 9.57243C32.5438 9.57243 32.9735 9.39445 33.2903 9.07766C33.6071 8.76086 33.785 8.33119 33.785 7.88318C33.785 7.43516 33.6071 7.00549 33.2903 6.68869C32.9735 6.3719 32.5438 6.19392 32.0958 6.19392H29.7871C29.6757 5.65335 29.4083 5.15727 29.0181 4.76699C28.6278 4.37671 28.1317 4.10933 27.5911 3.9979V1.68925C27.5911 1.24123 27.4131 0.811567 27.0963 0.49477C26.7795 0.177974 26.3499 0 25.9019 0C25.4538 0 25.0242 0.177974 24.7074 0.49477C24.3906 0.811567 24.2126 1.24123 24.2126 1.68925V3.94159H23.0864V1.68925C23.0864 1.24123 22.9085 0.811567 22.5917 0.49477C22.2749 0.177974 21.8452 0 21.3972 0C20.9492 0 20.5195 0.177974 20.2027 0.49477C19.8859 0.811567 19.7079 1.24123 19.7079 1.68925V3.94159H18.5818V1.68925C18.5818 1.24123 18.4038 0.811567 18.087 0.49477C17.7702 0.177974 17.3405 0 16.8925 0C16.4445 0 16.0148 0.177974 15.698 0.49477C15.3812 0.811567 15.2033 1.24123 15.2033 1.68925V3.94159H14.0771V1.68925C14.0771 1.24123 13.8991 0.811567 13.5823 0.49477C13.2655 0.177974 12.8359 5.03436e-08 12.3878 5.03436e-08C11.9398 5.03436e-08 11.5102 0.177974 11.1934 0.49477C10.8766 0.811567 10.6986 1.24123 10.6986 1.68925V3.94159H9.57243V1.68925C9.57243 1.24123 9.39445 0.811567 9.07766 0.49477C8.76086 0.177974 8.33119 3.55983e-08 7.88318 3.55983e-08C7.43516 3.55983e-08 7.00549 0.177974 6.68869 0.49477C6.3719 0.811567 6.19392 1.24123 6.19392 1.68925V3.9979C5.65335 4.10933 5.15727 4.37671 4.76699 4.76699C4.37671 5.15727 4.10933 5.65335 3.9979 6.19392H1.68925C1.24123 6.19392 0.811567 6.3719 0.49477 6.68869C0.177974 7.00549 3.55983e-08 7.43516 3.55983e-08 7.88318C3.55983e-08 8.33119 0.177974 8.76086 0.49477 9.07766C0.811567 9.39445 1.24123 9.57243 1.68925 9.57243H3.94159V10.6986H1.68925C1.24123 10.6986 0.811567 10.8766 0.49477 11.1934C0.177974 11.5102 5.03436e-08 11.9398 5.03436e-08 12.3878C5.03436e-08 12.8359 0.177974 13.2655 0.49477 13.5823C0.811567 13.8991 1.24123 14.0771 1.68925 14.0771H3.94159V15.2033H1.68925C1.24123 15.2033 0.811567 15.3812 0.49477 15.698C0.177974 16.0148 0 16.4445 0 16.8925C0 17.3405 0.177974 17.7702 0.49477 18.087C0.811567 18.4038 1.24123 18.5818 1.68925 18.5818H3.94159V19.7079H1.68925C1.24123 19.7079 0.811567 19.8859 0.49477 20.2027C0.177974 20.5195 0 20.9492 0 21.3972C0 21.8452 0.177974 22.2749 0.49477 22.5917C0.811567 22.9085 1.24123 23.0864 1.68925 23.0864H3.94159V24.2126H1.68925C1.24123 24.2126 0.811567 24.3906 0.49477 24.7074C0.177974 25.0242 0 25.4538 0 25.9019C0 26.3499 0.177974 26.7795 0.49477 27.0963C0.811567 27.4131 1.24123 27.5911 1.68925 27.5911H3.9979C4.10933 28.1317 4.37671 28.6278 4.76699 29.0181C5.15727 29.4083 5.65335 29.6757 6.19392 29.7871V32.0958C6.19392 32.5438 6.3719 32.9735 6.68869 33.2903C7.00549 33.6071 7.43516 33.785 7.88318 33.785C8.33119 33.785 8.76086 33.6071 9.07766 33.2903C9.39445 32.9735 9.57243 32.5438 9.57243 32.0958V29.8435H10.6986V32.0958C10.6986 32.5438 10.8766 32.9735 11.1934 33.2903C11.5102 33.6071 11.9398 33.785 12.3878 33.785C12.8359 33.785 13.2655 33.6071 13.5823 33.2903C13.8991 32.9735 14.0771 32.5438 14.0771 32.0958V29.8435H15.2033V32.0958C15.2033 32.5438 15.3812 32.9735 15.698 33.2903C16.0148 33.6071 16.4445 33.785 16.8925 33.785C17.3405 33.785 17.7702 33.6071 18.087 33.2903C18.4038 32.9735 18.5818 32.5438 18.5818 32.0958V29.8435H19.7079V32.0958C19.7079 32.5438 19.8859 32.9735 20.2027 33.2903C20.5195 33.6071 20.9492 33.785 21.3972 33.785C21.8452 33.785 22.2749 33.6071 22.5917 33.2903C22.9085 32.9735 23.0864 32.5438 23.0864 32.0958V29.8435H24.2126V32.0958C24.2126 32.5438 24.3906 32.9735 24.7074 33.2903C25.0242 33.6071 25.4538 33.785 25.9019 33.785C26.3499 33.785 26.7795 33.6071 27.0963 33.2903C27.4131 32.9735 27.5911 32.5438 27.5911 32.0958V29.7871C28.1317 29.6757 28.6278 29.4083 29.0181 29.0181C29.4083 28.6278 29.6757 28.1317 29.7871 27.5911H32.0958C32.5438 27.5911 32.9735 27.4131 33.2903 27.0963C33.6071 26.7795 33.785 26.3499 33.785 25.9019C33.785 25.4538 33.6071 25.0242 33.2903 24.7074C32.9735 24.3906 32.5438 24.2126 32.0958 24.2126H29.8435V23.0864H32.0958C32.5438 23.0864 32.9735 22.9085 33.2903 22.5917C33.6071 22.2749 33.785 21.8452 33.785 21.3972C33.785 20.9492 33.6071 20.5195 33.2903 20.2027C32.9735 19.8859 32.5438 19.7079 32.0958 19.7079H29.8435V18.5818H32.0958C32.5438 18.5818 32.9735 18.4038 33.2903 18.087C33.6071 17.7702 33.785 17.3405 33.785 16.8925C33.785 16.4445 33.6071 16.0148 33.2903 15.698C32.9735 15.3812 32.5438 15.2033 32.0958 15.2033H29.8435V14.0771H32.0958C32.5438 14.0771 32.9735 13.8991 33.2903 13.5823C33.6071 13.2655 33.785 12.8359 33.785 12.3878C33.785 11.9398 33.6071 11.5102 33.2903 11.1934C32.9735 10.8766 32.5438 10.6986 32.0958 10.6986H29.8435V9.57243H32.0958ZM1.68925 8.44626C1.53991 8.44626 1.39669 8.38694 1.29109 8.28134C1.18549 8.17574 1.12617 8.03252 1.12617 7.88318C1.12617 7.73384 1.18549 7.59061 1.29109 7.48502C1.39669 7.37942 1.53991 7.32009 1.68925 7.32009H3.94159V8.44626H1.68925ZM1.68925 12.9509C1.53991 12.9509 1.39669 12.8916 1.29109 12.786C1.18549 12.6804 1.12617 12.5372 1.12617 12.3878C1.12617 12.2385 1.18549 12.0953 1.29109 11.9897C1.39669 11.8841 1.53991 11.8248 1.68925 11.8248H3.94159V12.9509H1.68925ZM1.68925 17.4556C1.53991 17.4556 1.39669 17.3963 1.29109 17.2907C1.18549 17.1851 1.12617 17.0419 1.12617 16.8925C1.12617 16.7432 1.18549 16.6 1.29109 16.4944C1.39669 16.3888 1.53991 16.3294 1.68925 16.3294H3.94159V17.4556H1.68925ZM1.68925 21.9603C1.53991 21.9603 1.39669 21.901 1.29109 21.7954C1.18549 21.6898 1.12617 21.5465 1.12617 21.3972C1.12617 21.2479 1.18549 21.1046 1.29109 20.999C1.39669 20.8934 1.53991 20.8341 1.68925 20.8341H3.94159V21.9603H1.68925ZM1.12617 25.9019C1.12617 25.7525 1.18549 25.6093 1.29109 25.5037C1.39669 25.3981 1.53991 25.3388 1.68925 25.3388H3.94159V26.4649H1.68925C1.53991 26.4649 1.39669 26.4056 1.29109 26.3C1.18549 26.1944 1.12617 26.0512 1.12617 25.9019ZM25.3388 1.68925C25.3388 1.53991 25.3981 1.39669 25.5037 1.29109C25.6093 1.18549 25.7525 1.12617 25.9019 1.12617C26.0512 1.12617 26.1944 1.18549 26.3 1.29109C26.4056 1.39669 26.4649 1.53991 26.4649 1.68925V3.94159H25.3388V1.68925ZM20.8341 1.68925C20.8341 1.53991 20.8934 1.39669 20.999 1.29109C21.1046 1.18549 21.2479 1.12617 21.3972 1.12617C21.5465 1.12617 21.6898 1.18549 21.7954 1.29109C21.901 1.39669 21.9603 1.53991 21.9603 1.68925V3.94159H20.8341V1.68925ZM16.3294 1.68925C16.3294 1.53991 16.3888 1.39669 16.4944 1.29109C16.6 1.18549 16.7432 1.12617 16.8925 1.12617C17.0419 1.12617 17.1851 1.18549 17.2907 1.29109C17.3963 1.39669 17.4556 1.53991 17.4556 1.68925V3.94159H16.3294V1.68925ZM11.8248 1.68925C11.8248 1.53991 11.8841 1.39669 11.9897 1.29109C12.0953 1.18549 12.2385 1.12617 12.3878 1.12617C12.5372 1.12617 12.6804 1.18549 12.786 1.29109C12.8916 1.39669 12.9509 1.53991 12.9509 1.68925V3.94159H11.8248V1.68925ZM7.88318 1.12617C8.03252 1.12617 8.17574 1.18549 8.28134 1.29109C8.38694 1.39669 8.44626 1.53991 8.44626 1.68925V3.94159H7.32009V1.68925C7.32009 1.53991 7.37942 1.39669 7.48502 1.29109C7.59061 1.18549 7.73384 1.12617 7.88318 1.12617ZM8.44626 32.0958C8.44626 32.2451 8.38694 32.3884 8.28134 32.4939C8.17574 32.5995 8.03252 32.6589 7.88318 32.6589C7.73384 32.6589 7.59061 32.5995 7.48502 32.4939C7.37942 32.3884 7.32009 32.2451 7.32009 32.0958V29.8435H8.44626V32.0958ZM12.9509 32.0958C12.9509 32.2451 12.8916 32.3884 12.786 32.4939C12.6804 32.5995 12.5372 32.6589 12.3878 32.6589C12.2385 32.6589 12.0953 32.5995 11.9897 32.4939C11.8841 32.3884 11.8248 32.2451 11.8248 32.0958V29.8435H12.9509V32.0958ZM17.4556 32.0958C17.4556 32.2451 17.3963 32.3884 17.2907 32.4939C17.1851 32.5995 17.0419 32.6589 16.8925 32.6589C16.7432 32.6589 16.6 32.5995 16.4944 32.4939C16.3888 32.3884 16.3294 32.2451 16.3294 32.0958V29.8435H17.4556V32.0958ZM21.9603 32.0958C21.9603 32.2451 21.901 32.3884 21.7954 32.4939C21.6898 32.5995 21.5465 32.6589 21.3972 32.6589C21.2479 32.6589 21.1046 32.5995 20.999 32.4939C20.8934 32.3884 20.8341 32.2451 20.8341 32.0958V29.8435H21.9603V32.0958ZM25.9019 32.6589C25.7525 32.6589 25.6093 32.5995 25.5037 32.4939C25.3981 32.3884 25.3388 32.2451 25.3388 32.0958V29.8435H26.4649V32.0958C26.4649 32.2451 26.4056 32.3884 26.3 32.4939C26.1944 32.5995 26.0512 32.6589 25.9019 32.6589ZM28.7173 27.028C28.7173 27.476 28.5393 27.9057 28.2225 28.2225C27.9057 28.5393 27.476 28.7173 27.028 28.7173H6.75701C6.30899 28.7173 5.87932 28.5393 5.56253 28.2225C5.24573 27.9057 5.06776 27.476 5.06776 27.028V6.75701C5.06776 6.30899 5.24573 5.87932 5.56253 5.56253C5.87932 5.24573 6.30899 5.06776 6.75701 5.06776H27.028C27.476 5.06776 27.9057 5.24573 28.2225 5.56253C28.5393 5.87932 28.7173 6.30899 28.7173 6.75701V27.028ZM32.6589 7.88318C32.6589 8.03252 32.5995 8.17574 32.4939 8.28134C32.3884 8.38694 32.2451 8.44626 32.0958 8.44626H29.8435V7.32009H32.0958C32.2451 7.32009 32.3884 7.37942 32.4939 7.48502C32.5995 7.59061 32.6589 7.73384 32.6589 7.88318ZM32.0958 25.3388C32.2451 25.3388 32.3884 25.3981 32.4939 25.5037C32.5995 25.6093 32.6589 25.7525 32.6589 25.9019C32.6589 26.0512 32.5995 26.1944 32.4939 26.3C32.3884 26.4056 32.2451 26.4649 32.0958 26.4649H29.8435V25.3388H32.0958ZM32.0958 20.8341C32.2451 20.8341 32.3884 20.8934 32.4939 20.999C32.5995 21.1046 32.6589 21.2479 32.6589 21.3972C32.6589 21.5465 32.5995 21.6898 32.4939 21.7954C32.3884 21.901 32.2451 21.9603 32.0958 21.9603H29.8435V20.8341H32.0958ZM32.0958 16.3294C32.2451 16.3294 32.3884 16.3888 32.4939 16.4944C32.5995 16.6 32.6589 16.7432 32.6589 16.8925C32.6589 17.0419 32.5995 17.1851 32.4939 17.2907C32.3884 17.3963 32.2451 17.4556 32.0958 17.4556H29.8435V16.3294H32.0958ZM32.0958 11.8248C32.2451 11.8248 32.3884 11.8841 32.4939 11.9897C32.5995 12.0953 32.6589 12.2385 32.6589 12.3878C32.6589 12.5372 32.5995 12.6804 32.4939 12.786C32.3884 12.8916 32.2451 12.9509 32.0958 12.9509H29.8435V11.8248H32.0958Z" fill="black"/>
<path d="M16.8931 24.7758C19.971 24.7758 23.0871 23.9053 23.0871 22.2419V12.1064C23.0871 10.443 19.971 9.57251 16.8931 9.57251C13.8153 9.57251 10.6992 10.443 10.6992 12.1064V22.2419C10.6992 23.9053 13.8153 24.7758 16.8931 24.7758ZM16.8931 23.6496C13.7494 23.6496 11.8254 22.7385 11.8254 22.2419V20.3837C13.0079 21.0538 14.9567 21.3973 16.8931 21.3973C18.8296 21.3973 20.7784 21.0521 21.9609 20.3837V22.2419C21.9609 22.7385 20.0368 23.6496 16.8931 23.6496ZM16.8931 10.6987C20.0368 10.6987 21.9609 11.6097 21.9609 12.1064C21.9609 12.603 20.0368 13.5141 16.8931 13.5141C13.7494 13.5141 11.8254 12.603 11.8254 12.1064C11.8254 11.6097 13.7494 10.6987 16.8931 10.6987ZM11.8254 13.6267C13.0079 14.2968 14.9567 14.6403 16.8931 14.6403C18.8296 14.6403 20.7784 14.2951 21.9609 13.6267V15.4849C21.9609 15.9815 20.0368 16.8926 16.8931 16.8926C13.7494 16.8926 11.8254 15.9815 11.8254 15.4849V13.6267ZM11.8254 17.0052C13.0079 17.6753 14.9567 18.0188 16.8931 18.0188C18.8296 18.0188 20.7784 17.6736 21.9609 17.0052V18.8634C21.9609 19.36 20.0368 20.2711 16.8931 20.2711C13.7494 20.2711 11.8254 19.36 11.8254 18.8634V17.0052Z" fill="black"/>
</g>
<defs>
<clipPath id="clip0_138_3154">
<rect width="33.785" height="33.785" fill="white"/>
</clipPath>
</defs>
</svg>
