<svg width="41" height="41" viewBox="0 0 41 41" fill="none" xmlns="http://www.w3.org/2000/svg">
<path fill-rule="evenodd" clip-rule="evenodd" d="M1.9401 15.5987C1.10667 14.8405 0.5625 13.9007 0.5625 12.7125V7.20208C0.5625 6.20988 1.37261 5.40266 2.36481 5.40266H9.97272V3.62841C9.97272 1.94379 11.3514 0.565063 13.0361 0.565063H20.2533C21.9379 0.565063 23.3166 1.94379 23.3166 3.62841V5.40266H30.9245C31.9167 5.40266 32.7268 6.20988 32.7268 7.20208V12.7125C32.7268 13.9007 32.1827 14.8405 31.3492 15.5987V19.3925C32.5931 20.9393 33.3376 22.9049 33.3376 25.0444C33.3376 26.7726 32.8518 28.3873 32.0095 29.7595L33.8689 31.5638C34.3757 31.345 34.9889 31.4366 35.4079 31.8433L40.0113 36.3103C40.5659 36.8485 40.5795 37.7426 40.0412 38.2972L38.3792 40.01C37.841 40.5647 36.9469 40.578 36.3922 40.04L31.7888 35.573C31.3551 35.1523 31.2523 34.5136 31.4854 33.99L29.7166 32.2736C28.21 33.4018 26.339 34.0701 24.3119 34.0701C20.5002 34.0701 17.2403 31.7073 15.9172 28.3665H4.8433C3.24583 28.3665 1.9401 27.0571 1.9401 25.4633V15.5987ZM11.259 5.40266H22.0303V3.62841C22.0303 2.65116 21.2305 1.85134 20.2533 1.85134H13.0361C12.0588 1.85134 11.259 2.65116 11.259 3.62841V5.40266ZM30.063 16.5213C29.6646 16.7437 29.1979 16.9505 28.6727 17.1402C29.1663 17.4131 29.6315 17.7308 30.063 18.088V16.5213ZM26.7966 16.365C27.981 16.0656 28.9676 15.7035 29.6598 15.2653C29.8842 15.1227 30.0983 14.9725 30.2963 14.8089C30.2969 14.8084 30.2975 14.8079 30.2981 14.8074C30.9586 14.2653 31.4406 13.6003 31.4406 12.7125V7.20208C31.4406 6.91854 31.2081 6.68894 30.9245 6.68894H25.3496V9.81161C25.3496 10.9635 24.4079 11.9052 23.256 11.9052H10.0333C8.88148 11.9052 7.93977 10.9635 7.93977 9.81161V6.68894H2.36481C2.08127 6.68894 1.84877 6.91854 1.84877 7.20208V12.7125C1.84877 13.6003 2.33073 14.2653 2.99123 14.8074C2.99187 14.8079 2.99243 14.8084 2.993 14.8089C3.191 14.9725 3.40501 15.1226 3.62938 15.2652C5.43097 16.4046 9.18552 17.0634 13.3337 17.2964C13.7942 15.9118 15.0996 14.909 16.6447 14.909C18.14 14.909 19.4105 15.8484 19.9085 17.1639C21.211 16.4345 22.7129 16.0187 24.3119 16.0187C25.1736 16.0187 26.0072 16.1394 26.7966 16.365ZM24.0633 6.68894H9.22604V9.81161C9.22604 10.2558 9.58917 10.6189 10.0333 10.6189H23.256C23.7002 10.6189 24.0633 10.2558 24.0633 9.81161V6.68894ZM13.1604 18.5745C8.9929 18.3295 5.21978 17.6269 3.22637 16.5207V25.4633C3.22637 26.3509 3.9536 27.0802 4.8433 27.0802H15.5166C15.3658 26.4259 15.2861 25.7445 15.2861 25.0444C15.2861 23.9022 15.4983 22.8094 15.8854 21.8035C14.3785 21.4698 13.2396 20.1628 13.1604 18.5745ZM31.2512 30.8161C31.0743 31.0285 30.8878 31.2327 30.6924 31.4281L32.3201 33.0076L32.897 32.4131L31.2512 30.8161ZM16.4588 20.5923C17.0519 19.5483 17.8471 18.6342 18.7913 17.9033C18.5674 16.927 17.6934 16.1953 16.6447 16.1953C15.4252 16.1953 14.4423 17.1849 14.4423 18.3977C14.4423 19.5522 15.3287 20.4981 16.4588 20.5923ZM24.3119 17.305C20.0374 17.305 16.5724 20.77 16.5724 25.0444C16.5724 29.3188 20.0374 32.7838 24.3119 32.7838C28.5862 32.7838 32.0513 29.3188 32.0513 25.0444C32.0513 20.77 28.5862 17.305 24.3119 17.305ZM24.3118 17.9854C28.2104 17.9854 31.3708 21.1459 31.3708 25.0444C31.3708 28.9429 28.2104 32.1033 24.3118 32.1033C20.4133 32.1033 17.2529 28.9429 17.2529 25.0444C17.2529 21.1459 20.4133 17.9854 24.3118 17.9854ZM24.3118 19.2717C21.1237 19.2717 18.5392 21.8562 18.5392 25.0444C18.5392 28.2325 21.1237 30.817 24.3118 30.817C27.5 30.817 30.0845 28.2325 30.0845 25.0444C30.0845 21.8562 27.5 19.2717 24.3118 19.2717ZM37.4561 39.1143L39.1181 37.4015C39.1637 37.3545 39.1624 37.2789 39.1155 37.2333L34.5122 32.7664C34.4652 32.7209 34.3895 32.722 34.344 32.769L32.682 34.4817C32.6365 34.5287 32.6376 34.6043 32.6846 34.6499L37.2878 39.1167C37.3348 39.1623 37.4105 39.1613 37.4561 39.1143Z" fill="black"/>
</svg>
