<svg width="32" height="32" viewBox="0 0 32 32" fill="none" xmlns="http://www.w3.org/2000/svg">
<g clip-path="url(#clip0_138_2829)">
<mask id="mask0_138_2829" style="mask-type:luminance" maskUnits="userSpaceOnUse" x="0" y="0" width="32" height="32">
<path d="M0 0.00018692H31.3333V31.3335H0V0.00018692Z" fill="white"/>
</mask>
<g mask="url(#mask0_138_2829)">
<path d="M5.45703 6.05023C5.97464 5.45784 6.53925 4.90803 7.14499 4.40664" stroke="black" stroke-width="0.917968" stroke-miterlimit="10" stroke-linecap="round" stroke-linejoin="round"/>
<path d="M2.22656 12.3704C2.59198 10.7815 3.21583 9.29199 4.05112 7.949" stroke="black" stroke-width="0.917968" stroke-miterlimit="10" stroke-linecap="round" stroke-linejoin="round"/>
<path d="M7.05533 26.8508C3.87683 24.1761 1.85547 20.1586 1.85547 15.6666C1.85547 15.496 1.85841 15.326 1.86416 15.1569" stroke="black" stroke-width="0.917968" stroke-miterlimit="10" stroke-linecap="round" stroke-linejoin="round"/>
<path d="M23.3946 28.4245C21.3117 29.5862 18.9144 30.2477 16.3634 30.2477C13.821 30.2477 11.4314 29.5907 9.35352 28.4363" stroke="black" stroke-width="0.917968" stroke-miterlimit="10" stroke-linecap="round" stroke-linejoin="round"/>
<path d="M28.6671 7.9338C30.0652 10.1753 30.8735 12.8261 30.8735 15.6667C30.8735 20.1521 28.858 24.1645 25.6875 26.8392" stroke="black" stroke-width="0.917968" stroke-miterlimit="10" stroke-linecap="round" stroke-linejoin="round"/>
<path d="M25.4551 4.30148C25.992 4.73574 26.4976 5.2077 26.9678 5.71326" stroke="black" stroke-width="0.917968" stroke-miterlimit="10" stroke-linecap="round" stroke-linejoin="round"/>
<path d="M9.44531 2.84717C11.5019 1.72388 13.8591 1.08577 16.3645 1.08577C18.8056 1.08577 21.106 1.69157 23.1248 2.76167" stroke="black" stroke-width="0.917968" stroke-miterlimit="10" stroke-linecap="round" stroke-linejoin="round"/>
<path d="M17.5801 6.18298C19.2144 5.16594 21.0147 4.36657 22.9494 3.83298" stroke="black" stroke-width="0.917968" stroke-miterlimit="10" stroke-linecap="round" stroke-linejoin="round"/>
<path d="M11.6348 11.8052C12.6802 10.3216 13.9204 8.97484 15.3276 7.80724" stroke="black" stroke-width="0.917968" stroke-miterlimit="10" stroke-linecap="round" stroke-linejoin="round"/>
<path d="M8.00566 26.2427C7.48334 21.9723 8.30914 17.8041 10.1745 14.2071" stroke="black" stroke-width="0.917968" stroke-miterlimit="10" stroke-linecap="round" stroke-linejoin="round"/>
<path d="M15.15 6.18286C13.4604 5.13142 11.5935 4.31265 9.58398 3.77962" stroke="black" stroke-width="0.917968" stroke-miterlimit="10" stroke-linecap="round" stroke-linejoin="round"/>
<path d="M23.089 15.3167C21.7982 12.4191 19.8536 9.84134 17.4023 7.80737" stroke="black" stroke-width="0.917968" stroke-miterlimit="10" stroke-linecap="round" stroke-linejoin="round"/>
<path d="M24.6578 20.7037C24.52 19.772 24.3182 18.8499 24.0547 17.9457" stroke="black" stroke-width="0.917968" stroke-miterlimit="10" stroke-linecap="round" stroke-linejoin="round"/>
<path d="M24.7148 26.3122C24.8362 25.3455 24.8902 24.3704 24.8751 23.3962" stroke="black" stroke-width="0.917968" stroke-miterlimit="10" stroke-linecap="round" stroke-linejoin="round"/>
<path d="M9.5396 12.7141C7.44933 12.7035 5.32754 12.9277 3.20703 13.4062" stroke="black" stroke-width="0.917968" stroke-miterlimit="10" stroke-linecap="round" stroke-linejoin="round"/>
<path d="M22.408 15.9273C19.2961 14.2959 15.8771 13.2428 12.3203 12.8675" stroke="black" stroke-width="0.917968" stroke-miterlimit="10" stroke-linecap="round" stroke-linejoin="round"/>
<path d="M29.704 21.4147C28.2266 19.872 26.5844 18.508 24.8145 17.3443" stroke="black" stroke-width="0.917968" stroke-miterlimit="10" stroke-linecap="round" stroke-linejoin="round"/>
<path d="M24.3223 15.3972C25.691 13.1938 26.7702 10.7794 27.5011 8.20224" stroke="black" stroke-width="0.917968" stroke-miterlimit="10" stroke-linecap="round" stroke-linejoin="round"/>
<path d="M9.53906 27.2089C14.7848 25.3997 19.3753 22.0687 22.7353 17.6905" stroke="black" stroke-width="0.917968" stroke-miterlimit="10" stroke-linecap="round" stroke-linejoin="round"/>
<path d="M16.3641 8.27319C15.5947 8.27319 14.9688 7.6442 14.9688 6.87097C14.9688 6.09779 15.5947 5.4688 16.3641 5.4688C17.1336 5.4688 17.7595 6.09779 17.7595 6.87097C17.7595 7.6442 17.1336 8.27319 16.3641 8.27319Z" stroke="black" stroke-width="0.917968" stroke-miterlimit="10" stroke-linecap="round" stroke-linejoin="round"/>
<path d="M10.9344 14.4342C10.165 14.4342 9.53906 13.8052 9.53906 13.032C9.53906 12.2588 10.165 11.6298 10.9344 11.6298C11.7039 11.6298 12.3298 12.2588 12.3298 13.032C12.3298 13.8052 11.7039 14.4342 10.9344 14.4342Z" stroke="black" stroke-width="0.917968" stroke-miterlimit="10" stroke-linecap="round" stroke-linejoin="round"/>
<path d="M23.6258 18.0134C22.8564 18.0134 22.2305 17.3844 22.2305 16.6112C22.2305 15.838 22.8564 15.209 23.6258 15.209C24.3953 15.209 25.0212 15.838 25.0212 16.6112C25.0212 17.3844 24.3953 18.0134 23.6258 18.0134Z" stroke="black" stroke-width="0.917968" stroke-miterlimit="10" stroke-linecap="round" stroke-linejoin="round"/>
<path d="M8.21569 29.0313C7.44624 29.0313 6.82031 28.4023 6.82031 27.6291C6.82031 26.8559 7.44624 26.2269 8.21569 26.2269C8.98513 26.2269 9.61112 26.8559 9.61112 27.6291C9.61112 28.4023 8.98513 29.0313 8.21569 29.0313Z" stroke="black" stroke-width="0.917968" stroke-miterlimit="10" stroke-linecap="round" stroke-linejoin="round"/>
<path d="M24.5946 29.1111C23.8252 29.1111 23.1992 28.482 23.1992 27.7089C23.1992 26.9357 23.8252 26.3066 24.5946 26.3066C25.364 26.3066 25.99 26.9357 25.99 27.7089C25.99 28.482 25.364 29.1111 24.5946 29.1111Z" stroke="black" stroke-width="0.917968" stroke-miterlimit="10" stroke-linecap="round" stroke-linejoin="round"/>
<path d="M27.8486 8.20221C27.0791 8.20221 26.4531 7.57316 26.4531 6.79998C26.4531 6.02681 27.0791 5.39776 27.8486 5.39776C28.618 5.39776 29.2439 6.02681 29.2439 6.79998C29.2439 7.57316 28.618 8.20221 27.8486 8.20221Z" stroke="black" stroke-width="0.917968" stroke-miterlimit="10" stroke-linecap="round" stroke-linejoin="round"/>
<path d="M24.3055 4.90936C23.5361 4.90936 22.9102 4.28037 22.9102 3.50714C22.9102 2.73396 23.5361 2.10497 24.3055 2.10497C25.075 2.10497 25.701 2.73396 25.701 3.50714C25.701 4.28037 25.075 4.90936 24.3055 4.90936Z" stroke="black" stroke-width="0.917968" stroke-miterlimit="10" stroke-linecap="round" stroke-linejoin="round"/>
<path d="M8.21569 4.90936C7.44624 4.90936 6.82031 4.28037 6.82031 3.50714C6.82031 2.73396 7.44624 2.10497 8.21569 2.10497C8.98513 2.10497 9.61112 2.73396 9.61112 3.50714C9.61112 4.28037 8.98513 4.90936 8.21569 4.90936Z" stroke="black" stroke-width="0.917968" stroke-miterlimit="10" stroke-linecap="round" stroke-linejoin="round"/>
<path d="M1.85436 15.1566C1.08492 15.1566 0.458984 14.5276 0.458984 13.7544C0.458984 12.9812 1.08492 12.3522 1.85436 12.3522C2.6238 12.3522 3.24973 12.9812 3.24973 13.7544C3.24973 14.5276 2.6238 15.1566 1.85436 15.1566Z" stroke="black" stroke-width="0.917968" stroke-miterlimit="10" stroke-linecap="round" stroke-linejoin="round"/>
</g>
</g>
<defs>
<clipPath id="clip0_138_2829">
<rect width="31.3333" height="31.3333" fill="white"/>
</clipPath>
</defs>
</svg>
